<svg width="661" height="507" viewBox="0 0 661 507" fill="none" xmlns="http://www.w3.org/2000/svg">
<path d="M330.49 506.295C471.727 506.295 586.223 499.611 586.223 491.365C586.223 483.119 471.727 476.434 330.49 476.434C189.253 476.434 74.7578 483.119 74.7578 491.365C74.7578 499.611 189.253 506.295 330.49 506.295Z" fill="#F5F5F5"/>
<path d="M315.193 373.002H60.5156C58.5193 372.998 56.6057 372.204 55.1941 370.792C53.7825 369.38 52.9879 367.467 52.9844 365.47V7.46609C53.0052 5.48121 53.8074 3.5845 55.2172 2.18709C56.6269 0.789673 58.5306 0.00415454 60.5156 0.000793457H315.193C317.188 0.00428755 319.1 0.799299 320.51 2.2113C321.919 3.62331 322.711 5.53691 322.711 7.53204V365.47C322.711 367.466 321.919 369.379 320.51 370.791C319.1 372.203 317.188 372.998 315.193 373.002ZM60.5156 0.264586C58.6067 0.268072 56.777 1.02792 55.4272 2.37771C54.0775 3.7275 53.3176 5.5572 53.3141 7.46609V365.47C53.3176 367.379 54.0775 369.209 55.4272 370.559C56.777 371.909 58.6067 372.668 60.5156 372.672H315.193C317.101 372.668 318.929 371.908 320.277 370.558C321.624 369.208 322.381 367.378 322.381 365.47V7.46609C322.381 5.55841 321.624 3.72868 320.277 2.37852C318.929 1.02835 317.101 0.26808 315.193 0.264586H60.5156Z" fill="#E6E6E6"/>
<path d="M600.49 373.002H345.799C343.804 372.998 341.892 372.203 340.482 370.791C339.073 369.379 338.281 367.466 338.281 365.47V7.46609C338.299 5.48241 339.098 3.58569 340.506 2.18792C341.913 0.790139 343.816 0.0041916 345.799 0.000793457H600.49C602.474 0.0041916 604.376 0.790139 605.784 2.18792C607.191 3.58569 607.991 5.48241 608.008 7.46609V365.47C608.008 367.466 607.216 369.379 605.807 370.791C604.397 372.203 602.485 372.998 600.49 373.002ZM345.799 0.264586C343.892 0.26808 342.063 1.02835 340.716 2.37852C339.368 3.72868 338.611 5.55841 338.611 7.46609V365.47C338.611 367.378 339.368 369.208 340.716 370.558C342.063 371.908 343.892 372.668 345.799 372.672H600.49C602.4 372.668 604.231 371.909 605.583 370.56C606.935 369.21 607.698 367.381 607.705 365.47V7.46609C607.698 5.55599 606.935 3.72631 605.583 2.3769C604.231 1.02748 602.4 0.268059 600.49 0.264586H345.799Z" fill="#E6E6E6"/>
<path d="M114.112 439.846H59.7578V440.176H114.112V439.846Z" fill="#E0E0E0"/>
<path d="M224.903 437.208H170.391V437.538H224.903V437.208Z" fill="#E0E0E0"/>
<path d="M295.838 437.208H282.648V437.538H295.838V437.208Z" fill="#E0E0E0"/>
<path d="M164.002 448.472H103V448.802H164.002V448.472Z" fill="#E0E0E0"/>
<path d="M374.997 439.675H346.508V440.005H374.997V439.675Z" fill="#E0E0E0"/>
<path d="M423.573 439.675H386.734V440.005H423.573V439.675Z" fill="#E0E0E0"/>
<path d="M601.238 445.254H518.883V445.584H601.238V445.254Z" fill="#E0E0E0"/>
<path d="M660.236 426.907H0.757812V427.237H660.236V426.907Z" fill="#EBEBEB"/>
<path opacity="0.8" d="M442.385 27.3691L439.101 72.583C438.99 74.1152 438.34 75.5586 437.268 76.6586C436.657 77.3103 435.92 77.8311 435.101 78.1894C434.283 78.5476 433.4 78.7358 432.507 78.7425H396.248C395.456 78.7506 394.671 78.5935 393.943 78.2812C393.215 77.9688 392.561 77.5082 392.021 76.9285C391.481 76.3489 391.068 75.6631 390.808 74.9149C390.548 74.1667 390.447 73.3725 390.511 72.583L393.808 27.3691C393.943 25.7055 394.694 24.152 395.913 23.0127C397.133 21.8735 398.734 21.2305 400.403 21.2096H436.661C437.454 21.1972 438.24 21.3516 438.97 21.6627C439.699 21.9738 440.355 22.4346 440.894 23.0153C441.434 23.5961 441.846 24.2838 442.103 25.0338C442.359 25.7838 442.456 26.5795 442.385 27.3691Z" fill="#E0E0E0"/>
<path d="M426.403 49.8537C427.779 43.2799 424.577 37.0473 419.251 35.9327C413.925 34.818 408.492 39.2436 407.116 45.8174C405.74 52.3912 408.943 58.6238 414.269 59.7385C419.595 60.8531 425.028 56.4275 426.403 49.8537Z" fill="white"/>
<path d="M431.237 75.6297H398.052C395.942 75.6297 394.491 74.6141 394.438 73.2029C394.359 71.1453 405.121 62.2423 415.33 63.0205H415.568C421.839 63.2427 427.854 65.5651 432.648 69.6153C437.581 73.493 432.925 75.6297 431.237 75.6297Z" fill="white"/>
<path d="M255.312 77.0938C251.845 77.0802 248.506 75.7782 245.944 73.4407C243.382 71.1032 241.781 67.8971 241.45 64.445C241.297 62.8055 241.486 61.152 242.005 59.5896C242.525 58.0271 243.364 56.5899 244.47 55.3693C245.575 54.1486 246.922 53.1713 248.425 52.4994C249.929 51.8275 251.556 51.4758 253.202 51.4665C256.67 51.4802 260.009 52.7822 262.571 55.1196C265.132 57.4571 266.734 60.6632 267.064 64.1153C267.218 65.7548 267.029 67.4083 266.509 68.9708C265.989 70.5332 265.15 71.9704 264.045 73.1911C262.94 74.4117 261.593 75.389 260.089 76.0609C258.586 76.7328 256.959 77.0845 255.312 77.0938ZM253.769 58.2723C252.996 58.2723 252.232 58.4341 251.525 58.7473C250.818 59.0605 250.185 59.5182 249.665 60.0909C249.146 60.6636 248.752 61.3387 248.51 62.0727C248.267 62.8066 248.181 63.5833 248.256 64.3527C248.418 65.9692 249.172 67.469 250.372 68.5643C251.572 69.6596 253.134 70.2734 254.759 70.288C255.531 70.2862 256.294 70.123 256.999 69.809C257.704 69.495 258.336 69.037 258.854 68.4645C259.372 67.892 259.764 67.2176 260.006 66.4845C260.248 65.7515 260.334 64.9759 260.259 64.2076C260.097 62.5978 259.349 61.1035 258.158 60.0091C256.966 58.9147 255.413 58.2966 253.796 58.2723H253.769Z" fill="#E0E0E0"/>
<path d="M255.978 57.2831L251.124 57.349L248.539 26.0634L253.406 26.0106L255.978 57.2831Z" fill="#E0E0E0"/>
<path d="M258.007 27.4087L248.88 27.5274L248.484 22.6605L257.612 22.5417L258.007 27.4087Z" fill="#E0E0E0"/>
<path d="M258.537 33.6605L249.95 33.7661L249.555 28.8991L258.128 28.7936L258.537 33.6605Z" fill="#E0E0E0"/>
<path d="M259.276 42.4712L251.784 42.5635L251.375 37.7098L258.867 37.6174L259.276 42.4712Z" fill="#E0E0E0"/>
<path d="M105.363 342.982C105.391 343.376 105.439 343.768 105.508 344.156C105.962 346.686 107.226 349.001 109.108 350.751C111.247 352.78 114.074 353.925 117.022 353.956H228.461C231.102 353.999 233.652 352.997 235.559 351.17C237.466 349.342 238.574 346.836 238.643 344.196C238.673 342.631 238.393 341.076 237.82 339.621C237.246 338.165 236.391 336.837 235.302 335.713C234.214 334.589 232.914 333.691 231.477 333.071C230.04 332.451 228.495 332.121 226.931 332.101H115.505C114.105 332.083 112.716 332.358 111.428 332.909C110.14 333.459 108.982 334.273 108.027 335.298C107.072 336.322 106.341 337.535 105.883 338.858C105.424 340.182 105.247 341.586 105.363 342.982Z" fill="#F0F0F0"/>
<path d="M238.687 344.156C238.679 344.51 238.644 344.863 238.582 345.211C238.26 342.333 236.897 339.671 234.75 337.728C232.602 335.784 229.818 334.693 226.922 334.66L108.414 334.844C110.329 333.01 112.885 331.997 115.536 332.022H226.975C228.549 332.01 230.109 332.317 231.561 332.926C233.012 333.534 234.325 334.431 235.42 335.562C236.515 336.693 237.369 338.034 237.931 339.504C238.493 340.975 238.75 342.544 238.687 344.117V344.156Z" fill="#E0E0E0"/>
<path d="M219.612 337.324L219.982 342.6L224.98 340.74L226.115 343.378L221.023 345.119L224.585 349.59L222.342 351.279L218.874 346.636L216.104 351.279L213.637 349.59L216.526 345.119L211.25 343.444L212.002 340.806L217.278 342.6L216.908 337.324H219.612Z" fill="white"/>
<path d="M189.131 337.324L189.514 342.6L194.499 340.74L195.634 343.378L190.529 345.053L194.104 349.524L191.796 351.213L188.327 346.57L185.557 351.213L183.09 349.524L185.979 345.053L180.703 343.378L181.468 340.74L186.744 342.534L186.375 337.258L189.131 337.324Z" fill="white"/>
<path d="M158.66 337.324L159.029 342.6L164.028 340.74L165.163 343.378L160.058 345.053L163.619 349.524L161.311 351.213L157.842 346.57L155.073 351.213L152.606 349.524L155.495 345.053L150.219 343.378L150.984 340.74L156.26 342.534L155.89 337.258L158.66 337.324Z" fill="white"/>
<path d="M128.181 337.324L128.55 342.6L133.549 340.74L134.684 343.378L129.579 345.053L133.14 349.524L130.845 351.213L127.377 346.636L124.594 351.279L122.101 349.59L125.002 345.119L119.727 343.444L120.492 340.806L125.767 342.6L125.398 337.324H128.181Z" fill="white"/>
<path d="M202.212 328.21H197.016L197.029 326.891H202.225L202.212 328.21Z" fill="#E0E0E0"/>
<path d="M224.542 328.21H207.594L207.62 326.891H224.569L224.542 328.21Z" fill="#E0E0E0"/>
<g opacity="0.8">
<path d="M356.062 321.562L377.087 353.916L446.411 284.592C446.479 284.532 446.534 284.46 446.573 284.379C446.613 284.298 446.636 284.21 446.641 284.12C446.647 284.03 446.635 283.939 446.605 283.854C446.576 283.769 446.53 283.69 446.47 283.623C446.411 283.555 446.338 283.5 446.257 283.46C446.176 283.421 446.088 283.398 445.998 283.392C445.908 283.387 445.818 283.399 445.732 283.428C445.647 283.458 445.568 283.504 445.501 283.563L379.434 335.372L366.957 315.258L356.062 321.562Z" fill="#E0E0E0"/>
</g>
<path opacity="0.1" d="M343.504 91.2989L293.727 277.483H310.464L359.688 91.2989H343.504Z" fill="white"/>
<path opacity="0.1" d="M369.348 91.2989L319.57 277.483H352.782L402.005 91.2989H369.348Z" fill="white"/>
<path d="M548.542 259.281L559.094 109.843C559.192 108.695 559.048 107.539 558.671 106.45C558.294 105.361 557.692 104.364 556.905 103.522C556.118 102.68 555.163 102.013 554.102 101.564C553.041 101.115 551.897 100.893 550.745 100.914L289.934 101.138C287.508 101.172 285.181 102.105 283.404 103.758C281.628 105.41 280.528 107.664 280.319 110.081L269.833 259.532C269.737 260.681 269.883 261.837 270.262 262.926C270.64 264.015 271.243 265.012 272.031 265.854C272.819 266.695 273.775 267.362 274.837 267.811C275.899 268.26 277.043 268.482 278.196 268.461L538.901 268.237C541.334 268.213 543.671 267.281 545.454 265.625C547.238 263.968 548.339 261.706 548.542 259.281Z" fill="#263238"/>
<path d="M545.19 256.023L555.741 106.586C555.842 105.437 555.699 104.28 555.323 103.19C554.946 102.1 554.345 101.102 553.557 100.26C552.77 99.4175 551.814 98.7505 550.752 98.3019C549.69 97.8534 548.545 97.6334 547.392 97.6563L286.582 97.8805C284.156 97.9113 281.829 98.8443 280.054 100.498C278.279 102.151 277.183 104.406 276.98 106.823L266.428 256.274C266.33 257.422 266.474 258.578 266.851 259.667C267.228 260.756 267.83 261.754 268.617 262.595C269.404 263.437 270.359 264.104 271.42 264.553C272.481 265.003 273.625 265.224 274.777 265.203L535.575 264.979C538.004 264.948 540.334 264.014 542.112 262.358C543.889 260.703 544.987 258.444 545.19 256.023Z" fill="#5250F7"/>
<path opacity="0.6" d="M538.278 258.239C537.742 258.732 537.041 259.005 536.313 259.004L275.502 259.228C275.084 259.224 274.67 259.134 274.287 258.966C273.904 258.797 273.559 258.552 273.274 258.247C272.988 257.941 272.767 257.581 272.624 257.187C272.481 256.794 272.419 256.375 272.442 255.957L282.994 106.52C283.035 105.794 283.356 105.113 283.891 104.62C284.423 104.122 285.127 103.848 285.856 103.855L546.667 103.631C547.085 103.636 547.498 103.725 547.881 103.894C548.264 104.063 548.609 104.307 548.895 104.613C549.181 104.919 549.402 105.279 549.545 105.673C549.688 106.066 549.75 106.484 549.726 106.902L539.175 256.34C539.127 257.064 538.807 257.743 538.278 258.239Z" fill="white"/>
<path d="M451.534 176.081H359.985C359.178 176.095 358.404 176.4 357.805 176.941C357.206 177.482 356.823 178.221 356.727 179.023L355.316 192.41C355.271 192.782 355.306 193.16 355.418 193.517C355.53 193.875 355.717 194.204 355.967 194.484C356.217 194.763 356.523 194.986 356.866 195.138C357.208 195.29 357.579 195.367 357.954 195.365H449.503C450.312 195.348 451.089 195.041 451.69 194.498C452.29 193.955 452.675 193.214 452.774 192.41L454.172 179.023C454.215 178.652 454.178 178.276 454.065 177.92C453.952 177.564 453.765 177.236 453.515 176.958C453.266 176.68 452.96 176.458 452.619 176.307C452.277 176.156 451.907 176.079 451.534 176.081Z" fill="white"/>
<path d="M370.877 230.752H356.593C355.783 230.768 355.007 231.076 354.406 231.619C353.805 232.162 353.42 232.903 353.322 233.707L351.924 247.094C351.881 247.465 351.917 247.841 352.03 248.197C352.143 248.553 352.331 248.881 352.58 249.159C352.83 249.437 353.135 249.659 353.477 249.81C353.818 249.961 354.188 250.038 354.562 250.035H368.846C369.654 250.019 370.428 249.714 371.029 249.174C371.63 248.634 372.016 247.895 372.117 247.094L373.515 233.707C373.56 233.335 373.525 232.957 373.413 232.6C373.301 232.242 373.114 231.913 372.864 231.633C372.614 231.354 372.308 231.13 371.966 230.979C371.623 230.827 371.252 230.749 370.877 230.752Z" fill="white"/>
<path d="M395.541 230.752H381.257C380.447 230.768 379.671 231.076 379.07 231.619C378.469 232.162 378.084 232.903 377.986 233.707L376.588 247.094C376.545 247.465 376.581 247.841 376.694 248.197C376.808 248.553 376.995 248.881 377.244 249.159C377.494 249.437 377.799 249.659 378.141 249.81C378.482 249.961 378.852 250.038 379.226 250.035H393.51C394.318 250.019 395.092 249.714 395.693 249.174C396.294 248.634 396.68 247.895 396.781 247.094L398.179 233.707C398.224 233.335 398.189 232.957 398.077 232.6C397.965 232.242 397.778 231.913 397.528 231.633C397.278 231.354 396.972 231.13 396.63 230.979C396.287 230.827 395.916 230.749 395.541 230.752Z" fill="white"/>
<path d="M420.192 230.752H405.921C405.111 230.768 404.335 231.076 403.734 231.619C403.133 232.162 402.748 232.903 402.65 233.707L401.252 247.094C401.209 247.465 401.245 247.841 401.358 248.197C401.472 248.553 401.659 248.881 401.908 249.159C402.158 249.437 402.463 249.659 402.805 249.81C403.147 249.961 403.516 250.038 403.89 250.035H418.174C418.982 250.019 419.757 249.714 420.357 249.174C420.958 248.634 421.344 247.895 421.445 247.094L422.83 233.707C422.875 233.335 422.84 232.957 422.728 232.6C422.616 232.242 422.428 231.913 422.179 231.633C421.929 231.354 421.623 231.13 421.28 230.979C420.938 230.827 420.567 230.749 420.192 230.752Z" fill="white"/>
<path d="M444.869 230.752H430.585C429.776 230.768 428.999 231.076 428.398 231.619C427.797 232.162 427.412 232.903 427.314 233.707L425.916 247.094C425.873 247.465 425.909 247.841 426.022 248.197C426.136 248.553 426.323 248.881 426.573 249.159C426.822 249.437 427.127 249.659 427.469 249.81C427.811 249.961 428.18 250.038 428.554 250.035H442.838C443.646 250.019 444.421 249.714 445.021 249.174C445.622 248.634 446.008 247.895 446.109 247.094L447.507 233.707C447.552 233.335 447.517 232.957 447.405 232.6C447.293 232.242 447.106 231.913 446.856 231.633C446.607 231.354 446.3 231.13 445.958 230.979C445.615 230.827 445.244 230.749 444.869 230.752Z" fill="white"/>
<path d="M428.725 222.298H371.469C370.736 222.315 370.008 222.174 369.334 221.883C368.661 221.593 368.058 221.161 367.567 220.616C367.076 220.071 366.708 219.427 366.49 218.727C366.271 218.027 366.206 217.288 366.299 216.56L366.985 209.965C367.175 208.439 367.909 207.031 369.053 206.002C370.196 204.972 371.672 204.389 373.211 204.36H430.466C431.2 204.344 431.929 204.487 432.602 204.779C433.276 205.071 433.879 205.505 434.369 206.05C434.86 206.596 435.227 207.241 435.446 207.942C435.665 208.643 435.73 209.382 435.637 210.11L434.951 216.705C434.758 218.23 434.023 219.634 432.879 220.661C431.736 221.688 430.262 222.269 428.725 222.298ZM373.211 205.692C371.996 205.72 370.832 206.183 369.929 206.996C369.026 207.809 368.445 208.919 368.291 210.124L367.605 216.718C367.532 217.263 367.578 217.816 367.741 218.341C367.903 218.865 368.178 219.348 368.545 219.756C368.913 220.164 369.365 220.487 369.87 220.702C370.375 220.918 370.921 221.021 371.469 221.005H428.725C429.939 220.98 431.103 220.52 432.006 219.709C432.909 218.899 433.49 217.79 433.645 216.587L434.331 209.992C434.404 209.448 434.358 208.894 434.195 208.369C434.033 207.845 433.758 207.362 433.391 206.954C433.023 206.546 432.571 206.223 432.066 206.008C431.561 205.792 431.015 205.689 430.466 205.705L373.211 205.692Z" fill="#5250F7"/>
<path d="M454.829 148.199H363.28C362.473 148.218 361.7 148.527 361.102 149.07C360.504 149.612 360.12 150.352 360.023 151.153L358.611 164.541C358.568 164.912 358.605 165.287 358.718 165.643C358.831 165.999 359.019 166.327 359.268 166.605C359.517 166.883 359.823 167.105 360.164 167.256C360.506 167.407 360.876 167.484 361.249 167.482H452.785C453.592 167.466 454.367 167.16 454.968 166.62C455.568 166.08 455.955 165.342 456.056 164.541L457.454 151.153C457.499 150.782 457.464 150.406 457.353 150.049C457.241 149.693 457.055 149.364 456.807 149.085C456.559 148.805 456.254 148.582 455.913 148.429C455.572 148.276 455.203 148.198 454.829 148.199Z" fill="white"/>
<path d="M371.116 185.723C371.172 185.309 371.137 184.889 371.014 184.49C370.891 184.091 370.684 183.724 370.405 183.413C370.127 183.102 369.785 182.855 369.402 182.69C369.019 182.524 368.605 182.443 368.188 182.452C367.292 182.473 366.434 182.815 365.768 183.415C365.103 184.015 364.674 184.834 364.561 185.723C364.51 186.136 364.548 186.556 364.673 186.953C364.799 187.35 365.008 187.715 365.287 188.024C365.566 188.333 365.908 188.579 366.291 188.744C366.673 188.909 367.086 188.99 367.502 188.981C368.396 188.962 369.252 188.623 369.916 188.025C370.58 187.427 371.006 186.61 371.116 185.723Z" fill="#263238"/>
<path d="M381.188 185.723C381.242 185.309 381.205 184.888 381.081 184.489C380.956 184.091 380.747 183.723 380.468 183.413C380.189 183.102 379.846 182.856 379.463 182.69C379.079 182.524 378.665 182.443 378.247 182.452C377.352 182.471 376.494 182.812 375.83 183.413C375.166 184.014 374.741 184.834 374.633 185.723C374.58 186.135 374.616 186.555 374.74 186.952C374.864 187.349 375.072 187.715 375.35 188.024C375.628 188.333 375.969 188.579 376.351 188.744C376.733 188.909 377.145 188.99 377.561 188.981C378.456 188.963 379.314 188.624 379.98 188.026C380.646 187.428 381.075 186.611 381.188 185.723Z" fill="#263238"/>
<path d="M391.257 185.723C391.31 185.309 391.273 184.888 391.149 184.489C391.025 184.091 390.816 183.723 390.537 183.413C390.257 183.102 389.914 182.856 389.531 182.69C389.148 182.524 388.733 182.443 388.316 182.452C387.42 182.471 386.562 182.812 385.898 183.413C385.234 184.014 384.809 184.834 384.702 185.723C384.651 186.136 384.689 186.556 384.814 186.953C384.939 187.35 385.149 187.715 385.428 188.024C385.707 188.333 386.049 188.579 386.431 188.744C386.813 188.909 387.227 188.99 387.643 188.981C388.536 188.962 389.393 188.623 390.057 188.025C390.72 187.427 391.146 186.61 391.257 185.723Z" fill="#263238"/>
<path d="M401.316 185.723C401.372 185.309 401.337 184.889 401.214 184.49C401.091 184.091 400.884 183.724 400.606 183.413C400.327 183.102 399.985 182.855 399.602 182.69C399.219 182.524 398.805 182.443 398.388 182.452C397.493 182.471 396.635 182.812 395.971 183.413C395.307 184.014 394.882 184.834 394.774 185.723C394.72 186.141 394.757 186.565 394.885 186.966C395.012 187.368 395.227 187.736 395.512 188.046C395.798 188.355 396.148 188.598 396.538 188.758C396.928 188.917 397.348 188.989 397.768 188.968C398.648 188.934 399.487 188.59 400.137 187.996C400.787 187.402 401.205 186.596 401.316 185.723Z" fill="#263238"/>
<path d="M411.595 185.723C411.648 185.309 411.611 184.888 411.487 184.489C411.362 184.091 411.154 183.723 410.874 183.413C410.595 183.102 410.252 182.856 409.869 182.69C409.485 182.524 409.071 182.443 408.653 182.452C407.758 182.471 406.9 182.812 406.236 183.413C405.572 184.014 405.147 184.834 405.039 185.723C404.986 186.135 405.023 186.555 405.146 186.952C405.27 187.349 405.478 187.715 405.756 188.024C406.034 188.333 406.375 188.579 406.757 188.744C407.139 188.909 407.552 188.99 407.968 188.981C408.862 188.963 409.721 188.624 410.386 188.026C411.052 187.428 411.481 186.611 411.595 185.723Z" fill="#263238"/>
<path d="M374.411 157.84C374.467 157.427 374.432 157.007 374.309 156.609C374.187 156.211 373.979 155.844 373.7 155.535C373.422 155.225 373.079 154.979 372.697 154.815C372.314 154.65 371.9 154.571 371.483 154.582C370.59 154.601 369.733 154.94 369.07 155.538C368.406 156.137 367.98 156.954 367.869 157.84C367.814 158.253 367.849 158.673 367.971 159.071C368.094 159.469 368.302 159.836 368.581 160.146C368.859 160.456 369.202 160.701 369.584 160.866C369.967 161.03 370.381 161.109 370.798 161.098C371.692 161.082 372.55 160.744 373.214 160.145C373.878 159.547 374.303 158.728 374.411 157.84Z" fill="#263238"/>
<path d="M384.487 157.84C384.538 157.427 384.5 157.008 384.375 156.611C384.25 156.214 384.04 155.848 383.761 155.539C383.482 155.23 383.14 154.985 382.758 154.82C382.375 154.654 381.962 154.574 381.546 154.582C380.662 154.613 379.818 154.958 379.165 155.555C378.512 156.152 378.094 156.962 377.985 157.84C377.931 158.253 377.968 158.672 378.092 159.069C378.215 159.466 378.423 159.832 378.701 160.141C378.979 160.45 379.321 160.696 379.702 160.861C380.084 161.026 380.497 161.107 380.913 161.098C381.799 161.07 382.646 160.727 383.302 160.129C383.957 159.532 384.378 158.72 384.487 157.84Z" fill="#263238"/>
<path d="M394.548 157.84C394.601 157.428 394.565 157.009 394.441 156.612C394.317 156.214 394.109 155.849 393.831 155.539C393.553 155.23 393.212 154.984 392.83 154.819C392.448 154.654 392.036 154.573 391.62 154.582C390.725 154.6 389.867 154.939 389.201 155.537C388.535 156.135 388.106 156.953 387.993 157.84C387.939 158.254 387.976 158.674 388.1 159.072C388.225 159.47 388.434 159.837 388.713 160.146C388.993 160.456 389.336 160.701 389.719 160.865C390.103 161.03 390.517 161.109 390.934 161.098C391.828 161.082 392.686 160.744 393.35 160.145C394.014 159.547 394.44 158.728 394.548 157.84Z" fill="#263238"/>
<path d="M404.615 157.84C404.67 157.427 404.635 157.007 404.513 156.609C404.39 156.211 404.182 155.844 403.903 155.535C403.625 155.225 403.282 154.979 402.9 154.815C402.517 154.65 402.103 154.571 401.687 154.582C400.793 154.601 399.937 154.94 399.273 155.538C398.609 156.137 398.183 156.954 398.073 157.84C398.017 158.253 398.052 158.673 398.175 159.071C398.297 159.469 398.505 159.836 398.784 160.146C399.062 160.456 399.405 160.701 399.787 160.866C400.17 161.03 400.584 161.109 401.001 161.098C401.895 161.082 402.753 160.744 403.417 160.145C404.081 159.547 404.507 158.728 404.615 157.84Z" fill="#263238"/>
<path d="M414.688 157.84C414.74 157.427 414.701 157.008 414.576 156.611C414.451 156.214 414.242 155.848 413.963 155.539C413.684 155.23 413.341 154.985 412.959 154.82C412.577 154.654 412.163 154.574 411.747 154.582C410.854 154.601 409.997 154.94 409.334 155.538C408.67 156.137 408.244 156.954 408.133 157.84C408.08 158.254 408.116 158.674 408.241 159.072C408.365 159.47 408.574 159.837 408.854 160.146C409.133 160.456 409.477 160.701 409.86 160.865C410.243 161.03 410.658 161.109 411.074 161.098C411.969 161.082 412.827 160.744 413.491 160.145C414.155 159.547 414.58 158.728 414.688 157.84Z" fill="#263238"/>
<path d="M424.759 157.84C424.812 157.428 424.776 157.009 424.652 156.612C424.528 156.214 424.32 155.849 424.042 155.539C423.764 155.23 423.423 154.984 423.041 154.819C422.659 154.654 422.246 154.573 421.831 154.582C420.936 154.6 420.078 154.939 419.412 155.537C418.746 156.135 418.317 156.953 418.204 157.84C418.15 158.254 418.187 158.674 418.311 159.072C418.436 159.47 418.645 159.837 418.924 160.146C419.204 160.456 419.547 160.701 419.93 160.865C420.314 161.03 420.728 161.109 421.145 161.098C422.039 161.082 422.897 160.744 423.561 160.145C424.225 159.547 424.651 158.728 424.759 157.84Z" fill="#263238"/>
<path d="M416.234 118.68L415.522 125.447C415.471 125.741 415.323 126.01 415.1 126.209C414.877 126.407 414.593 126.525 414.295 126.541C414.155 126.547 414.015 126.521 413.885 126.466C413.756 126.412 413.64 126.329 413.545 126.225C413.451 126.12 413.381 125.997 413.339 125.862C413.298 125.728 413.287 125.586 413.306 125.447L414.018 118.68C414.081 118.179 414.035 117.671 413.883 117.189C413.732 116.707 413.479 116.264 413.141 115.889C412.803 115.513 412.389 115.215 411.926 115.014C411.463 114.813 410.962 114.714 410.457 114.724H408.017C406.933 114.749 405.894 115.163 405.088 115.889C404.282 116.614 403.763 117.605 403.625 118.68L403.005 124.959H400.789L401.409 118.68C401.618 117.002 402.425 115.455 403.683 114.324C404.94 113.192 406.563 112.552 408.254 112.521H410.681C411.469 112.501 412.251 112.652 412.975 112.963C413.699 113.274 414.347 113.738 414.874 114.323C415.402 114.909 415.797 115.601 416.031 116.353C416.266 117.105 416.335 117.899 416.234 118.68Z" fill="#5250F7"/>
<path d="M416.238 125.196L414.853 138.386C414.799 138.795 414.601 139.172 414.294 139.448C413.986 139.723 413.591 139.88 413.178 139.889H399.988C399.798 139.891 399.61 139.852 399.437 139.774C399.264 139.697 399.109 139.583 398.984 139.44C398.858 139.297 398.766 139.129 398.711 138.947C398.657 138.765 398.643 138.574 398.669 138.386L400.054 125.196C400.08 124.925 400.17 124.664 400.317 124.435C400.464 124.205 400.663 124.014 400.898 123.877C401.15 123.73 401.437 123.652 401.729 123.653H414.919C415.189 123.65 415.454 123.723 415.684 123.864C415.896 124.008 416.061 124.211 416.159 124.448C416.257 124.684 416.285 124.944 416.238 125.196Z" fill="#5250F7"/>
<path d="M487.284 97.6299C487.11 97.6299 486.942 97.5604 486.818 97.4367C486.694 97.313 486.625 97.1453 486.625 96.9704C486.625 96.7955 486.694 96.6278 486.818 96.5041C486.942 96.3804 487.11 96.3109 487.284 96.3109L519.52 96.1263C519.695 96.1263 519.862 96.1958 519.986 96.3194C520.11 96.4431 520.179 96.6109 520.179 96.7858C520.179 96.9607 520.11 97.1284 519.986 97.2521C519.862 97.3757 519.695 97.4452 519.52 97.4452L487.298 97.6299H487.284Z" fill="#263238"/>
<path d="M525.706 97.4057C525.531 97.4057 525.364 97.3362 525.24 97.2125C525.116 97.0888 525.047 96.9211 525.047 96.7462C525.047 96.5713 525.116 96.4036 525.24 96.2799C525.364 96.1562 525.531 96.0867 525.706 96.0867H537.102C537.277 96.0867 537.445 96.1562 537.568 96.2799C537.692 96.4036 537.762 96.5713 537.762 96.7462C537.762 96.9211 537.692 97.0888 537.568 97.2125C537.445 97.3362 537.277 97.4057 537.102 97.4057H525.706Z" fill="#263238"/>
<g opacity="0.3">
<path d="M310.849 103.816H347.78L310.229 259.228H280.461C279.602 259.211 278.758 259.001 277.992 258.611C277.226 258.222 276.558 257.665 276.038 256.981C275.518 256.297 275.159 255.505 274.988 254.663C274.818 253.821 274.84 252.951 275.053 252.119L310.849 103.816Z" fill="white"/>
<path d="M364.136 103.816H379.792L342.281 259.228H326.625L364.136 103.816Z" fill="white"/>
</g>
<path d="M115.048 55.3046H122.54C120.785 55.2796 119.044 55.6229 117.43 56.3122C115.816 57.0016 114.364 58.0217 113.168 59.3068C111.973 60.5919 111.06 62.1134 110.488 63.7731C109.917 65.4328 109.7 67.1939 109.852 68.9426L125.745 296.199C126.046 299.879 127.707 303.314 130.404 305.836C133.101 308.357 136.641 309.784 140.333 309.837H132.854C129.161 309.784 125.62 308.358 122.921 305.837C120.222 303.315 118.558 299.88 118.253 296.199L102.32 68.9426C102.169 67.1905 102.387 65.4261 102.96 63.7636C103.534 62.1011 104.45 60.5777 105.65 59.2919C106.85 58.0062 108.307 56.9869 109.926 56.3C111.545 55.6131 113.29 55.274 115.048 55.3046Z" fill="#5250F7"/>
<path d="M115.046 55.3046H122.538C120.783 55.2796 119.042 55.6229 117.428 56.3123C115.813 57.0016 114.362 58.0218 113.166 59.3069C111.97 60.592 111.057 62.1135 110.486 63.7732C109.915 65.4329 109.698 67.1939 109.849 68.9426L125.743 296.199C126.044 299.879 127.705 303.314 130.402 305.836C133.099 308.357 136.639 309.784 140.33 309.837H132.852C125.321 309.837 117.723 303.73 117.196 296.199L101.302 68.9426C100.775 61.4114 107.515 55.3046 115.046 55.3046Z" fill="#263238"/>
<path d="M135.084 309.85H226.751C228.511 309.882 230.257 309.545 231.878 308.859C233.498 308.173 234.957 307.154 236.158 305.868C237.359 304.582 238.277 303.058 238.851 301.394C239.426 299.731 239.644 297.965 239.492 296.212L223.546 68.9426C223.248 65.2582 221.586 61.8175 218.886 59.293C216.186 56.7685 212.641 55.3417 208.945 55.2914H117.291C115.535 55.2662 113.793 55.6098 112.177 56.3C110.562 56.9902 109.11 58.0115 107.914 59.2981C106.718 60.5846 105.806 62.1078 105.235 63.769C104.665 65.4303 104.449 67.1928 104.603 68.9426L120.43 296.199C120.732 299.891 122.402 303.337 125.113 305.863C127.824 308.388 131.379 309.81 135.084 309.85Z" fill="#5250F7"/>
<g opacity="0.6">
<path d="M208.703 59.7099C211.271 59.7504 213.732 60.7453 215.607 62.5007C217.482 64.2561 218.636 66.6465 218.846 69.2063L234.739 296.463C234.847 297.622 234.709 298.792 234.333 299.894C233.958 300.997 233.354 302.008 232.561 302.861C231.768 303.714 230.803 304.39 229.731 304.844C228.658 305.298 227.502 305.521 226.337 305.497H134.683C132.114 305.457 129.651 304.463 127.774 302.708C125.897 300.952 124.74 298.562 124.527 296.001L108.7 68.7447C108.592 67.5906 108.729 66.4268 109.1 65.3288C109.472 64.2308 110.07 63.2232 110.856 62.3713C111.642 61.5194 112.598 60.8422 113.663 60.3837C114.727 59.9252 115.876 59.6956 117.035 59.7099H208.703Z" fill="white"/>
</g>
<g opacity="0.3">
<path d="M182.764 305.471H146.242L176.394 59.7099H205.819C207.09 59.7052 208.348 59.9628 209.515 60.4666C210.681 60.9705 211.731 61.7097 212.599 62.638L182.764 305.471Z" fill="white"/>
<path d="M139.691 305.471H131.461L161.612 59.6835H169.843L139.691 305.471Z" fill="white"/>
</g>
<path d="M203.243 167.732H136.847C136.672 167.732 136.504 167.663 136.381 167.539C136.257 167.416 136.188 167.248 136.188 167.073C136.188 166.898 136.257 166.73 136.381 166.607C136.504 166.483 136.672 166.413 136.847 166.413H203.243C203.417 166.417 203.583 166.487 203.706 166.61C203.829 166.733 203.899 166.899 203.903 167.073C203.903 167.248 203.833 167.416 203.71 167.539C203.586 167.663 203.418 167.732 203.243 167.732Z" fill="white"/>
<path d="M197.416 177.559H145.409C145.235 177.559 145.067 177.489 144.943 177.366C144.819 177.242 144.75 177.074 144.75 176.899C144.75 176.724 144.819 176.557 144.943 176.433C145.067 176.309 145.235 176.24 145.409 176.24H197.416C197.591 176.24 197.759 176.309 197.882 176.433C198.006 176.557 198.075 176.724 198.075 176.899C198.075 177.074 198.006 177.242 197.882 177.366C197.759 177.489 197.591 177.559 197.416 177.559Z" fill="white"/>
<path d="M138.823 121.806L138.916 124.444H137.214L137.122 121.806L134.102 117.071H135.909L137.992 120.342L139.839 117.071H141.514L138.823 121.806Z" fill="#5250F7"/>
<path d="M141.582 120.725C141.559 120.206 141.647 119.689 141.84 119.207C142.034 118.726 142.327 118.291 142.701 117.931C143.076 117.572 143.522 117.296 144.012 117.123C144.501 116.95 145.021 116.883 145.538 116.926C146.061 116.9 146.584 116.977 147.077 117.154C147.57 117.331 148.023 117.604 148.409 117.958C148.796 118.311 149.108 118.738 149.329 119.213C149.549 119.688 149.673 120.202 149.693 120.725C149.718 121.244 149.631 121.763 149.438 122.246C149.246 122.73 148.953 123.166 148.578 123.527C148.204 123.888 147.756 124.165 147.266 124.339C146.776 124.513 146.255 124.58 145.736 124.537C145.212 124.563 144.688 124.485 144.195 124.307C143.701 124.129 143.248 123.855 142.861 123.5C142.474 123.146 142.162 122.718 141.942 122.241C141.723 121.765 141.6 121.249 141.582 120.725ZM147.913 120.725C147.914 120.413 147.854 120.103 147.734 119.815C147.614 119.527 147.438 119.265 147.215 119.047C146.992 118.828 146.728 118.656 146.438 118.541C146.148 118.426 145.837 118.37 145.525 118.377C145.219 118.364 144.914 118.417 144.631 118.533C144.347 118.648 144.092 118.823 143.882 119.045C143.671 119.268 143.512 119.533 143.413 119.823C143.314 120.113 143.279 120.42 143.309 120.725C143.306 121.038 143.365 121.349 143.484 121.639C143.603 121.929 143.779 122.191 144.002 122.412C144.225 122.632 144.49 122.805 144.781 122.921C145.072 123.037 145.383 123.093 145.697 123.086C146.003 123.095 146.307 123.038 146.589 122.921C146.872 122.803 147.126 122.627 147.336 122.404C147.545 122.181 147.705 121.916 147.804 121.626C147.904 121.337 147.941 121.03 147.913 120.725Z" fill="#5250F7"/>
<path d="M150.866 121.173L150.734 117.045H152.436L152.568 121.107C152.568 122.505 153.254 123.086 154.282 123.086C155.311 123.086 155.891 122.505 155.852 121.107L155.707 117.045H157.382L157.527 121.173C157.596 121.617 157.563 122.071 157.429 122.499C157.294 122.928 157.064 123.32 156.754 123.645C156.444 123.97 156.063 124.22 155.642 124.374C155.22 124.529 154.768 124.585 154.322 124.537C153.866 124.577 153.406 124.519 152.975 124.366C152.543 124.213 152.15 123.968 151.822 123.649C151.494 123.329 151.238 122.943 151.073 122.515C150.909 122.088 150.838 121.63 150.866 121.173Z" fill="#5250F7"/>
<path d="M164.016 124.418L162.526 122.36H160.956L161.036 124.418H159.334L159.07 117.045H162.262C164.227 117.045 165.494 118.074 165.546 119.683C165.589 120.173 165.472 120.664 165.213 121.082C164.954 121.501 164.567 121.824 164.109 122.004L165.85 124.378L164.016 124.418ZM162.209 118.443H160.89L160.983 121.002H162.302C163.344 121.002 163.845 120.527 163.819 119.683C163.792 118.839 163.251 118.443 162.209 118.443Z" fill="#5250F7"/>
<path d="M169.45 120.725C169.423 120.214 169.505 119.704 169.689 119.227C169.874 118.75 170.157 118.318 170.521 117.959C170.886 117.6 171.322 117.322 171.801 117.144C172.28 116.966 172.792 116.892 173.302 116.926C173.879 116.908 174.454 117.017 174.985 117.245C175.516 117.473 175.99 117.814 176.375 118.245L175.32 119.248C175.086 118.976 174.797 118.759 174.471 118.611C174.145 118.463 173.791 118.388 173.434 118.39C173.125 118.374 172.816 118.424 172.528 118.538C172.24 118.651 171.98 118.825 171.764 119.047C171.549 119.27 171.385 119.536 171.281 119.828C171.178 120.119 171.138 120.43 171.165 120.738C171.163 121.055 171.225 121.37 171.348 121.662C171.471 121.955 171.652 122.22 171.88 122.44C172.108 122.661 172.379 122.833 172.675 122.946C172.972 123.06 173.288 123.111 173.605 123.099C173.955 123.106 174.303 123.031 174.619 122.88C174.935 122.729 175.211 122.506 175.425 122.228L176.546 123.231C176.188 123.669 175.731 124.016 175.213 124.245C174.695 124.475 174.131 124.579 173.566 124.55C173.044 124.571 172.523 124.489 172.033 124.307C171.543 124.126 171.094 123.85 170.711 123.494C170.329 123.139 170.02 122.711 169.804 122.236C169.588 121.76 169.467 121.247 169.45 120.725Z" fill="#5250F7"/>
<path d="M176.995 120.725C176.974 120.212 177.061 119.701 177.25 119.224C177.439 118.748 177.726 118.316 178.093 117.958C178.461 117.599 178.899 117.322 179.38 117.145C179.861 116.967 180.374 116.892 180.886 116.926C181.409 116.9 181.932 116.977 182.425 117.154C182.918 117.331 183.371 117.604 183.757 117.958C184.144 118.311 184.456 118.738 184.676 119.213C184.897 119.688 185.021 120.202 185.041 120.725C185.064 121.238 184.979 121.751 184.791 122.23C184.602 122.708 184.315 123.141 183.948 123.501C183.581 123.861 183.142 124.139 182.66 124.317C182.177 124.496 181.663 124.571 181.15 124.537C180.626 124.563 180.102 124.485 179.608 124.307C179.115 124.13 178.661 123.855 178.275 123.501C177.888 123.146 177.576 122.718 177.356 122.241C177.137 121.765 177.014 121.249 176.995 120.725ZM183.313 120.725C183.317 120.413 183.258 120.104 183.139 119.816C183.021 119.528 182.846 119.266 182.624 119.047C182.403 118.828 182.139 118.656 181.85 118.541C181.56 118.426 181.251 118.37 180.939 118.377C180.633 118.364 180.328 118.417 180.045 118.533C179.761 118.648 179.506 118.823 179.295 119.045C179.085 119.268 178.925 119.533 178.827 119.823C178.728 120.113 178.693 120.42 178.723 120.725C178.718 121.037 178.776 121.348 178.893 121.638C179.011 121.928 179.186 122.191 179.407 122.411C179.629 122.632 179.893 122.805 180.184 122.921C180.474 123.037 180.785 123.093 181.097 123.086C181.404 123.097 181.709 123.042 181.993 122.925C182.276 122.808 182.532 122.632 182.741 122.409C182.951 122.185 183.111 121.919 183.21 121.629C183.308 121.338 183.344 121.03 183.313 120.725Z" fill="#5250F7"/>
<path d="M186.203 117.045H189.54C190.06 116.994 190.585 117.051 191.082 117.211C191.579 117.371 192.037 117.632 192.429 117.977C192.822 118.322 193.138 118.744 193.361 119.217C193.583 119.69 193.706 120.203 193.721 120.725C193.75 121.24 193.666 121.756 193.473 122.236C193.281 122.715 192.986 123.146 192.608 123.499C192.23 123.851 191.78 124.116 191.289 124.275C190.797 124.434 190.277 124.483 189.764 124.418H186.414L186.203 117.045ZM189.672 123.02C189.983 123.052 190.297 123.015 190.593 122.912C190.888 122.808 191.157 122.641 191.38 122.422C191.603 122.203 191.774 121.937 191.883 121.644C191.991 121.35 192.033 121.036 192.007 120.725C192.006 120.407 191.939 120.093 191.811 119.802C191.683 119.512 191.495 119.251 191.261 119.037C191.027 118.822 190.75 118.659 190.45 118.556C190.149 118.454 189.83 118.416 189.514 118.443H187.957L188.116 123.02H189.672Z" fill="#5250F7"/>
<path d="M200.79 123.02V124.339H195.092L194.828 116.966H200.394V118.285H196.622V119.881H200.038V121.2H196.622V122.901L200.79 123.02Z" fill="#5250F7"/>
<path d="M151.619 151.786V154.741H137.783V152.406L145.143 145.297C146.937 143.543 147.24 142.448 147.227 141.34C147.227 139.625 145.987 138.623 143.679 138.623C142.846 138.581 142.014 138.737 141.253 139.079C140.492 139.421 139.822 139.938 139.3 140.588L136.82 138.702C137.673 137.659 138.76 136.834 139.994 136.293C141.227 135.751 142.572 135.511 143.916 135.589C148.005 135.589 150.683 137.66 150.735 140.997C150.735 142.817 150.287 144.492 147.728 146.946L142.782 151.734L151.619 151.786Z" fill="#263238"/>
<path d="M166.946 149.096C166.946 152.261 164.651 155.004 159.599 155.004C157.054 155.05 154.561 154.288 152.477 152.828L153.941 150.111C155.53 151.338 157.486 151.993 159.493 151.971C161.986 151.971 163.45 150.863 163.45 149.122C163.45 147.381 162.131 146.313 159.309 146.313H157.594V143.925L161.67 138.847H153.11V135.919H165.956V138.267L161.472 143.701C165.073 144.123 166.946 146.26 166.946 149.096Z" fill="#263238"/>
<path d="M184.537 149.399C184.537 152.894 181.595 155.071 176.913 155.071C172.231 155.071 169.197 152.894 169.145 149.399C169.105 148.438 169.366 147.489 169.89 146.683C170.415 145.877 171.178 145.254 172.073 144.901C171.342 144.531 170.73 143.965 170.303 143.266C169.877 142.567 169.654 141.763 169.659 140.944C169.659 137.713 172.402 135.669 176.57 135.669C180.738 135.669 183.653 137.687 183.706 140.944C183.747 141.758 183.549 142.567 183.136 143.27C182.724 143.973 182.115 144.54 181.384 144.901C182.302 145.247 183.093 145.861 183.656 146.663C184.218 147.466 184.525 148.419 184.537 149.399ZM181.002 149.293C181.002 147.434 179.34 146.273 176.755 146.273C174.17 146.273 172.627 147.434 172.666 149.293C172.706 151.153 174.275 152.327 176.86 152.327C179.446 152.327 181.042 151.14 181.002 149.228V149.293ZM173.088 141.116C173.088 142.725 174.407 143.754 176.689 143.754C178.971 143.754 180.277 142.725 180.237 141.116C180.197 139.507 178.747 138.478 176.583 138.478C174.42 138.478 173.088 139.349 173.115 141.05L173.088 141.116Z" fill="#263238"/>
<path d="M202.083 149.399C202.083 152.894 199.142 155.071 194.459 155.071C189.777 155.071 186.73 152.828 186.73 149.399C186.692 148.438 186.954 147.49 187.478 146.684C188.003 145.879 188.765 145.256 189.658 144.901C188.927 144.533 188.315 143.967 187.89 143.267C187.466 142.568 187.247 141.763 187.258 140.944C187.192 137.713 189.988 135.669 194.156 135.669C198.324 135.669 201.239 137.687 201.291 140.944C201.332 141.758 201.134 142.567 200.722 143.27C200.309 143.973 199.701 144.54 198.97 144.901C199.88 145.253 200.663 145.87 201.218 146.672C201.773 147.474 202.074 148.424 202.083 149.399ZM198.548 149.293C198.548 147.434 196.886 146.273 194.301 146.273C191.716 146.273 190.173 147.434 190.212 149.293C190.252 151.153 191.821 152.327 194.406 152.327C196.992 152.327 198.601 151.14 198.601 149.228L198.548 149.293ZM190.634 141.116C190.634 142.725 192.019 143.754 194.235 143.754C196.451 143.754 197.823 142.725 197.796 141.116C197.77 139.507 196.293 138.478 194.143 138.478C191.993 138.478 190.687 139.349 190.687 141.05L190.634 141.116Z" fill="#263238"/>
<path d="M104.284 120.791C104.116 120.791 103.954 120.727 103.832 120.612C103.709 120.497 103.635 120.339 103.625 120.171L101.29 88.2917C101.279 88.1189 101.337 87.9487 101.45 87.8179C101.564 87.6871 101.724 87.6062 101.897 87.5927C102.071 87.5816 102.243 87.6387 102.376 87.7519C102.509 87.8651 102.593 88.0256 102.609 88.1994L104.957 120.079C104.964 120.165 104.954 120.252 104.928 120.335C104.901 120.418 104.858 120.495 104.802 120.561C104.746 120.627 104.677 120.681 104.599 120.721C104.522 120.76 104.437 120.784 104.35 120.791H104.284Z" fill="#5250F7"/>
<path d="M101.5 82.7917C101.334 82.7922 101.173 82.73 101.051 82.6175C100.929 82.505 100.854 82.3506 100.84 82.1849L100.22 73.77C100.214 73.6834 100.225 73.5964 100.253 73.5141C100.28 73.4318 100.324 73.3557 100.381 73.2902C100.496 73.1578 100.659 73.0766 100.834 73.0644C101.009 73.0521 101.181 73.1099 101.314 73.2249C101.446 73.3399 101.527 73.5028 101.539 73.6777L102.159 82.0926C102.17 82.2655 102.113 82.4357 101.999 82.5665C101.886 82.6973 101.725 82.7782 101.553 82.7917H101.5Z" fill="#5250F7"/>
<path d="M163.48 42.6822C163.305 42.6822 163.137 42.6127 163.013 42.489C162.89 42.3653 162.82 42.1976 162.82 42.0227V22.6208C162.82 22.4459 162.89 22.2782 163.013 22.1545C163.137 22.0308 163.305 21.9614 163.48 21.9614C163.655 21.9614 163.822 22.0308 163.946 22.1545C164.07 22.2782 164.139 22.4459 164.139 22.6208V42.0227C164.139 42.1976 164.07 42.3653 163.946 42.489C163.822 42.6127 163.655 42.6822 163.48 42.6822Z" fill="#5250F7"/>
<path d="M148.113 46.7973C147.998 46.7966 147.885 46.7658 147.785 46.708C147.686 46.6502 147.603 46.5673 147.546 46.4676L137.838 29.6641C137.751 29.5119 137.727 29.3313 137.773 29.1618C137.819 28.9924 137.93 28.8481 138.082 28.7606C138.234 28.6732 138.415 28.6497 138.584 28.6955C138.754 28.7413 138.898 28.8525 138.986 29.0046L148.68 45.8081C148.724 45.8823 148.754 45.9646 148.766 46.0503C148.778 46.1359 148.773 46.2232 148.751 46.3068C148.729 46.3904 148.69 46.4688 148.637 46.5372C148.584 46.6056 148.518 46.6627 148.442 46.705C148.341 46.7617 148.228 46.7933 148.113 46.7973Z" fill="#5250F7"/>
<path d="M178.82 46.7973C178.705 46.7979 178.592 46.7707 178.49 46.7182C178.339 46.6276 178.23 46.4816 178.186 46.3116C178.141 46.1415 178.165 45.9608 178.253 45.8081L187.947 29.0046C188.034 28.8525 188.179 28.7413 188.348 28.6955C188.518 28.6497 188.698 28.6732 188.85 28.7606C189.003 28.8481 189.114 28.9924 189.16 29.1618C189.205 29.3313 189.182 29.5119 189.094 29.6641L179.413 46.5204C179.347 46.6142 179.257 46.6892 179.153 46.7377C179.049 46.7863 178.934 46.8069 178.82 46.7973Z" fill="#5250F7"/>
<path d="M406.117 468.415C404.734 440.81 407.436 413.152 414.137 386.336L415.456 386.653C408.789 413.344 406.096 440.872 407.463 468.349L406.117 468.415Z" fill="#5250F7"/>
<path d="M408.611 385.36C408.611 387.814 410.879 396.532 413.346 396.466C415.812 396.4 417.593 387.603 417.527 385.136C417.512 384.551 417.382 383.974 417.145 383.439C416.907 382.903 416.566 382.42 416.142 382.017C415.718 381.613 415.218 381.297 414.671 381.087C414.125 380.876 413.542 380.775 412.957 380.79C412.371 380.805 411.794 380.935 411.259 381.172C410.724 381.41 410.241 381.751 409.837 382.175C409.434 382.6 409.118 383.099 408.907 383.646C408.697 384.192 408.596 384.775 408.611 385.36Z" fill="#5250F7"/>
<path d="M418.199 413.045C418.199 410.579 415.93 401.874 413.477 401.926C411.023 401.979 409.23 410.79 409.282 413.256C409.296 413.842 409.425 414.419 409.662 414.954C409.899 415.49 410.239 415.973 410.663 416.378C411.086 416.782 411.586 417.099 412.132 417.31C412.678 417.521 413.261 417.623 413.846 417.609C414.431 417.595 415.008 417.466 415.544 417.229C416.08 416.992 416.563 416.652 416.967 416.228C417.372 415.805 417.688 415.305 417.9 414.759C418.111 414.213 418.212 413.631 418.199 413.045Z" fill="#5250F7"/>
<path d="M399.565 403.958C402.031 403.958 410.736 401.689 410.67 399.223C410.605 396.756 401.82 394.975 399.354 395.041C398.768 395.055 398.191 395.184 397.656 395.421C397.12 395.658 396.637 395.998 396.232 396.422C395.828 396.846 395.511 397.345 395.3 397.891C395.089 398.437 394.987 399.02 395.001 399.605C395.015 400.191 395.144 400.767 395.381 401.303C395.618 401.839 395.958 402.322 396.382 402.726C396.805 403.131 397.305 403.447 397.851 403.659C398.397 403.87 398.979 403.971 399.565 403.958Z" fill="#5250F7"/>
<path d="M427.247 394.408C424.793 394.408 416.075 396.677 416.141 399.13C416.207 401.583 425.004 403.377 427.471 403.325C428.056 403.31 428.633 403.18 429.168 402.942C429.704 402.705 430.187 402.364 430.59 401.94C430.994 401.515 431.31 401.015 431.52 400.469C431.731 399.922 431.832 399.34 431.817 398.754C431.802 398.169 431.672 397.592 431.435 397.057C431.197 396.522 430.856 396.038 430.432 395.635C430.007 395.231 429.508 394.915 428.961 394.705C428.415 394.494 427.832 394.394 427.247 394.408Z" fill="#5250F7"/>
<path d="M400.223 392.799C402.017 394.501 409.733 399.104 411.434 397.31C413.136 395.516 408.163 388.077 406.383 386.35C405.527 385.533 404.383 385.089 403.2 385.116C402.018 385.144 400.895 385.639 400.078 386.495C399.261 387.35 398.818 388.495 398.845 389.677C398.872 390.859 399.368 391.983 400.223 392.799Z" fill="#5250F7"/>
<path d="M426.587 405.593C424.807 403.892 417.091 399.302 415.389 401.082C413.688 402.863 418.647 410.315 420.428 412.056C420.852 412.461 421.352 412.777 421.899 412.989C422.445 413.2 423.029 413.301 423.615 413.287C424.201 413.273 424.778 413.144 425.314 412.907C425.85 412.669 426.334 412.329 426.739 411.904C427.143 411.48 427.46 410.98 427.671 410.433C427.883 409.887 427.984 409.303 427.97 408.717C427.956 408.131 427.827 407.554 427.589 407.018C427.352 406.482 427.011 405.998 426.587 405.593Z" fill="#5250F7"/>
<path d="M407 412.386C408.702 410.592 413.292 402.876 411.511 401.175C409.73 399.473 402.278 404.446 400.537 406.226C399.72 407.083 399.278 408.23 399.306 409.413C399.334 410.597 399.832 411.721 400.689 412.537C401.546 413.354 402.692 413.797 403.876 413.769C405.059 413.74 406.183 413.243 407 412.386Z" fill="#5250F7"/>
<path d="M419.809 386.02C418.108 387.8 413.505 395.516 415.298 397.218C417.092 398.919 424.531 393.96 426.259 392.179C426.663 391.756 426.981 391.257 427.192 390.711C427.404 390.165 427.506 389.582 427.492 388.997C427.479 388.412 427.35 387.835 427.114 387.299C426.877 386.763 426.537 386.279 426.114 385.875C425.69 385.47 425.191 385.153 424.645 384.942C424.099 384.73 423.517 384.628 422.932 384.642C422.346 384.655 421.769 384.784 421.233 385.02C420.698 385.257 420.214 385.596 419.809 386.02Z" fill="#5250F7"/>
<path d="M408.119 399.328C408.145 400.371 408.48 401.382 409.081 402.234C409.681 403.087 410.521 403.742 411.494 404.117C412.467 404.492 413.529 404.571 414.547 404.343C415.564 404.115 416.491 403.591 417.211 402.836C417.931 402.081 418.411 401.13 418.59 400.103C418.77 399.076 418.641 398.019 418.22 397.065C417.799 396.111 417.104 395.303 416.224 394.743C415.344 394.184 414.319 393.897 413.276 393.92C412.582 393.936 411.898 394.088 411.263 394.368C410.628 394.649 410.054 395.051 409.575 395.554C409.096 396.056 408.721 396.648 408.471 397.296C408.221 397.944 408.101 398.634 408.119 399.328Z" fill="white"/>
<path d="M407.367 438.58C407.367 438.58 408.277 425.114 415.677 422.99C423.076 420.867 425.78 417.965 425.78 417.965C425.78 417.965 425.028 438.844 407.367 438.58Z" fill="#5250F7"/>
<path opacity="0.5" d="M407.367 438.58C407.367 438.58 408.277 425.114 415.677 422.99C423.076 420.867 425.78 417.965 425.78 417.965C425.78 417.965 425.028 438.844 407.367 438.58Z" fill="white"/>
<path d="M406.397 448.894C406.397 448.894 405.487 435.428 398.088 433.291C390.688 431.154 387.984 428.279 387.984 428.279C387.984 428.279 388.736 449.158 406.397 448.894Z" fill="#5250F7"/>
<path opacity="0.5" d="M406.397 448.894C406.397 448.894 405.487 435.428 398.088 433.291C390.688 431.154 387.984 428.279 387.984 428.279C387.984 428.279 388.736 449.158 406.397 448.894Z" fill="white"/>
<path d="M434.304 476.949C434.304 487.5 421.787 495.968 406.355 495.968C390.923 495.968 378.406 487.461 378.406 476.949C378.406 471.673 381.611 466.819 386.795 463.377C390.061 461.246 393.692 459.735 397.505 458.919H415.205C419.117 459.76 422.835 461.331 426.166 463.548C431.204 466.991 434.304 471.712 434.304 476.949Z" fill="#5250F7"/>
<path opacity="0.8" d="M415.205 458.919C419.117 459.76 422.835 461.331 426.166 463.548C431.204 466.991 434.304 471.712 434.304 476.949C434.304 487.5 421.787 495.968 406.355 495.968C390.923 495.968 378.406 487.461 378.406 476.949C378.406 471.673 381.611 466.819 386.795 463.377C390.061 461.246 393.692 459.735 397.505 458.919H415.205Z" fill="white"/>
<path d="M407.092 460.633H405.773V470.037H407.092V460.633Z" fill="#5250F7"/>
<path d="M427.395 458.628L425.918 463.245L425.891 463.297H386.811L386.732 463.047L385.32 458.628H427.395Z" fill="#5250F7"/>
<path d="M431.004 480.774C428.204 484.655 424.525 487.819 420.268 490.006C413.554 493.568 385.315 494.478 382.084 478.465C382.084 478.241 381.965 478.017 381.925 477.793C381.784 476.801 381.87 475.791 382.178 474.837C382.485 473.884 383.006 473.013 383.7 472.291C384.394 471.569 385.243 471.015 386.184 470.67C387.124 470.325 388.131 470.199 389.127 470.301C391.804 470.481 394.493 470.331 397.133 469.853C407.272 468.317 417.617 468.869 427.535 471.475C428.475 471.724 429.341 472.195 430.061 472.848C430.781 473.5 431.334 474.316 431.674 475.227C432.014 476.138 432.13 477.117 432.014 478.082C431.897 479.047 431.551 479.97 431.004 480.774Z" fill="#263238"/>
<path d="M228.289 475.445C228.536 475.349 228.755 475.192 228.925 474.989C229.096 474.786 229.213 474.544 229.265 474.284C229.315 474.128 229.322 473.96 229.285 473.8C229.248 473.64 229.168 473.493 229.054 473.374C228.038 472.319 223.91 473.071 223.449 473.163C223.395 473.168 223.344 473.189 223.304 473.225C223.263 473.261 223.235 473.308 223.224 473.361C223.214 473.412 223.218 473.466 223.237 473.515C223.256 473.564 223.288 473.607 223.33 473.638C224.153 474.239 225.037 474.752 225.968 475.168C226.685 475.529 227.507 475.627 228.289 475.445ZM228.658 473.744C228.707 473.798 228.74 473.865 228.754 473.937C228.768 474.009 228.762 474.083 228.738 474.152C228.707 474.325 228.633 474.488 228.522 474.624C228.411 474.76 228.268 474.866 228.104 474.931C227.353 475.208 225.915 474.693 224.148 473.612C225.862 473.321 228.118 473.176 228.658 473.744Z" fill="#5250F7"/>
<path d="M223.53 473.691C224.849 473.532 227.698 472.042 227.948 470.75C227.992 470.538 227.961 470.319 227.86 470.128C227.758 469.938 227.594 469.789 227.394 469.708C227.209 469.605 227.003 469.544 226.791 469.528C226.58 469.512 226.367 469.542 226.168 469.615C224.585 470.156 223.292 473.19 223.24 473.321C223.221 473.363 223.211 473.408 223.211 473.453C223.211 473.499 223.221 473.544 223.24 473.585C223.27 473.626 223.311 473.658 223.358 473.678L223.53 473.691ZM227.117 470.182C227.434 470.354 227.447 470.525 227.421 470.644C227.263 471.435 225.324 472.662 223.965 473.044C224.453 472.055 225.403 470.407 226.352 470.116C226.564 470.03 226.801 470.03 227.012 470.116L227.117 470.182Z" fill="#5250F7"/>
<path d="M211.008 468.375L221.744 472.715L231.122 447.905L220.372 443.566L211.008 468.375Z" fill="#FFB573"/>
<path d="M223.107 471.831L211.051 466.964C210.846 466.874 210.615 466.862 210.402 466.93C210.188 466.998 210.006 467.141 209.891 467.333L204.615 476.17C204.49 476.398 204.416 476.649 204.396 476.907C204.376 477.165 204.412 477.425 204.5 477.669C204.589 477.912 204.729 478.134 204.91 478.319C205.091 478.504 205.31 478.649 205.551 478.742C209.798 480.378 211.922 480.945 217.224 483.095C220.495 484.414 225.138 486.669 229.622 488.503C234.107 490.336 236.217 486.036 234.489 484.876C226.826 479.692 226.576 476.698 224.663 473.216C224.322 472.586 223.772 472.096 223.107 471.831Z" fill="#263238"/>
<path d="M230.978 460.079L212.328 452.535L214.043 445.703L234.051 453.023L230.978 460.079Z" fill="#5250F7"/>
<path d="M249.659 172.916C245.874 183.877 234.676 209.675 226.037 198.926C224.481 197.027 223.211 194.912 222.264 192.648C218.611 183.613 217.701 168.972 217.239 165.767L214.298 155.73C214.246 155.559 214.219 155.381 214.219 155.202V149.465C214.219 147.144 216.092 145.759 218.624 145.97C218.624 145.97 222.713 145.495 222.713 147.935L223.504 156.548C223.913 159.542 222.726 163.71 223.425 166.453C226.063 176.781 229.69 177.255 231.972 187.913C235.151 180.223 240.835 166.915 240.835 166.915C244.608 167.39 250.899 169.315 249.659 172.916Z" fill="#FFB573"/>
<path d="M236.124 202.856C235.53 203.782 234.721 204.549 233.766 205.093C232.81 205.637 231.737 205.94 230.638 205.978C229.539 206.016 228.448 205.786 227.458 205.309C226.467 204.832 225.607 204.121 224.952 203.239C223.388 201.161 222.16 198.851 221.312 196.393C217.882 185.143 215.759 178.179 215.469 166.427C216.684 165.199 218.22 164.336 219.901 163.937C221.582 163.539 223.341 163.62 224.978 164.171L230.597 183.204C230.597 183.204 242.033 154.78 246.662 153.765C252.109 152.564 254.378 157.431 256.686 163.419C258.348 167.719 243.576 191.368 236.124 202.856Z" fill="#5250F7"/>
<path d="M282.331 125.315C281.012 131.91 278.137 146.313 282.753 150.718C282.753 150.718 280.946 157.405 268.693 157.405C255.2 157.405 262.244 150.718 262.244 150.718C269.603 148.964 269.406 143.503 268.126 138.373L282.331 125.315Z" fill="#FFB573"/>
<path d="M261.716 109.83C261.795 109.843 261.875 109.843 261.954 109.83C262.075 109.763 262.167 109.652 262.208 109.519C262.25 109.386 262.239 109.243 262.178 109.118C261.825 108.36 261.295 107.699 260.631 107.192C259.967 106.684 259.19 106.345 258.366 106.203C258.298 106.194 258.228 106.199 258.161 106.217C258.094 106.236 258.032 106.267 257.978 106.31C257.924 106.354 257.879 106.407 257.846 106.468C257.813 106.529 257.792 106.596 257.786 106.665C257.777 106.733 257.781 106.803 257.8 106.87C257.818 106.937 257.85 106.999 257.893 107.053C257.936 107.107 257.99 107.152 258.051 107.185C258.112 107.218 258.178 107.239 258.247 107.245C258.897 107.372 259.506 107.651 260.027 108.059C260.547 108.467 260.964 108.993 261.241 109.593C261.293 109.671 261.363 109.734 261.447 109.776C261.53 109.817 261.623 109.836 261.716 109.83Z" fill="#263238"/>
<path d="M257.69 115.528C256.646 117.457 255.342 119.232 253.812 120.804C254.227 121.184 254.718 121.469 255.253 121.639C255.789 121.81 256.355 121.863 256.912 121.793L257.69 115.528Z" fill="#ED893E"/>
<path d="M258.742 113.603C258.94 114.473 258.623 115.291 258.056 115.409C257.489 115.528 256.856 114.921 256.671 114.091C256.486 113.26 256.79 112.402 257.37 112.27C257.951 112.138 258.557 112.719 258.742 113.603Z" fill="#263238"/>
<path d="M257.633 112.231L255.391 112.073C255.391 112.073 256.828 113.484 257.633 112.231Z" fill="#263238"/>
<path opacity="0.2" d="M249.181 167.297C251.516 165.147 253.138 165.794 254.167 167.495C255.235 172.428 248.891 182.769 246.398 186.686L249.181 167.297Z" fill="black"/>
<path d="M303.197 173.8C302.893 179.234 302.379 186.079 301.548 194.692C300.678 203.78 299.438 214.819 297.736 228.233C279.812 228.233 261.043 227.956 252.325 227.956C253.063 210.137 253.327 192.08 245.334 156.627C245.234 156.187 245.223 155.732 245.302 155.288C245.382 154.845 245.549 154.421 245.795 154.043C246.041 153.666 246.361 153.341 246.735 153.09C247.109 152.838 247.529 152.664 247.972 152.578C253.182 151.633 258.446 151.012 263.734 150.718C270.561 150.229 277.415 150.229 284.243 150.718C293.041 151.523 303.038 153.567 303.038 153.567C303.038 153.567 304.12 156.838 303.197 173.8Z" fill="#5250F7"/>
<path opacity="0.2" d="M303.197 173.8C302.893 179.234 302.379 186.079 301.548 194.692C296.72 189.1 292.157 169.843 293.634 163.261C297.232 165.923 300.396 169.126 303.012 172.758C303.092 173.101 303.154 173.449 303.197 173.8Z" fill="black"/>
<path d="M349.736 197.937L358.968 192.766L360.683 202.17C360.683 202.17 352.901 205.164 348.812 203.067L349.736 197.937Z" fill="#FFB573"/>
<path d="M365.076 193.835L365.722 196.908C365.817 197.379 365.772 197.868 365.591 198.313C365.41 198.759 365.103 199.142 364.707 199.414L360.644 202.157L358.93 192.753L362.108 191.962C362.427 191.882 362.758 191.868 363.081 191.92C363.405 191.972 363.715 192.089 363.993 192.264C364.27 192.439 364.509 192.668 364.695 192.938C364.881 193.208 365.011 193.513 365.076 193.835Z" fill="#FFB573"/>
<path d="M294.359 164.461C297.301 170.45 308.09 193.07 312.825 198.293L313.761 199.269L314.223 199.757C314.381 199.915 314.513 200.06 314.764 200.284C315.615 201.093 316.553 201.805 317.56 202.408C319.359 203.447 321.294 204.228 323.31 204.729C326.845 205.549 330.474 205.891 334.1 205.745C340.855 205.475 347.549 204.34 354.016 202.368L352.921 196.881C349.874 197.145 346.682 197.33 343.596 197.383C340.537 197.473 337.476 197.376 334.429 197.092C331.604 196.89 328.814 196.345 326.12 195.47C325.031 195.104 324.001 194.585 323.06 193.927C322.699 193.674 322.368 193.382 322.071 193.056C321.966 192.949 321.869 192.834 321.78 192.714L321.438 192.305L320.739 191.487C317.098 186.923 307.483 164.923 304.594 159.423L294.359 164.461Z" fill="#FFB573"/>
<path d="M349.595 207.301C341.993 211.341 333.101 212.204 324.864 209.702C317.007 207.175 310.379 201.803 306.28 194.639C301.519 187.636 288.844 167.825 290.453 162.707C292.339 156.587 296.348 152.789 303.049 154.437C307.757 155.572 316.74 178.442 321.092 187.583C322.794 190.128 326.065 194.178 329.718 195.417C336.168 197.646 340.916 196.736 347.669 195.721C348.909 196.459 348.817 197.607 349.436 198.886C350.102 200.184 350.462 201.617 350.49 203.075C350.517 204.534 350.211 205.979 349.595 207.301Z" fill="#5250F7"/>
<path d="M288.974 114.75C286.956 125.592 286.336 130.221 280.11 135.154C270.772 142.567 257.886 137.713 256.633 126.476C255.498 116.359 258.994 100.321 270.231 97.3002C272.706 96.6212 275.313 96.5862 277.805 97.1985C280.297 97.8107 282.59 99.05 284.469 100.799C286.347 102.547 287.746 104.747 288.535 107.189C289.323 109.63 289.474 112.233 288.974 114.75Z" fill="#FFB573"/>
<path d="M327.46 174.776C325.389 177.137 324.743 178.508 321.854 179.788C318.966 181.067 312.714 179.946 310.722 177.506C311.368 179.405 315.141 182.782 317.119 183.085C314.886 184.31 312.303 184.737 309.795 184.295C307.287 183.854 305.004 182.571 303.323 180.658C303.599 181.848 304.175 182.947 304.998 183.85C305.82 184.753 306.86 185.429 308.018 185.815C282.747 186.475 293.391 174.578 277.564 157.656C260.048 138.926 263.846 123.442 263.846 123.442C263.888 119.585 262.681 115.819 260.404 112.706C257.872 109.461 258.61 105.082 259.415 102.629C260.589 99.028 264.163 97.7619 267.592 97.5508C268.199 94.0028 275.506 94.6491 276.39 95.2426C277.273 95.8362 277.379 95.7175 278.184 95.2426C279.964 94.0952 284.449 92.9081 289.25 96.7858C292.178 99.1599 295.317 103.381 295.422 112.455C295.528 121.859 291.03 133.031 306.594 147.315C315.761 155.704 311.368 173.787 327.46 174.776Z" fill="#263238"/>
<path d="M261.764 115.568C260.538 117.307 260.028 119.451 260.34 121.556C260.788 124.339 263.492 124.523 265.457 122.743C267.422 120.962 269.137 117.744 267.686 115.436C266.235 113.128 263.294 113.457 261.764 115.568Z" fill="#FFB573"/>
<path d="M286.246 228.22C286.246 228.22 280.851 303.941 274.784 353.877C272.96 368.863 268.39 383.386 261.305 396.717L231.575 452.851L216.328 446.85C216.328 446.85 226.88 393.498 247.442 364.402C247.442 364.402 232.063 277.443 252.191 227.956L286.246 228.22Z" fill="#263238"/>
<path opacity="0.2" d="M265.515 246.567C265.515 246.567 270.052 280.859 272.532 301.264C263.233 288.997 256.018 271.877 265.515 246.567Z" fill="black"/>
<path d="M324.743 482.554C324.92 482.357 325.042 482.117 325.098 481.858C325.153 481.599 325.14 481.329 325.059 481.077C325.029 480.915 324.955 480.765 324.846 480.642C324.737 480.519 324.596 480.428 324.439 480.378C323.028 479.903 319.744 482.475 319.374 482.765C319.334 482.8 319.303 482.846 319.287 482.897C319.271 482.948 319.269 483.003 319.282 483.055C319.299 483.104 319.328 483.147 319.368 483.179C319.408 483.212 319.455 483.233 319.506 483.24C320.532 483.396 321.571 483.436 322.606 483.359C323.39 483.346 324.145 483.061 324.743 482.554ZM324.255 480.892C324.325 480.913 324.388 480.954 324.435 481.01C324.482 481.067 324.511 481.136 324.518 481.209C324.576 481.373 324.59 481.55 324.557 481.722C324.525 481.893 324.448 482.053 324.334 482.185C323.806 482.778 322.302 482.989 320.245 482.778C321.59 481.776 323.516 480.628 324.255 480.892Z" fill="#5250F7"/>
<path d="M319.708 483.2C320.75 482.475 322.609 479.824 322.214 478.571C322.151 478.362 322.018 478.182 321.838 478.059C321.658 477.937 321.441 477.88 321.224 477.898C321.014 477.892 320.806 477.932 320.612 478.014C320.419 478.096 320.245 478.218 320.103 478.373C318.956 479.587 319.259 482.858 319.272 483.003C319.28 483.049 319.299 483.094 319.326 483.133C319.353 483.172 319.389 483.204 319.431 483.227C319.478 483.239 319.528 483.239 319.576 483.227C319.621 483.232 319.667 483.223 319.708 483.2ZM321.211 478.439C321.567 478.439 321.66 478.597 321.699 478.716C321.924 479.494 320.802 481.459 319.787 482.422C319.634 481.151 319.883 479.864 320.499 478.742C320.649 478.576 320.856 478.472 321.079 478.452L321.211 478.439Z" fill="#5250F7"/>
<path d="M306.121 484.269L317.675 483.161L314.14 456.914L302.586 458.035L306.121 484.269Z" fill="#FFB573"/>
<path d="M318.454 481.776L305.475 483.029C305.252 483.045 305.043 483.143 304.887 483.303C304.731 483.464 304.64 483.676 304.631 483.9L304.156 494.148C304.156 494.408 304.212 494.665 304.318 494.903C304.425 495.14 304.58 495.352 304.774 495.525C304.969 495.699 305.197 495.829 305.445 495.907C305.693 495.986 305.955 496.011 306.214 495.981C310.725 495.48 312.809 495.005 318.586 494.451C322.094 494.108 327.264 493.976 332.118 493.515C336.972 493.053 336.748 488.305 334.756 488.067C325.523 487.025 323.822 484.519 320.525 482.29C319.915 481.883 319.183 481.702 318.454 481.776Z" fill="#263238"/>
<path d="M297.67 228.207C297.67 228.207 312.455 318.568 315.291 372.092L315.832 467.98L303.869 470.314C303.869 470.314 286.551 409.141 284.546 373.78C279.27 279.976 248.71 279.817 267.096 228.035L297.67 228.207Z" fill="#263238"/>
<path d="M319.8 468.375L300.002 471.079L297.984 463.482L319.154 460.725L319.8 468.375Z" fill="#5250F7"/>
<path d="M213.11 131.263H213.861C213.683 131.263 213.505 131.299 213.341 131.37C213.177 131.44 213.028 131.543 212.905 131.673C212.781 131.802 212.686 131.956 212.623 132.123C212.561 132.291 212.534 132.47 212.543 132.648L213.756 155.611C213.792 155.972 213.96 156.306 214.228 156.55C214.496 156.793 214.845 156.929 215.207 156.93H214.429C214.067 156.926 213.72 156.789 213.453 156.546C213.185 156.303 213.016 155.971 212.978 155.611L211.791 132.648C211.782 132.47 211.809 132.291 211.872 132.123C211.934 131.956 212.03 131.802 212.153 131.673C212.276 131.543 212.425 131.44 212.589 131.37C212.754 131.299 212.931 131.263 213.11 131.263Z" fill="#5250F7"/>
<path opacity="0.1" d="M213.11 131.263H213.861C213.683 131.263 213.505 131.299 213.341 131.37C213.177 131.44 213.028 131.543 212.905 131.673C212.781 131.802 212.686 131.956 212.623 132.123C212.561 132.291 212.534 132.47 212.543 132.648L213.756 155.611C213.792 155.972 213.96 156.306 214.228 156.55C214.496 156.793 214.845 156.929 215.207 156.93H214.429C214.067 156.926 213.72 156.789 213.453 156.546C213.185 156.303 213.016 155.971 212.978 155.611L211.791 132.648C211.782 132.47 211.809 132.291 211.872 132.123C211.934 131.956 212.03 131.802 212.153 131.673C212.276 131.543 212.425 131.44 212.589 131.37C212.754 131.299 212.931 131.263 213.11 131.263Z" fill="white"/>
<path d="M214.629 156.996H223.862C224.212 156.996 224.547 156.857 224.795 156.61C225.042 156.363 225.181 156.027 225.181 155.677L223.981 132.714C223.958 132.343 223.795 131.994 223.526 131.738C223.257 131.481 222.902 131.335 222.53 131.329H213.297C213.118 131.329 212.941 131.365 212.777 131.436C212.612 131.506 212.464 131.609 212.34 131.739C212.217 131.868 212.121 132.021 212.059 132.189C211.997 132.357 211.969 132.536 211.978 132.714L213.178 155.677C213.217 156.036 213.386 156.369 213.654 156.612C213.921 156.855 214.268 156.992 214.629 156.996Z" fill="#5250F7"/>
<path opacity="0.4" d="M214.629 156.996H223.862C224.212 156.996 224.547 156.857 224.795 156.61C225.042 156.363 225.181 156.027 225.181 155.677L223.981 132.714C223.958 132.343 223.795 131.994 223.526 131.738C223.257 131.481 222.902 131.335 222.53 131.329H213.297C213.118 131.329 212.941 131.365 212.777 131.436C212.612 131.506 212.464 131.609 212.34 131.739C212.217 131.868 212.121 132.021 212.059 132.189C211.997 132.357 211.969 132.536 211.978 132.714L213.178 155.677C213.217 156.036 213.386 156.369 213.654 156.612C213.921 156.855 214.268 156.992 214.629 156.996Z" fill="white"/>
<path d="M224.627 155.136C224.634 155.252 224.618 155.367 224.579 155.476C224.541 155.585 224.481 155.685 224.403 155.77C224.237 155.931 224.014 156.021 223.783 156.02H214.801C214.549 156.017 214.309 155.919 214.128 155.745C213.946 155.571 213.838 155.335 213.825 155.084L212.651 132.807C212.642 132.693 212.658 132.579 212.696 132.473C212.735 132.366 212.796 132.268 212.875 132.187C212.954 132.102 213.05 132.035 213.157 131.989C213.264 131.944 213.379 131.921 213.495 131.923H222.477C222.728 131.926 222.969 132.024 223.15 132.198C223.331 132.372 223.44 132.608 223.453 132.859L223.532 134.455L224.627 155.136Z" fill="#263238"/>
<g opacity="0.1">
<path d="M223.524 134.455L220.543 155.994H216.969L220.345 131.896H222.469C222.72 131.899 222.961 131.998 223.142 132.172C223.323 132.346 223.431 132.582 223.445 132.833L223.524 134.455Z" fill="white"/>
<path d="M215.68 156.02H214.875L218.252 131.923H219.056L215.68 156.02Z" fill="white"/>
</g>
<path d="M249.411 230.779C242.695 244.014 239.087 258.607 238.859 273.447C261.282 290.844 282.161 270.466 307.828 273.909C306.931 262.315 302.987 240.935 298.318 230.225C281.317 230.95 265.436 229.249 249.411 230.779Z" fill="#5250F7"/>
<path d="M251.739 226.07C251.739 226.07 249.932 230.726 250.42 230.726H297.52C297.928 230.726 298.258 230.528 298.285 230.264L298.693 226.307C298.693 226.03 298.364 225.793 297.928 225.793H252.477C252.341 225.774 252.202 225.79 252.073 225.838C251.944 225.887 251.829 225.966 251.739 226.07Z" fill="white"/>
<path d="M258.378 231.174H257.165C256.914 231.174 256.73 231.042 256.743 230.884L257.323 225.608C257.323 225.45 257.547 225.331 257.785 225.331H259.011C259.249 225.331 259.434 225.45 259.42 225.608L258.853 230.884C258.816 230.978 258.75 231.056 258.664 231.109C258.579 231.161 258.478 231.184 258.378 231.174Z" fill="#5250F7"/>
<path d="M287.865 231.174H286.652C286.414 231.174 286.23 231.042 286.243 230.884L286.81 225.608C286.81 225.45 287.034 225.331 287.285 225.331H288.498C288.736 225.331 288.92 225.45 288.907 225.608L288.34 230.884C288.287 230.99 288.116 231.174 287.865 231.174Z" fill="#5250F7"/>
</svg>
