<svg width="627" height="580" viewBox="0 0 627 580" fill="none" xmlns="http://www.w3.org/2000/svg">
<path d="M295.272 580.001H8.48046C6.23131 580.001 4.07427 579.106 2.48387 577.514C0.893475 575.922 0 573.762 0 571.51V8.41709C0.0195828 6.17812 0.921694 4.03753 2.50997 2.46126C4.09825 0.884989 6.24411 0.000646584 8.48046 0.000732428H295.272C296.385 0.000732428 297.488 0.220349 298.517 0.647047C299.546 1.07375 300.481 1.69917 301.268 2.4876C302.056 3.27604 302.68 4.21205 303.107 5.24219C303.533 6.27233 303.752 7.37642 303.752 8.49144V571.51C303.752 572.625 303.533 573.729 303.107 574.759C302.68 575.789 302.056 576.725 301.268 577.514C300.481 578.302 299.546 578.928 298.517 579.354C297.488 579.781 296.385 580.001 295.272 580.001ZM8.48046 0.298131C6.33099 0.302062 4.27067 1.15871 2.75075 2.68046C1.23084 4.20221 0.375225 6.26502 0.371299 8.41709V571.51C0.375225 573.662 1.23084 575.725 2.75075 577.247C4.27067 578.768 6.33099 579.625 8.48046 579.629H295.272C297.421 579.625 299.482 578.768 301.001 577.247C302.521 575.725 303.377 573.662 303.381 571.51V8.41709C303.377 6.26502 302.521 4.20221 301.001 2.68046C299.482 1.15871 297.421 0.302062 295.272 0.298131H8.48046Z" fill="#EBEBEB"/>
<path d="M616.522 580.001H329.73C327.481 580.001 325.324 579.106 323.734 577.514C322.143 575.922 321.25 573.762 321.25 571.51V8.41709C321.27 6.17812 322.172 4.03753 323.76 2.46126C325.348 0.884989 327.494 0.000646584 329.73 0.000732428H616.522C618.771 0.000732428 620.928 0.895287 622.518 2.4876C624.109 4.07992 625.002 6.23956 625.002 8.49144V571.51C625.002 572.625 624.783 573.729 624.357 574.759C623.93 575.789 623.306 576.725 622.518 577.514C621.731 578.302 620.796 578.928 619.767 579.354C618.738 579.781 617.635 580.001 616.522 580.001ZM329.73 0.298131C327.581 0.302062 325.521 1.15871 324.001 2.68046C322.481 4.20221 321.625 6.26502 321.621 8.41709V571.51C321.625 573.662 322.481 575.725 324.001 577.247C325.521 578.768 327.581 579.625 329.73 579.629H616.522C618.671 579.625 620.732 578.768 622.251 577.247C623.771 575.725 624.627 573.662 624.631 571.51V8.41709C624.627 6.26502 623.771 4.20221 622.251 2.68046C620.732 1.15871 618.671 0.302062 616.522 0.298131H329.73Z" fill="#EBEBEB"/>
<path d="M109.104 168.403L111.51 173.266L116.886 174.054L112.995 177.845L113.916 183.199L109.104 180.671L104.306 183.199L105.227 177.845L101.336 174.054L106.712 173.266L109.104 168.403Z" fill="#EBEBEB"/>
<path d="M589.783 397.739L592.189 402.616L597.566 403.404L593.674 407.181L594.595 412.549L589.783 410.022L584.986 412.549L585.907 407.181L582.016 403.404L587.392 402.616L589.783 397.739Z" fill="#F5F5F5"/>
<path d="M494.58 539.137L496.986 544L502.348 544.788L498.456 548.58L499.377 553.933L494.58 551.405L489.783 553.933L490.689 548.58L486.812 544.788L492.174 544L494.58 539.137Z" fill="#F5F5F5"/>
<path d="M276.764 82.0095L277.656 83.8236L279.661 84.121C279.772 84.1357 279.878 84.1819 279.964 84.2544C280.051 84.3268 280.115 84.4225 280.15 84.5301C280.184 84.6377 280.187 84.7529 280.158 84.8622C280.129 84.9714 280.07 85.0703 279.987 85.1471L278.502 86.5597L278.844 88.5523C278.861 88.6632 278.848 88.7767 278.805 88.8805C278.762 88.9843 278.692 89.0742 278.601 89.1403C278.51 89.2064 278.403 89.2462 278.291 89.2553C278.18 89.2644 278.068 89.2423 277.967 89.1917L276.185 88.24L274.403 89.1917C274.303 89.2423 274.191 89.2644 274.079 89.2553C273.967 89.2462 273.86 89.2064 273.769 89.1403C273.679 89.0742 273.608 88.9843 273.565 88.8805C273.523 88.7767 273.509 88.6632 273.527 88.5523L273.853 86.5597L272.368 85.1471C272.285 85.0693 272.226 84.9693 272.198 84.8589C272.17 84.7485 272.174 84.6323 272.21 84.5243C272.246 84.4162 272.312 84.3208 272.401 84.2493C272.49 84.1778 272.597 84.1333 272.71 84.121L274.7 83.8236L275.591 82.0095C275.627 81.8812 275.703 81.768 275.809 81.6875C275.915 81.6069 276.045 81.5632 276.178 81.5632C276.311 81.5632 276.44 81.6069 276.546 81.6875C276.652 81.768 276.729 81.8812 276.764 82.0095Z" fill="#EBEBEB"/>
<path d="M31.4738 515.989L32.3649 517.788L34.3551 518.085C34.4681 518.101 34.5744 518.148 34.662 518.221C34.7496 518.294 34.8149 518.391 34.8505 518.499C34.8861 518.607 34.8906 518.724 34.8634 518.835C34.8362 518.946 34.7784 519.047 34.6967 519.126L33.2115 520.524L33.5531 522.517C33.5706 522.628 33.5572 522.741 33.5144 522.845C33.4716 522.949 33.4009 523.039 33.3103 523.105C33.2197 523.171 33.1126 523.211 33.0008 523.22C32.889 523.229 32.7769 523.207 32.6768 523.156L30.8946 522.219L29.1123 523.156C29.0123 523.207 28.9002 523.229 28.7884 523.22C28.6766 523.211 28.5695 523.171 28.4789 523.105C28.3882 523.039 28.3176 522.949 28.2748 522.845C28.2319 522.741 28.2185 522.628 28.2361 522.517L28.5777 520.524L27.0925 519.126C27.011 519.048 26.9531 518.948 26.9251 518.838C26.8972 518.728 26.9003 518.613 26.9343 518.505C26.9682 518.397 27.0316 518.3 27.1172 518.226C27.2029 518.152 27.3075 518.103 27.4192 518.085L29.4094 517.788L30.3154 515.989C30.355 515.866 30.4325 515.759 30.5365 515.684C30.6406 515.608 30.7659 515.567 30.8946 515.567C31.0232 515.567 31.1486 515.608 31.2526 515.684C31.3567 515.759 31.4341 515.866 31.4738 515.989Z" fill="#F5F5F5"/>
<path d="M71.5257 62.8991L72.4169 64.7132L74.4219 64.9957C74.5336 65.0136 74.6382 65.0623 74.7239 65.1363C74.8095 65.2104 74.8729 65.3069 74.9068 65.415C74.9408 65.5231 74.9439 65.6385 74.916 65.7483C74.888 65.8581 74.8301 65.958 74.7486 66.0366L73.2634 67.5236L73.605 69.5013C73.6288 69.6136 73.6195 69.7303 73.5785 69.8375C73.5375 69.9446 73.4663 70.0376 73.3737 70.1051C73.2811 70.1727 73.1709 70.2121 73.0565 70.2184C72.942 70.2247 72.8282 70.1977 72.7288 70.1407L70.9465 69.2039L69.1643 70.1407C69.0648 70.1977 68.951 70.2247 68.8366 70.2184C68.7221 70.2121 68.6119 70.1727 68.5193 70.1051C68.4267 70.0376 68.3556 69.9446 68.3145 69.8375C68.2735 69.7303 68.2643 69.6136 68.288 69.5013L68.6148 67.5236L67.1296 66.0366C67.0478 65.957 66.9901 65.856 66.9629 65.7451C66.9357 65.6342 66.9401 65.5179 66.9757 65.4094C67.0113 65.3009 67.0767 65.2046 67.1642 65.1315C67.2518 65.0583 67.3582 65.0113 67.4712 64.9957L69.4613 64.7132L70.4119 62.8991C70.4596 62.791 70.5376 62.6992 70.6365 62.6347C70.7353 62.5702 70.8508 62.5359 70.9688 62.5359C71.0868 62.5359 71.2023 62.5702 71.3011 62.6347C71.4 62.6992 71.478 62.791 71.5257 62.8991Z" fill="#EBEBEB"/>
<path d="M69.1224 421.292C69.1254 421.683 69.012 422.067 68.7968 422.394C68.5815 422.722 68.2741 422.977 67.9134 423.129C67.5527 423.281 67.1551 423.323 66.7709 423.248C66.3868 423.173 66.0335 422.986 65.7557 422.71C65.478 422.434 65.2884 422.082 65.2109 421.698C65.1335 421.314 65.1717 420.915 65.3208 420.553C65.4699 420.191 65.723 419.881 66.0482 419.663C66.3733 419.445 66.7558 419.329 67.1471 419.329C67.6685 419.329 68.1686 419.535 68.5387 419.903C68.9087 420.271 69.1185 420.77 69.1224 421.292Z" fill="#EBEBEB"/>
<path d="M350.622 173.815C350.625 174.207 350.512 174.591 350.297 174.918C350.082 175.245 349.774 175.501 349.413 175.653C349.053 175.805 348.655 175.846 348.271 175.772C347.887 175.697 347.533 175.51 347.256 175.234C346.978 174.958 346.788 174.605 346.711 174.221C346.634 173.837 346.672 173.439 346.821 173.077C346.97 172.714 347.223 172.405 347.548 172.187C347.873 171.969 348.256 171.852 348.647 171.852C348.906 171.85 349.162 171.9 349.402 171.997C349.641 172.095 349.859 172.239 350.043 172.422C350.227 172.604 350.372 172.821 350.472 173.061C350.571 173.3 350.622 173.556 350.622 173.815Z" fill="#EBEBEB"/>
<path d="M248.208 64.537C248.208 64.9282 248.093 65.3105 247.876 65.6358C247.658 65.961 247.35 66.2145 246.989 66.3642C246.628 66.5139 246.231 66.553 245.848 66.4767C245.465 66.4004 245.113 66.2121 244.836 65.9355C244.56 65.6589 244.372 65.3065 244.296 64.9229C244.22 64.5392 244.259 64.1416 244.408 63.7802C244.558 63.4188 244.811 63.1099 245.136 62.8926C245.461 62.6753 245.842 62.5593 246.233 62.5593C246.756 62.5632 247.256 62.7728 247.626 63.1429C247.995 63.5129 248.205 64.0137 248.208 64.537Z" fill="#F5F5F5"/>
<path d="M251.335 546.534C257.202 545.147 260.836 539.261 259.451 533.386C258.067 527.511 252.187 523.873 246.32 525.26C240.452 526.646 236.818 532.533 238.203 538.407C239.588 544.282 245.467 547.92 251.335 546.534Z" fill="#F0F0F0"/>
<path d="M245.069 529.501C242.833 529.496 240.653 530.205 238.846 531.523C237.923 533.643 237.696 536.002 238.199 538.259C238.701 540.516 239.907 542.555 241.642 544.082C243.376 545.609 245.551 546.545 247.851 546.754C250.151 546.964 252.459 546.436 254.44 545.248C255.317 543.624 255.758 541.799 255.719 539.953C255.68 538.107 255.163 536.302 254.219 534.716C253.274 533.13 251.934 531.817 250.33 530.905C248.726 529.994 246.913 529.515 245.069 529.516V529.501Z" fill="#E6E6E6"/>
<g opacity="0.3">
<path d="M262.911 148.086C262.911 148.69 262.732 149.28 262.396 149.782C262.06 150.284 261.583 150.675 261.025 150.905C260.467 151.135 259.853 151.195 259.261 151.076C258.669 150.957 258.126 150.665 257.7 150.237C257.274 149.809 256.985 149.264 256.869 148.671C256.753 148.079 256.816 147.465 257.049 146.908C257.283 146.351 257.676 145.876 258.18 145.543C258.683 145.21 259.274 145.034 259.878 145.037C260.278 145.037 260.673 145.116 261.042 145.27C261.411 145.423 261.746 145.648 262.028 145.931C262.31 146.215 262.533 146.551 262.685 146.921C262.836 147.291 262.913 147.687 262.911 148.086Z" fill="#5250F7"/>
<path d="M54.1523 265.21C55.341 265.21 56.3047 264.246 56.3047 263.057C56.3047 261.869 55.341 260.905 54.1523 260.905C52.9636 260.905 52 261.869 52 263.057C52 264.246 52.9636 265.21 54.1523 265.21Z" fill="#5250F7"/>
<path d="M409.746 579.533C411.448 579.533 412.828 578.153 412.828 576.451C412.828 574.749 411.448 573.369 409.746 573.369C408.044 573.369 406.664 574.749 406.664 576.451C406.664 578.153 408.044 579.533 409.746 579.533Z" fill="#5250F7"/>
<path d="M483.855 454.143C485.044 454.143 486.008 453.179 486.008 451.99C486.008 450.801 485.044 449.838 483.855 449.838C482.667 449.838 481.703 450.801 481.703 451.99C481.703 453.179 482.667 454.143 483.855 454.143Z" fill="#5250F7"/>
<path d="M626.805 66.5584C626.805 66.9841 626.678 67.4002 626.442 67.7542C626.205 68.1081 625.869 68.384 625.476 68.5469C625.083 68.7098 624.65 68.7524 624.232 68.6694C623.815 68.5863 623.431 68.3813 623.13 68.0803C622.829 67.7793 622.624 67.3958 622.541 66.9783C622.458 66.5608 622.501 66.128 622.664 65.7347C622.827 65.3415 623.103 65.0053 623.457 64.7688C623.81 64.5323 624.227 64.4061 624.652 64.4061C625.223 64.4061 625.771 64.6328 626.174 65.0365C626.578 65.4401 626.805 65.9876 626.805 66.5584Z" fill="#5250F7"/>
<path d="M216.852 23.1529C216.852 23.5786 216.725 23.9947 216.489 24.3487C216.252 24.7026 215.916 24.9785 215.523 25.1414C215.13 25.3043 214.697 25.3469 214.279 25.2639C213.862 25.1808 213.478 24.9758 213.177 24.6748C212.876 24.3738 212.671 23.9903 212.588 23.5728C212.505 23.1553 212.548 22.7225 212.711 22.3292C212.874 21.9359 213.149 21.5998 213.503 21.3633C213.857 21.1268 214.274 21.0005 214.699 21.0005C215.269 21.0048 215.814 21.2329 216.216 21.6357C216.619 22.0384 216.847 22.5834 216.852 23.1529Z" fill="#5250F7"/>
<path d="M387.98 136.085C389.169 136.085 390.133 135.122 390.133 133.933C390.133 132.744 389.169 131.781 387.98 131.781C386.792 131.781 385.828 132.744 385.828 133.933C385.828 135.122 386.792 136.085 387.98 136.085Z" fill="#5250F7"/>
</g>
<path d="M165.452 136.102C185.183 136.102 201.178 120.107 201.178 100.376C201.178 80.6453 185.183 64.6505 165.452 64.6505C145.721 64.6505 129.727 80.6453 129.727 100.376C129.727 120.107 145.721 136.102 165.452 136.102Z" fill="#5250F7"/>
<path opacity="0.7" d="M165.452 136.102C185.183 136.102 201.178 120.107 201.178 100.376C201.178 80.6453 185.183 64.6505 165.452 64.6505C145.721 64.6505 129.727 80.6453 129.727 100.376C129.727 120.107 145.721 136.102 165.452 136.102Z" fill="white"/>
<path opacity="0.2" d="M153.146 73.4231C148.281 73.4082 143.464 74.3905 138.993 76.3092C133.498 82.3487 130.236 90.0875 129.751 98.2382C129.265 106.389 131.585 114.46 136.325 121.109C141.064 127.758 147.937 132.584 155.801 134.783C163.664 136.983 172.043 136.424 179.545 133.199C184.196 128.074 187.258 121.708 188.361 114.876C189.464 108.043 188.559 101.037 185.756 94.709C182.954 88.3807 178.375 83.0022 172.574 79.2265C166.774 75.4508 160.002 73.4404 153.081 73.4394L153.146 73.4231Z" fill="#5250F7"/>
<path opacity="0.2" d="M149.593 82.8639C149.593 83.5089 149.401 84.1394 149.043 84.6757C148.685 85.212 148.175 85.63 147.579 85.8768C146.984 86.1236 146.328 86.1882 145.695 86.0624C145.063 85.9365 144.482 85.6259 144.025 85.1699C143.569 84.7138 143.259 84.1327 143.133 83.5001C143.007 82.8675 143.072 82.2118 143.319 81.6159C143.565 81.02 143.983 80.5107 144.52 80.1524C145.056 79.794 145.686 79.6028 146.331 79.6028C147.196 79.6028 148.026 79.9464 148.637 80.5579C149.249 81.1695 149.593 81.999 149.593 82.8639Z" fill="#5250F7"/>
<path opacity="0.2" d="M188.007 79.6029C188.007 80.2478 187.815 80.8783 187.457 81.4146C187.099 81.9509 186.589 82.3689 185.993 82.6157C185.398 82.8626 184.742 82.9271 184.109 82.8013C183.477 82.6755 182.896 82.3649 182.44 81.9088C181.983 81.4527 181.673 80.8717 181.547 80.2391C181.421 79.6065 181.486 78.9508 181.733 78.3549C181.979 77.759 182.397 77.2497 182.934 76.8913C183.47 76.533 184.101 76.3417 184.745 76.3417C185.61 76.3417 186.44 76.6853 187.051 77.2969C187.663 77.9085 188.007 78.738 188.007 79.6029Z" fill="#5250F7"/>
<path opacity="0.2" d="M181.486 102.887C181.486 103.945 181.172 104.979 180.584 105.858C179.997 106.738 179.161 107.424 178.184 107.828C177.207 108.233 176.131 108.339 175.094 108.133C174.056 107.926 173.104 107.417 172.356 106.669C171.608 105.921 171.098 104.968 170.892 103.931C170.685 102.893 170.791 101.818 171.196 100.84C171.601 99.8632 172.286 99.028 173.166 98.4403C174.046 97.8526 175.08 97.5389 176.137 97.5389C177.556 97.5389 178.916 98.1024 179.919 99.1054C180.922 100.108 181.486 101.469 181.486 102.887Z" fill="#5250F7"/>
<path opacity="0.2" d="M164.495 118.133C164.495 119.546 164.076 120.926 163.291 122.101C162.506 123.275 161.391 124.191 160.086 124.731C158.781 125.272 157.345 125.413 155.959 125.138C154.574 124.862 153.302 124.182 152.303 123.183C151.304 122.184 150.624 120.912 150.348 119.526C150.073 118.141 150.214 116.705 150.755 115.4C151.295 114.095 152.211 112.98 153.385 112.195C154.559 111.41 155.94 110.991 157.353 110.991C159.247 110.991 161.064 111.744 162.403 113.083C163.742 114.422 164.495 116.239 164.495 118.133Z" fill="#5250F7"/>
<path d="M588.862 531.311C592.84 514.456 582.402 497.569 565.548 493.591C548.693 489.613 531.806 500.051 527.828 516.905C523.85 533.759 534.288 550.647 551.142 554.625C567.996 558.603 584.884 548.165 588.862 531.311Z" fill="#5250F7"/>
<path opacity="0.3" d="M588.862 531.311C592.84 514.456 582.402 497.569 565.548 493.591C548.693 489.613 531.806 500.051 527.828 516.905C523.85 533.759 534.288 550.647 551.142 554.625C567.996 558.603 584.884 548.165 588.862 531.311Z" fill="white"/>
<path opacity="0.4" d="M578.153 499.831C571.202 497.733 563.738 498.113 557.037 500.908C550.335 503.702 544.812 508.736 541.41 515.151C538.008 521.565 536.94 528.962 538.386 536.077C539.833 543.192 543.705 549.584 549.341 554.161C552.264 555.049 555.303 555.5 558.358 555.498C564.831 555.497 571.145 553.492 576.434 549.759C581.722 546.025 585.725 540.747 587.894 534.648C590.063 528.549 590.291 521.928 588.547 515.694C586.803 509.46 583.172 503.919 578.153 499.831Z" fill="#5250F7"/>
<path d="M528.419 533.518C494.943 549.269 519.907 561.417 567.079 544.459C610.762 528.757 627.41 508.962 588.277 515.109C590.38 523.343 535.675 544.655 528.419 533.518Z" fill="#5250F7"/>
<path d="M160.53 345.933H70.1562V305.085L160.53 197.516H203.779V307.405H226.191V345.933H203.779V379.36H160.53V345.933ZM160.53 307.405V251.137L112.767 307.405H160.53Z" fill="#5250F7"/>
<path d="M241.654 289.236C241.654 255.244 247.763 231.452 259.981 217.861C272.199 204.27 290.819 197.479 315.839 197.489C327.85 197.489 337.716 198.976 345.439 201.95C352.455 204.481 358.879 208.423 364.316 213.534C368.899 217.914 372.781 222.975 375.827 228.537C378.84 234.345 381.111 240.51 382.584 246.887C385.942 260.509 387.618 274.492 387.574 288.522C387.574 320.959 382.094 344.696 371.133 359.734C360.173 374.773 341.296 382.297 314.503 382.307C299.473 382.307 287.329 379.908 278.071 375.11C268.739 370.234 260.878 362.949 255.303 354.009C250.996 347.427 247.644 338.421 245.248 326.991C242.761 314.563 241.556 301.911 241.654 289.236ZM290.873 289.355C290.873 312.156 292.878 327.705 296.888 336.002C300.898 344.299 306.725 348.468 314.369 348.508C316.795 348.535 319.202 348.08 321.45 347.168C323.699 346.257 325.745 344.908 327.469 343.199C331.172 339.66 333.894 334.069 335.637 326.426C337.38 318.783 338.251 306.887 338.251 290.738C338.251 267.006 336.241 251.05 332.221 242.872C328.201 234.693 322.171 230.609 314.131 230.619C305.933 230.619 299.992 234.788 296.309 243.125C292.626 251.462 290.814 266.872 290.873 289.355Z" fill="#5250F7"/>
<path d="M493.304 345.933H402.93V305.085L493.304 197.516H536.553V307.405H559.039V345.933H536.553V379.36H493.304V345.933ZM493.304 307.405V251.137L445.555 307.405H493.304Z" fill="#5250F7"/>
<path opacity="0.2" d="M526.516 197.516C486.58 224.535 434.88 260.223 420.607 345.933H417.562C431.449 261.174 481.263 224.639 521.214 197.516H526.516Z" fill="black"/>
<path d="M319.925 465.832C294.677 465.832 269.711 454.427 257.547 435.81C250.047 424.3 241.328 400.196 267.29 368.033L269.592 369.906C251.235 392.657 247.848 415.482 260.042 434.189C274.894 456.94 309.93 468.389 339.841 460.241C370.481 451.899 389.076 425.222 390.873 387.051C397.007 256.479 466.291 216.256 516.877 186.888C548.318 168.642 571.027 155.468 566.037 127.646C565.339 123.795 563.809 121.133 561.329 119.497C554.868 115.23 542.244 118.189 527.63 121.594C498.95 128.285 459.682 137.445 436.29 97.6088L438.859 96.1218C461.137 134.085 497.629 125.564 526.961 118.724C542.244 115.17 555.432 112.092 562.962 117.044C566.156 119.14 568.116 122.456 568.903 127.155C574.265 157.014 549.596 171.349 518.332 189.49C468.326 218.516 399.858 258.263 393.799 387.259C391.927 426.813 372.531 454.486 340.569 463.185C333.836 464.98 326.893 465.87 319.925 465.832Z" fill="#5250F7"/>
<path opacity="0.2" d="M319.925 465.832C294.677 465.832 269.711 454.427 257.547 435.81C250.047 424.3 241.328 400.196 267.29 368.033L269.592 369.906C251.235 392.657 247.848 415.482 260.042 434.189C274.894 456.94 309.93 468.389 339.841 460.241C370.481 451.899 389.076 425.222 390.873 387.051C397.007 256.479 466.291 216.256 516.877 186.888C548.318 168.642 571.027 155.468 566.037 127.646C565.339 123.795 563.809 121.133 561.329 119.497C554.868 115.23 542.244 118.189 527.63 121.594C498.95 128.285 459.682 137.445 436.29 97.6088L438.859 96.1218C461.137 134.085 497.629 125.564 526.961 118.724C542.244 115.17 555.432 112.092 562.962 117.044C566.156 119.14 568.116 122.456 568.903 127.155C574.265 157.014 549.596 171.349 518.332 189.49C468.326 218.516 399.858 258.263 393.799 387.259C391.927 426.813 372.531 454.486 340.569 463.185C333.836 464.98 326.893 465.87 319.925 465.832Z" fill="white"/>
<path d="M405.711 62.4539C412.554 62.4934 419.353 63.561 425.88 65.6211C425.88 65.6211 442.217 93.5319 444.148 99.926C443.465 106.231 432.845 116.565 432.845 116.565L405.711 62.4539Z" fill="#5250F7"/>
<path opacity="0.3" d="M405.711 62.4539C412.554 62.4934 419.353 63.561 425.88 65.6211C425.88 65.6211 442.217 93.5319 444.148 99.926C443.465 106.231 432.845 116.565 432.845 116.565L405.711 62.4539Z" fill="white"/>
<path d="M454.1 197.964C447.808 190.262 442.071 182.122 436.931 173.607C435.683 171.456 434.5 169.265 433.381 167.034C432.743 165.771 432.134 164.507 431.54 163.228C430.76 161.983 430.155 160.637 429.742 159.228C427.96 140.388 434.406 126.514 428.257 111.391L403.781 120.968C403.781 120.968 405.861 147.912 410.613 164.09C413.584 174.098 420.237 182.752 426.668 190.767C428.673 193.265 430.604 195.837 432.609 198.35C434.614 200.863 436.634 202.901 438.55 205.265C441.446 208.849 442.396 212.284 440.213 216.507L439.842 217.176C439.218 218.276 442.129 219.525 443.971 217.176C446.941 213.339 446.525 213.577 449.109 210.306C450.684 208.328 452.481 206.172 454.04 204.358C454.793 203.466 455.21 202.339 455.221 201.172C455.232 200.004 454.835 198.87 454.1 197.964Z" fill="#5250F7"/>
<path opacity="0.7" d="M454.1 197.964C447.808 190.262 442.071 182.122 436.931 173.607C435.683 171.456 434.5 169.265 433.381 167.034C432.743 165.771 432.134 164.507 431.54 163.228C430.76 161.983 430.155 160.637 429.742 159.228C427.96 140.388 434.406 126.514 428.257 111.391L403.781 120.968C403.781 120.968 405.861 147.912 410.613 164.09C413.584 174.098 420.237 182.752 426.668 190.767C428.673 193.265 430.604 195.837 432.609 198.35C434.614 200.863 436.634 202.901 438.55 205.265C441.446 208.849 442.396 212.284 440.213 216.507L439.842 217.176C439.218 218.276 442.129 219.525 443.971 217.176C446.941 213.339 446.525 213.577 449.109 210.306C450.684 208.328 452.481 206.172 454.04 204.358C454.793 203.466 455.21 202.339 455.221 201.172C455.232 200.004 454.835 198.87 454.1 197.964Z" fill="white"/>
<path opacity="0.3" d="M448.112 190.215C444.228 194.384 439.917 198.132 435.25 201.397C435.889 202.111 436.512 202.884 437.151 203.568C441.824 200.408 446.067 196.654 449.775 192.401L448.112 190.215Z" fill="#5250F7"/>
<path opacity="0.3" d="M454.096 197.967L453.918 197.759C452.775 199.071 452.11 200.733 452.032 202.472C451.936 203.666 452.13 204.864 452.596 205.967L454.007 204.286C454.744 203.403 455.156 202.293 455.172 201.142C455.188 199.992 454.808 198.87 454.096 197.967Z" fill="#5250F7"/>
<path d="M399.89 80.2995C397.237 84.2774 394.054 87.8744 390.43 90.991C388.42 92.7254 386.217 94.2222 383.865 95.452C382.63 96.0859 381.349 96.6276 380.033 97.0728L379.024 97.3999L378.697 97.4891L377.999 97.6824C377.569 97.7846 377.132 97.8541 376.692 97.8906C375.439 97.9866 374.179 97.8709 372.964 97.5486C371.432 97.1133 369.964 96.4784 368.597 95.6601C367.498 95.0165 366.432 94.3167 365.404 93.5635C363.547 92.1806 361.772 90.6911 360.087 89.1025C356.839 86.0206 353.857 82.6678 351.176 79.0802C350.66 78.3813 350.403 77.5239 350.451 76.6559C350.499 75.7878 350.847 74.9637 351.437 74.3257C352.027 73.6877 352.821 73.2757 353.681 73.161C354.542 73.0463 355.416 73.236 356.151 73.6973H356.27C359.775 75.9278 363.31 78.2772 366.756 80.3739C368.508 81.3999 370.201 82.4408 371.88 83.2438C372.646 83.6454 373.434 84.0028 374.241 84.3144C374.744 84.5366 375.282 84.6675 375.83 84.701C375.919 84.701 375.83 84.5969 375.281 84.6118C375.108 84.6014 374.934 84.6014 374.761 84.6118L374.434 84.6861L374.924 84.4334C375.584 84.0779 376.224 83.6857 376.84 83.2586C378.169 82.3205 379.412 81.2655 380.553 80.1062C383.148 77.3838 385.578 74.5088 387.831 71.4966C389.065 70.1141 390.771 69.2432 392.613 69.0548C394.455 68.8665 396.302 69.3742 397.789 70.4784C399.277 71.5826 400.299 73.2035 400.655 75.0233C401.011 76.843 400.675 78.7301 399.712 80.3144L399.89 80.2995Z" fill="#5250F7"/>
<path opacity="0.7" d="M399.89 80.2995C397.237 84.2774 394.054 87.8744 390.43 90.991C388.42 92.7254 386.217 94.2222 383.865 95.452C382.63 96.0859 381.349 96.6276 380.033 97.0728L379.024 97.3999L378.697 97.4891L377.999 97.6824C377.569 97.7846 377.132 97.8541 376.692 97.8906C375.439 97.9866 374.179 97.8709 372.964 97.5486C371.432 97.1133 369.964 96.4784 368.597 95.6601C367.498 95.0165 366.432 94.3167 365.404 93.5635C363.547 92.1806 361.772 90.6911 360.087 89.1025C356.839 86.0206 353.857 82.6678 351.176 79.0802C350.66 78.3813 350.403 77.5239 350.451 76.6559C350.499 75.7878 350.847 74.9637 351.437 74.3257C352.027 73.6877 352.821 73.2757 353.681 73.161C354.542 73.0463 355.416 73.236 356.151 73.6973H356.27C359.775 75.9278 363.31 78.2772 366.756 80.3739C368.508 81.3999 370.201 82.4408 371.88 83.2438C372.646 83.6454 373.434 84.0028 374.241 84.3144C374.744 84.5366 375.282 84.6675 375.83 84.701C375.919 84.701 375.83 84.5969 375.281 84.6118C375.108 84.6014 374.934 84.6014 374.761 84.6118L374.434 84.6861L374.924 84.4334C375.584 84.0779 376.224 83.6857 376.84 83.2586C378.169 82.3205 379.412 81.2655 380.553 80.1062C383.148 77.3838 385.578 74.5088 387.831 71.4966C389.065 70.1141 390.771 69.2432 392.613 69.0548C394.455 68.8665 396.302 69.3742 397.789 70.4784C399.277 71.5826 400.299 73.2035 400.655 75.0233C401.011 76.843 400.675 78.7301 399.712 80.3144L399.89 80.2995Z" fill="white"/>
<path d="M345.606 70.5133L347.343 73.4873C347.343 73.4873 348.665 77.3832 351.324 78.097L358.542 75.7624L358.17 75.1527C357.25 73.755 357.353 71.0338 357.665 68.7735C357.977 66.5133 356.819 66.439 355.957 67.004C355.347 67.7071 354.918 68.5497 354.71 69.4576C354.356 68.9665 353.963 68.5041 353.537 68.0747L351.338 65.8739C350.877 65.4227 350.263 65.1627 349.618 65.1461C348.974 65.1296 348.347 65.3577 347.863 65.7847L346.081 67.3758C345.658 67.7673 345.381 68.2911 345.294 68.8612C345.208 69.4313 345.318 70.0139 345.606 70.5133Z" fill="#5250F7"/>
<path opacity="0.7" d="M345.606 70.5133L347.343 73.4873C347.343 73.4873 348.665 77.3832 351.324 78.097L358.542 75.7624L358.17 75.1527C357.25 73.755 357.353 71.0338 357.665 68.7735C357.977 66.5133 356.819 66.439 355.957 67.004C355.347 67.7071 354.918 68.5497 354.71 69.4576C354.356 68.9665 353.963 68.5041 353.537 68.0747L351.338 65.8739C350.877 65.4227 350.263 65.1627 349.618 65.1461C348.974 65.1296 348.347 65.3577 347.863 65.7847L346.081 67.3758C345.658 67.7673 345.381 68.2911 345.294 68.8612C345.208 69.4313 345.318 70.0139 345.606 70.5133Z" fill="white"/>
<path d="M412.998 59.8065C404.992 61.9312 397.323 65.1697 390.215 69.4273C389.106 70.1222 388.236 71.1397 387.721 72.3437C387.206 73.5476 387.071 74.8804 387.334 76.1634C390.2 90.2006 396.72 108.996 403.76 120.966L436.598 107.36C436.821 101.561 428.845 82.7954 420.721 64.6541C419.266 61.3976 416.459 58.9738 412.998 59.8065Z" fill="#5250F7"/>
<path opacity="0.8" d="M412.998 59.8065C404.992 61.9312 397.323 65.1697 390.215 69.4273C389.106 70.1222 388.236 71.1397 387.721 72.3437C387.206 73.5476 387.071 74.8804 387.334 76.1634C390.2 90.2006 396.72 108.996 403.76 120.966L436.598 107.36C436.821 101.561 428.845 82.7954 420.721 64.6541C419.266 61.3976 416.459 58.9738 412.998 59.8065Z" fill="white"/>
<path opacity="0.3" d="M425.817 76.1475L419.297 73.9617C420.782 77.7832 426.025 82.6159 429.693 85.4561C428.505 82.4821 427.183 79.3594 425.817 76.1475Z" fill="#5250F7"/>
<path d="M410.851 45.0861C408.133 39.9114 402.266 37.3091 395.227 37.8891C389.286 38.3946 384.028 44.4615 384.652 47.7329C385.276 51.0043 390.266 52.4021 391.217 53.5322L387.103 56.5062C386.615 56.8583 386.204 57.3056 385.894 57.8211C385.584 58.3365 385.381 58.9094 385.298 59.5054C385.214 60.1014 385.252 60.708 385.409 61.2889C385.567 61.8697 385.839 62.4128 386.211 62.8853C387.949 65.0861 390.236 67.3463 391.558 69.0117C402.935 68.7143 411.356 64.3723 414.4 60.1939C413.257 54.9002 413.495 50.2311 410.851 45.0861Z" fill="#5250F7"/>
<path opacity="0.8" d="M410.851 45.0861C408.133 39.9114 402.266 37.3091 395.227 37.8891C389.286 38.3946 384.028 44.4615 384.652 47.7329C385.276 51.0043 390.266 52.4021 391.217 53.5322L387.103 56.5062C386.615 56.8583 386.204 57.3056 385.894 57.8211C385.584 58.3365 385.381 58.9094 385.298 59.5054C385.214 60.1014 385.252 60.708 385.409 61.2889C385.567 61.8697 385.839 62.4128 386.211 62.8853C387.949 65.0861 390.236 67.3463 391.558 69.0117C402.935 68.7143 411.356 64.3723 414.4 60.1939C413.257 54.9002 413.495 50.2311 410.851 45.0861Z" fill="white"/>
<path d="M405.265 48.3003C406.072 50.3741 406.248 52.641 405.769 54.8146C405.29 56.9882 404.178 58.9708 402.574 60.5119C400.97 62.0529 398.945 63.0832 396.756 63.4725C394.567 63.8619 392.312 63.5927 390.276 62.6992C388.24 61.8056 386.514 60.3277 385.317 58.4523C384.12 56.5769 383.504 54.3881 383.549 52.1627C383.594 49.9373 384.297 47.7752 385.569 45.9496C386.84 44.124 388.624 42.717 390.695 41.9063C393.474 40.8223 396.569 40.8868 399.301 42.0856C402.033 43.2844 404.177 45.5196 405.265 48.3003Z" fill="#263238"/>
<path d="M501.703 182.304C501.54 177.412 501.317 177.843 501.183 173.724C501.094 171.197 501.079 168.386 501.064 165.962C501.059 164.811 500.658 163.697 499.927 162.809C499.196 161.92 498.182 161.311 497.054 161.085C495.094 160.684 493.119 160.312 491.114 159.895C488.544 159.345 486.005 158.75 483.495 158.022C481.534 157.457 479.603 156.832 477.688 156.133C475.772 155.434 473.618 154.646 471.628 153.724C469.281 152.728 466.964 151.658 464.677 150.542C462.108 149.323 459.568 148.044 457.028 146.75C447.256 130.557 447.048 119.881 436.562 107.36L414.047 117.561C414.047 117.561 430.592 146.944 441.85 159.405C448.34 166.572 458.514 169.814 467.588 172.163C474.138 173.843 480.777 175.137 487.416 176.371C490 176.847 492.807 177.026 495.035 178.572C496.683 179.837 497.813 181.662 498.213 183.702C498.312 184.118 498.401 184.535 498.48 184.951C498.762 186.2 501.807 185.249 501.703 182.304Z" fill="#5250F7"/>
<path opacity="0.8" d="M501.703 182.304C501.54 177.412 501.317 177.843 501.183 173.724C501.094 171.197 501.079 168.386 501.064 165.962C501.059 164.811 500.658 163.697 499.927 162.809C499.196 161.92 498.182 161.311 497.054 161.085C495.094 160.684 493.119 160.312 491.114 159.895C488.544 159.345 486.005 158.75 483.495 158.022C481.534 157.457 479.603 156.832 477.688 156.133C475.772 155.434 473.618 154.646 471.628 153.724C469.281 152.728 466.964 151.658 464.677 150.542C462.108 149.323 459.568 148.044 457.028 146.75C447.256 130.557 447.048 119.881 436.562 107.36L414.047 117.561C414.047 117.561 430.592 146.944 441.85 159.405C448.34 166.572 458.514 169.814 467.588 172.163C474.138 173.843 480.777 175.137 487.416 176.371C490 176.847 492.807 177.026 495.035 178.572C496.683 179.837 497.813 181.662 498.213 183.702C498.312 184.118 498.401 184.535 498.48 184.951C498.762 186.2 501.807 185.249 501.703 182.304Z" fill="white"/>
<path opacity="0.3" d="M490.279 159.704C489.388 159.511 488.497 159.318 487.591 159.094C487.665 164.239 485.259 173.102 484.383 175.793L487.205 176.329C489.054 170.972 490.09 165.368 490.279 159.704Z" fill="#5250F7"/>
<path opacity="0.3" d="M501.121 165.965C501.117 164.816 500.717 163.704 499.989 162.816C499.262 161.927 498.25 161.317 497.126 161.088L495.641 160.805C495.879 162.496 496.743 164.035 498.062 165.118C498.909 165.902 499.925 166.482 501.032 166.813C501.121 166.545 501.121 166.248 501.121 165.965Z" fill="#5250F7"/>
<path d="M403.168 48.388C403.762 50.6482 401.237 53.0125 399.232 51.0645C397.36 49.0557 395.313 47.2193 393.113 45.5775C391.048 44.2839 393.796 42.0236 397.049 42.901C398.437 43.2501 399.719 43.932 400.785 44.8879C401.851 45.8438 402.669 47.045 403.168 48.388Z" fill="white"/>
<path d="M403.334 120.238C402.295 120.625 404.196 122.409 404.196 122.409C404.196 122.409 424.988 115.287 437.613 107.956C437.643 107.512 437.567 107.067 437.392 106.659C437.216 106.25 436.946 105.889 436.603 105.606C425.798 111.109 414.691 115.994 403.334 120.238Z" fill="#5250F7"/>
<path opacity="0.5" d="M403.334 120.238C402.295 120.625 404.196 122.409 404.196 122.409C404.196 122.409 424.988 115.287 437.613 107.956C437.643 107.512 437.567 107.067 437.392 106.659C437.216 106.25 436.946 105.889 436.603 105.606C425.798 111.109 414.691 115.994 403.334 120.238Z" fill="white"/>
<path d="M418.634 58.8269C422.733 60.9087 426.58 63.0946 430.516 65.5184C432.432 66.7377 434.333 67.9719 436.219 69.3102C438.105 70.6485 439.977 72.0165 441.863 73.563L442.561 74.1429L443.437 74.9459C443.959 75.4136 444.455 75.9101 444.922 76.4329C445.398 76.9533 445.799 77.4589 446.185 77.9199C446.571 78.3808 446.987 78.931 447.328 79.4069C448.712 81.3185 449.991 83.3041 451.16 85.3548C453.462 89.3316 455.448 93.4831 457.101 97.7712C457.406 98.5814 457.422 99.4725 457.146 100.293C456.869 101.114 456.317 101.813 455.584 102.272C454.85 102.731 453.981 102.922 453.123 102.811C452.265 102.701 451.472 102.297 450.878 101.667L450.804 101.578C447.833 98.4106 444.967 95.0797 442.086 91.9719C439.204 88.8641 436.278 85.7117 433.858 84.3288C430.486 82.2321 426.729 80.1355 423.001 78.0834L411.773 71.8381C410.032 70.9153 408.728 69.3378 408.149 67.4526C407.569 65.5675 407.762 63.5292 408.684 61.7861C409.605 60.0429 411.181 58.7378 413.064 58.1577C414.947 57.5777 416.982 57.7703 418.723 58.6931L418.634 58.8269Z" fill="#5250F7"/>
<path opacity="0.8" d="M418.634 58.8269C422.733 60.9087 426.58 63.0946 430.516 65.5184C432.432 66.7377 434.333 67.9719 436.219 69.3102C438.105 70.6485 439.977 72.0165 441.863 73.563L442.561 74.1429L443.437 74.9459C443.959 75.4136 444.455 75.9101 444.922 76.4329C445.398 76.9533 445.799 77.4589 446.185 77.9199C446.571 78.3808 446.987 78.931 447.328 79.4069C448.712 81.3185 449.991 83.3041 451.16 85.3548C453.462 89.3316 455.448 93.4831 457.101 97.7712C457.406 98.5814 457.422 99.4725 457.146 100.293C456.869 101.114 456.317 101.813 455.584 102.272C454.85 102.731 453.981 102.922 453.123 102.811C452.265 102.701 451.472 102.297 450.878 101.667L450.804 101.578C447.833 98.4106 444.967 95.0797 442.086 91.9719C439.204 88.8641 436.278 85.7117 433.858 84.3288C430.486 82.2321 426.729 80.1355 423.001 78.0834L411.773 71.8381C410.032 70.9153 408.728 69.3378 408.149 67.4526C407.569 65.5675 407.762 63.5292 408.684 61.7861C409.605 60.0429 411.181 58.7378 413.064 58.1577C414.947 57.5777 416.982 57.7703 418.723 58.6931L418.634 58.8269Z" fill="white"/>
<path d="M460.616 105.19L459.354 102.023C459.354 102.023 458.656 97.9785 456.146 96.8484L448.72 98.0231L448.972 98.6774C449.655 100.164 449.136 102.886 448.467 105.057C447.799 107.228 448.928 107.51 449.878 107.079C450.413 106.841 450.933 105.874 451.497 104.848C451.774 105.365 452.087 105.862 452.433 106.335L454.26 108.848C454.641 109.369 455.205 109.726 455.839 109.847C456.473 109.969 457.129 109.846 457.675 109.503L459.695 108.209C460.168 107.885 460.517 107.41 460.684 106.861C460.851 106.313 460.827 105.724 460.616 105.19Z" fill="#5250F7"/>
<path opacity="0.8" d="M460.616 105.19L459.354 102.023C459.354 102.023 458.656 97.9785 456.146 96.8484L448.72 98.0231L448.972 98.6774C449.655 100.164 449.136 102.886 448.467 105.057C447.799 107.228 448.928 107.51 449.878 107.079C450.413 106.841 450.933 105.874 451.497 104.848C451.774 105.365 452.087 105.862 452.433 106.335L454.26 108.848C454.641 109.369 455.205 109.726 455.839 109.847C456.473 109.969 457.129 109.846 457.675 109.503L459.695 108.209C460.168 107.885 460.517 107.41 460.684 106.861C460.851 106.313 460.827 105.724 460.616 105.19Z" fill="white"/>
<path opacity="0.3" d="M412.366 75.9265L410.554 76.0752L399.43 102.96C400.038 103.004 400.649 102.954 401.242 102.811C401.242 102.811 415.737 97.3986 420.118 95.3763C417.178 89.2945 412.366 75.9265 412.366 75.9265Z" fill="#5250F7"/>
<path d="M392.062 82.9746C393.414 90.0024 395.924 96.7562 399.488 102.96C404.924 101.086 413.984 97.5471 418.38 95.5248C415.425 89.1826 412.803 82.6906 410.523 76.075C405.875 76.3872 395.672 80.298 392.062 82.9746Z" fill="white"/>
<path opacity="0.3" d="M403.097 88.7876C402.88 89.5147 402.452 90.1611 401.868 90.6449C401.284 91.1286 400.57 91.428 399.815 91.5053C399.061 91.5825 398.301 91.434 397.631 91.0786C396.962 90.7233 396.412 90.1769 396.052 89.5088C395.693 88.8407 395.539 88.0808 395.611 87.3253C395.683 86.5697 395.977 85.8525 396.456 85.2643C396.935 84.6761 397.578 84.2433 398.302 84.0208C399.027 83.7983 399.801 83.7961 400.527 84.0143C401.5 84.3067 402.317 84.9736 402.799 85.8686C403.28 86.7636 403.388 87.8135 403.097 88.7876Z" fill="#5250F7"/>
<path opacity="0.6" d="M405.929 83.6732C405.871 83.9214 405.74 84.1463 405.552 84.3183C405.364 84.4904 405.129 84.6015 404.877 84.6372C404.625 84.673 404.368 84.6315 404.14 84.5184C403.911 84.4053 403.723 84.2257 403.598 84.0033C403.474 83.7809 403.42 83.5261 403.443 83.2722C403.465 83.0184 403.564 82.7774 403.727 82.5809C403.889 82.3843 404.106 82.2415 404.351 82.171C404.596 82.1006 404.856 82.1059 405.098 82.1862C405.399 82.2825 405.652 82.4896 405.806 82.7656C405.96 83.0416 406.004 83.3659 405.929 83.6732Z" fill="#5250F7"/>
<path opacity="0.6" d="M409.258 82.3785C409.223 82.551 409.152 82.7144 409.051 82.858C408.949 83.0017 408.819 83.1225 408.668 83.2128C408.517 83.3031 408.349 83.3608 408.174 83.3823C408 83.4039 407.823 83.3886 407.655 83.3377C407.486 83.2867 407.331 83.2012 407.197 83.0865C407.064 82.9717 406.956 82.8304 406.881 82.6715C406.805 82.5127 406.763 82.3397 406.758 82.1638C406.753 81.9879 406.785 81.8128 406.852 81.6499C406.899 81.4926 406.977 81.3462 407.081 81.2191C407.186 81.092 407.314 80.9868 407.459 80.9094C407.603 80.832 407.762 80.7841 407.926 80.7682C408.089 80.7524 408.254 80.7691 408.411 80.8172C408.729 80.9136 408.996 81.1316 409.154 81.4238C409.313 81.7161 409.35 82.0591 409.258 82.3785Z" fill="#5250F7"/>
<path opacity="0.5" d="M413.922 93.9649L400.184 99.3924L399.367 96.686L413.09 91.2585L413.922 93.9649Z" fill="#5250F7"/>
<path opacity="0.2" d="M338.135 300.624C338.103 309.283 337.268 317.92 335.64 326.424C333.887 334.067 331.164 339.658 327.471 343.197C325.751 344.906 323.708 346.256 321.462 347.168C319.215 348.079 316.81 348.534 314.387 348.505C306.753 348.505 300.926 344.337 296.906 336C296.2 334.502 295.599 332.957 295.109 331.375C286.619 338.676 278.713 346.631 271.465 355.167L263.578 364.476C267.822 368.782 272.719 372.391 278.088 375.167C287.336 379.955 299.475 382.354 314.505 382.364C317.149 382.364 319.704 382.29 322.184 382.141C331.277 368.67 338.802 354.202 344.61 339.018L366.666 281.442L338.135 300.624Z" fill="black"/>
<path d="M139.312 379.185L165.303 405.208L238.078 336.553C212.993 326.962 164.219 354.189 139.312 379.185Z" fill="#263238"/>
<path d="M229.96 469.889C221.657 461.562 203.969 443.867 203.969 443.867L272.54 371.005C282.06 396.06 254.866 444.938 229.96 469.889Z" fill="#263238"/>
<path d="M329.436 305.874L357.788 251.137L303.118 279.554C285.558 288.672 269.344 300.182 254.938 313.755L161.742 401.591L207.531 447.435L295.261 354.126C308.824 339.7 320.325 323.461 329.436 305.874Z" fill="#5250F7"/>
<path opacity="0.6" d="M329.436 305.874L357.788 251.137L303.118 279.554C285.558 288.672 269.344 300.182 254.938 313.755L161.742 401.591L207.531 447.435L295.261 354.126C308.824 339.7 320.325 323.461 329.436 305.874Z" fill="white"/>
<path d="M271.214 356.998C281.795 356.998 290.373 348.41 290.373 337.816C290.373 327.222 281.795 318.634 271.214 318.634C260.632 318.634 252.055 327.222 252.055 337.816C252.055 348.41 260.632 356.998 271.214 356.998Z" fill="white"/>
<path d="M271.219 350.139C278.018 350.139 283.531 344.62 283.531 337.812C283.531 331.004 278.018 325.485 271.219 325.485C264.419 325.485 258.906 331.004 258.906 337.812C258.906 344.62 264.419 350.139 271.219 350.139Z" fill="#5250F7"/>
<path opacity="0.3" d="M223.018 430.961L178.18 386.069L214.894 351.481L257.563 394.217L223.018 430.961Z" fill="#5250F7"/>
<path d="M149.457 420.255C115.891 422.976 104.767 444.493 100.965 473.087C99.0345 487.675 98.1731 502.441 85.9499 510.976C85.2146 511.476 84.6609 512.202 84.3719 513.043C84.0829 513.885 84.074 514.798 84.3466 515.645C84.6192 516.493 85.1586 517.229 85.8841 517.743C86.6096 518.258 87.482 518.523 88.3708 518.5C133.432 517.087 154.447 495.006 157.091 485.786C156.397 490.606 155.156 495.33 153.393 499.868C153.068 500.669 153.005 501.552 153.211 502.391C153.418 503.23 153.883 503.982 154.541 504.541C155.2 505.099 156.017 505.436 156.878 505.502C157.738 505.568 158.598 505.36 159.333 504.909C171.972 496.983 187.834 482.381 188.889 458.693C179.591 445.504 149.457 420.255 149.457 420.255Z" fill="#5250F7"/>
<path opacity="0.2" d="M149.457 420.255C115.891 422.976 104.767 444.493 100.965 473.087C99.0345 487.675 98.1731 502.441 85.9499 510.976C85.2146 511.476 84.6609 512.202 84.3719 513.043C84.0829 513.885 84.074 514.798 84.3466 515.645C84.6192 516.493 85.1586 517.229 85.8841 517.743C86.6096 518.258 87.482 518.523 88.3708 518.5C133.432 517.087 154.447 495.006 157.091 485.786C156.397 490.606 155.156 495.33 153.393 499.868C153.068 500.669 153.005 501.552 153.211 502.391C153.418 503.23 153.883 503.982 154.541 504.541C155.2 505.099 156.017 505.436 156.878 505.502C157.738 505.568 158.598 505.36 159.333 504.909C171.972 496.983 187.834 482.381 188.889 458.693C179.591 445.504 149.457 420.255 149.457 420.255Z" fill="white"/>
<path d="M194.1 468.851L140.336 415.022L168.971 408.821L200.293 440.182L194.1 468.851Z" fill="#5250F7"/>
</svg>
