<svg width="892" height="923" viewBox="0 0 892 923" fill="none" xmlns="http://www.w3.org/2000/svg">
<path d="M824.386 184.047C829.338 181.859 833.54 178.269 836.473 173.718C839.405 169.168 840.939 163.858 840.885 158.445C840.885 143.154 829.365 130.718 815.033 130.656C800.701 130.593 789.035 142.925 788.973 158.216C788.871 163.673 790.388 169.039 793.332 173.636C796.275 178.232 800.514 181.855 805.513 184.047C765.579 190.067 767.391 233.48 767.391 233.48L861.82 233.917C861.82 233.917 863.987 190.025 824.386 184.047Z" fill="#F5F5F5"/>
<path d="M266.414 21.8314L204.69 0L143.571 21.5397C135.78 25.1644 128.989 27.3309 128.989 34.4969V70.1395C128.912 95.1727 135.894 119.72 149.133 140.966C162.458 162.622 182.083 179.688 205.378 189.879C230.376 181.879 248.999 160.59 260.415 142.362C273.638 121.11 280.612 96.5651 280.538 71.5352V39.4756C280.454 29.2682 274.955 24.2895 266.414 21.8314Z" fill="#F5F5F5"/>
<path d="M225.128 79.3682C225.143 76.1874 224.269 73.0657 222.606 70.3546C220.942 67.6436 218.555 65.4509 215.712 64.0235C212.869 62.5961 209.685 61.9908 206.517 62.2757C203.349 62.5606 200.323 63.7244 197.781 65.636C195.239 67.5476 193.28 70.131 192.127 73.0954C190.974 76.0598 190.671 79.2873 191.253 82.4144C191.835 85.5415 193.279 88.444 195.421 90.795C197.564 93.1459 200.32 94.8519 203.38 95.7209V121.281H212.713V95.7209C216.28 94.7185 219.423 92.5791 221.664 89.6276C223.905 86.6761 225.121 83.0739 225.128 79.3682Z" fill="#EBEBEB"/>
<path d="M791.2 352.156L801.72 357.863L796.992 365.779L786.368 359.53L786.576 371.216H777.493V359.426L766.973 365.717L762.328 357.801L772.848 352.093L762.328 346.302L766.973 338.386L777.577 344.885V333.095H786.659L786.451 344.885L797.075 338.511L801.804 346.427L791.2 352.156Z" fill="#E0E0E0"/>
<path d="M835.029 352.156L845.548 357.864L840.82 365.78L830.196 359.53L830.404 371.217H821.322L821.426 359.426L810.802 365.801L806.156 357.885L816.676 352.177L806.156 346.386L810.802 338.47L821.426 344.844L821.322 333.054H830.404L830.196 344.844L840.82 338.47L845.548 346.386L835.029 352.156Z" fill="#E0E0E0"/>
<path d="M878.861 352.156L889.401 357.863L884.673 365.779L874.049 359.53L874.236 371.216H865.154L865.258 359.426L854.634 365.8L849.988 357.884L860.529 352.176L850.072 346.364L854.717 338.448L865.341 344.823L865.237 333.032H874.319L874.132 344.823L884.756 338.448L889.485 346.364L878.861 352.156Z" fill="#E0E0E0"/>
<path d="M432.898 850.798V915.5H527.515H631.881V850.798H432.898Z" fill="#F5F5F5"/>
<path d="M424.543 832.696V850.799H638.836V832.696H527.513H424.543Z" fill="#EBEBEB"/>
<path d="M531.682 915.501H631.881V850.799H638.839V832.696H527.516V849.111L531.682 915.501Z" fill="#EBEBEB"/>
<path d="M501.081 861.214H460.73V870.963H501.081V861.214Z" fill="#E0E0E0"/>
<path d="M507.352 883.149H455.523V903.71H507.352V883.149Z" fill="white"/>
<path d="M463.5 768.076V832.779H558.137H662.503V768.076H463.5Z" fill="#F5F5F5"/>
<path d="M455.145 749.974V768.076H669.459V749.974H558.135H455.145Z" fill="#EBEBEB"/>
<path d="M562.307 832.779H662.506V768.076H669.464V749.974H558.141V766.41L562.307 832.779Z" fill="#EBEBEB"/>
<path d="M531.683 778.514H491.332V788.263H531.683V778.514Z" fill="#E0E0E0"/>
<path d="M537.969 800.428H486.141V820.988H537.969V800.428Z" fill="white"/>
<path d="M891.878 916.001C891.878 916.292 692.209 916.542 445.96 916.542C199.711 916.542 0 916.292 0 916.001C0 915.709 199.628 915.459 445.96 915.459C692.292 915.459 891.878 915.667 891.878 916.001Z" fill="#263238"/>
<path d="M755.893 450.543H445.462C438.122 450.543 432.172 456.493 432.172 463.833V624.527C432.172 631.867 438.122 637.818 445.462 637.818H755.893C763.233 637.818 769.183 631.867 769.183 624.527V463.833C769.183 456.493 763.233 450.543 755.893 450.543Z" fill="white"/>
<path d="M755.916 637.817C755.916 637.817 756.812 637.817 758.52 637.505C761.053 636.957 763.374 635.691 765.207 633.859C766.543 632.512 767.574 630.892 768.228 629.11C768.601 628.08 768.853 627.011 768.977 625.923C768.977 624.798 768.977 623.59 768.977 622.34C768.977 617.34 768.977 611.57 768.977 605.091C768.977 579.114 768.873 541.576 768.811 495.184C768.811 489.372 768.811 483.435 768.811 477.374V468.166C768.811 465.062 769.123 461.917 767.853 459.042C766.976 456.865 765.521 454.969 763.645 453.559C761.768 452.149 759.543 451.279 757.208 451.043C755.666 450.938 753.958 451.043 752.333 451.043H732.231H645.114H445.507C443.38 451.038 441.287 451.566 439.417 452.578C437.547 453.589 435.959 455.052 434.799 456.834C433.617 458.599 432.901 460.634 432.716 462.75C432.612 464.833 432.716 467.124 432.716 469.291V546.326C432.716 562.991 432.716 579.378 432.716 595.488V619.319C432.716 621.277 432.716 623.256 432.716 625.173C432.811 627.048 433.309 628.881 434.174 630.547C435.062 632.183 436.292 633.609 437.78 634.727C439.268 635.845 440.98 636.629 442.798 637.026C444.651 637.323 446.529 637.421 448.402 637.317H529.791H605.7L715.607 637.484L745.48 637.588L715.607 637.692L605.7 637.859H529.791H448.402C446.459 637.96 444.511 637.855 442.59 637.547C440.627 637.123 438.779 636.278 437.174 635.069C435.57 633.861 434.248 632.318 433.299 630.547C432.342 628.76 431.794 626.781 431.695 624.756C431.695 622.673 431.695 620.84 431.695 618.861C431.695 611.007 431.695 603.05 431.695 595.03V546.326C431.695 529.66 431.695 512.683 431.695 495.393V469.353C431.695 467.145 431.695 465.02 431.695 462.729C431.85 460.451 432.566 458.247 433.778 456.313C435.045 454.388 436.761 452.801 438.778 451.688C440.819 450.603 443.091 450.024 445.402 450.001H645.009H732.127H752.229C753.895 450.001 755.479 450.001 757.187 450.001C758.857 450.176 760.481 450.656 761.978 451.418C764.951 452.925 767.281 455.455 768.54 458.542C769.149 460.053 769.474 461.663 769.498 463.291C769.498 464.854 769.498 466.416 769.498 467.979V477.186C769.498 483.241 769.498 489.178 769.498 494.997C769.498 541.389 769.352 578.927 769.311 604.904C769.311 611.382 769.311 617.153 769.311 622.152C769.311 623.402 769.311 624.589 769.311 625.756C769.178 626.867 768.912 627.958 768.519 629.006C767.847 630.817 766.788 632.459 765.415 633.818C763.54 635.662 761.164 636.915 758.583 637.422C757.936 637.542 757.282 637.612 756.624 637.63L755.916 637.817Z" fill="#263238"/>
<path d="M549.601 516.724V519.057H539.852V506.559H549.351V508.892H542.747V511.537H548.58V513.808H542.747V516.724H549.601Z" fill="#263238"/>
<path d="M563.473 506.475V518.973H561.077L554.828 511.328V518.973H551.953V506.475H554.265L560.515 514.12V506.475H563.473Z" fill="#263238"/>
<path d="M569.08 508.849H565.039V506.475H576.017V508.849H571.976V519.057H569.08V508.849Z" fill="#263238"/>
<path d="M587.327 516.724V519.057H577.578V506.559H587.098V508.892H580.474V511.537H586.327V513.808H580.474V516.724H587.327Z" fill="#263238"/>
<path d="M597.683 519.057L595.246 515.558H592.579V519.057H589.684V506.559H595.141C598.495 506.559 600.599 508.288 600.599 511.121C600.625 511.968 600.391 512.803 599.929 513.514C599.468 514.225 598.8 514.778 598.016 515.1L600.828 519.141L597.683 519.057ZM594.954 508.85H592.579V513.225H594.954C596.725 513.225 597.62 512.412 597.62 511.037C597.62 509.663 596.725 508.85 594.954 508.85Z" fill="#263238"/>
<path d="M607.18 512.766C607.261 511.409 607.74 510.105 608.556 509.017C609.373 507.93 610.491 507.106 611.772 506.649C613.052 506.192 614.439 506.121 615.76 506.446C617.081 506.77 618.277 507.476 619.199 508.475L617.325 510.204C616.935 509.743 616.451 509.372 615.904 509.116C615.357 508.861 614.762 508.727 614.158 508.725C613.139 508.798 612.186 509.255 611.49 510.002C610.794 510.75 610.407 511.734 610.407 512.756C610.407 513.777 610.794 514.761 611.49 515.509C612.186 516.257 613.139 516.713 614.158 516.787C614.764 516.796 615.363 516.667 615.912 516.411C616.46 516.155 616.943 515.778 617.325 515.308L619.199 517.037C618.282 518.044 617.088 518.759 615.766 519.09C614.444 519.421 613.054 519.354 611.77 518.898C610.486 518.442 609.365 517.616 608.548 516.525C607.732 515.435 607.256 514.127 607.18 512.766Z" fill="#263238"/>
<path d="M620.116 512.766C620.041 511.388 620.381 510.019 621.092 508.837C621.804 507.654 622.854 506.712 624.107 506.133C625.359 505.554 626.757 505.364 628.119 505.587C629.481 505.811 630.744 506.439 631.746 507.389C632.747 508.338 633.441 509.567 633.736 510.915C634.032 512.263 633.916 513.669 633.403 514.951C632.891 516.232 632.006 517.33 630.863 518.104C629.719 518.877 628.37 519.289 626.99 519.287C626.104 519.338 625.216 519.207 624.383 518.902C623.549 518.597 622.786 518.124 622.142 517.514C621.498 516.903 620.986 516.166 620.638 515.35C620.289 514.533 620.111 513.654 620.116 512.766ZM630.927 512.766C630.911 511.991 630.666 511.238 630.224 510.602C629.781 509.966 629.161 509.474 628.44 509.189C627.719 508.904 626.93 508.837 626.172 508.999C625.414 509.16 624.72 509.541 624.178 510.095C623.636 510.649 623.269 511.35 623.124 512.112C622.978 512.873 623.061 513.66 623.361 514.375C623.662 515.089 624.166 515.7 624.812 516.129C625.457 516.558 626.215 516.787 626.99 516.787C627.517 516.799 628.042 516.702 628.53 516.503C629.019 516.304 629.461 516.007 629.831 515.63C630.2 515.253 630.487 514.805 630.676 514.312C630.865 513.819 630.95 513.293 630.927 512.766Z" fill="#263238"/>
<path d="M636.092 506.475H641.759C643.416 506.475 645.006 507.133 646.178 508.305C647.35 509.477 648.008 511.067 648.008 512.724C648.008 514.382 647.35 515.971 646.178 517.143C645.006 518.315 643.416 518.973 641.759 518.973H636.051L636.092 506.475ZM641.654 516.661C642.688 516.661 643.678 516.251 644.409 515.52C645.139 514.79 645.55 513.799 645.55 512.766C645.55 511.733 645.139 510.742 644.409 510.011C643.678 509.281 642.688 508.87 641.654 508.87H639.009V516.661H641.654Z" fill="#263238"/>
<path d="M660.694 516.724V519.057H650.945V506.559H660.507V508.892H653.841V511.537H659.694V513.808H653.841V516.724H660.694Z" fill="#263238"/>
<path d="M501.814 539.159H471.213C466.668 539.159 462.984 542.843 462.984 547.388V595.029C462.984 599.574 466.668 603.258 471.213 603.258H501.814C506.359 603.258 510.043 599.574 510.043 595.029V547.388C510.043 542.843 506.359 539.159 501.814 539.159Z" fill="#EBEBEB"/>
<path d="M560.58 539.159H529.978C525.434 539.159 521.75 542.843 521.75 547.388V595.029C521.75 599.574 525.434 603.258 529.978 603.258H560.58C565.124 603.258 568.808 599.574 568.808 595.029V547.388C568.808 542.843 565.124 539.159 560.58 539.159Z" fill="#EBEBEB"/>
<path d="M619.345 539.159H588.744C584.2 539.159 580.516 542.843 580.516 547.388V595.029C580.516 599.574 584.2 603.258 588.744 603.258H619.345C623.89 603.258 627.574 599.574 627.574 595.029V547.388C627.574 542.843 623.89 539.159 619.345 539.159Z" fill="#EBEBEB"/>
<path d="M678.092 539.159H647.49C642.946 539.159 639.262 542.843 639.262 547.388V595.029C639.262 599.574 642.946 603.258 647.49 603.258H678.092C682.636 603.258 686.32 599.574 686.32 595.029V547.388C686.32 542.843 682.636 539.159 678.092 539.159Z" fill="#EBEBEB"/>
<path d="M736.853 539.159H706.252C701.707 539.159 698.023 542.843 698.023 547.388V595.029C698.023 599.574 701.707 603.258 706.252 603.258H736.853C741.398 603.258 745.082 599.574 745.082 595.029V547.388C745.082 542.843 741.398 539.159 736.853 539.159Z" fill="#EBEBEB"/>
<path d="M496.773 576.115C496.773 580.677 493.232 583.656 488.44 583.656C481.858 583.656 478.379 578.927 478.379 571.157C478.379 562.699 482.899 558.325 489.503 558.325C491.48 558.236 493.445 558.682 495.19 559.616L494.44 561.074C492.931 560.246 491.223 559.85 489.503 559.929C483.899 559.929 480.212 563.616 480.212 570.886C480.211 571.89 480.281 572.892 480.42 573.886C481.006 572.275 482.104 570.9 483.544 569.971C484.985 569.042 486.69 568.61 488.399 568.74C493.398 568.74 496.773 571.657 496.773 576.115ZM494.94 576.115C494.94 572.553 492.378 570.219 488.149 570.219C487.295 570.124 486.43 570.206 485.609 570.46C484.788 570.715 484.028 571.135 483.377 571.697C482.726 572.258 482.198 572.947 481.825 573.722C481.453 574.496 481.244 575.339 481.212 576.198C481.212 579.135 483.67 582.052 488.357 582.052C489.189 582.143 490.031 582.057 490.828 581.799C491.624 581.542 492.358 581.119 492.979 580.559C493.601 579.998 494.097 579.312 494.435 578.546C494.773 577.78 494.945 576.952 494.94 576.115Z" fill="#A4A5A6"/>
<path d="M554.893 576.594H549.643V583.531H547.852V576.594H533.582V575.282L547.164 558.513H549.247L535.915 574.99H547.935V568.887H549.685V574.99H554.934L554.893 576.594Z" fill="#A4A5A6"/>
<path d="M615.49 587.092C608.238 587.815 600.932 587.815 593.68 587.092C600.932 586.37 608.238 586.37 615.49 587.092Z" fill="#A4A5A6"/>
<path d="M453.569 474.353C456.387 474.353 458.672 472.068 458.672 469.249C458.672 466.431 456.387 464.146 453.569 464.146C450.75 464.146 448.465 466.431 448.465 469.249C448.465 472.068 450.75 474.353 453.569 474.353Z" fill="#263238"/>
<path d="M473.379 469.249C473.379 470.259 473.08 471.245 472.519 472.085C471.958 472.924 471.161 473.578 470.229 473.964C469.296 474.351 468.27 474.452 467.28 474.255C466.29 474.058 465.38 473.572 464.667 472.858C463.953 472.144 463.467 471.235 463.27 470.245C463.073 469.255 463.174 468.229 463.56 467.296C463.947 466.364 464.601 465.566 465.44 465.006C466.279 464.445 467.266 464.146 468.276 464.146C469.629 464.146 470.927 464.683 471.884 465.64C472.842 466.597 473.379 467.896 473.379 469.249Z" fill="#263238"/>
<path d="M482.713 474.353C485.532 474.353 487.817 472.068 487.817 469.249C487.817 466.431 485.532 464.146 482.713 464.146C479.894 464.146 477.609 466.431 477.609 469.249C477.609 472.068 479.894 474.353 482.713 474.353Z" fill="#263238"/>
<path d="M769.705 483.623C769.705 483.914 694.233 484.164 601.179 484.164C508.125 484.164 432.652 483.914 432.652 483.623C432.652 483.331 508.083 483.081 601.179 483.081C694.275 483.081 769.705 483.31 769.705 483.623Z" fill="#263238"/>
<path d="M707.81 39.2676H335.677C328.13 39.2676 322.012 45.3858 322.012 52.933V395.298C322.012 402.845 328.13 408.964 335.677 408.964H707.81C715.358 408.964 721.476 402.845 721.476 395.298V52.933C721.476 45.3858 715.358 39.2676 707.81 39.2676Z" fill="white"/>
<path d="M707.812 408.963H708.791C709.759 408.883 710.716 408.702 711.645 408.422C713.462 407.865 715.142 406.935 716.577 405.69C718.012 404.445 719.171 402.913 719.978 401.193C721.1 398.612 721.544 395.787 721.269 392.985C721.269 389.882 721.269 386.465 721.269 382.778C721.269 375.404 721.269 366.884 721.269 357.301C721.269 318.971 721.165 263.56 721.082 194.982C721.082 160.715 721.082 123.197 721.082 82.8883C721.082 72.8337 721.082 62.6054 721.082 52.2036C720.925 49.6604 720.036 47.217 718.52 45.169C717.004 43.1209 714.927 41.5558 712.541 40.6629C710.059 39.8782 707.446 39.5949 704.854 39.8297H630.507H335.721C332.593 39.8478 329.573 40.9775 327.201 43.0169C324.75 45.0862 323.148 47.986 322.701 51.162C322.558 52.7548 322.509 54.3547 322.555 55.9532V184.213C322.555 233.521 322.555 281.079 322.555 326.387C322.555 349.052 322.555 371.126 322.555 392.61C322.555 393.944 322.555 395.319 322.555 396.589C322.676 397.868 322.977 399.124 323.451 400.318C324.415 402.71 326.059 404.767 328.18 406.234C330.279 407.7 332.765 408.511 335.325 408.567H373.884H485.978L648.297 408.755H692.418L648.297 408.859L485.978 409.026H373.884H335.304C332.552 408.956 329.88 408.083 327.619 406.514C325.357 404.944 323.604 402.747 322.576 400.193C322.065 398.912 321.735 397.566 321.597 396.193C321.493 394.777 321.597 393.485 321.597 392.131C321.597 370.647 321.597 348.573 321.597 325.908C321.597 280.6 321.597 233.041 321.597 183.733C321.597 159.069 321.597 133.995 321.597 108.511V55.8491C321.54 54.2015 321.596 52.552 321.764 50.912C322.222 47.524 323.913 44.4238 326.513 42.2045C329.067 39.9716 332.329 38.7168 335.721 38.6631H630.507H704.729C707.437 38.4295 710.164 38.7412 712.749 39.5797C715.304 40.5359 717.526 42.2113 719.149 44.4034C720.772 46.5955 721.726 49.2106 721.894 51.9328C721.894 62.3485 721.894 72.5976 721.894 82.68C721.894 122.989 721.894 160.506 721.894 194.774C721.894 263.31 721.769 318.763 721.728 357.093C721.728 366.675 721.728 375.195 721.728 382.57C721.728 386.257 721.728 389.673 721.728 392.777C721.992 395.627 721.519 398.496 720.353 401.11C719.308 403.3 717.696 405.171 715.686 406.529C713.675 407.888 711.338 408.685 708.916 408.838L707.812 408.963Z" fill="#263238"/>
<path d="M352.199 64.8907C352.199 66.2594 351.793 67.5974 351.032 68.7352C350.271 69.873 349.19 70.7594 347.925 71.2822C346.66 71.8051 345.268 71.9408 343.926 71.6723C342.584 71.4037 341.352 70.743 340.385 69.7737C339.419 68.8043 338.762 67.5701 338.498 66.2271C338.233 64.8842 338.373 63.4929 338.9 62.2296C339.426 60.9662 340.316 59.8875 341.456 59.1301C342.596 58.3726 343.935 57.9705 345.304 57.9746C346.211 57.9746 347.11 58.1537 347.948 58.5015C348.786 58.8493 349.547 59.3591 350.187 60.0016C350.828 60.644 351.335 61.4066 351.68 62.2456C352.026 63.0846 352.202 63.9834 352.199 64.8907Z" fill="#263238"/>
<path d="M365.426 71.7846C369.235 71.7846 372.322 68.6975 372.322 64.8894C372.322 61.0812 369.235 57.9941 365.426 57.9941C361.618 57.9941 358.531 61.0812 358.531 64.8894C358.531 68.6975 361.618 71.7846 365.426 71.7846Z" fill="#263238"/>
<path d="M385.591 71.7846C389.399 71.7846 392.486 68.6975 392.486 64.8894C392.486 61.0812 389.399 57.9941 385.591 57.9941C381.782 57.9941 378.695 61.0812 378.695 64.8894C378.695 68.6975 381.782 71.7846 385.591 71.7846Z" fill="#263238"/>
<path d="M721.476 84.4928C721.476 84.8053 632.046 85.0344 521.744 85.0344C411.441 85.0344 322.012 84.8053 322.012 84.4928C322.012 84.1803 411.42 83.9512 521.744 83.9512C632.067 83.9512 721.476 84.1803 721.476 84.4928Z" fill="#263238"/>
<path d="M578.177 223.751C578.177 223.751 578.323 223.521 578.656 223.105L578.927 222.751L579.198 222.271C579.428 221.884 579.63 221.48 579.802 221.063C579.802 220.834 580.01 220.584 580.094 220.313L580.344 219.438C580.435 219.117 580.505 218.79 580.552 218.459C580.552 218.105 580.677 217.751 580.698 217.376C580.834 215.643 580.75 213.901 580.448 212.189C579.571 207.504 577.968 202.985 575.698 198.794C572.771 193.201 569.348 187.882 565.47 182.9C560.803 176.841 555.714 171.119 550.242 165.777C543.978 159.627 537.288 153.926 530.223 148.716C526.494 145.966 522.557 143.299 518.412 140.8C514.185 138.218 509.794 135.914 505.267 133.904C500.614 131.781 495.716 130.241 490.685 129.322C488.113 128.863 485.486 128.8 482.894 129.134C481.593 129.319 480.324 129.683 479.124 130.217C477.946 130.795 476.881 131.578 475.978 132.53C475.116 133.527 474.452 134.68 474.02 135.925C473.628 137.181 473.411 138.485 473.374 139.8C473.34 142.415 473.698 145.02 474.437 147.528C475.93 152.436 478.03 157.138 480.686 161.527C483.19 165.796 485.973 169.895 489.019 173.797C491.977 177.63 495.081 181.254 498.226 184.65C504.209 191.077 510.642 197.071 517.474 202.586C523.403 207.42 529.669 211.826 536.223 215.772C541.615 219.051 547.29 221.839 553.18 224.105C557.607 225.871 562.279 226.953 567.032 227.313C568.762 227.398 570.496 227.279 572.199 226.959C572.574 226.959 572.907 226.771 573.24 226.688C573.565 226.602 573.885 226.498 574.198 226.375L575.032 226.021L575.761 225.646C576.158 225.43 576.534 225.179 576.886 224.896L577.323 224.584L577.656 224.271C578.031 223.896 578.24 223.73 578.24 223.73L577.677 224.292L577.344 224.605L576.927 224.938C576.572 225.226 576.188 225.477 575.782 225.688L575.094 226.146L574.24 226.5C573.936 226.629 573.623 226.734 573.303 226.813C572.955 226.932 572.6 227.029 572.24 227.104C570.528 227.455 568.777 227.581 567.032 227.479C562.266 227.155 557.579 226.094 553.138 224.334C547.227 222.071 541.531 219.282 536.119 216.001C529.565 212.055 523.3 207.648 517.37 202.815C510.518 197.307 504.072 191.312 498.08 184.879C494.935 181.484 491.831 177.859 488.852 174.026C485.814 170.104 483.031 165.992 480.519 161.714C477.86 157.305 475.76 152.582 474.27 147.653C473.511 145.113 473.146 142.471 473.187 139.821C473.231 138.484 473.455 137.16 473.853 135.883C474.326 134.592 475.032 133.399 475.936 132.363C476.86 131.373 477.963 130.567 479.186 129.988C480.414 129.44 481.71 129.062 483.04 128.863C485.666 128.529 488.328 128.592 490.935 129.051C496.003 129.978 500.936 131.532 505.621 133.675C510.157 135.688 514.556 137.998 518.787 140.591C522.953 143.091 526.89 145.758 530.619 148.528C537.695 153.748 544.385 159.47 550.638 165.652C556.123 171.003 561.218 176.74 565.887 182.817C569.754 187.812 573.163 193.146 576.073 198.753C578.338 202.966 579.933 207.506 580.802 212.21C581.092 213.937 581.162 215.694 581.01 217.439C580.978 217.796 580.923 218.151 580.844 218.501C580.811 218.834 580.741 219.162 580.635 219.48L580.385 220.376C580.298 220.632 580.193 220.883 580.073 221.126C579.916 221.553 579.706 221.959 579.448 222.334C579.375 222.503 579.284 222.663 579.177 222.813L578.906 223.167L578.177 223.751Z" fill="#A4A5A6"/>
<path d="M597.072 178.088V177.296V176.858C597.072 176.692 597.072 176.525 596.968 176.317C596.895 175.868 596.777 175.429 596.613 175.004C596.613 174.775 596.447 174.505 596.343 174.255L595.926 173.421C595.791 173.119 595.623 172.833 595.426 172.567C595.246 172.255 595.045 171.955 594.822 171.671C593.785 170.279 592.566 169.032 591.197 167.963C587.409 165.054 583.192 162.749 578.698 161.131C572.794 158.899 566.701 157.204 560.492 156.069C552.933 154.65 545.282 153.773 537.598 153.444C528.826 153.016 520.034 153.204 511.288 154.006C506.684 154.444 501.976 155.09 497.206 155.985C492.333 156.864 487.524 158.068 482.811 159.589C477.913 161.073 473.223 163.173 468.854 165.839C466.628 167.204 464.626 168.905 462.917 170.88C462.072 171.882 461.371 172.996 460.834 174.192C460.319 175.406 460.037 176.707 460.001 178.025C460.042 179.341 460.317 180.639 460.813 181.858C461.358 183.049 462.058 184.163 462.896 185.17C464.617 187.147 466.626 188.853 468.854 190.232C473.229 192.886 477.918 194.985 482.811 196.482C487.529 197.983 492.337 199.187 497.206 200.086C501.976 200.981 506.684 201.606 511.288 202.044C520.033 202.862 528.825 203.057 537.598 202.627C545.284 202.32 552.941 201.485 560.513 200.127C566.722 198.992 572.815 197.297 578.719 195.065C583.206 193.43 587.42 191.126 591.218 188.232C592.582 187.159 593.8 185.912 594.843 184.524C595.066 184.234 595.268 183.927 595.447 183.608C595.644 183.342 595.812 183.056 595.947 182.754L596.364 181.941C596.468 181.671 596.551 181.421 596.634 181.171C596.8 180.747 596.919 180.307 596.988 179.858C596.988 179.671 596.988 179.504 597.093 179.337V178.9V178.088C597.093 178.088 597.093 178.358 597.093 178.9V179.337C597.093 179.504 597.093 179.671 597.093 179.879C597.028 180.327 596.917 180.767 596.759 181.191C596.759 181.441 596.593 181.691 596.488 181.962L596.093 182.795C595.945 183.098 595.778 183.39 595.593 183.67C595.408 183.98 595.207 184.279 594.989 184.566C593.953 185.972 592.734 187.233 591.364 188.316C587.581 191.249 583.364 193.575 578.865 195.211C572.957 197.468 566.856 199.183 560.638 200.336C553.071 201.759 545.414 202.65 537.723 203.002C528.944 203.447 520.145 203.266 511.392 202.46C506.767 202.023 502.039 201.398 497.268 200.502C492.386 199.601 487.565 198.398 482.832 196.898C477.916 195.411 473.205 193.311 468.813 190.649C466.558 189.264 464.528 187.543 462.792 185.545C461.947 184.513 461.247 183.371 460.709 182.15C460.146 180.906 459.855 179.557 459.855 178.192C459.855 176.827 460.146 175.477 460.709 174.234C461.254 173.017 461.955 171.876 462.792 170.838C464.546 168.843 466.589 167.123 468.854 165.734C473.256 163.076 477.973 160.977 482.895 159.485C487.615 157.966 492.43 156.763 497.31 155.881C502.101 154.985 506.809 154.361 511.434 153.923C520.128 153.077 528.871 152.848 537.598 153.236C545.291 153.583 552.948 154.482 560.513 155.923C566.731 157.064 572.833 158.773 578.74 161.027C583.239 162.662 587.456 164.988 591.239 167.922C592.605 169.009 593.823 170.27 594.864 171.671C595.087 171.962 595.288 172.269 595.468 172.588C595.658 172.866 595.825 173.158 595.968 173.463L596.364 174.275C596.468 174.546 596.551 174.817 596.634 175.046C596.792 175.478 596.904 175.924 596.968 176.379C596.968 176.567 596.968 176.754 596.968 176.9V177.358C597.072 177.817 597.072 178.088 597.072 178.088Z" fill="#A4A5A6"/>
<path d="M572.035 121.281L571.347 120.843L570.972 120.593C570.818 120.505 570.658 120.428 570.493 120.364C570.096 120.147 569.677 119.973 569.243 119.844C568.993 119.844 568.743 119.656 568.472 119.594L567.577 119.406C567.254 119.336 566.927 119.287 566.598 119.26C566.237 119.239 565.875 119.239 565.514 119.26C563.775 119.238 562.039 119.434 560.348 119.844C555.738 121.067 551.341 122.985 547.308 125.531C541.925 128.824 536.856 132.603 532.163 136.821C526.438 141.895 521.078 147.366 516.123 153.195C510.413 159.862 505.185 166.928 500.478 174.339C498.02 178.234 495.604 182.4 493.396 186.567C491.106 190.958 489.109 195.495 487.417 200.149C485.625 204.949 484.429 209.952 483.855 215.043C483.577 217.643 483.696 220.27 484.209 222.834C484.495 224.118 484.95 225.358 485.563 226.521C486.208 227.67 487.063 228.688 488.084 229.521C489.145 230.293 490.338 230.865 491.604 231.208C492.879 231.517 494.189 231.65 495.5 231.604C498.115 231.459 500.692 230.918 503.145 230C507.938 228.182 512.486 225.775 516.685 222.834C520.769 220.036 524.666 216.974 528.351 213.668C531.976 210.44 535.371 207.107 538.538 203.732C544.53 197.317 550.064 190.488 555.099 183.296C559.513 177.05 563.481 170.499 566.973 163.694C569.884 158.096 572.282 152.246 574.139 146.216C575.596 141.671 576.348 136.928 576.367 132.155C576.362 130.423 576.123 128.699 575.659 127.03C575.659 126.655 575.43 126.322 575.326 125.989C575.222 125.656 575.097 125.364 574.951 125.072L574.555 124.26C574.409 124.01 574.243 123.781 574.118 123.572C573.881 123.181 573.602 122.818 573.284 122.489L572.951 122.072L572.618 121.781L572.035 121.239L572.639 121.76L572.972 122.052C573.1 122.174 573.219 122.306 573.326 122.447C573.64 122.779 573.919 123.142 574.159 123.531C574.305 123.76 574.472 123.968 574.618 124.218L575.013 125.051C575.174 125.344 575.307 125.651 575.409 125.968C575.513 126.301 575.659 126.635 575.743 127.01C576.223 128.683 576.476 130.414 576.493 132.155C576.5 136.941 575.762 141.699 574.305 146.258C572.457 152.305 570.072 158.175 567.181 163.798C563.69 170.617 559.722 177.181 555.307 183.442C550.285 190.656 544.751 197.5 538.746 203.919C535.579 207.315 532.184 210.669 528.538 213.898C524.846 217.209 520.942 220.278 516.852 223.084C512.638 226.047 508.068 228.469 503.249 230.292C500.769 231.218 498.164 231.766 495.521 231.917C494.176 231.962 492.831 231.829 491.521 231.521C490.216 231.153 488.988 230.553 487.896 229.75C486.844 228.894 485.96 227.848 485.292 226.667C484.662 225.478 484.193 224.21 483.897 222.897C483.391 220.304 483.279 217.649 483.563 215.022C484.127 209.9 485.331 204.868 487.146 200.045C488.838 195.384 490.835 190.84 493.125 186.442C495.354 182.109 497.75 177.984 500.229 174.068C504.962 166.661 510.211 159.595 515.935 152.924C520.899 147.096 526.273 141.631 532.017 136.571C536.736 132.358 541.826 128.579 547.224 125.281C551.278 122.746 555.697 120.849 560.327 119.656C562.024 119.237 563.767 119.04 565.514 119.073C565.889 119.073 566.243 119.073 566.598 119.073C566.934 119.098 567.268 119.147 567.597 119.219L568.493 119.406L569.264 119.677C569.699 119.813 570.118 119.994 570.514 120.219C570.679 120.283 570.839 120.359 570.993 120.448L571.368 120.718L572.035 121.281Z" fill="#A4A5A6"/>
<path d="M459.168 206.398C459.522 206.754 459.762 207.206 459.859 207.699C459.956 208.192 459.905 208.702 459.712 209.166C459.52 209.629 459.194 210.025 458.776 210.304C458.359 210.583 457.868 210.731 457.366 210.731C456.864 210.731 456.373 210.583 455.955 210.304C455.537 210.025 455.212 209.629 455.019 209.166C454.826 208.702 454.775 208.192 454.872 207.699C454.969 207.206 455.21 206.754 455.564 206.398C455.8 206.16 456.081 205.972 456.39 205.843C456.699 205.715 457.031 205.648 457.366 205.648C457.701 205.648 458.032 205.715 458.341 205.843C458.651 205.972 458.931 206.16 459.168 206.398Z" fill="#A4A5A6"/>
<path d="M602.882 127.467C602.886 127.975 602.74 128.472 602.461 128.896C602.182 129.321 601.783 129.652 601.315 129.849C600.847 130.046 600.331 130.1 599.833 130.004C599.335 129.907 598.876 129.665 598.516 129.307C598.155 128.95 597.909 128.493 597.809 127.996C597.708 127.498 597.758 126.982 597.951 126.512C598.144 126.043 598.473 125.642 598.894 125.359C599.316 125.077 599.812 124.926 600.32 124.926C600.655 124.923 600.988 124.987 601.299 125.113C601.61 125.24 601.892 125.427 602.131 125.663C602.369 125.899 602.558 126.18 602.687 126.49C602.816 126.8 602.882 127.132 602.882 127.467Z" fill="#A4A5A6"/>
<path d="M475.252 214.773C475.252 214.9 475.215 215.025 475.144 215.131C475.073 215.238 474.972 215.32 474.854 215.369C474.736 215.418 474.606 215.431 474.481 215.406C474.355 215.381 474.24 215.32 474.15 215.229C474.06 215.139 473.998 215.024 473.973 214.899C473.948 214.773 473.961 214.644 474.01 214.526C474.059 214.408 474.142 214.307 474.248 214.236C474.354 214.165 474.479 214.127 474.607 214.127C474.778 214.127 474.942 214.195 475.063 214.316C475.184 214.437 475.252 214.601 475.252 214.773Z" fill="#A4A5A6"/>
<path d="M489.061 143.404C489.061 143.531 489.023 143.656 488.952 143.762C488.881 143.869 488.78 143.951 488.662 144C488.544 144.049 488.415 144.062 488.289 144.037C488.164 144.012 488.049 143.951 487.959 143.86C487.868 143.77 487.807 143.655 487.782 143.53C487.757 143.404 487.77 143.274 487.819 143.156C487.868 143.038 487.95 142.938 488.057 142.867C488.163 142.796 488.288 142.758 488.415 142.758C488.587 142.758 488.751 142.826 488.872 142.947C488.993 143.068 489.061 143.232 489.061 143.404Z" fill="#A4A5A6"/>
<path d="M590.073 178.088C590.073 178.259 590.005 178.424 589.884 178.545C589.763 178.666 589.598 178.734 589.427 178.734C589.256 178.734 589.091 178.666 588.97 178.545C588.849 178.424 588.781 178.259 588.781 178.088C588.781 177.917 588.849 177.753 588.97 177.632C589.091 177.51 589.256 177.442 589.427 177.442C589.598 177.442 589.763 177.51 589.884 177.632C590.005 177.753 590.073 177.917 590.073 178.088Z" fill="#A4A5A6"/>
<path d="M599.073 147.924C599.073 148.095 599.005 148.26 598.884 148.381C598.762 148.502 598.598 148.57 598.427 148.57C598.256 148.57 598.091 148.502 597.97 148.381C597.849 148.26 597.781 148.095 597.781 147.924C597.781 147.753 597.849 147.589 597.97 147.467C598.091 147.346 598.256 147.278 598.427 147.278C598.598 147.278 598.762 147.346 598.884 147.467C599.005 147.589 599.073 147.753 599.073 147.924Z" fill="#A4A5A6"/>
<path d="M555.454 192.316H547.454V148.757C547.454 143.823 545.494 139.092 542.006 135.603C538.517 132.114 533.785 130.155 528.852 130.155C523.918 130.155 519.186 132.114 515.698 135.603C512.209 139.092 510.249 143.823 510.249 148.757V192.316H502.188V148.757C502.188 141.702 504.99 134.936 509.979 129.947C514.968 124.958 521.734 122.155 528.789 122.155C535.844 122.155 542.611 124.958 547.6 129.947C552.588 134.936 555.391 141.702 555.391 148.757L555.454 192.316Z" fill="#A4A5A6"/>
<g opacity="0.3">
<path d="M555.454 192.316H547.454V148.757C547.454 143.823 545.494 139.092 542.006 135.603C538.517 132.114 533.785 130.155 528.852 130.155C523.918 130.155 519.186 132.114 515.698 135.603C512.209 139.092 510.249 143.823 510.249 148.757V192.316H502.188V148.757C502.188 141.702 504.99 134.936 509.979 129.947C514.968 124.958 521.734 122.155 528.789 122.155C535.844 122.155 542.611 124.958 547.6 129.947C552.588 134.936 555.391 141.702 555.391 148.757L555.454 192.316Z" fill="black"/>
</g>
<path d="M560.015 172.942H497.687C495.098 172.942 493 175.041 493 177.629V214.251C493 216.84 495.098 218.938 497.687 218.938H560.015C562.603 218.938 564.702 216.84 564.702 214.251V177.629C564.702 175.041 562.603 172.942 560.015 172.942Z" fill="#A4A5A6"/>
<g opacity="0.3">
<path d="M534.85 189.963C534.859 188.844 534.555 187.746 533.972 186.791C533.389 185.836 532.551 185.063 531.553 184.56C530.554 184.056 529.434 183.842 528.32 183.941C527.206 184.04 526.141 184.448 525.247 185.12C524.353 185.792 523.664 186.701 523.259 187.743C522.854 188.786 522.748 189.921 522.954 191.02C523.16 192.12 523.669 193.14 524.424 193.965C525.179 194.791 526.149 195.389 527.226 195.692V204.649H530.476V195.692C531.731 195.346 532.838 194.598 533.628 193.564C534.418 192.529 534.847 191.265 534.85 189.963Z" fill="black"/>
</g>
<path d="M496.832 214.585C496.665 214.585 496.52 206.919 496.52 197.462C496.52 188.004 496.665 180.317 496.832 180.317C496.999 180.317 497.124 187.983 497.124 197.462C497.124 206.94 496.978 214.585 496.832 214.585Z" fill="#FAFAFA"/>
<path d="M524.165 197.628C524.165 197.628 523.873 197.628 523.457 197.232C522.866 196.792 522.347 196.266 521.915 195.67C521.156 194.688 520.626 193.548 520.364 192.335C520.102 191.122 520.114 189.866 520.399 188.658C520.685 187.45 521.236 186.321 522.014 185.354C522.792 184.386 523.776 183.605 524.894 183.067C525.546 182.717 526.249 182.471 526.977 182.337C527.246 182.287 527.521 182.287 527.79 182.337C526.869 182.65 525.971 183.026 525.102 183.462C524.085 184.023 523.197 184.791 522.494 185.715C521.791 186.639 521.289 187.701 521.021 188.83C520.752 189.96 520.722 191.134 520.934 192.276C521.145 193.418 521.593 194.503 522.248 195.461C522.828 196.234 523.469 196.958 524.165 197.628Z" fill="#FAFAFA"/>
<path d="M635.295 258.372H414.544C403.821 258.372 395.129 267.064 395.129 277.787V280.162C395.129 290.884 403.821 299.577 414.544 299.577H635.295C646.017 299.577 654.71 290.884 654.71 280.162V277.787C654.71 267.064 646.017 258.372 635.295 258.372Z" fill="#F5F5F5"/>
<path d="M637.193 314.867H416.442C405.72 314.867 397.027 323.56 397.027 334.282V336.657C397.027 347.379 405.72 356.072 416.442 356.072H637.193C647.916 356.072 656.608 347.379 656.608 336.657V334.282C656.608 323.56 647.916 314.867 637.193 314.867Z" fill="#F5F5F5"/>
<path d="M436.148 278.642V272.685H438.627V278.559C438.627 280.642 439.502 281.413 441.002 281.413C442.502 281.413 443.377 280.58 443.377 278.559V272.685H445.814V278.642C445.814 279.924 445.305 281.153 444.399 282.06C443.492 282.966 442.263 283.475 440.981 283.475C439.7 283.475 438.47 282.966 437.564 282.06C436.658 281.153 436.148 279.924 436.148 278.642Z" fill="#263238"/>
<path d="M447.293 282.578L448.064 280.87C448.927 281.384 449.913 281.658 450.918 281.662C452.022 281.662 452.418 281.37 452.418 280.912C452.418 279.579 447.48 280.912 447.48 277.683C447.48 276.121 448.876 275.016 451.272 275.016C452.364 274.999 453.444 275.249 454.417 275.746L453.626 277.433C452.909 277.024 452.096 276.816 451.272 276.829C450.209 276.829 449.751 277.162 449.751 277.579C449.751 278.974 454.688 277.579 454.688 280.849C454.688 282.37 453.292 283.453 450.834 283.453C449.597 283.481 448.375 283.179 447.293 282.578Z" fill="#263238"/>
<path d="M464.146 279.913H457.897C458.025 280.425 458.333 280.874 458.766 281.176C459.199 281.478 459.726 281.614 460.251 281.558C460.634 281.575 461.016 281.514 461.374 281.378C461.733 281.242 462.059 281.034 462.334 280.767L463.605 282.142C463.17 282.591 462.644 282.941 462.061 283.167C461.479 283.394 460.854 283.492 460.23 283.454C459.641 283.528 459.043 283.476 458.475 283.3C457.908 283.124 457.385 282.829 456.941 282.434C456.497 282.04 456.143 281.555 455.902 281.012C455.661 280.47 455.538 279.882 455.543 279.288C455.542 278.723 455.657 278.163 455.879 277.644C456.101 277.124 456.427 276.655 456.836 276.266C457.245 275.876 457.73 275.573 458.259 275.377C458.789 275.18 459.353 275.093 459.918 275.121C460.474 275.108 461.026 275.205 461.544 275.408C462.062 275.611 462.533 275.916 462.931 276.304C463.329 276.693 463.645 277.157 463.861 277.669C464.077 278.181 464.188 278.732 464.188 279.288C464.188 279.454 464.146 279.704 464.146 279.913ZM457.897 278.517H461.918C461.798 278.076 461.536 277.686 461.172 277.408C460.809 277.131 460.365 276.98 459.907 276.98C459.45 276.98 459.005 277.131 458.642 277.408C458.279 277.686 458.017 278.076 457.897 278.517Z" fill="#263238"/>
<path d="M470.937 275.018V277.226H470.395C470.103 277.224 469.814 277.284 469.547 277.402C469.28 277.519 469.04 277.691 468.844 277.908C468.647 278.124 468.498 278.379 468.407 278.656C468.315 278.933 468.283 279.227 468.312 279.517V283.371H465.938V275.184H468.208V276.142C468.543 275.754 468.964 275.45 469.438 275.255C469.912 275.059 470.426 274.978 470.937 275.018Z" fill="#263238"/>
<path d="M480.648 278.642V283.329H478.273V279.017C478.273 277.683 477.669 277.079 476.606 277.079C475.544 277.079 474.648 277.788 474.648 279.287V283.329H472.273V275.142H474.544V276.142C474.896 275.784 475.318 275.502 475.784 275.316C476.25 275.129 476.75 275.042 477.252 275.059C477.722 275.028 478.194 275.101 478.632 275.273C479.071 275.445 479.467 275.711 479.791 276.053C480.115 276.395 480.36 276.804 480.508 277.252C480.656 277.699 480.704 278.174 480.648 278.642Z" fill="#263238"/>
<path d="M490.041 278.662V283.328H487.812V282.391C487.537 282.789 487.16 283.106 486.72 283.308C486.28 283.51 485.793 283.589 485.312 283.537C483.396 283.537 482.25 282.474 482.25 281.058C482.25 279.641 483.271 278.6 485.771 278.6H487.604C487.604 277.6 487 276.996 485.708 276.996C484.861 276.993 484.035 277.263 483.354 277.766L482.5 276.1C483.553 275.419 484.787 275.07 486.041 275.1C488.583 275.017 490.041 276.142 490.041 278.662ZM487.666 280.745V279.912H486.041C484.916 279.912 484.583 280.329 484.583 280.87C484.583 281.412 485.083 281.87 485.916 281.87C486.28 281.881 486.637 281.779 486.94 281.577C487.242 281.376 487.474 281.085 487.604 280.745H487.666Z" fill="#263238"/>
<path d="M506.02 278.642V283.329H503.645V279.017C503.645 277.684 503.061 277.079 502.103 277.079C501.145 277.079 500.291 277.767 500.291 279.163V283.329H498.02V279.017C498.02 277.684 497.458 277.079 496.458 277.079C495.458 277.079 494.666 277.767 494.666 279.163V283.329H492.188V275.142H494.458V276.142C494.78 275.785 495.176 275.504 495.619 275.316C496.062 275.129 496.54 275.041 497.02 275.059C497.55 275.034 498.077 275.146 498.551 275.383C499.025 275.62 499.43 275.975 499.728 276.413C500.082 275.972 500.533 275.62 501.047 275.385C501.561 275.15 502.122 275.038 502.687 275.059C503.154 275.03 503.621 275.105 504.056 275.279C504.49 275.452 504.881 275.72 505.2 276.062C505.519 276.405 505.757 276.814 505.899 277.26C506.041 277.706 506.082 278.178 506.02 278.642Z" fill="#263238"/>
<path d="M516.226 279.913H509.976C510.083 280.433 510.383 280.892 510.817 281.198C511.25 281.504 511.784 281.633 512.31 281.558C512.692 281.574 513.074 281.512 513.432 281.376C513.79 281.24 514.117 281.033 514.393 280.767L515.643 282.142C515.21 282.593 514.683 282.945 514.1 283.171C513.518 283.398 512.892 283.494 512.268 283.454C511.68 283.525 511.084 283.47 510.52 283.293C509.955 283.115 509.435 282.82 508.993 282.426C508.552 282.031 508.199 281.548 507.959 281.007C507.719 280.466 507.597 279.88 507.602 279.288C507.601 278.723 507.715 278.163 507.938 277.644C508.16 277.124 508.485 276.655 508.895 276.266C509.304 275.876 509.788 275.573 510.318 275.377C510.848 275.18 511.412 275.093 511.976 275.121C513.081 275.121 514.141 275.56 514.922 276.342C515.704 277.123 516.143 278.183 516.143 279.288C516.268 279.454 516.247 279.704 516.226 279.913ZM509.976 278.517H514.018C513.95 278.024 513.697 277.574 513.31 277.261C512.923 276.947 512.431 276.793 511.935 276.83C511.46 276.821 510.999 276.989 510.641 277.301C510.283 277.612 510.054 278.046 509.997 278.517H509.976Z" fill="#263238"/>
<path d="M531.931 279.162C531.931 281.891 530.681 283.453 528.806 283.453C528.362 283.483 527.92 283.369 527.545 283.129C527.17 282.889 526.882 282.536 526.723 282.12C526.446 282.554 526.059 282.905 525.602 283.14C525.144 283.374 524.632 283.482 524.119 283.453C523.166 283.354 522.283 282.905 521.642 282.194C521 281.482 520.645 280.558 520.645 279.6C520.645 278.641 521 277.717 521.642 277.005C522.283 276.294 523.166 275.845 524.119 275.746C524.56 275.725 525 275.807 525.405 275.984C525.809 276.161 526.168 276.429 526.452 276.766V275.871H528.535V280.787C528.535 281.516 528.848 281.766 529.264 281.766C529.681 281.766 530.389 280.954 530.389 279.204C530.398 278.477 530.254 277.756 529.967 277.088C529.679 276.421 529.254 275.821 528.72 275.328C528.186 274.835 527.554 274.46 526.865 274.227C526.177 273.994 525.447 273.908 524.723 273.975C523.259 273.975 521.855 274.557 520.819 275.592C519.784 276.627 519.203 278.031 519.203 279.495C519.203 280.959 519.784 282.364 520.819 283.399C521.855 284.434 523.259 285.016 524.723 285.016C525.759 285.014 526.783 284.787 527.723 284.349L528.202 285.745C527.111 286.244 525.922 286.493 524.723 286.474C523.776 286.526 522.828 286.384 521.938 286.057C521.047 285.73 520.233 285.225 519.544 284.573C518.855 283.921 518.306 283.135 517.932 282.264C517.557 281.393 517.363 280.454 517.363 279.506C517.363 278.557 517.557 277.619 517.932 276.747C518.306 275.876 518.855 275.09 519.544 274.438C520.233 273.786 521.047 273.281 521.938 272.954C522.828 272.628 523.776 272.486 524.723 272.538C525.639 272.463 526.561 272.579 527.431 272.877C528.3 273.176 529.099 273.652 529.775 274.274C530.452 274.896 530.993 275.651 531.364 276.493C531.735 277.334 531.928 278.243 531.931 279.162ZM526.494 279.6C526.524 279.333 526.496 279.063 526.412 278.808C526.329 278.553 526.192 278.319 526.01 278.121C525.829 277.924 525.607 277.767 525.359 277.663C525.112 277.559 524.845 277.509 524.577 277.516C524.025 277.516 523.495 277.736 523.104 278.127C522.713 278.517 522.494 279.047 522.494 279.6C522.494 280.152 522.713 280.682 523.104 281.073C523.495 281.463 524.025 281.683 524.577 281.683C524.845 281.69 525.112 281.64 525.359 281.536C525.607 281.432 525.829 281.275 526.01 281.078C526.192 280.88 526.329 280.646 526.412 280.391C526.496 280.136 526.524 279.866 526.494 279.6Z" fill="#263238"/>
<path d="M547.453 278.642V283.329H545.078V279.017C545.078 277.684 544.495 277.08 543.537 277.08C542.579 277.08 541.725 277.767 541.725 279.163V283.329H539.35V279.017C539.35 277.684 538.787 277.08 537.787 277.08C536.787 277.08 535.996 277.767 535.996 279.163V283.329H533.621V275.142H535.892V276.142C536.214 275.786 536.61 275.504 537.053 275.317C537.495 275.13 537.974 275.042 538.454 275.059C538.983 275.035 539.51 275.147 539.984 275.384C540.458 275.621 540.864 275.975 541.162 276.413C541.512 275.974 541.96 275.623 542.47 275.388C542.98 275.153 543.538 275.04 544.099 275.059C544.568 275.027 545.038 275.1 545.475 275.272C545.912 275.444 546.306 275.711 546.627 276.054C546.948 276.397 547.189 276.808 547.332 277.255C547.475 277.703 547.516 278.177 547.453 278.642Z" fill="#263238"/>
<path d="M556.825 278.662V283.328H554.617V282.391C554.342 282.789 553.964 283.106 553.524 283.308C553.084 283.51 552.598 283.589 552.117 283.537C550.2 283.537 549.055 282.474 549.055 281.058C549.055 279.641 550.075 278.6 552.575 278.6H554.45C554.45 277.6 553.846 276.996 552.575 276.996C551.727 276.985 550.899 277.256 550.221 277.766L549.367 276.1C550.415 275.423 551.641 275.075 552.888 275.1C555.387 275.017 556.825 276.142 556.825 278.662ZM554.45 280.745V279.912H552.825C551.721 279.912 551.367 280.329 551.367 280.87C551.367 281.412 551.867 281.87 552.7 281.87C553.074 281.895 553.445 281.799 553.76 281.596C554.075 281.394 554.317 281.095 554.45 280.745Z" fill="#263238"/>
<path d="M558.699 272.684C558.701 272.497 558.742 272.312 558.819 272.142C558.896 271.971 559.008 271.818 559.147 271.693C559.286 271.568 559.449 271.473 559.627 271.414C559.804 271.355 559.992 271.333 560.178 271.351C560.434 271.379 560.676 271.48 560.875 271.643C561.074 271.805 561.222 272.022 561.301 272.266C561.38 272.511 561.387 272.774 561.32 273.022C561.253 273.27 561.116 273.494 560.925 273.666C560.734 273.838 560.497 273.951 560.243 273.992C559.99 274.033 559.729 273.999 559.494 273.895C559.259 273.792 559.059 273.622 558.918 273.407C558.777 273.192 558.701 272.941 558.699 272.684ZM558.991 275.142H561.345V283.329H558.991V275.142Z" fill="#263238"/>
<path d="M563.578 271.975H565.953V283.265H563.578V271.975Z" fill="#263238"/>
<path d="M567.574 281.975C567.574 281.583 567.73 281.207 568.007 280.929C568.285 280.652 568.661 280.496 569.053 280.496C569.445 280.496 569.822 280.652 570.099 280.929C570.376 281.207 570.532 281.583 570.532 281.975C570.532 282.367 570.376 282.744 570.099 283.021C569.822 283.298 569.445 283.454 569.053 283.454C568.661 283.454 568.285 283.298 568.007 283.021C567.73 282.744 567.574 282.367 567.574 281.975Z" fill="#263238"/>
<path d="M571.428 279.246C571.425 278.664 571.544 278.087 571.778 277.554C572.012 277.021 572.354 276.543 572.784 276.15C573.214 275.758 573.721 275.46 574.274 275.275C574.826 275.091 575.41 275.024 575.99 275.079C576.74 275.016 577.491 275.181 578.146 275.553C578.8 275.925 579.327 276.486 579.656 277.163L577.823 278.142C577.612 277.831 577.325 277.58 576.989 277.413C576.653 277.246 576.28 277.168 575.905 277.187C575.53 277.205 575.166 277.32 574.849 277.52C574.531 277.72 574.27 277.998 574.091 278.328C573.912 278.658 573.821 279.028 573.827 279.403C573.832 279.778 573.934 280.146 574.123 280.47C574.311 280.795 574.58 281.065 574.904 281.256C575.227 281.446 575.594 281.55 575.969 281.558C576.351 281.559 576.727 281.454 577.054 281.256C577.381 281.057 577.647 280.773 577.823 280.433L579.656 281.433C579.322 282.106 578.795 282.664 578.141 283.035C577.488 283.406 576.739 283.574 575.99 283.516C575.401 283.573 574.808 283.503 574.248 283.312C573.689 283.122 573.176 282.814 572.745 282.41C572.313 282.007 571.973 281.515 571.746 280.97C571.519 280.424 571.41 279.836 571.428 279.246Z" fill="#263238"/>
<path d="M580.325 279.246C580.258 278.345 580.464 277.444 580.916 276.662C581.368 275.88 582.045 275.251 582.859 274.859C583.673 274.467 584.586 274.329 585.48 274.463C586.374 274.597 587.206 274.997 587.869 275.611C588.532 276.225 588.995 277.024 589.197 277.905C589.4 278.786 589.332 279.707 589.004 280.549C588.675 281.39 588.101 282.114 587.355 282.625C586.61 283.135 585.728 283.41 584.824 283.412C584.25 283.458 583.672 283.385 583.128 283.196C582.583 283.008 582.083 282.708 581.661 282.316C581.238 281.925 580.901 281.45 580.671 280.921C580.441 280.393 580.323 279.822 580.325 279.246ZM586.908 279.246C586.871 278.844 586.719 278.461 586.469 278.144C586.219 277.827 585.883 277.589 585.5 277.46C585.118 277.331 584.706 277.315 584.315 277.416C583.924 277.516 583.571 277.728 583.298 278.025C583.025 278.323 582.844 278.693 582.778 279.091C582.712 279.489 582.763 279.898 582.924 280.268C583.086 280.638 583.352 280.953 583.689 281.174C584.026 281.396 584.421 281.515 584.824 281.517C585.115 281.518 585.402 281.458 585.667 281.342C585.933 281.226 586.172 281.055 586.368 280.842C586.564 280.628 586.713 280.376 586.806 280.101C586.899 279.826 586.934 279.535 586.908 279.246Z" fill="#263238"/>
<path d="M604.738 278.642V283.329H602.364V279.017C602.364 277.684 601.759 277.08 600.801 277.08C599.843 277.08 598.989 277.767 598.989 279.163V283.329H596.614V279.017C596.614 277.684 596.052 277.08 595.073 277.08C594.093 277.08 593.281 277.767 593.281 279.163V283.329H590.906V275.142H593.156V276.142C593.482 275.785 593.882 275.503 594.328 275.316C594.774 275.129 595.256 275.041 595.739 275.059C596.266 275.032 596.791 275.143 597.262 275.381C597.733 275.618 598.134 275.974 598.426 276.413C598.782 275.975 599.234 275.625 599.747 275.39C600.26 275.155 600.82 275.042 601.384 275.059C601.853 275.027 602.323 275.1 602.76 275.272C603.198 275.444 603.591 275.711 603.912 276.054C604.233 276.397 604.474 276.808 604.617 277.255C604.76 277.703 604.801 278.177 604.738 278.642Z" fill="#263238"/>
<path d="M467.957 335.699L471.811 337.782L470.082 340.678L466.187 338.387V342.678H462.854V338.345L459.083 340.72L457.375 337.824L461.25 335.741L457.375 333.658L459.083 330.762L462.979 333.095V328.783H466.312V333.095L470.207 330.762L471.936 333.658L467.957 335.699Z" fill="#263238"/>
<path d="M484.019 335.699L487.872 337.782L486.143 340.72L482.248 338.428V342.719H478.936V338.387L475.103 340.72L473.395 337.824L477.248 335.741L473.395 333.658L475.103 330.762L478.998 333.095V328.783H482.31V333.095L486.206 330.762L487.935 333.658L484.019 335.699Z" fill="#263238"/>
<path d="M500.099 335.699L503.953 337.782L502.182 340.72L498.308 338.428V342.719H494.975V338.387L491.183 340.72L489.496 337.824L493.35 335.741L489.496 333.658L491.183 330.762L495.079 333.095V328.783H498.412V333.095L502.287 330.762L504.036 333.658L500.099 335.699Z" fill="#263238"/>
<path d="M516.121 335.699L519.975 337.782L518.246 340.678L514.351 338.387V342.678H511.018V338.345L507.247 340.72L505.539 337.824L509.414 335.741L505.539 333.658L507.247 330.762L511.143 333.095V328.783H514.476V333.095L518.371 330.762L520.1 333.658L516.121 335.699Z" fill="#263238"/>
<path d="M532.184 335.699L536.038 337.782L534.309 340.677L530.413 338.386V342.677H527.184V338.344L523.31 340.719L521.602 337.823L525.455 335.74L521.602 333.657L523.31 330.762L527.184 333.011V328.699H530.497V333.011L534.392 330.678L536.121 333.574L532.184 335.699Z" fill="#263238"/>
<path d="M548.243 335.699L552.096 337.782L550.367 340.678L546.472 338.387V342.678H543.139V338.345L539.347 340.72L537.66 337.824L541.514 335.741L537.66 333.658L539.347 330.762L543.243 333.095V328.783H546.576V333.095L550.471 330.762L552.201 333.658L548.243 335.699Z" fill="#263238"/>
<path d="M564.282 335.699L568.135 337.782L566.406 340.678L562.511 338.387V342.678H559.178V338.345L555.407 340.72L553.699 337.824L557.574 335.741L553.699 333.658L555.407 330.762L559.303 333.095V328.783H562.594V333.095L566.49 330.762L568.219 333.658L564.282 335.699Z" fill="#263238"/>
<path d="M580.344 335.699L584.198 337.782L582.469 340.678L578.573 338.387V342.678H575.261V338.345L571.47 340.72L569.762 337.824L573.616 335.741L569.762 333.658L571.47 330.762L575.365 333.095V328.783H578.678V333.095L582.573 330.762L584.302 333.658L580.344 335.699Z" fill="#263238"/>
<path d="M391.148 220.626H228.871C227.761 220.626 226.663 220.845 225.638 221.27C224.613 221.695 223.682 222.319 222.898 223.104C222.114 223.89 221.493 224.823 221.07 225.849C220.648 226.875 220.432 227.974 220.434 229.084V302.994C220.42 304.105 220.629 305.209 221.048 306.239C221.467 307.269 222.088 308.204 222.874 308.99C223.66 309.777 224.596 310.398 225.626 310.817C226.656 311.236 227.759 311.444 228.871 311.43H296.948L311.405 329.991L323.467 311.43H391.148C392.256 311.43 393.353 311.212 394.377 310.788C395.4 310.364 396.33 309.743 397.114 308.959C397.897 308.176 398.519 307.246 398.943 306.222C399.367 305.199 399.585 304.101 399.585 302.994V229.084C399.585 226.844 398.697 224.696 397.115 223.11C395.533 221.525 393.387 220.631 391.148 220.626Z" fill="white"/>
<path d="M391.15 220.625H391.942C392.733 220.694 393.511 220.869 394.254 221.146C395.471 221.582 396.569 222.295 397.462 223.229C398.739 224.602 399.523 226.361 399.691 228.229C399.858 236.27 399.816 247.977 399.879 262.809C399.879 270.225 399.879 278.412 399.879 287.286C399.879 291.744 399.879 296.347 399.879 301.139C399.935 302.363 399.88 303.591 399.712 304.805C399.456 306.069 398.93 307.263 398.171 308.305C397.391 309.373 396.382 310.253 395.218 310.881C394.053 311.508 392.763 311.866 391.442 311.929H323.365L323.781 311.721C319.99 317.533 315.907 323.845 311.741 330.261L311.345 330.865L310.887 330.303L296.43 311.763L296.846 311.971H231.373C230.186 311.971 229.082 311.971 227.811 311.971C225.962 311.751 224.227 310.964 222.843 309.718C221.459 308.472 220.495 306.829 220.082 305.013C219.875 303.845 219.798 302.657 219.853 301.472V270.954C219.853 262.08 219.853 253.379 219.853 244.852V229.083C219.854 227.985 220.059 226.897 220.457 225.875C221.23 223.842 222.709 222.156 224.624 221.125C225.58 220.636 226.618 220.325 227.686 220.208C228.713 220.157 229.742 220.157 230.769 220.208H248.497H270.953H311.241L369.569 220.375L385.422 220.479L369.569 220.583L311.241 220.75H270.953H230.936C229.936 220.75 228.853 220.75 227.957 220.75C227.01 220.859 226.092 221.141 225.249 221.583C223.526 222.466 222.185 223.948 221.478 225.75C221.121 226.659 220.937 227.627 220.937 228.604V231.728C220.937 235.895 220.937 240.061 220.937 244.373V270.475C220.937 279.335 220.937 288.362 220.937 297.556V301.014C220.871 302.121 220.934 303.233 221.124 304.326C221.491 305.922 222.343 307.365 223.562 308.458C224.782 309.55 226.31 310.239 227.936 310.43C228.998 310.534 230.227 310.43 231.373 310.43H297.201L297.367 310.638L311.824 329.178H310.97L323.032 310.638L323.177 310.409H323.469H391.505C392.702 310.369 393.875 310.055 394.933 309.492C395.991 308.928 396.906 308.131 397.608 307.159C398.313 306.224 398.797 305.141 399.025 303.993C399.186 302.826 399.241 301.648 399.191 300.472C399.191 295.681 399.191 291.077 399.191 286.619C399.191 277.745 399.191 269.558 399.191 262.142C399.191 247.352 399.191 235.645 399.296 227.583C399.111 225.84 398.382 224.2 397.212 222.896C396.357 221.94 395.296 221.192 394.108 220.708C393.131 220.54 392.135 220.512 391.15 220.625Z" fill="#263238"/>
<path d="M279.618 241.499V244.227H277.847V241.478L274.848 236.562H276.743L278.826 239.978L280.91 236.562H282.659L279.618 241.499Z" fill="#263238"/>
<path d="M282.578 240.373C282.541 239.542 282.753 238.719 283.188 238.01C283.622 237.3 284.259 236.737 285.016 236.393C285.773 236.049 286.616 235.939 287.436 236.078C288.257 236.217 289.016 236.598 289.618 237.173C290.22 237.747 290.635 238.489 290.812 239.302C290.988 240.114 290.918 240.962 290.609 241.734C290.299 242.506 289.766 243.168 289.078 243.635C288.389 244.101 287.577 244.351 286.745 244.352C286.207 244.378 285.669 244.293 285.164 244.105C284.66 243.916 284.199 243.627 283.809 243.255C283.42 242.883 283.11 242.436 282.898 241.941C282.687 241.445 282.578 240.912 282.578 240.373ZM289.203 240.373C289.199 239.896 289.054 239.431 288.786 239.037C288.517 238.642 288.139 238.335 287.697 238.156C287.255 237.976 286.77 237.931 286.302 238.027C285.835 238.122 285.406 238.354 285.07 238.693C284.735 239.032 284.507 239.462 284.415 239.93C284.323 240.399 284.372 240.883 284.556 241.324C284.739 241.764 285.049 242.14 285.446 242.405C285.843 242.669 286.309 242.811 286.786 242.811C287.108 242.819 287.428 242.762 287.726 242.642C288.025 242.523 288.296 242.343 288.522 242.115C288.748 241.886 288.926 241.614 289.043 241.315C289.16 241.015 289.214 240.695 289.203 240.373Z" fill="#263238"/>
<path d="M292.305 240.832V236.562H294.096V240.728C294.096 242.186 294.742 242.811 295.804 242.811C296.867 242.811 297.533 242.207 297.533 240.728V236.562H299.304V240.874C299.304 241.802 298.935 242.692 298.279 243.348C297.623 244.005 296.733 244.373 295.804 244.373C294.876 244.373 293.986 244.005 293.33 243.348C292.673 242.692 292.305 241.802 292.305 240.874V240.832Z" fill="#263238"/>
<path d="M305.99 244.227L304.511 242.144H302.866V244.227H301.074V236.562H304.407C306.49 236.562 307.761 237.624 307.761 239.353C307.784 239.874 307.644 240.388 307.36 240.825C307.076 241.262 306.663 241.6 306.178 241.79L307.907 244.269L305.99 244.227ZM304.324 237.978H302.866V240.728H304.324C305.407 240.728 305.949 240.207 305.949 239.374C305.949 238.541 305.407 237.957 304.282 237.957L304.324 237.978Z" fill="#263238"/>
<path d="M311.824 240.373C311.831 239.519 312.1 238.687 312.596 237.991C313.091 237.295 313.788 236.768 314.593 236.481C315.398 236.195 316.272 236.163 317.096 236.389C317.919 236.616 318.653 237.091 319.199 237.748L318.053 238.811C317.817 238.52 317.518 238.287 317.179 238.128C316.84 237.969 316.469 237.889 316.095 237.894C315.479 237.951 314.907 238.235 314.49 238.692C314.074 239.149 313.843 239.745 313.843 240.363C313.843 240.981 314.074 241.577 314.49 242.033C314.907 242.49 315.479 242.775 316.095 242.831C316.468 242.84 316.838 242.764 317.177 242.609C317.516 242.454 317.816 242.224 318.053 241.936L319.199 242.977C318.655 243.634 317.922 244.108 317.101 244.335C316.279 244.562 315.407 244.532 314.603 244.248C313.799 243.964 313.101 243.44 312.605 242.747C312.108 242.054 311.835 241.226 311.824 240.373Z" fill="#263238"/>
<path d="M319.762 240.373C319.725 239.542 319.937 238.719 320.371 238.01C320.806 237.3 321.443 236.737 322.2 236.393C322.957 236.049 323.8 235.939 324.62 236.078C325.44 236.217 326.2 236.598 326.802 237.173C327.403 237.747 327.819 238.489 327.996 239.302C328.172 240.114 328.101 240.962 327.792 241.734C327.483 242.506 326.95 243.168 326.261 243.635C325.573 244.101 324.76 244.351 323.928 244.352C323.39 244.378 322.853 244.293 322.348 244.105C321.843 243.916 321.382 243.627 320.993 243.255C320.603 242.883 320.293 242.436 320.082 241.941C319.87 241.445 319.761 240.912 319.762 240.373ZM326.386 240.373C326.378 239.897 326.23 239.434 325.959 239.042C325.689 238.651 325.308 238.347 324.866 238.171C324.424 237.994 323.94 237.952 323.474 238.05C323.008 238.148 322.581 238.381 322.247 238.721C321.913 239.06 321.687 239.491 321.597 239.959C321.507 240.426 321.558 240.91 321.742 241.349C321.926 241.788 322.235 242.163 322.632 242.427C323.028 242.691 323.494 242.831 323.97 242.831C324.293 242.84 324.615 242.783 324.915 242.662C325.215 242.541 325.487 242.359 325.714 242.129C325.94 241.898 326.117 241.623 326.233 241.321C326.349 241.019 326.401 240.696 326.386 240.373Z" fill="#263238"/>
<path d="M329.551 236.561H333.071C333.611 236.505 334.157 236.562 334.673 236.731C335.189 236.899 335.663 237.173 336.067 237.537C336.47 237.9 336.792 238.344 337.013 238.84C337.233 239.335 337.347 239.872 337.347 240.415C337.347 240.957 337.233 241.494 337.013 241.99C336.792 242.486 336.47 242.93 336.067 243.293C335.663 243.656 335.189 243.931 334.673 244.099C334.157 244.267 333.611 244.325 333.071 244.269H329.551V236.561ZM332.967 242.81C333.602 242.81 334.212 242.558 334.661 242.109C335.11 241.659 335.363 241.05 335.363 240.415C335.363 239.779 335.11 239.17 334.661 238.721C334.212 238.271 333.602 238.019 332.967 238.019H331.363V242.81H332.967Z" fill="#263238"/>
<path d="M344.654 242.811V244.248H338.676V236.562H344.509V237.978H340.446V239.665H344.029V241.061H340.446V242.811H344.654Z" fill="#263238"/>
<path d="M375.32 252.33H244.727C240.643 252.33 237.332 255.641 237.332 259.725V287.306C237.332 291.39 240.643 294.701 244.727 294.701H375.32C379.404 294.701 382.715 291.39 382.715 287.306V259.725C382.715 255.641 379.404 252.33 375.32 252.33Z" fill="#F5F5F5"/>
<path d="M266.788 276.141C266.792 277.013 266.613 277.877 266.263 278.675C265.913 279.474 265.4 280.191 264.756 280.78C264.113 281.368 263.353 281.816 262.526 282.093C261.699 282.371 260.823 282.472 259.955 282.391C254.58 282.391 251.727 278.516 251.727 272.1C251.727 265.142 255.414 261.58 260.851 261.58C262.464 261.51 264.067 261.869 265.496 262.621L264.892 263.83C263.656 263.153 262.258 262.828 260.851 262.892C256.247 262.892 253.226 265.913 253.226 271.871C253.22 272.693 253.276 273.515 253.393 274.329C253.882 273.018 254.785 271.902 255.966 271.15C257.146 270.398 258.539 270.052 259.934 270.162C264.121 270.017 266.788 272.412 266.788 276.141ZM265.288 276.141C265.288 273.204 263.205 271.308 259.726 271.308C259.027 271.237 258.321 271.308 257.651 271.519C256.981 271.729 256.361 272.074 255.829 272.532C255.297 272.99 254.863 273.552 254.556 274.183C254.248 274.815 254.072 275.502 254.039 276.204C254.039 278.599 256.122 281.016 259.913 281.016C260.601 281.102 261.3 281.04 261.962 280.834C262.624 280.627 263.234 280.282 263.751 279.82C264.268 279.358 264.68 278.791 264.96 278.156C265.239 277.521 265.38 276.834 265.371 276.141H265.288Z" fill="#A4A5A6"/>
<path d="M294.097 276.474H289.806V282.161H288.327V276.474H276.641V275.39L287.785 261.642H289.452L278.515 275.14H288.369V270.141H289.806V275.14H294.097V276.474Z" fill="#A4A5A6"/>
<path d="M316.884 276.371C316.884 279.787 314.426 282.308 309.697 282.308C308.368 282.359 307.041 282.14 305.799 281.664C304.556 281.187 303.423 280.464 302.469 279.537L303.219 278.391C304.07 279.231 305.083 279.888 306.198 280.321C307.312 280.754 308.503 280.956 309.697 280.912C313.384 280.912 315.363 279.162 315.363 276.371C315.363 273.579 313.489 271.829 309.385 271.829H308.093V270.746L314.155 262.976H303.219V261.56H316.093V262.601L309.843 270.496C314.697 270.684 316.884 273.038 316.884 276.371Z" fill="#A4A5A6"/>
<path d="M341.781 261.56V262.601L332.97 282.079H331.324L340.052 262.893H328.532V266.83H327.074V261.56H341.781Z" fill="#A4A5A6"/>
<path d="M352.195 271.975C352.195 265.559 355.508 261.56 360.215 261.56C364.923 261.56 368.256 265.538 368.256 271.975C368.256 278.412 364.944 282.391 360.215 282.391C355.487 282.391 352.195 278.225 352.195 271.975ZM366.777 271.975C366.777 266.267 364.111 262.955 360.236 262.955C356.362 262.955 353.695 266.267 353.695 271.975C353.695 277.683 356.362 280.995 360.236 280.995C364.111 280.995 366.777 277.6 366.777 271.975Z" fill="#A4A5A6"/>
<path d="M798.824 808.427C826.093 796.844 857.673 774.076 871.734 746.141C841.474 758.7 815.956 780.5 798.824 808.427Z" fill="#263238"/>
<path d="M804.633 765.077C831.901 753.515 863.482 730.747 877.543 702.812C847.278 715.352 821.756 737.147 804.633 765.077Z" fill="#263238"/>
<path d="M812.574 722.935C839.863 711.353 871.423 688.584 885.484 660.67C855.221 673.214 829.701 695.009 812.574 722.935Z" fill="#263238"/>
<path d="M822.406 678.813C848.133 663.606 876.818 636.525 887.567 606.986C858.979 623.642 836.241 648.73 822.469 678.813" fill="#263238"/>
<path d="M832.988 645.046C851.737 620.527 869.214 584.03 868.985 552.408C848.146 579.081 835.626 611.301 832.988 645.046Z" fill="#263238"/>
<path d="M827.736 661.107C823.945 627.943 811.071 586.259 789.156 561.387C792.856 597.481 806.18 631.921 827.736 661.107Z" fill="#263238"/>
<path d="M818.924 697.374C812.258 663.19 795.384 620.902 770.512 596.925C777.321 634.153 794.046 668.854 818.924 697.374Z" fill="#263238"/>
<path d="M808.804 741.599C802.159 707.352 785.244 665.126 760.496 641.149C767.306 678.377 784.03 713.079 808.908 741.599" fill="#263238"/>
<path d="M800.678 795.907C793.991 761.723 777.118 719.435 752.266 695.458C759.075 732.686 775.8 767.388 800.678 795.907Z" fill="#263238"/>
<path d="M834.258 638.608C834.156 638.767 834.086 638.944 834.05 639.129C833.904 639.525 833.737 640.025 833.529 640.65C833.071 642.087 832.425 644.066 831.633 646.566C829.988 651.711 827.779 659.19 825.175 668.481C822.571 677.772 819.697 688.875 816.739 701.269C813.781 713.664 810.864 727.392 808.114 741.849C805.365 756.306 803.219 770.18 801.407 782.804C799.594 795.428 798.303 806.843 797.365 816.426C796.428 826.008 795.761 833.799 795.428 839.195C795.261 841.819 795.136 843.882 795.032 845.444C795.032 846.111 795.032 846.631 795.032 847.069C795.005 847.248 795.005 847.431 795.032 847.61C795.096 847.437 795.131 847.254 795.137 847.069C795.137 846.652 795.136 846.111 795.303 845.465C795.449 843.965 795.657 841.903 795.907 839.215C796.366 833.862 797.136 826.092 798.178 816.509C799.219 806.927 800.657 795.553 802.448 782.95C804.24 770.347 806.615 756.514 809.239 742.057C811.864 727.6 814.906 713.914 817.759 701.499C820.613 689.083 823.446 677.98 825.967 668.668C828.488 659.357 830.571 651.857 832.091 646.691L833.8 640.712C833.966 640.087 834.091 639.567 834.216 639.15C834.254 638.972 834.268 638.79 834.258 638.608Z" fill="#263238"/>
<path d="M785.49 826.467C797.052 802.26 805.467 768.139 799.801 741.62C786.873 767.906 781.9 797.394 785.49 826.467Z" fill="#455A64"/>
<path d="M766.305 795.115C777.866 770.888 786.282 736.787 780.595 710.269C767.663 736.553 762.696 766.045 766.305 795.115Z" fill="#455A64"/>
<path d="M749.059 763.223C760.62 738.996 769.036 704.894 763.349 678.376C750.417 704.66 745.45 734.152 749.059 763.223Z" fill="#455A64"/>
<path d="M732.061 728.83C740.664 703.208 744.976 668.253 736.227 642.692C726.521 670.395 725.074 700.321 732.061 728.83Z" fill="#455A64"/>
<path d="M720.916 700.666C720.062 673.397 712.041 639.234 695.105 619.09C695.484 648.231 704.463 676.611 720.916 700.666Z" fill="#455A64"/>
<path d="M726.101 714.186C706.04 695.271 675.543 676.46 648.129 674.002C669.571 694.817 696.707 708.801 726.101 714.186Z" fill="#455A64"/>
<path d="M739.662 742.891C717.185 725.059 683.771 708.353 654.898 708.29C679.102 727.965 708.604 740.008 739.662 742.891Z" fill="#455A64"/>
<path d="M756.535 777.492C734.058 759.681 700.665 742.953 671.793 742.891C695.99 762.562 725.485 774.605 756.535 777.492Z" fill="#455A64"/>
<path d="M780.095 817.322C757.618 799.49 724.204 782.784 695.332 782.7C719.529 802.39 749.033 814.441 780.095 817.322Z" fill="#455A64"/>
<path d="M718.375 695.729C718.375 695.729 718.375 695.874 718.5 696.166L718.958 697.457L720.833 702.353C722.479 706.519 724.999 712.769 728.187 720.226C734.603 735.204 744.123 755.64 755.934 777.596C761.85 788.533 767.787 798.823 773.328 808.052C778.87 817.28 784.14 825.488 788.66 832.279C793.181 839.07 796.993 844.507 799.576 848.215L802.659 852.381L803.472 853.464C803.659 853.714 803.763 853.839 803.784 853.818C803.717 853.675 803.64 853.536 803.555 853.402L802.826 852.256C802.097 851.194 801.138 849.735 799.909 847.902C797.326 844.132 793.66 838.632 789.264 831.8C784.869 824.967 779.682 816.718 774.141 807.489C768.6 798.261 762.746 787.949 756.83 777.013C745.018 755.265 735.498 734.85 728.853 719.851C725.562 712.394 722.958 706.332 721.208 702.124L719.125 697.291L718.562 696.041C718.51 695.931 718.447 695.826 718.375 695.729Z" fill="#263238"/>
<path d="M730.457 829.404H845.363V851.548H833.552L823.615 914.709H752.58L742.352 851.548H730.457V829.404Z" fill="#A4A5A6"/>
<path d="M730.457 851.089C730.457 850.798 755.996 850.548 787.494 850.548C818.991 850.548 844.53 850.798 844.53 851.089C844.53 851.381 819.012 851.61 787.494 851.61C755.976 851.61 730.457 851.381 730.457 851.089Z" fill="#263238"/>
<path d="M72.2399 914.751H53.5957L46.6797 830.779H68.636L72.2399 914.751Z" fill="#263238"/>
<path d="M233.895 914.751H252.539L259.455 830.779H237.498L233.895 914.751Z" fill="#263238"/>
<path d="M272.266 841.424L32.2042 847.049L24.9132 692C24.7412 688.403 25.3013 684.809 26.5596 681.435C27.8179 678.06 29.7482 674.977 32.2336 672.371C34.7189 669.765 37.7075 667.69 41.0182 666.273C44.329 664.857 47.8929 664.127 51.4941 664.128H256.038C259.689 664.128 263.3 664.879 266.649 666.333C269.997 667.788 273.01 669.916 275.501 672.585C277.992 675.254 279.907 678.406 281.128 681.847C282.349 685.287 282.85 688.942 282.598 692.584L272.266 841.424Z" fill="#A4A5A6"/>
<path d="M284.574 691.48H283.908H281.929L274.367 691.605H246.536C223.038 691.605 190.583 691.397 154.753 692.23C118.902 693.417 86.4046 693.209 62.9276 692.855C51.1786 692.668 41.6586 692.438 35.0967 692.23L27.5349 691.98H25.5768C25.3555 692.009 25.1314 692.009 24.9102 691.98H25.5768H27.5349H35.0967L62.9276 692.251C86.4254 692.418 118.881 692.501 154.732 691.293C190.583 690.48 223.038 690.855 246.536 691.022L274.367 691.251L281.929 691.355H283.908L284.574 691.48Z" fill="#263238"/>
<path d="M112.467 666.545C107.072 667.334 101.821 668.913 96.8856 671.232C92.1061 673.861 87.7459 677.189 83.9492 681.106C84.7137 679.654 85.7212 678.344 86.9281 677.232C92.4654 671.535 99.7307 667.829 107.593 666.691C109.197 666.356 110.847 666.306 112.467 666.545Z" fill="#263238"/>
<path d="M211.209 384.633L240.54 438.232L283.453 414.193L304.284 421.088C304.284 421.088 251.705 478.208 243.144 481.187C234.582 484.166 218.375 484.645 209.126 473.041C200.793 462.48 176.129 407.068 176.129 407.068L211.209 384.633Z" fill="#FFBE9D"/>
<path d="M332.013 349.635C331.637 349.173 331.148 348.815 330.593 348.597C330.039 348.378 329.437 348.305 328.847 348.385L308.453 351.135C307.566 351.267 306.719 351.589 305.968 352.078C305.216 352.567 304.579 353.211 304.099 353.968L261.582 419.275L264.832 421.087L287.455 420.379L332.659 350.448L332.013 349.635Z" fill="#263238"/>
<path d="M317.532 358.113C317.696 358.372 317.936 358.573 318.219 358.687C318.503 358.802 318.815 358.824 319.112 358.752C319.409 358.679 319.676 358.515 319.874 358.282C320.073 358.05 320.193 357.761 320.219 357.456C320.244 357.152 320.173 356.847 320.016 356.585C319.858 356.322 319.623 356.116 319.342 355.996C319.061 355.875 318.749 355.845 318.451 355.911C318.152 355.977 317.882 356.136 317.678 356.364C317.438 356.583 317.289 356.885 317.262 357.21C317.235 357.534 317.332 357.857 317.532 358.113Z" fill="white"/>
<path d="M332.657 350.448C331.36 350.811 330.037 351.069 328.699 351.219L317.866 352.906L310.388 353.99C309.754 354.046 309.14 354.244 308.592 354.568C308.045 354.893 307.576 355.336 307.222 355.864L304.805 359.614C301.451 364.759 297.806 370.405 293.973 376.279C286.244 388.112 279.203 398.798 274.037 406.506L267.892 415.713C267.177 416.856 266.376 417.942 265.496 418.963C266.083 417.736 266.78 416.564 267.579 415.463L273.412 406.172C278.391 398.34 285.307 387.591 293.035 375.758C296.91 369.863 300.597 364.239 303.951 359.093C304.805 357.823 305.638 356.573 306.43 355.344C306.874 354.705 307.453 354.173 308.127 353.784C308.8 353.395 309.551 353.16 310.325 353.094L317.846 352.136L328.74 350.844C330.033 350.609 331.343 350.477 332.657 350.448Z" fill="#455A64"/>
<path d="M309.971 373.758C309.971 373.758 308.158 373.445 307.158 378.424C306.158 383.403 302.992 397.693 302.992 397.693L293.451 392.631L281.494 394.194C281.494 394.194 278.89 396.589 280.807 397.902C282.723 399.214 290.264 400.547 290.264 400.547L295.826 408.567L279.848 400.86C279.848 400.86 274.515 402.255 276.078 405.505C277.64 408.755 288.41 418.941 288.41 418.941L280.411 418.337L270.953 412.546C270.953 412.546 268.037 412.692 269.12 415.171C270.203 417.65 280.119 426.649 280.119 426.649L292.118 432.482C292.118 432.482 298.68 431.961 299.305 430.024C299.729 428.5 299.994 426.936 300.097 425.357C300.097 425.357 303.575 424.42 304.263 422.733C304.645 421.314 304.724 419.83 304.492 418.379C304.492 418.379 309.95 419.337 310.637 416.296C311.115 412.505 310.96 408.662 310.179 404.922C309.637 402.568 312.512 380.799 312.262 380.153C312.012 379.507 313.408 372.321 309.971 373.758Z" fill="#FFBE9D"/>
<path d="M299.616 430.066C298.668 430.634 297.596 430.963 296.492 431.024C291.169 431.797 285.752 430.508 281.347 427.42C279.702 426.233 278.889 425.337 278.993 425.15C279.097 424.962 283.014 428.128 288.847 429.483C294.679 430.837 299.554 429.691 299.616 430.066Z" fill="#EB996E"/>
<path d="M296.781 425.753C296.594 426.024 294.448 424.92 292.178 423.045C289.907 421.17 288.407 419.316 288.636 419.087C288.865 418.858 290.719 420.274 292.969 422.107C295.219 423.941 296.969 425.461 296.781 425.753Z" fill="#EB996E"/>
<path d="M303.097 415.401C302.91 415.671 300.785 414.588 298.66 412.609C296.535 410.63 295.286 408.63 295.536 408.443C295.786 408.255 297.452 409.839 299.493 411.734C301.535 413.63 303.285 415.109 303.097 415.401Z" fill="#EB996E"/>
<path d="M309.745 407.047C309.411 407.193 308.203 404.964 306.307 402.485C304.412 400.006 302.558 398.319 302.766 397.986C302.974 397.652 305.266 399.11 307.266 401.735C308.636 403.197 309.505 405.058 309.745 407.047Z" fill="#EB996E"/>
<path d="M317.847 793.387C318.006 792.737 318.006 792.058 317.847 791.408C317.51 789.608 316.8 787.898 315.764 786.387C315.426 785.864 315.027 785.381 314.577 784.95C314.282 784.671 313.917 784.478 313.521 784.39C313.125 784.302 312.712 784.323 312.327 784.45C312.1 784.528 311.894 784.657 311.725 784.827C311.555 784.996 311.426 785.202 311.348 785.429C311.202 785.861 311.202 786.33 311.348 786.762C311.632 787.486 311.981 788.183 312.389 788.845C313.16 790.158 313.806 791.449 314.806 793.012C315.097 793.431 315.498 793.764 315.964 793.973C316.43 794.182 316.944 794.26 317.451 794.199C318.383 794.033 319.261 793.647 320.014 793.074C321.393 792.063 322.652 790.895 323.763 789.595C324.299 788.978 324.8 788.331 325.263 787.658C325.77 787 326.145 786.25 326.367 785.45C326.492 784.979 326.447 784.48 326.242 784.038C326.036 783.597 325.683 783.241 325.242 783.033C324.83 782.912 324.393 782.898 323.974 782.993C323.555 783.088 323.167 783.288 322.847 783.575C321.894 784.407 321.054 785.359 320.347 786.408C319.299 787.88 318.464 789.493 317.868 791.199C317.594 791.801 317.452 792.455 317.451 793.116C318.439 790.925 319.631 788.832 321.014 786.866C321.72 785.93 322.53 785.077 323.43 784.325C323.909 783.992 324.492 783.763 324.847 783.95C325.052 784.071 325.21 784.26 325.294 784.483C325.377 784.707 325.381 784.953 325.305 785.179C325.089 785.83 324.757 786.437 324.326 786.971C323.888 787.596 323.409 788.2 322.909 788.804C321.831 790.015 320.63 791.111 319.326 792.074C318.716 792.544 318.002 792.859 317.243 792.991C316.932 793.029 316.617 792.979 316.333 792.847C316.05 792.714 315.809 792.504 315.639 792.241C314.827 791.054 314.035 789.575 313.264 788.345C312.91 787.7 312.473 787.075 312.264 786.554C312.056 786.033 312.264 785.617 312.577 785.45C313.473 785.096 314.368 786.117 314.973 786.971C316.327 788.909 317.302 791.086 317.847 793.387Z" fill="#263238"/>
<path d="M266.662 795.137L241.248 850.237L200.23 831.28L226.52 763.099L266.662 795.137Z" fill="#FFBE9D"/>
<path d="M245.956 846.549L231.103 874.88C231.103 874.88 269.121 914.189 265.558 922.98L176.191 880.13L200.731 823.322L245.956 846.549Z" fill="#455A64"/>
<path d="M205.419 857.757C204.436 857.632 203.442 857.862 202.614 858.404C201.786 858.946 201.177 859.765 200.898 860.715C200.71 861.693 200.905 862.707 201.444 863.544C201.984 864.382 202.825 864.98 203.794 865.214C204.837 865.372 205.902 865.138 206.783 864.557C207.663 863.976 208.298 863.09 208.564 862.069C208.653 861.026 208.333 859.989 207.672 859.177C207.012 858.365 206.062 857.841 205.023 857.715" fill="#E0E0E0"/>
<g opacity="0.6">
<path d="M176.273 880.129L179.981 873.005L264.286 916.751C264.286 916.751 267.432 920.376 265.64 923L176.273 880.129Z" fill="white"/>
</g>
<path d="M232.852 875.108C232.644 875.546 230.352 874.692 227.54 875.108C224.728 875.525 222.686 876.775 222.374 876.4C222.061 876.025 223.915 873.838 227.332 873.442C230.748 873.046 233.144 874.754 232.852 875.108Z" fill="#263238"/>
<path d="M240.372 883.483C240.372 883.962 238.018 883.795 235.664 884.92C233.31 886.045 231.935 887.816 231.498 887.586C231.06 887.357 231.977 884.753 234.956 883.42C237.935 882.087 240.559 883.066 240.372 883.483Z" fill="#263238"/>
<path d="M240.308 897.253C239.87 897.253 240.308 894.69 242.578 892.836C244.849 890.982 247.349 891.003 247.349 891.461C247.349 891.92 245.495 892.586 243.641 894.128C241.787 895.669 240.766 897.419 240.308 897.253Z" fill="#263238"/>
<path d="M237.122 864.214C236.747 864.527 235.039 862.965 232.497 861.944C229.956 860.923 227.644 860.777 227.602 860.298C227.56 859.819 230.143 859.152 233.122 860.298C236.101 861.444 237.497 863.964 237.122 864.214Z" fill="#263238"/>
<path d="M254.414 839.195L321.428 671.523C321.428 671.523 319.908 642.9 314.637 633.88C309.367 624.86 149.756 572.136 149.756 572.136C149.756 572.136 109.114 562.345 81.9916 572.136C54.869 581.926 34.5584 615.882 38.2455 634.63C41.9327 653.378 57.8896 667.273 57.8896 667.273L175.275 670.773L239.248 694.104L196.169 817.572L254.414 839.195Z" fill="#263238"/>
<path d="M314.01 724.622L315.53 785.263L270.347 786.388L263.848 713.603L314.01 724.622Z" fill="#FFBE9D"/>
<path d="M318.221 779.847L317.387 811.823C317.387 811.823 368.841 830.3 369.466 839.779L270.371 840.779L267.309 778.972L318.221 779.847Z" fill="#455A64"/>
<path d="M286.699 807.844C285.749 808.143 284.942 808.783 284.435 809.641C283.927 810.498 283.754 811.513 283.949 812.49C284.214 813.45 284.837 814.272 285.689 814.787C286.541 815.303 287.559 815.472 288.532 815.26C289.536 814.938 290.386 814.255 290.917 813.343C291.447 812.432 291.622 811.356 291.407 810.323C291.032 809.347 290.292 808.555 289.343 808.115C288.394 807.676 287.311 807.623 286.324 807.969" fill="#E0E0E0"/>
<g opacity="0.6">
<path d="M270.434 840.779L270.621 832.738L365.571 834.821C365.571 834.821 369.987 836.696 369.529 839.821L270.434 840.779Z" fill="white"/>
</g>
<path d="M318.99 811.302C318.99 811.781 316.552 812.031 314.198 813.614C311.844 815.198 310.574 817.239 310.136 817.052C309.699 816.864 310.386 814.052 313.282 812.198C316.177 810.344 319.094 810.865 318.99 811.302Z" fill="#263238"/>
<path d="M329.425 815.489C329.55 815.968 327.446 816.802 325.821 818.864C324.197 820.926 323.738 823.03 323.28 823.03C322.822 823.03 322.447 820.28 324.53 817.739C326.613 815.198 329.404 815.031 329.425 815.489Z" fill="#263238"/>
<path d="M335.53 827.884C335.092 827.988 334.405 825.572 335.53 822.905C336.655 820.239 339.009 819.177 339.217 819.572C339.425 819.968 338.03 821.406 337.134 823.593C336.238 825.78 335.926 827.822 335.53 827.884Z" fill="#263238"/>
<path d="M317.993 799.637C317.806 800.074 315.577 799.428 312.848 799.637C310.119 799.845 307.994 800.741 307.723 800.324C307.452 799.908 309.494 798.241 312.723 797.97C315.952 797.699 318.243 799.241 317.993 799.637Z" fill="#263238"/>
<path d="M287.618 556.221C287.618 556.221 314.699 554.138 317.698 583.427C320.698 612.716 323.656 749.829 323.656 749.829L260.537 755.099L250.746 615.049L149.859 572.137C149.859 572.137 269.557 552.472 287.618 556.221Z" fill="#263238"/>
<path d="M176.088 516.6C176.088 516.6 192.503 562.658 189.379 567.783C186.254 572.907 144.029 594.03 144.029 594.03L38.3298 634.631C38.3298 634.631 27.4766 617.361 27.4766 590.885C27.4766 564.408 64.2441 516.641 64.2441 516.641L176.088 516.6Z" fill="#263238"/>
<path d="M144.758 569.865C144.915 569.973 145.082 570.063 145.258 570.136L146.758 570.823L152.611 573.427L174.588 583.01L250.436 615.653L250.082 615.174C251.04 629.006 252.165 643.942 253.144 659.399C255.727 695.541 258.102 728.851 259.977 755.224V755.703H260.456L306.535 751.661L319.221 750.474L322.533 750.141L323.658 749.974C323.277 749.942 322.894 749.942 322.513 749.974L319.2 750.182L306.493 751.12L260.372 754.744L260.893 755.182C259.081 728.83 256.727 695.5 254.31 659.357C253.227 643.9 252.227 628.964 251.186 615.132V614.799L250.873 614.653L174.859 582.364L152.757 573.115L146.841 570.678L145.299 570.074C145.125 569.99 144.943 569.921 144.758 569.865Z" fill="#455A64"/>
<path d="M60.7031 574.386C61.7213 574.228 62.7198 573.963 63.682 573.595L71.6396 571.012C80.3246 568.077 89.226 565.828 98.2622 564.283C107.303 562.808 116.532 562.928 125.531 564.637C132.405 566.075 136.363 568.033 136.446 567.804C135.592 567.224 134.668 566.755 133.697 566.408C131.115 565.322 128.446 564.458 125.718 563.825C116.624 561.843 107.237 561.603 98.0539 563.117C88.9451 564.655 79.998 567.033 71.3272 570.22C67.9941 571.407 65.3277 572.428 63.4737 573.157C62.5179 573.49 61.5913 573.901 60.7031 574.386Z" fill="#455A64"/>
<path d="M75.6367 550.118C78.7169 549.93 81.8057 549.93 84.8859 550.118C87.7398 550.305 91.1353 550.743 94.885 551.18C98.6347 551.618 102.78 552.138 107.071 552.951C114.414 554.119 121.452 556.732 127.778 560.638C130.302 562.395 132.704 564.323 134.965 566.408C134.55 565.677 134.031 565.01 133.423 564.429C131.861 562.747 130.122 561.238 128.236 559.929C121.912 555.75 114.767 552.972 107.28 551.784C102.947 550.972 98.7805 550.493 95.01 550.097C91.2395 549.701 87.8231 549.368 84.9275 549.284C82.6458 549.184 80.3597 549.281 78.0948 549.576C77.2538 549.638 76.4259 549.82 75.6367 550.118Z" fill="#455A64"/>
<path d="M122.32 180.067C110.175 177.984 99.4055 182.671 89.219 189.525C78.7934 196.853 70.8482 207.184 66.4418 219.142C62.0355 231.099 61.3771 244.115 64.5545 256.456C66.3138 262.728 69.3249 268.579 73.4063 273.655C77.4877 278.732 82.5549 282.93 88.3024 285.995C104.113 294.015 124.341 291.224 138.506 280.517C152.672 269.809 160.733 252.123 161.421 234.396C162.077 222.101 158.856 209.911 152.213 199.545C148.845 194.423 144.459 190.051 139.326 186.7C134.194 183.349 128.426 181.091 122.383 180.067" fill="#263238"/>
<path d="M87.7409 221.418C89.5324 216.751 88.8241 211.564 89.5324 206.627C91.0948 195.774 99.9481 187.067 109.947 182.838C119.363 178.901 130.779 179.755 142.194 183.421C150.069 185.808 157.099 190.389 162.463 196.628C165.877 200.861 168.226 205.851 169.313 211.179C170.4 216.507 170.194 222.018 168.713 227.251L113.176 219.168C107.968 223.459 102.635 227.855 96.3234 230.25C94.5039 231.048 92.5094 231.364 90.5323 231.167C89.5474 231.05 88.6171 230.651 87.8525 230.02C87.0879 229.388 86.5212 228.55 86.2202 227.605C85.7202 225.501 86.9701 223.438 87.7409 221.418Z" fill="#263238"/>
<path d="M143.383 198.754L94.8873 209.044C92.6397 209.194 90.5282 210.174 88.9646 211.796C87.4009 213.417 86.4972 215.563 86.4297 217.814L87.013 322.784C87.0621 329.951 89.4626 336.904 93.8457 342.574L98.4703 348.532C109.032 362.135 130.384 360.76 138.446 345.553C138.939 344.689 139.317 343.765 139.571 342.803C139.717 341.866 139.967 341.241 140.008 340.449L140.946 330.2C141.404 320.868 141.487 311.452 141.487 311.452C141.487 311.452 161.34 308.952 166.485 283.371C169.006 270.664 169.172 249.645 168.756 232.459C168.318 217.064 158.84 197.733 143.383 198.754Z" fill="#FFBE9D"/>
<path d="M161.318 252.248C161.291 253.107 160.93 253.92 160.311 254.516C159.692 255.111 158.865 255.441 158.006 255.436C157.585 255.455 157.163 255.39 156.767 255.243C156.371 255.096 156.009 254.871 155.702 254.582C155.395 254.292 155.149 253.944 154.98 253.557C154.81 253.171 154.72 252.754 154.715 252.332C154.747 251.473 155.11 250.66 155.727 250.062C156.344 249.465 157.168 249.128 158.027 249.124C158.45 249.107 158.872 249.175 159.268 249.324C159.663 249.473 160.026 249.7 160.332 249.991C160.639 250.282 160.885 250.632 161.054 251.02C161.223 251.408 161.313 251.825 161.318 252.248Z" fill="#263238"/>
<path d="M163.736 243.27C163.299 243.687 160.882 241.749 157.32 241.624C153.758 241.499 151.071 243.166 150.738 242.707C150.404 242.249 150.988 241.749 152.154 240.978C153.734 239.964 155.591 239.468 157.466 239.562C159.308 239.625 161.082 240.274 162.528 241.416C163.591 242.312 163.945 243.103 163.736 243.27Z" fill="#263238"/>
<path d="M129.489 251.436C129.467 252.298 129.108 253.118 128.489 253.717C127.869 254.317 127.039 254.65 126.177 254.644C125.757 254.661 125.338 254.594 124.944 254.446C124.551 254.298 124.191 254.072 123.886 253.783C123.581 253.494 123.338 253.146 123.169 252.761C123.001 252.376 122.911 251.961 122.906 251.541C122.928 250.682 123.284 249.866 123.899 249.267C124.514 248.668 125.339 248.332 126.198 248.333C126.619 248.316 127.039 248.383 127.433 248.531C127.828 248.679 128.189 248.904 128.496 249.193C128.802 249.482 129.048 249.829 129.218 250.215C129.389 250.6 129.481 251.015 129.489 251.436Z" fill="#263238"/>
<path d="M130.006 242.415C129.568 242.832 127.152 240.874 123.59 240.749C120.028 240.624 117.34 242.29 117.007 241.853C116.674 241.415 117.257 240.895 118.444 240.103C120.023 239.104 121.869 238.61 123.736 238.686C125.585 238.761 127.364 239.417 128.818 240.561C129.86 241.436 130.214 242.228 130.006 242.415Z" fill="#263238"/>
<path d="M140.655 269.413C142.555 268.924 144.505 268.651 146.467 268.601C147.384 268.601 148.238 268.392 148.425 267.788C148.532 266.856 148.358 265.913 147.925 265.08C147.154 262.851 146.342 260.518 145.509 258.06C142.155 248.082 139.78 239.895 140.176 239.77C140.572 239.645 143.634 247.623 146.967 257.602C147.759 260.06 148.529 262.393 149.258 264.643C149.794 265.759 149.912 267.03 149.592 268.226C149.445 268.539 149.23 268.815 148.964 269.034C148.697 269.254 148.385 269.412 148.05 269.497C147.543 269.601 147.026 269.65 146.509 269.642C144.556 269.826 142.587 269.748 140.655 269.413Z" fill="#263238"/>
<path d="M141.488 311.556C129.365 311.279 117.558 307.637 107.387 301.036C107.387 301.036 115.344 319.18 141.196 317.701L141.488 311.556Z" fill="#EB996E"/>
<path d="M138.821 277.913C138.179 277.037 137.323 276.34 136.334 275.888C135.346 275.435 134.259 275.243 133.176 275.33C132.376 275.372 131.593 275.579 130.876 275.937C130.159 276.296 129.524 276.798 129.01 277.413C128.522 277.98 128.217 278.681 128.136 279.425C128.054 280.169 128.199 280.919 128.552 281.579C129.098 282.236 129.828 282.715 130.648 282.956C131.467 283.197 132.34 283.189 133.155 282.933C134.86 282.409 136.44 281.544 137.801 280.392C138.217 280.131 138.578 279.791 138.863 279.392C138.994 279.194 139.064 278.962 139.064 278.725C139.064 278.488 138.994 278.256 138.863 278.059" fill="#EB996E"/>
<path d="M130.111 271.476C130.694 271.476 130.548 275.309 133.735 278.184C136.922 281.058 141.047 280.788 141.068 281.329C141.068 281.558 140.11 282.038 138.381 282.017C136.118 281.958 133.949 281.102 132.256 279.6C130.647 278.181 129.647 276.197 129.465 274.059C129.298 272.372 129.84 271.434 130.111 271.476Z" fill="#263238"/>
<path d="M129.801 231.875C129.426 232.833 125.885 232.229 121.698 232.563C117.511 232.896 114.115 233.917 113.594 233.021C113.365 232.604 113.969 231.708 115.365 230.833C117.215 229.738 119.301 229.103 121.448 228.979C123.579 228.798 125.723 229.134 127.697 229.959C129.301 230.625 129.968 231.417 129.801 231.875Z" fill="#263238"/>
<path d="M163.298 227.709C162.652 228.501 160.235 227.563 157.298 227.397C154.361 227.23 151.84 227.73 151.299 226.876C151.049 226.459 151.486 225.668 152.59 224.939C154.085 224.056 155.819 223.663 157.548 223.814C159.272 223.907 160.924 224.533 162.277 225.605C163.277 226.48 163.589 227.334 163.298 227.709Z" fill="#263238"/>
<path d="M78.848 213.918C83.8892 199.149 105.929 179.026 121.386 180.421L145.967 195.816C145.072 200.043 143.051 203.95 140.117 207.122C137.184 210.294 133.446 212.614 129.302 213.835C124.865 215.085 119.574 215.356 116.803 219.085C114.032 222.813 115.511 228.542 112.949 232.458C109.387 237.916 99.9919 237.458 97.2839 243.374C96.1173 245.957 96.6381 249.082 95.409 251.707C93.7842 255.123 84.9933 259.31 81.3895 258.102C77.7856 256.894 77.9106 250.748 76.8065 247.499C75.3855 243.843 75.2824 239.806 76.5149 236.083C78.3064 228.771 76.4524 220.959 78.848 213.918Z" fill="#263238"/>
<path d="M92.0527 261.289C92.0527 259.373 89.9695 254.769 88.1988 254.394C83.1785 253.415 74.0543 253.477 73.471 266.31C72.6794 283.85 90.4486 281.017 90.5111 280.517C90.5736 280.017 91.8027 267.914 92.0527 261.289Z" fill="#FFBE9D"/>
<path d="M85.5527 273.642C85.5527 273.642 85.2402 273.83 84.6986 274.038C83.9701 274.331 83.1565 274.331 82.428 274.038C80.5948 273.267 79.1783 270.247 79.2199 267.101C79.254 265.59 79.6165 264.104 80.2824 262.747C80.4749 262.208 80.7954 261.724 81.2163 261.335C81.6371 260.947 82.1458 260.667 82.6988 260.518C83.0518 260.438 83.422 260.486 83.7428 260.654C84.0636 260.822 84.3139 261.099 84.4486 261.435C84.657 261.935 84.4486 262.289 84.6361 262.31C84.8236 262.331 85.0111 262.039 84.9069 261.31C84.8414 260.872 84.6194 260.472 84.282 260.185C84.0508 259.987 83.7825 259.837 83.4928 259.744C83.2031 259.651 82.8978 259.617 82.5946 259.643C81.8688 259.758 81.184 260.055 80.6046 260.507C80.0252 260.959 79.5702 261.55 79.2824 262.226C78.473 263.71 78.0368 265.369 78.0117 267.059C78.0117 270.601 79.6157 273.996 82.178 274.85C82.6423 275.006 83.1353 275.057 83.6216 274.999C84.1078 274.942 84.5753 274.777 84.9903 274.517C85.3861 274.059 85.5527 273.663 85.5527 273.642Z" fill="#EB996E"/>
<path d="M75.1355 209.481C75.1355 203.981 68.3445 200.398 62.9908 199.065C57.5286 198.127 51.9114 199.2 47.1797 202.086C44.3675 203.627 41.5344 205.835 40.9303 208.981C40.3262 212.127 43.3259 215.876 46.3256 214.751C44.8596 215.231 43.5184 216.03 42.3989 217.091C41.2794 218.152 40.4095 219.449 39.8522 220.887C39.2948 222.325 39.0639 223.87 39.176 225.408C39.2881 226.946 39.7406 228.441 40.5006 229.783C41.2606 231.125 42.3093 232.282 43.5708 233.169C44.8324 234.057 46.2753 234.653 47.7954 234.915C49.3154 235.177 50.8747 235.098 52.3606 234.684C53.8464 234.27 55.2218 233.531 56.3872 232.521C54.8655 237.608 51.6449 242.02 47.263 245.019C51.7957 245.67 56.4198 245.115 60.6696 243.409C64.9194 241.704 68.6449 238.909 71.4708 235.306C74.2967 231.703 76.1233 227.419 76.7667 222.885C77.41 218.351 76.8474 213.728 75.1355 209.481Z" fill="#263238"/>
<path d="M62.9285 237.271C62.4071 235.565 62.1816 233.782 62.2619 232C62.192 223.334 65.0389 214.897 70.3445 208.044C71.3462 206.571 72.6017 205.287 74.0525 204.253C70.3889 208.931 67.4661 214.144 65.3866 219.71C62.1578 229.084 63.3243 237.292 62.9285 237.271Z" fill="#A4A5A6"/>
<path d="M140.84 190.524C142.444 197.67 153.339 206.815 158.067 212.377C167.15 222.98 168.941 226.5 168.858 250.227C173.149 242.041 176.441 234 176.107 224.771C175.905 215.423 172.289 206.472 165.942 199.607C162.765 196.257 158.853 193.693 154.514 192.116C150.176 190.54 145.53 189.995 140.944 190.524" fill="#263238"/>
<path d="M215.23 385.674C215.23 385.674 196.315 354.156 191.065 347.782C186.85 342.855 181.553 338.969 175.587 336.429C173.231 335.411 170.763 334.677 168.234 334.241L141.028 328.221C141.028 328.221 141.028 346.782 121.55 347.928C102.073 349.073 85.7411 321.972 85.7411 321.972C85.7411 321.972 54.3065 326.846 46.8072 330.721C39.3078 334.596 27.4756 339.491 20.9761 371.967L16.4141 403.798L70.5758 408.797L75.7629 489.29L102.615 508.038C102.615 508.038 177.087 527.391 181.774 528.661C186.461 529.932 188.024 408.839 188.024 408.839C188.024 408.839 207.314 396.527 215.23 385.674Z" fill="#263238"/>
<path d="M179.566 372.134C180.005 372.87 180.362 373.652 180.629 374.467C181.233 375.988 182.025 378.217 182.899 381.008C187.453 395.634 189.33 410.961 188.441 426.254C188.274 429.17 188.045 431.524 187.795 433.149C187.74 433.996 187.593 434.834 187.357 435.649C187.258 434.805 187.258 433.952 187.357 433.107C187.462 431.483 187.587 429.129 187.649 426.212C187.852 418.628 187.504 411.04 186.607 403.506C185.668 395.984 184.178 388.541 182.15 381.237C181.379 378.425 180.691 376.154 180.191 374.613C179.896 373.811 179.687 372.98 179.566 372.134Z" fill="#455A64"/>
<path d="M177.21 503.976L75.1361 481.77L70.4282 408.86L25.0781 404.693C25.0781 404.693 26.7655 454.522 28.4945 469.271C31.0151 490.581 43.5973 519.662 50.9716 525.516C58.346 531.369 181.689 528.703 181.689 528.703L177.21 503.976Z" fill="#FFBE9D"/>
<path d="M235.147 517.183C234.808 517.888 234.265 518.475 233.59 518.868C232.914 519.262 232.136 519.444 231.356 519.391C231.023 519.368 230.694 519.305 230.377 519.204C228.106 518.475 228.293 513.871 228.293 513.871L217.503 512.121C217.503 512.121 203.442 521.183 198.442 527.182C193.442 533.182 180.694 528.328 180.694 528.328L176.277 505.288L196.171 487.311C196.171 487.311 194.963 488.373 196.338 485.019C197.713 481.666 203.942 482.936 203.942 482.936C204.921 481.27 209.004 480.687 209.004 480.687L226.46 482.77C228.234 482.975 229.939 483.576 231.449 484.528C232.96 485.48 234.238 486.758 235.189 488.269L242.584 499.956C242.584 499.956 246.479 508.288 245.854 510.371C245.576 511.208 244.993 511.908 244.22 512.333C243.448 512.758 242.544 512.876 241.688 512.663C241.688 512.663 240.834 518.204 239.376 518.391C237.886 518.314 236.424 517.961 235.064 517.35L235.147 517.183Z" fill="#FFBE9D"/>
<path d="M198.043 500.642C198.043 500.829 200.376 500.642 204.105 500.767C208.947 501.001 213.734 501.898 218.333 503.433C220.864 504.284 223.323 505.336 225.686 506.579C227.769 507.766 229.978 508.662 230.665 510.266C230.82 510.599 230.885 510.967 230.852 511.333C230.819 511.699 230.69 512.049 230.478 512.349C230.162 512.841 229.704 513.226 229.165 513.453C228.67 513.626 228.147 513.704 227.624 513.682C227.624 513.682 228.165 514.162 229.29 513.87C229.969 513.685 230.565 513.273 230.978 512.703C231.278 512.324 231.474 511.872 231.547 511.394C231.62 510.916 231.567 510.426 231.394 509.974C230.95 508.972 230.227 508.119 229.311 507.516C228.353 506.912 227.353 506.266 226.249 505.662C223.856 504.35 221.354 503.249 218.77 502.371C214.073 500.783 209.147 499.974 204.188 499.975C202.117 499.873 200.044 500.098 198.043 500.642Z" fill="#EB996E"/>
<path d="M196.793 511.767C196.793 512.1 203.917 511.767 212.646 512.309C221.374 512.85 228.373 513.892 228.436 513.559C226.979 512.986 225.452 512.614 223.895 512.455C220.193 511.826 216.458 511.409 212.708 511.205C208.955 510.996 205.192 510.996 201.438 511.205C199.871 511.177 198.308 511.367 196.793 511.767Z" fill="#EB996E"/>
<path d="M235.041 516.745C235.195 516.139 235.272 515.517 235.271 514.891C235.377 513.185 235.377 511.473 235.271 509.767C235.211 508.575 235.051 507.39 234.791 506.226C234.477 504.862 233.897 503.573 233.083 502.434C231.364 499.797 229.141 497.525 226.542 495.747C223.977 493.97 221.171 492.567 218.21 491.581C215.753 490.888 213.22 490.503 210.669 490.435C208.585 490.435 206.794 490.435 205.586 490.435C204.955 490.394 204.321 490.457 203.711 490.623C206.003 490.951 208.312 491.146 210.627 491.206C213.1 491.372 215.546 491.819 217.918 492.539C220.76 493.577 223.455 494.977 225.938 496.706C228.395 498.428 230.514 500.589 232.188 503.08C233.558 505.106 234.343 507.47 234.458 509.913C234.916 514.058 234.812 516.745 235.041 516.745Z" fill="#EB996E"/>
<path d="M209.855 485.081C209.855 485.248 212.459 485.331 216.626 485.81C220.792 486.29 227.041 486.706 230.729 492.247C234.276 496.382 237.235 500.988 239.519 505.934C240.276 508.058 240.834 510.248 241.186 512.475C241.309 511.863 241.309 511.233 241.186 510.621C241.079 508.928 240.736 507.26 240.165 505.663C238.054 500.522 235.12 495.759 231.479 491.56C230.506 490.274 229.372 489.119 228.104 488.123C226.853 487.218 225.438 486.567 223.938 486.206C221.52 485.558 219.042 485.16 216.542 485.019C214.319 484.775 212.074 484.796 209.855 485.081Z" fill="#EB996E"/>
<path d="M202.209 523.474C202.578 523.24 202.926 522.976 203.25 522.682L206.167 520.328C209.836 517.476 213.669 514.84 217.645 512.433H217.395L228.186 514.266L227.811 513.808C227.776 514.695 227.846 515.583 228.019 516.454C228.161 517.425 228.589 518.331 229.248 519.058C229.643 519.416 230.137 519.648 230.664 519.724C231.167 519.818 231.683 519.818 232.185 519.724C233.234 519.57 234.19 519.036 234.872 518.224C235.055 518.035 235.216 517.825 235.352 517.6L235.456 517.412L234.831 517.641L235.164 517.766C235.622 517.954 236.081 518.12 236.56 518.266C237.039 518.412 237.518 518.537 238.039 518.641C238.309 518.664 238.581 518.664 238.851 518.641C239.195 518.662 239.538 518.598 239.851 518.454C240.325 518.08 240.686 517.583 240.893 517.016C241.113 516.539 241.294 516.044 241.434 515.537C241.727 514.532 241.957 513.509 242.122 512.475L241.497 512.912C242.229 513.065 242.988 513.018 243.696 512.776C244.403 512.534 245.032 512.106 245.517 511.538C245.999 510.95 246.264 510.214 246.267 509.454C246.209 508.75 246.083 508.052 245.892 507.371C245.074 504.717 244.079 502.122 242.913 499.601L238.976 493.352L236.476 489.415C235.717 488.036 234.801 486.75 233.748 485.582C232.631 484.458 231.299 483.572 229.831 482.978C228.401 482.446 226.897 482.137 225.373 482.061L208.937 480.207H208.812C207.823 480.365 206.853 480.624 205.917 480.978C204.917 481.277 204.04 481.891 203.417 482.728L204.021 482.54C203.133 482.13 202.157 481.944 201.18 481.998C200.203 482.052 199.254 482.346 198.417 482.853C196.96 483.913 195.967 485.495 195.647 487.269L195.772 487.04L182.065 499.372L178.377 502.768C177.923 503.138 177.511 503.557 177.148 504.017C177.637 503.697 178.097 503.334 178.523 502.934L182.377 499.705L196.313 487.665H196.418V487.519C196.716 485.973 197.586 484.597 198.855 483.665C199.571 483.259 200.374 483.031 201.196 482.998C202.019 482.965 202.837 483.13 203.584 483.478L203.959 483.623L204.188 483.29C204.731 482.645 205.457 482.18 206.271 481.957C207.142 481.64 208.042 481.41 208.958 481.269H208.812L225.248 483.207C226.673 483.291 228.077 483.585 229.415 484.082C230.744 484.614 231.95 485.416 232.956 486.436C233.95 487.551 234.817 488.773 235.539 490.081L238.039 494.039C239.393 496.122 240.726 498.205 241.976 500.289C243.135 502.743 244.117 505.277 244.913 507.871C245.097 508.475 245.216 509.096 245.267 509.725C245.279 510.265 245.094 510.791 244.747 511.204C244.392 511.619 243.932 511.93 243.414 512.102C242.896 512.275 242.342 512.303 241.809 512.183H241.247V512.704C241.088 513.695 240.872 514.675 240.601 515.641C240.424 516.5 240.038 517.301 239.476 517.974C239.331 517.997 239.184 517.997 239.039 517.974H238.372C237.935 517.974 237.476 517.766 237.018 517.641L235.685 517.183L235.372 517.058L234.727 517.287V517.412C234.626 517.59 234.507 517.758 234.372 517.912C233.843 518.545 233.104 518.966 232.289 519.099C231.898 519.183 231.493 519.183 231.102 519.099C230.734 519.064 230.386 518.919 230.102 518.683C229.188 517.363 228.774 515.76 228.935 514.162V513.767H228.56L217.728 512.079H217.603H217.499C213.536 514.559 209.743 517.301 206.146 520.287C204.896 521.349 203.959 522.203 203.334 522.787C202.935 522.975 202.558 523.205 202.209 523.474Z" fill="#EB996E"/>
<path d="M367.446 450.168L233.145 451.272C228.771 451.272 224.625 453.355 223.959 457.667L209.377 555.575H140.091C139.072 555.648 138.119 556.105 137.423 556.853C136.727 557.601 136.34 558.584 136.34 559.606C136.34 560.628 136.727 561.611 137.423 562.359C138.119 563.107 139.072 563.564 140.091 563.637H361.071L376.174 460.313C376.363 459.057 376.278 457.775 375.927 456.554C375.575 455.333 374.964 454.203 374.135 453.24C373.307 452.277 372.28 451.504 371.126 450.974C369.971 450.444 368.716 450.169 367.446 450.168Z" fill="#E0E0E0"/>
<path d="M367.445 450.168C368.145 450.139 368.847 450.209 369.528 450.376C371.315 450.8 372.927 451.766 374.143 453.142C375.359 454.519 376.119 456.238 376.319 458.063C376.37 459.916 376.202 461.769 375.819 463.583L373.882 477.228C370.924 497.747 366.674 527.328 361.383 563.699V564.054H361.029L146.652 564.179H140.882C139.833 564.278 138.778 564.076 137.84 563.595C137.123 563.202 136.525 562.623 136.109 561.92C135.692 561.216 135.473 560.413 135.473 559.596C135.473 558.778 135.692 557.975 136.109 557.272C136.525 556.568 137.123 555.989 137.84 555.596C138.781 555.126 139.835 554.931 140.882 555.034H209.292L208.771 555.492C214.042 520.433 218.979 487.727 223.353 458.376C223.498 456.416 224.393 454.587 225.853 453.272C227.311 452.043 229.088 451.255 230.978 451.001C232.777 450.826 234.586 450.764 236.394 450.814H241.664L261.892 450.689L297.826 450.46L348.988 450.189H367.403C367.403 450.189 367.007 450.189 366.216 450.189H362.674L348.988 450.376L297.826 450.939L261.892 451.314L241.664 451.501H236.394C234.635 451.469 232.876 451.531 231.124 451.689C229.393 451.917 227.766 452.641 226.437 453.772C225.788 454.354 225.262 455.059 224.886 455.845C224.511 456.632 224.294 457.485 224.249 458.355C219.875 487.706 215 520.412 209.667 555.471V555.929H140.923C140.067 555.821 139.198 555.966 138.424 556.346C137.719 556.751 137.174 557.386 136.882 558.144C136.59 558.903 136.568 559.739 136.82 560.512C137.117 561.295 137.677 561.95 138.403 562.366C139.185 562.745 140.059 562.897 140.923 562.804H146.694L361.07 562.929L360.654 563.283C366.049 526.932 370.424 497.372 373.465 476.853C374.236 471.749 374.923 467.187 375.548 463.25C375.935 461.464 376.124 459.641 376.111 457.813C375.936 456.03 375.216 454.343 374.05 452.983C372.883 451.623 371.326 450.654 369.59 450.21C368.876 450.159 368.16 450.145 367.445 450.168Z" fill="#263238"/>
<path d="M294.596 514.079C299.244 514.079 303.012 510.311 303.012 505.663C303.012 501.015 299.244 497.247 294.596 497.247C289.948 497.247 286.18 501.015 286.18 505.663C286.18 510.311 289.948 514.079 294.596 514.079Z" fill="white"/>
<path d="M214.708 562.72C214.896 562.72 219.166 537.826 224.249 507.058C229.332 476.29 233.311 451.292 233.123 451.271C232.936 451.251 228.644 476.165 223.562 506.933C218.479 537.701 214.542 562.699 214.708 562.72Z" fill="#263238"/>
</svg>
