<svg width="150" height="99" viewBox="0 0 150 99" fill="none" xmlns="http://www.w3.org/2000/svg">
<path d="M143.433 22.3279C143.611 21.468 141.792 20.76 140.422 20.6872C139.77 20.6518 139.093 20.7184 138.476 20.5747C137.137 20.2624 136.604 19.1172 135.296 18.7424C134.323 18.4676 133.196 18.7112 132.251 19.0298C131.306 19.3483 130.379 19.7481 129.312 19.7918C128.391 19.8314 127.393 19.6044 126.588 19.9043C125.989 20.1271 125.674 20.5893 125.122 20.86C124.569 21.1307 123.874 21.1827 123.203 21.2077C122.532 21.2327 121.839 21.2368 121.228 21.4159C120.616 21.595 120.111 22.0406 120.239 22.4757L143.433 22.3279Z" fill="#E0E0E0"/>
<path d="M147.482 81.8774C147.722 80.7156 145.267 79.7599 143.426 79.662C142.546 79.6141 141.632 79.7036 140.799 79.51C138.992 79.0936 138.271 77.534 136.509 77.0364C135.192 76.6658 133.676 76.9968 132.399 77.4258C131.123 77.8547 129.86 78.394 128.434 78.4544C127.186 78.5085 125.844 78.2003 124.758 78.6064C123.95 78.9062 123.526 79.5287 122.78 79.8952C122.035 80.2617 121.099 80.3304 120.194 80.3637C119.289 80.397 118.35 80.4033 117.526 80.6552C116.702 80.9071 116.019 81.4881 116.191 82.0835L147.482 81.8774Z" fill="#EBEBEB"/>
<path d="M26.7718 24.5415C26.9122 23.8648 25.4801 23.3089 24.4068 23.2506C23.8951 23.2235 23.3616 23.2756 22.8748 23.1631C21.8234 22.9174 21.4021 22.0117 20.3788 21.7223C19.6112 21.5141 18.7282 21.6973 17.9857 21.9492C17.2431 22.2012 16.5067 22.5135 15.6737 22.5489C14.9498 22.578 14.1667 22.4011 13.5333 22.6363C13.0622 22.8112 12.8157 23.1735 12.3789 23.388C11.9265 23.574 11.4031 23.6687 10.8719 23.6608C10.3407 23.6516 9.81158 23.7088 9.31186 23.8294C8.83448 23.9772 8.43512 24.3146 8.53496 24.6623L26.7718 24.5415Z" fill="#EBEBEB"/>
<path d="M28.8105 66.5422C29.0102 65.5698 26.9572 64.7703 25.4128 64.687C24.6764 64.6474 23.9089 64.7224 23.2287 64.56C21.7155 64.2081 21.1133 62.9068 19.6375 62.4903C18.5361 62.1801 17.2663 62.457 16.2054 62.8151C15.1446 63.1733 14.0807 63.6272 12.8857 63.6771C11.8498 63.7209 10.7204 63.4689 9.81241 63.8042C9.13535 64.0561 8.77967 64.5766 8.15565 64.8827C7.53164 65.1888 6.7485 65.2471 5.99032 65.2762C5.23214 65.3054 4.449 65.3075 3.75947 65.5199C3.06993 65.7322 2.49584 66.2174 2.63936 66.7129L28.8105 66.5422Z" fill="#E0E0E0"/>
<path d="M139.985 46.772H135.691V58.4487H139.985V46.772Z" fill="#EBEBEB"/>
<path d="M137.836 47.316H133.246L135.542 45.7128L137.836 44.1074L140.132 45.7128L142.428 47.316H137.836Z" fill="#EBEBEB"/>
<path d="M13.8127 39.5391H10.4805V48.6027H13.8127V39.5391Z" fill="#F5F5F5"/>
<path d="M12.1483 39.9616H8.58203L10.3667 38.7144L12.1483 37.4692L13.9298 38.7144L15.7114 39.9616H12.1483Z" fill="#F5F5F5"/>
<path d="M143.007 98.9223C143.007 98.9514 112.091 98.9764 73.96 98.9764C35.8294 98.9764 4.90625 98.9514 4.90625 98.9223C4.90625 98.8931 35.8169 98.8682 73.96 98.8682C112.103 98.8682 143.007 98.8911 143.007 98.9223Z" fill="#263238"/>
<path d="M127.571 0.000976562H20.5117V98.7325H127.571V0.000976562Z" fill="#FAFAFA"/>
<path d="M79.4138 5.94141H67.8477V8.94387H79.4138V5.94141Z" fill="#F5F5F5"/>
<path d="M79.4168 8.94403C79.4145 8.92532 79.4145 8.90652 79.4168 8.88781C79.4168 8.84617 79.4168 8.79411 79.4168 8.72957V8.12991C79.4168 7.60729 79.398 6.86187 79.3856 5.94156L79.4417 5.97904L67.8756 5.9957C67.8007 6.04359 67.9723 5.92907 67.9536 5.94156V7.48027C67.9536 7.98207 67.9536 8.47138 67.9536 8.93778L67.8756 8.88573L76.1469 8.91071L78.5619 8.92529H79.214H79.3825H79.4448C79.3742 8.92822 79.3033 8.92822 79.2327 8.92529H78.6087L76.2125 8.93986L67.8475 9.00233H67.7695V7.48444C67.7695 7.2325 67.7695 6.97847 67.7695 6.72029V5.94573C67.7695 5.95614 67.9255 5.84162 67.8538 5.89159L79.4199 5.90825H79.4761V5.94573C79.4761 6.87645 79.4511 7.62811 79.4448 8.15697V8.7483C79.4448 8.81077 79.4448 8.85866 79.4448 8.9003C79.4448 8.94194 79.4168 8.94611 79.4168 8.94403Z" fill="#263238"/>
<path d="M100.689 38.0754C100.689 38.0754 100.689 38.0566 100.689 38.0191C100.689 37.9817 100.689 37.9255 100.689 37.863V37.2633C100.689 36.7386 100.67 35.9932 100.658 35.0729L100.714 35.1104L89.1476 35.127L89.2287 35.0729V36.6137C89.2287 37.1155 89.2287 37.6048 89.2287 38.0712L89.1507 38.0191L97.4189 38.0441L99.8338 38.0587H100.486H100.658H100.717C100.646 38.0616 100.575 38.0616 100.505 38.0587H99.8806L97.4813 38.0733L89.16 38.0962H89.082V38.0441C89.082 37.5756 89.082 37.0863 89.082 36.5866V35.0458L89.1631 34.9917L100.729 35.0084H100.789V35.0458C100.789 35.9766 100.767 36.7282 100.76 37.2592C100.76 37.509 100.76 37.7068 100.76 37.8484C100.76 37.9109 100.76 37.9608 100.76 38.0004C100.76 38.04 100.692 38.0775 100.689 38.0754Z" fill="#263238"/>
<path opacity="0.2" d="M89.125 38.0752L90.1702 39.108H101.353L100.691 35.0728V38.0752H89.125Z" fill="black"/>
<path d="M66.1987 20.9411C66.1987 20.9411 66.1987 20.9203 66.1987 20.8849C66.1987 20.8495 66.1987 20.7912 66.1987 20.7267L66.1831 20.127C66.1831 19.6044 66.1675 18.859 66.1519 17.9366L66.2081 17.9762L54.642 17.9928L54.7231 17.9387V19.4774C54.7231 19.9785 54.7231 20.4643 54.7231 20.9349L54.6451 20.8828L62.9133 20.9078L65.3282 20.9224H65.9803H66.155C66.1747 20.9207 66.1946 20.9207 66.2143 20.9224C66.1437 20.9253 66.0728 20.9253 66.0022 20.9224H65.3781L62.9788 20.937L54.6576 20.962H54.5796V20.9099C54.5796 20.4393 54.5796 19.9521 54.5796 19.4524V17.9428C54.5608 17.9428 54.7324 17.8387 54.6607 17.8866L66.2268 17.9033H66.2861V17.9408C66.2861 18.8736 66.2642 19.6252 66.258 20.1541V20.7454C66.258 20.8058 66.258 20.8558 66.258 20.8953C66.258 20.9349 66.2018 20.9432 66.1987 20.9411Z" fill="#263238"/>
<path opacity="0.2" d="M54.6328 20.9414L55.678 21.9742H66.8604L66.1989 17.939V20.9414H54.6328Z" fill="black"/>
<path d="M101.006 7.44842C101.004 7.42972 101.004 7.41091 101.006 7.3922C101.006 7.35056 101.006 7.29851 101.006 7.23396V6.6343C101.006 6.11168 100.987 5.36627 100.975 4.44596L101.031 4.48344L89.465 4.50009C89.3901 4.54798 89.5617 4.43346 89.543 4.44596V5.98467C89.543 6.48647 89.543 6.97577 89.543 7.44218L89.465 7.39012L97.7363 7.41511L100.151 7.42968H100.803H100.972H101.034C100.964 7.43262 100.893 7.43262 100.822 7.42968H100.198L97.8018 7.44426L89.4774 7.46924H89.3994V5.98883C89.3994 5.73689 89.3994 5.48287 89.3994 5.22468V4.45012C89.3838 4.46053 89.5554 4.34601 89.4837 4.39599L101.05 4.41264H101.106V4.45012C101.106 5.38084 101.081 6.1325 101.075 6.66137C101.075 6.91331 101.075 7.10903 101.075 7.2527C101.075 7.31516 101.075 7.36514 101.075 7.4047C101.075 7.44426 101.006 7.4505 101.006 7.44842Z" fill="#263238"/>
<path opacity="0.2" d="M89.4375 7.44876L90.4858 8.4815H101.668L101.007 4.44629V7.44876H89.4375Z" fill="black"/>
<path d="M62.7864 70.2916C62.7841 70.2729 62.7841 70.2541 62.7864 70.2354C62.7864 70.1917 62.7864 70.1417 62.7864 70.0772C62.7864 69.9314 62.7864 69.7315 62.7864 69.4775C62.7864 68.9528 62.7676 68.2095 62.7552 67.2871L62.8113 67.3246L51.2452 67.3412C51.1703 67.3891 51.3419 67.2746 51.3232 67.2871V68.8279C51.3232 69.3318 51.3232 69.8176 51.3232 70.2854L51.2452 70.2333L59.5165 70.2562L61.9315 70.2708H62.5836H62.752H62.8144C62.7438 70.2737 62.6729 70.2737 62.6023 70.2708H61.9783L59.582 70.2854L51.2577 70.3104H51.1797V68.7966C51.1797 68.5468 51.1797 68.2907 51.1797 68.0346V67.2559C51.1797 67.2683 51.3357 67.1538 51.2639 67.2017L62.83 67.2184H62.8862V67.2559C62.8862 68.1866 62.8612 68.9403 62.855 69.4692V70.0605C62.855 70.1209 62.855 70.1709 62.855 70.2104C62.855 70.25 62.7864 70.2916 62.7864 70.2916Z" fill="#263238"/>
<path opacity="0.2" d="M51.2109 70.2921L52.2593 71.3228H63.4416L62.7802 67.2876V70.2921H51.2109Z" fill="black"/>
<path d="M37.0457 18.8529C37.043 18.8342 37.043 18.8154 37.0457 18.7967C37.0457 18.7551 37.0457 18.703 37.0457 18.6385V18.0409C37.0457 17.5162 37.027 16.7708 37.0146 15.8504L37.0707 15.8879L25.5046 15.9046C25.4297 15.9525 25.6013 15.838 25.5857 15.8504V16.2398C25.5857 16.3689 25.5857 16.5001 25.5857 16.6271V17.3933C25.5857 17.8951 25.5857 18.3844 25.5857 18.8508L25.5077 18.7988L33.779 18.8238L36.194 18.8383H36.8461H37.0146H37.077C37.0063 18.8413 36.9354 18.8413 36.8648 18.8383H36.2408L33.8446 18.8529L25.5202 18.8758H25.4453V18.8238C25.4453 18.3553 25.4453 17.866 25.4453 17.3663V16.6292C25.4453 16.5022 25.4453 16.371 25.4453 16.2419V15.8525C25.4453 15.865 25.6013 15.7505 25.5296 15.7984L37.0957 15.8151H37.1518V15.8525C37.1518 16.7833 37.13 17.5349 37.1206 18.0638V18.6551C37.1206 18.7176 37.1206 18.7675 37.1206 18.8071C37.1206 18.8467 37.0489 18.855 37.0457 18.8529Z" fill="#263238"/>
<path d="M42.8276 15.8503C42.8234 15.8317 42.8234 15.8127 42.8276 15.7941C42.8276 15.7525 42.8276 15.7004 42.8276 15.6359C42.8276 15.4901 42.8276 15.2902 42.8276 15.0362C42.8276 14.5136 42.812 13.7682 42.7995 12.8479L42.8556 12.8853L31.2864 12.902L31.3675 12.8479V14.3866C31.3675 14.8884 31.3675 15.3756 31.3675 15.8441L31.2895 15.792L39.5608 15.817L41.9758 15.8316H42.6247H42.7527H42.8151C42.7434 15.8344 42.6715 15.8344 42.5998 15.8316H41.9758L39.5796 15.8462L31.2552 15.8711H31.1772V15.8191C31.1772 15.3485 31.1772 14.8627 31.1772 14.3616V12.852C31.1585 12.852 31.3332 12.7479 31.2583 12.7958L42.8276 12.8125H42.8837V12.852C42.8837 13.7827 42.8588 14.5344 42.8525 15.0633C42.8525 15.3131 42.8525 15.5109 42.8525 15.6546C42.8525 15.715 42.8525 15.7649 42.8525 15.8045C42.8525 15.8441 42.8276 15.8524 42.8276 15.8503Z" fill="#263238"/>
<path d="M43.406 18.853H31.8398V21.8555H43.406V18.853Z" fill="#EBEBEB"/>
<path d="M71.9841 77.8838H60.418V80.8863H71.9841V77.8838Z" fill="#EBEBEB"/>
<path d="M116.722 88.2344H105.156V91.2368H116.722V88.2344Z" fill="#EBEBEB"/>
<path d="M49.8591 89.1665H38.293V92.169H49.8591V89.1665Z" fill="#EBEBEB"/>
<path d="M118.039 8.94385H106.473V11.9463H118.039V8.94385Z" fill="#F5F5F5"/>
<path d="M92.7927 23.5356H81.2266V26.5381H92.7927V23.5356Z" fill="#F5F5F5"/>
<path d="M41.5153 68.7036H29.9492V71.7061H41.5153V68.7036Z" fill="#F5F5F5"/>
<path d="M118.039 70.2051H106.473V73.2075H118.039V70.2051Z" fill="#EBEBEB"/>
<path d="M87.5661 49.8062H76V52.8086H87.5661V49.8062Z" fill="#EBEBEB"/>
<path d="M43.406 49.6704H31.8398V52.6729H43.406V49.6704Z" fill="#EBEBEB"/>
<path d="M62.6208 41.0278H51.0547V44.0303H62.6208V41.0278Z" fill="#EBEBEB"/>
<path d="M57.1521 3.85693H45.5859V6.8594H57.1521V3.85693Z" fill="#F5F5F5"/>
<path d="M118.039 50.0913H106.473V53.0938H118.039V50.0913Z" fill="#EBEBEB"/>
<path d="M75.9655 11.9462C75.9627 11.9275 75.9627 11.9087 75.9655 11.89C75.9655 11.8483 75.9655 11.7963 75.9655 11.7338C75.9655 11.588 75.9655 11.3882 75.9655 11.1341C75.9655 10.6094 75.9467 9.8661 75.9343 8.94371L75.9904 8.98119L64.3994 9.00201C64.3245 9.0499 64.4961 8.93538 64.4805 8.94787V11.9462L64.4025 11.8941L72.6707 11.9191L75.0856 11.9337H75.7377H75.9062H75.9686C75.8981 11.939 75.8269 11.939 75.7564 11.9337H75.1324L72.7362 11.9483L64.4149 11.9712H64.3369V11.917C64.3369 11.4485 64.3369 10.9592 64.3369 10.4595V9.72452C64.3369 9.59542 64.3369 9.46633 64.3369 9.33515V8.94579C64.3213 8.95828 64.493 8.84377 64.4212 8.89165L75.9873 8.90831H76.0435V8.94579C76.0435 9.87651 76.0216 10.6303 76.0123 11.1591V11.7505C76.0123 11.8108 76.0123 11.8608 76.0123 11.9004C76.0123 11.9399 75.9686 11.9483 75.9655 11.9462Z" fill="#263238"/>
<path d="M114.066 14.6943H102.5V17.6968H114.066V14.6943Z" fill="#F5F5F5"/>
<path d="M114.062 17.6972C114.062 17.6972 114.062 17.6785 114.062 17.641C114.062 17.6035 114.062 17.5473 114.062 17.4848C114.062 17.3391 114.062 17.1392 114.062 16.8852C114.062 16.3605 114.046 15.6172 114.031 14.6948L114.087 14.7322L102.521 14.7489L102.602 14.6948V16.2356C102.602 16.7374 102.602 17.2267 102.602 17.6931L102.524 17.641L110.792 17.666L113.207 17.6806H113.859H114.031H114.09C114.02 17.6859 113.948 17.6859 113.878 17.6806H113.254L110.855 17.6951L102.496 17.7472H102.418V17.6931C102.418 17.2246 102.418 16.7353 102.418 16.2356V14.6948L102.499 14.6406L114.065 14.6573H114.124V14.6948C114.124 15.6255 114.103 16.3792 114.096 16.9081L114.081 17.4994C114.081 17.5598 114.081 17.6098 114.081 17.6493C114.081 17.6889 114.065 17.6993 114.062 17.6972Z" fill="#263238"/>
<path d="M119.38 20.7014C119.378 20.6827 119.378 20.6639 119.38 20.6452C119.38 20.6035 119.38 20.5515 119.38 20.4869C119.38 20.3412 119.38 20.1413 119.38 19.8873C119.38 19.3646 119.361 18.6192 119.349 17.6968L119.405 17.7364L107.814 17.7468C107.739 17.7947 107.911 17.6802 107.895 17.6927V18.4672C107.895 18.7254 107.895 18.9795 107.895 19.2314V20.6889L107.817 20.6368L116.085 20.6618L118.5 20.6764H119.152H119.321H119.383C119.312 20.6793 119.242 20.6793 119.171 20.6764H118.547L116.151 20.691L107.829 20.716H107.751V20.6639C107.751 20.1933 107.751 19.7075 107.751 19.2064V17.7031C107.733 17.7031 107.904 17.599 107.833 17.6469L119.399 17.6635H119.455V17.701C119.455 18.6338 119.433 19.3855 119.424 19.9143C119.424 20.1642 119.424 20.362 119.424 20.5057C119.424 20.5661 119.424 20.616 119.424 20.6556C119.424 20.6951 119.383 20.7035 119.38 20.7014Z" fill="#263238"/>
<path d="M47.656 31.1748H36.0898V34.1773H47.656V31.1748Z" fill="#EBEBEB"/>
<path d="M47.6582 34.1795C47.656 34.1608 47.656 34.142 47.6582 34.1233C47.6582 34.0816 47.6582 34.0296 47.6582 33.965C47.6582 33.8193 47.6582 33.6194 47.6582 33.3654C47.6582 32.8407 47.6395 32.0973 47.627 31.175L47.6832 31.2124L36.1171 31.2291L36.1982 31.175V31.9537C36.1982 32.2098 36.1982 32.4659 36.1982 32.7157V34.1733L36.1202 34.1212L44.3884 34.1441L46.8033 34.1587H47.4554H47.6239H47.6863C47.6157 34.1616 47.5448 34.1616 47.4742 34.1587H46.8501L44.4539 34.1733L36.1327 34.1982H36.0547V34.1462C36.0547 33.6756 36.0547 33.1898 36.0547 32.6887V31.1479L36.1358 31.0938L47.7019 31.1104H47.7581V31.1479C47.7581 32.0786 47.7362 32.8323 47.7269 33.3612V33.9525C47.7269 34.0129 47.7269 34.0629 47.7269 34.1025C47.7118 34.1309 47.6885 34.1571 47.6582 34.1795Z" fill="#263238"/>
<path d="M52.9778 37.1817C52.9736 37.1631 52.9736 37.1441 52.9778 37.1255C52.9778 37.0838 52.9778 37.0318 52.9778 36.9672V36.3676C52.9778 35.8449 52.9622 35.0995 52.9497 34.1792L53.0058 34.2167L41.4366 34.2334L41.5177 34.1792V35.7179C41.5177 36.2197 41.5177 36.709 41.5177 37.1754L41.4397 37.1234L49.7111 37.1484L52.126 37.1629H52.775H52.9466H53.009C52.9373 37.1658 52.8654 37.1658 52.7937 37.1629H52.1697L49.7735 37.1775L41.4491 37.2025H41.3711V37.1505C41.3711 36.682 41.3711 36.1927 41.3711 35.6929V34.1542L41.4522 34.1001L53.0215 34.1168H53.0495V34.1542C53.0495 35.085 53.0246 35.8366 53.0183 36.3655V36.9568C53.0183 37.0193 53.0183 37.0672 53.0183 37.1088C53.009 37.134 52.9954 37.1585 52.9778 37.1817Z" fill="#263238"/>
<path d="M123.359 37.0903H111.793V40.0928H123.359V37.0903Z" fill="#F5F5F5"/>
<path d="M123.361 40.0926C123.361 40.0926 123.361 40.0738 123.361 40.0364C123.361 39.9989 123.361 39.9427 123.361 39.8802C123.361 39.7345 123.361 39.5346 123.361 39.2805C123.361 38.7558 123.343 38.0125 123.33 37.0901L123.386 37.1276L111.82 37.1443L111.901 37.0901V37.8688C111.901 38.125 111.901 38.3811 111.901 38.6309V40.0884L111.823 40.0364L120.091 40.0614L122.506 40.0759H123.158H123.33H123.389C123.319 40.0798 123.248 40.0798 123.177 40.0759H122.553L120.157 40.0905L111.836 40.1134H111.711V40.0593C111.711 39.5908 111.711 39.1015 111.711 38.6018V37.061L111.792 37.0068L123.358 37.0235H123.414V37.061C123.414 37.9917 123.392 38.7434 123.383 39.2743C123.383 39.5242 123.383 39.722 123.383 39.8636C123.383 39.926 123.383 39.976 123.383 40.0155C123.383 40.0551 123.364 40.0947 123.361 40.0926Z" fill="#263238"/>
<path d="M82.8577 67.2878C82.8552 67.2691 82.8552 67.2502 82.8577 67.2315C82.8577 67.1899 82.8577 67.1378 82.8577 67.0733C82.8577 66.9296 82.8577 66.7277 82.8577 66.4736C82.8577 65.951 82.839 65.2056 82.8265 64.2853L82.8826 64.3228L71.3165 64.3394C71.2416 64.3873 71.4132 64.2728 71.3945 64.2853V65.824C71.3945 66.3258 71.3945 66.8151 71.3945 67.2815L71.3165 67.2295L79.5878 67.2544L82.0028 67.269H82.6549H82.8234H82.8858C82.8151 67.2719 82.7443 67.2719 82.6736 67.269H82.0496L79.6534 67.2836L71.329 67.3086H71.251V65.7969C71.251 65.545 71.251 65.291 71.251 65.0328V64.2582C71.2354 64.2686 71.407 64.1541 71.3352 64.2041L82.9014 64.2208H82.9575V64.2582C82.9575 65.189 82.9326 65.9406 82.9263 66.4695C82.9263 66.7214 82.9263 66.9171 82.9263 67.0608C82.9263 67.1233 82.9263 67.1732 82.9263 67.2128C82.9263 67.2524 82.8577 67.2898 82.8577 67.2878Z" fill="#263238"/>
<path d="M88.1692 70.2918C88.1692 70.2918 88.1692 70.271 88.1692 70.2356C88.1692 70.2002 88.1692 70.1419 88.1692 70.0773C88.1692 69.9316 88.1692 69.7317 88.1692 69.4777C88.1692 68.953 88.1505 68.2096 88.138 67.2873L88.1941 67.3247L76.628 67.3414L76.7091 67.2873V68.828C76.7091 69.3319 76.7091 69.8178 76.7091 70.2856L76.6311 70.2335L84.8993 70.2564L87.3143 70.271H87.9664H88.138H88.1973C88.1266 70.2739 88.0557 70.2739 87.9851 70.271H87.3611L84.9617 70.2856L76.6405 70.3105H76.5625V70.2585C76.5625 69.7879 76.5625 69.3007 76.5625 68.801V67.2602L76.6436 67.2061L88.2097 67.2227H88.269V67.2602C88.269 68.1909 88.2472 68.9446 88.2409 69.4735V70.0648C88.2409 70.1252 88.2409 70.1752 88.2409 70.2148C88.2313 70.2453 88.2059 70.2725 88.1692 70.2918Z" fill="#263238"/>
<path d="M41.0637 77.8841C41.0595 77.8655 41.0595 77.8465 41.0637 77.8279C41.0637 77.7862 41.0637 77.7342 41.0637 77.6696L41.0481 77.07C41.0481 76.5453 41.0481 75.8019 41.02 74.8795L41.0762 74.917L29.5069 74.9337C29.4352 74.9837 29.6068 74.8691 29.5881 74.8795V76.4162C29.5881 76.9201 29.5881 77.4073 29.5881 77.8737L29.51 77.8216L37.7814 77.8445L40.1963 77.8591H40.8453H41.0169H41.0793C41.0076 77.862 40.9357 77.862 40.864 77.8591H40.24L37.8438 77.8737L29.5194 77.8987H29.4414V77.8466C29.4414 77.376 29.4414 76.8902 29.4414 76.3891V74.8525L29.5225 74.7983L41.0918 74.815H41.1479V74.8525C41.1479 75.7832 41.123 76.5369 41.1167 77.0658C41.1167 77.3157 41.1167 77.5135 41.1011 77.6571C41.1011 77.7175 41.1011 77.7675 41.1011 77.8071C41.1011 77.8466 41.0637 77.8841 41.0637 77.8841Z" fill="#263238"/>
<path d="M46.3776 80.8863C46.3776 80.8863 46.3776 80.8654 46.3776 80.83C46.3776 80.7946 46.3776 80.7363 46.3776 80.6718C46.3776 80.5281 46.3776 80.3262 46.3776 80.0721C46.3776 79.5495 46.3589 78.8041 46.3464 77.8838L46.4026 77.9213L34.8365 77.9379L34.9176 77.8838V79.4225C34.9176 79.9243 34.9176 80.4136 34.9176 80.88L34.8396 80.828L43.1078 80.8529L45.5227 80.8675H46.1748H46.3464H46.4057C46.3351 80.8705 46.2642 80.8705 46.1936 80.8675H45.5695L43.1702 80.8821L34.849 80.9071H34.771V80.855C34.771 80.3865 34.771 79.8972 34.771 79.3975V77.8588C34.7522 77.8692 34.9239 77.7547 34.8521 77.8047L46.4182 77.8213H46.4744V77.8588C46.4744 78.7895 46.4525 79.5412 46.4463 80.0701V80.6614C46.4463 80.7239 46.4463 80.7717 46.4463 80.8134C46.4463 80.855 46.3808 80.8883 46.3776 80.8863Z" fill="#263238"/>
<path d="M77.0754 89.1647C77.0754 89.1647 77.0754 89.1439 77.0754 89.1085C77.0754 89.0731 77.0754 89.0148 77.0754 88.9503L77.0598 88.3506C77.0598 87.8259 77.0411 87.0826 77.0286 86.1602L77.0848 86.1977L65.5186 86.2143L65.5998 86.1602V87.7072C65.5998 88.2111 65.5998 88.697 65.5998 89.1647L65.5218 89.1127L73.79 89.1356L76.2049 89.1502H76.857H77.0286H77.0879C77.0172 89.1531 76.9464 89.1531 76.8757 89.1502H76.2517L73.8524 89.1647L65.5311 89.1897H65.4531V89.1647C65.4531 88.6942 65.4531 88.207 65.4531 87.7072V86.1664L65.5342 86.1123L77.1004 86.129H77.1596V86.1664C77.1596 87.0972 77.1378 87.8509 77.1316 88.3798V88.9711C77.1316 89.0315 77.1316 89.0815 77.1316 89.121C77.1178 89.1382 77.0987 89.1531 77.0754 89.1647Z" fill="#263238"/>
<path d="M82.3926 92.169C82.3903 92.1503 82.3903 92.1315 82.3926 92.1128C82.3926 92.0712 82.3926 92.0191 82.3926 91.9546V91.3549C82.3926 90.8323 82.3739 90.0869 82.3614 89.1666L82.4176 89.2041L70.8515 89.2207C70.7766 89.2686 70.9482 89.1541 70.9326 89.1666V89.9411C70.9326 90.1993 70.9326 90.4533 70.9326 90.7053V92.1628L70.8546 92.1107L79.1228 92.1357L81.5377 92.1503H82.1898H82.3583H82.4207C82.3501 92.1532 82.2792 92.1532 82.2085 92.1503H81.5845L79.1883 92.1649L70.8671 92.1899H70.7891V92.1378C70.7891 91.6693 70.7891 91.18 70.7891 90.6803V89.1645L70.8702 89.1104L82.4363 89.127H82.4925V89.1645C82.4925 90.0952 82.4706 90.8469 82.4613 91.3757C82.4613 91.6256 82.4613 91.8234 82.4613 91.9671C82.4613 92.0274 82.4613 92.0774 82.4613 92.1191C82.4613 92.1607 82.3957 92.1711 82.3926 92.169Z" fill="#263238"/>
<path d="M116.723 62.6963C116.721 62.6776 116.721 62.6587 116.723 62.64C116.723 62.5984 116.723 62.5463 116.723 62.4818L116.698 61.8884C116.698 61.3658 116.683 60.6204 116.67 59.698L116.726 59.7354L105.16 59.7521C105.085 59.8021 105.257 59.6875 105.238 59.698V61.2367C105.238 61.7378 105.238 62.2236 105.238 62.6942L105.16 62.6421L113.432 62.6671L115.847 62.6817H116.496H116.667H116.73C116.659 62.6845 116.588 62.6845 116.517 62.6817H115.893L113.497 62.6963L105.173 62.7212H105.095V61.2096C105.095 60.9577 105.095 60.7036 105.095 60.4455V59.6709C105.079 59.6834 105.251 59.5689 105.179 59.6168L116.745 59.6334H116.801V59.6709C116.801 60.6016 116.776 61.3554 116.77 61.8842C116.77 62.1341 116.77 62.3319 116.77 62.4756C116.77 62.5359 116.77 62.5859 116.77 62.6255C116.77 62.665 116.723 62.6963 116.723 62.6963Z" fill="#263238"/>
<path d="M99.0503 79.3787C99.0503 79.3787 99.0503 79.3578 99.0503 79.3224C99.0503 79.287 99.0503 79.2287 99.0503 79.1642V78.5645C99.0503 78.0419 99.0316 77.2965 99.0191 76.3741L99.0753 76.4137L87.5092 76.4303L87.5903 76.3762V77.1507C87.5903 77.4089 87.5903 77.663 87.5903 77.9149V79.3724L87.5123 79.3204L95.7805 79.3453L98.1954 79.3599H98.8475H99.0191H99.0784C99.0077 79.3629 98.9369 79.3629 98.8662 79.3599H98.2422L95.846 79.3745L87.5248 79.3995H87.4467V79.3787C87.4467 78.9081 87.4467 78.4222 87.4467 77.9211V76.3824C87.428 76.3928 87.5996 76.2783 87.5279 76.3262L99.094 76.3429H99.1502V76.3783C99.1502 77.3111 99.1283 78.0627 99.119 78.5916V79.1829C99.119 79.2433 99.119 79.2933 99.119 79.3328C99.119 79.3724 99.0534 79.3787 99.0503 79.3787Z" fill="#263238"/>
<path opacity="0.2" d="M25.1719 55.4653L25.9082 56.2003H29.4495L30.4885 58.4699L31.8426 59.2215H43.4087L42.0577 55.4653H25.1719Z" fill="black"/>
<path d="M36.738 52.4624H25.1719V55.4649H36.738V52.4624Z" fill="#EBEBEB"/>
<path d="M36.7418 55.4654C36.7418 55.4654 36.7418 55.4466 36.7418 55.4092C36.7418 55.3717 36.7418 55.3155 36.7418 55.253V54.6533C36.7418 54.1286 36.7231 53.3832 36.7106 52.4629L36.7667 52.5004L25.1757 52.5191L25.2568 52.465V54.0058C25.2568 54.5076 25.2568 54.9969 25.2568 55.4633L25.1788 55.4112L33.447 55.4362L35.8619 55.4508H36.514H36.6856H36.7449C36.6742 55.4537 36.6034 55.4537 36.5327 55.4508H35.9087L33.5094 55.4654L25.1881 55.4883H25.0977V55.4362C25.0977 54.9677 25.0977 54.4784 25.0977 53.9787V52.4379L25.1788 52.3838L36.7449 52.4004H36.8011V52.4379C36.8011 53.3686 36.7792 54.1203 36.7699 54.6513V55.2405C36.7699 55.303 36.7699 55.3529 36.7699 55.3925C36.7699 55.4321 36.7449 55.4675 36.7418 55.4654Z" fill="#263238"/>
<path d="M42.0544 55.4653H30.4883V58.4678H42.0544V55.4653Z" fill="#EBEBEB"/>
<path d="M42.0608 58.4702C42.0585 58.4515 42.0585 58.4327 42.0608 58.414C42.0608 58.3723 42.0608 58.3203 42.0608 58.2557C42.0608 58.11 42.0608 57.9101 42.0608 57.6561C42.0608 57.1314 42.0421 56.3881 42.0296 55.4657L42.0858 55.5031L30.5197 55.5198C30.4448 55.5698 30.6164 55.4553 30.5977 55.4657V57.0044C30.5977 57.5069 30.5977 57.9927 30.5977 58.4619L30.5197 58.4098L38.791 58.4348L41.2059 58.4473H41.858H42.0265H42.0889C42.0182 58.4502 41.9474 58.4502 41.8767 58.4473H41.2527L38.8565 58.4619L30.5321 58.4869H30.4541V56.9752C30.4541 56.7233 30.4541 56.4693 30.4541 56.2111V55.4365C30.4385 55.449 30.6101 55.3345 30.5384 55.3824L42.1045 55.399H42.1326V55.4365C42.1326 56.3672 42.1076 57.121 42.1014 57.6498C42.1014 57.8997 42.1014 58.0975 42.1014 58.2412C42.1014 58.3016 42.1014 58.3515 42.1014 58.3911C42.1014 58.4307 42.0608 58.4702 42.0608 58.4702Z" fill="#263238"/>
<path opacity="0.2" d="M87.4844 79.3853L88.5296 80.418H99.7119L99.0505 76.3828V79.3853H87.4844Z" fill="black"/>
<path d="M127.437 98.468C127.393 98.468 127.355 76.5637 127.355 49.5478C127.355 22.5319 127.393 0.617188 127.437 0.617188C127.48 0.617188 127.518 22.5173 127.518 49.5478C127.518 76.5783 127.483 98.468 127.437 98.468Z" fill="#263238"/>
<path d="M20.3764 0.946289C20.4232 0.946289 20.4575 22.7381 20.4575 49.6125C20.4575 76.4868 20.4232 98.2849 20.3764 98.2849C20.3296 98.2849 20.2891 76.4972 20.2891 49.6041C20.2891 22.711 20.3327 0.946289 20.3764 0.946289Z" fill="#263238"/>
<path d="M59.9527 90.7741C60.2312 90.8631 60.48 90.9886 60.6842 91.1431C60.8884 91.2976 61.0439 91.478 61.1414 91.6736C61.3335 92.0668 61.3879 92.4842 61.3006 92.8937C61.1664 93.6849 60.4925 94.4845 59.7655 95.1174C58.7671 94.5344 58.5393 93.5204 58.4707 92.9999C58.3615 92.1795 58.9137 90.6512 59.9527 90.7741Z" fill="#5250F7"/>
<path d="M60.9242 96.4233C60.8533 96.1968 60.8737 95.9619 60.9834 95.7424C61.093 95.5229 61.2879 95.3268 61.5482 95.174C62.0599 94.8679 63.1083 94.7576 63.7853 94.7888C64.0973 94.8054 64.1285 94.8512 64.3095 95.0262C64.3862 95.1117 64.4267 95.2096 64.4267 95.3093C64.4267 95.4091 64.3862 95.5069 64.3095 95.5925C64.1605 95.7658 63.9451 95.9095 63.6855 96.0089C62.8181 96.3712 61.8821 96.6148 60.9024 96.4254" fill="#5250F7"/>
<path d="M59.6484 98.8508C59.6518 98.7961 59.6633 98.7417 59.6828 98.6884L59.8044 98.2491C59.9158 97.7591 60.1455 97.2845 60.4846 96.8436C60.8362 96.4035 61.3575 96.0341 61.9947 95.7734C62.1908 95.6961 62.4004 95.6353 62.6187 95.5923C62.6767 95.5788 62.7362 95.5683 62.7966 95.561C62.8372 95.561 62.859 95.561 62.859 95.561C62.5733 95.6287 62.2976 95.7137 62.0353 95.8151C61.4194 96.0812 60.9148 96.4473 60.5689 96.879C60.2355 97.3151 60.001 97.7817 59.8731 98.2637C59.8138 98.4469 59.7639 98.5968 59.7264 98.6988C59.7078 98.7511 59.6817 98.802 59.6484 98.8508Z" fill="#263238"/>
<path d="M59.6868 91.9629C59.6903 91.9864 59.6903 92.0101 59.6868 92.0337C59.6868 92.0857 59.6868 92.1544 59.7055 92.2419C59.7055 92.4189 59.7336 92.675 59.7492 92.9915C59.7804 93.6265 59.8054 94.5031 59.7991 95.4713C59.7929 96.4395 59.7555 97.3161 59.718 97.9512C59.6993 98.2677 59.6806 98.5238 59.6619 98.7007C59.6619 98.784 59.6463 98.8527 59.6431 98.909C59.6475 98.9325 59.6475 98.9562 59.6431 98.9798C59.6398 98.9562 59.6398 98.9325 59.6431 98.909C59.6431 98.8548 59.6431 98.7882 59.6431 98.7007C59.6431 98.5154 59.6619 98.2614 59.6712 97.9491C59.6962 97.3244 59.7211 96.4395 59.7274 95.4713C59.7336 94.5031 59.7274 93.6265 59.7055 92.9936C59.7055 92.6812 59.6899 92.4272 59.6868 92.2419C59.6868 92.1586 59.6868 92.0899 59.6868 92.0337C59.6819 92.0102 59.6819 91.9864 59.6868 91.9629Z" fill="#263238"/>
<path d="M59.2024 96.9064C59.0826 96.4273 58.7937 95.9741 58.3597 95.5842C57.9257 95.1943 57.359 94.8789 56.7063 94.6639C56.3725 94.5557 55.9356 94.487 55.6611 94.6515C55.3865 94.8159 55.4489 95.1158 55.5831 95.3469C55.8767 95.8246 56.3755 96.2338 57.0168 96.5227C57.658 96.8117 58.413 96.9677 59.1868 96.971" fill="#5250F7"/>
<path d="M56.8596 95.4116C56.9332 95.4278 57.0043 95.4487 57.0718 95.4741C57.1535 95.4991 57.2327 95.5276 57.3089 95.5595C57.4163 95.5979 57.5204 95.6404 57.6209 95.6865C57.7301 95.7385 57.8518 95.7927 57.9703 95.8614C58.0889 95.9301 58.2137 96.005 58.3416 96.0862C58.6101 96.2699 58.8466 96.4731 59.0468 96.6921C59.2415 96.9127 59.3975 97.1474 59.5117 97.3918C59.5986 97.596 59.6581 97.8051 59.6895 98.0164C59.7019 98.0966 59.7071 98.1773 59.7051 98.2579C59.7119 98.3182 59.7119 98.3788 59.7051 98.4391C59.7051 98.4902 59.6967 98.5412 59.6801 98.5911C59.6614 98.5911 59.6957 98.3724 59.6365 98.0206C59.6223 97.9253 59.5994 97.8308 59.5678 97.7374C59.5346 97.6298 59.4929 97.5235 59.443 97.4188C59.3283 97.1789 59.1734 96.9484 58.9812 96.7317C58.7848 96.5169 58.5547 96.3165 58.2948 96.1341C58.17 96.0529 58.0546 95.9738 57.9329 95.9093C57.8257 95.8454 57.7132 95.7856 57.5959 95.7302C57.1498 95.5157 56.8502 95.4262 56.8596 95.4116Z" fill="#263238"/>
<path d="M132.074 95.5698C132.602 96.0923 133.084 96.6345 133.519 97.1939C134 97.7365 134.434 98.2968 134.82 98.8721C134.293 98.3493 133.811 97.8071 133.375 97.248C132.896 96.7049 132.462 96.1447 132.074 95.5698Z" fill="#263238"/>
<path d="M135.542 93.854C135.589 93.854 135.817 94.97 136.057 96.3526C136.297 97.7351 136.457 98.8616 136.413 98.8657C136.369 98.8699 136.138 97.7497 135.898 96.3672C135.658 94.9846 135.499 93.8561 135.542 93.854Z" fill="#263238"/>
<path d="M139.305 95.311C139.282 95.4857 139.235 95.6585 139.165 95.8274C139.062 96.146 138.924 96.5874 138.8 97.0767C138.675 97.566 138.587 98.0137 138.528 98.3385C138.513 98.5155 138.473 98.6911 138.41 98.8632C138.379 98.6868 138.379 98.5086 138.41 98.3322C138.499 97.479 138.714 96.6337 139.052 95.8087C139.108 95.637 139.193 95.47 139.305 95.311Z" fill="#263238"/>
<path d="M95.2148 95.7363C95.4962 96.244 95.7266 96.7636 95.9044 97.2917C96.1361 97.8111 96.3144 98.3406 96.4379 98.8762C96.1565 98.3686 95.9262 97.849 95.7484 97.3209C95.5167 96.8014 95.3384 96.272 95.2148 95.7363Z" fill="#263238"/>
<path d="M99.0458 93.9976C99.0208 94.2404 98.9708 94.4818 98.8961 94.7201C98.79 95.1636 98.6527 95.7778 98.5404 96.4587C98.4281 97.1395 98.3657 97.76 98.3251 98.2077C98.3203 98.4509 98.2922 98.6936 98.2408 98.9343C98.2161 98.8705 98.2066 98.8044 98.2128 98.7386C98.2128 98.6137 98.2128 98.4305 98.2128 98.2056C98.2128 97.7538 98.2721 97.1312 98.3813 96.4462C98.4905 95.7611 98.6496 95.1469 98.7837 94.7055C98.8524 94.4848 98.9117 94.3078 98.9616 94.185C98.9772 94.1203 99.0055 94.0573 99.0458 93.9976Z" fill="#263238"/>
<path d="M16.8594 95.1743C16.9906 95.7955 17.0697 96.4212 17.0966 97.0483C17.1775 97.6748 17.2025 98.3041 17.1715 98.9326C17.0403 98.3114 16.9612 97.6858 16.9343 97.0587C16.8553 96.432 16.8303 95.8029 16.8594 95.1743Z" fill="#263238"/>
<path d="M19.865 96.2861C19.7138 96.7421 19.5104 97.1897 19.2566 97.625C19.0526 98.072 18.7971 98.5077 18.4922 98.9284C18.8491 98.0257 19.308 97.1425 19.865 96.2861Z" fill="#263238"/>
<path d="M13.3203 95.938C13.609 96.4316 13.8457 96.9381 14.0286 97.4538C14.2658 97.9604 14.4504 98.4773 14.5808 99.0008C14.2942 98.5095 14.0576 98.0059 13.8726 97.4934C13.638 96.9835 13.4536 96.4639 13.3203 95.938Z" fill="#263238"/>
<path d="M89.6133 27.0542L92.0813 27.1292C92.8766 27.7618 93.9203 28.234 95.0952 28.493C95.9251 28.6737 96.801 28.7412 97.6708 28.6917C98.5405 28.6422 99.3865 28.4766 100.159 28.2047C100.931 27.9328 101.613 27.5602 102.165 27.109C102.717 26.6578 103.128 26.1371 103.373 25.578C103.902 24.4385 103.745 23.2062 102.933 22.1431C102.122 21.08 100.722 20.27 99.0297 19.8854C98.1998 19.7047 97.3239 19.6371 96.4542 19.6866C95.5844 19.7362 94.7384 19.9018 93.9663 20.1737C93.1943 20.4455 92.512 20.8182 91.9598 21.2694C91.4077 21.7206 90.997 22.2412 90.7521 22.8004C90.3184 23.7551 90.36 24.7778 90.8707 25.7154L89.6133 27.0542Z" fill="white"/>
<path d="M89.6148 27.0549L89.7021 26.9653C89.7614 26.905 89.8457 26.8217 89.9517 26.7113L90.8878 25.7348H90.8378C90.8437 25.7386 90.8515 25.7407 90.8597 25.7407C90.8679 25.7407 90.8757 25.7386 90.8815 25.7348C90.8852 25.7311 90.8871 25.7267 90.8871 25.7223C90.8871 25.7179 90.8852 25.7135 90.8815 25.7098C90.5047 25.0044 90.3901 24.2484 90.5477 23.5069C90.6437 23.0321 90.8544 22.5708 91.1717 22.141C91.9195 21.11 93.2489 20.3186 94.869 19.9402C95.775 19.7307 96.7399 19.6596 97.6926 19.7319C98.7033 19.8148 99.6717 20.0521 100.523 20.4253C100.963 20.6172 101.368 20.8429 101.73 21.0978C102.089 21.3625 102.403 21.653 102.666 21.964C102.926 22.2735 103.136 22.6009 103.29 22.9405C103.431 23.2756 103.516 23.6197 103.546 23.967C103.603 24.6393 103.438 25.3118 103.062 25.9368C102.722 26.5056 102.206 27.0202 101.547 27.4468C100.888 27.8734 100.102 28.2024 99.2402 28.4124C97.7975 28.7601 96.2161 28.752 94.7816 28.3895C93.7295 28.1233 92.7956 27.6835 92.0672 27.1111C92.0601 27.1095 92.0524 27.1095 92.0453 27.1111L90.217 27.0674H89.7396H89.5742H89.7271L90.192 27.0861L92.0422 27.1569H92.0172C92.7452 27.743 93.6862 28.1946 94.7504 28.4687C96.2044 28.8416 97.8103 28.8549 99.2777 28.5061C100.159 28.295 100.963 27.9615 101.637 27.5275C102.311 27.0936 102.839 26.5691 103.187 25.9888C103.572 25.3515 103.741 24.6655 103.683 23.9795C103.652 23.6272 103.564 23.2782 103.421 22.9385C103.269 22.5923 103.06 22.2584 102.797 21.9432C102.529 21.6247 102.205 21.3284 101.833 21.0604C100.743 20.2906 99.286 19.7981 97.7114 19.6674C96.7738 19.5998 95.8254 19.668 94.931 19.8675C94.0366 20.0669 93.2173 20.3928 92.5289 20.823C91.9429 21.1946 91.463 21.6341 91.1124 22.1202C90.7936 22.5576 90.5829 23.0266 90.4884 23.509C90.3378 24.2598 90.4642 25.0239 90.8566 25.7348L90.9127 25.7161C90.9066 25.7127 90.8989 25.7108 90.8909 25.7108C90.8829 25.7108 90.8752 25.7127 90.869 25.7161C90.4676 26.1505 90.1556 26.4851 89.933 26.7196C89.8332 26.8279 89.7552 26.9112 89.7021 26.9716C89.6491 27.032 89.6148 27.0549 89.6148 27.0549Z" fill="#263238"/>
<path d="M99.161 23.467L97.1922 21.8013L95.2266 23.4462L99.161 23.467Z" fill="#5250F7"/>
<path d="M96.2227 26.5111L98.0136 26.5194L98.0697 23.1963L96.2788 23.188L96.2227 26.5111Z" fill="#5250F7"/>
<path opacity="0.2" d="M101.689 44.3339C101.678 44.1408 101.555 43.958 101.346 43.8243C101.137 43.6906 100.858 43.6165 100.569 43.6177L96.7435 43.676C96.5968 43.2949 96.1038 42.0269 95.8074 41.4314L96.4158 39.4242L96.6904 38.6705C96.6904 38.6705 97.1553 37.8376 97.252 37.7106C97.3235 37.3469 97.2992 36.9777 97.1803 36.6196C97.0946 36.499 96.9459 36.4035 96.7622 36.351C96.7622 36.351 96.1974 35.1371 95.8761 34.9809C95.5547 34.8247 95.1647 35.1371 95.1647 35.1371V34.9143C95.0336 34.5561 94.8745 34.4978 94.5812 34.6561C94.4017 34.7674 94.2775 34.9127 94.2255 35.0725C94.2255 35.0725 94.1476 34.7477 94.0852 34.5249C94.0228 34.3021 93.6327 34.4354 93.5017 34.5249C93.3707 34.6144 93.8824 36.6612 93.8824 36.6612L93.692 36.9735C93.6392 36.7817 93.6069 36.5875 93.5953 36.3926C93.561 36.0116 92.7654 34.8476 92.7654 34.8476L93.043 37.3192L93.4986 38.0583L94.1912 38.6726C94.082 38.8537 93.6203 39.6054 93.3551 40.0509C92.5438 38.4852 90.7592 35.0205 90.6531 34.6623C90.5352 34.3397 90.3161 34.0374 90.0103 33.7753L85.2741 32.1575L84.1072 30.8957V29.6818C84.3929 29.4537 84.5948 29.1842 84.6968 28.8948C84.7593 28.7136 84.8466 28.4783 84.9402 28.2326C85.324 28.2326 85.8107 28.1327 85.9324 27.608C86.0541 27.0833 85.7296 26.9126 85.4113 26.8459C85.4113 26.7939 85.4394 26.7377 85.4488 26.6919L85.4956 26.4316C85.6337 26.3818 85.7644 26.3232 85.8856 26.2567C86.1814 26.0676 86.3634 25.8128 86.3973 25.5404C86.4337 25.269 86.4201 24.9955 86.3567 24.7263C86.414 24.742 86.4754 24.7499 86.5373 24.7495C86.5992 24.7491 86.6604 24.7404 86.7171 24.7239C86.7739 24.7073 86.8251 24.6834 86.8677 24.6534C86.9103 24.6234 86.9435 24.588 86.9651 24.5493C86.7234 24.4979 86.5159 24.3919 86.3786 24.2495C86.475 24.2818 86.585 24.2913 86.6906 24.2766C86.7873 24.2557 86.8591 24.1662 86.7935 24.1121C86.7507 24.0849 86.6961 24.0674 86.6375 24.0621C86.3788 23.9966 86.1662 23.8688 86.0416 23.704C86.0203 23.6482 85.9888 23.5943 85.948 23.5436C85.9092 23.496 85.8643 23.4508 85.8138 23.4083C85.7239 23.264 85.5948 23.132 85.4332 23.0189C85.3017 22.9382 85.1463 22.8768 84.977 22.8388C84.8076 22.8007 84.6282 22.7869 84.4504 22.7982C84.2217 22.8112 83.9985 22.8521 83.792 22.919C83.7671 22.9003 83.739 22.8857 83.714 22.869C83.5656 22.6744 83.3524 22.505 83.0906 22.374C82.8288 22.243 82.5254 22.1538 82.2039 22.1132C81.8569 22.0768 81.5025 22.0868 81.1613 22.1425C80.8201 22.1983 80.499 22.2987 80.2164 22.438C79.817 22.6254 79.4832 22.8773 79.0807 23.0627C78.8927 23.1664 78.6708 23.2393 78.433 23.2755C78.1951 23.3116 77.9478 23.3101 77.711 23.2709C77.6299 23.3875 77.945 23.4791 77.9013 23.6123C77.8864 23.6409 77.8586 23.6656 77.8217 23.6832C77.7848 23.7007 77.7407 23.7102 77.6954 23.7102C77.5662 23.7056 77.4378 23.6937 77.3116 23.6748C77.2474 23.6666 77.181 23.672 77.1216 23.6903C77.0623 23.7086 77.0131 23.7389 76.9809 23.7768C76.9637 23.8198 76.9637 23.865 76.9809 23.908C77.0332 24.3015 77.2316 24.68 77.5581 25.0095C77.746 25.1857 77.9956 25.3287 78.2851 25.4259C78.2851 25.7049 78.2851 25.986 78.2695 26.2588L78.2445 26.3296C78.2445 26.3504 78.2445 26.3691 78.2445 26.392C77.8576 26.3545 77.3241 26.417 77.2461 27.0021C77.1525 27.6788 77.8701 27.8016 78.2477 27.8079C78.2477 27.8856 78.257 27.9647 78.2757 28.0453C78.3297 28.386 78.4601 28.7194 78.6626 29.0343L78.7781 30.5376L78.5129 30.5209L77.2055 31.2809L74.4848 30.7312L71.1994 29.5819L68.6253 27.9162L66.6691 26.2504L66.6035 26.2775L63.0061 21.4886L63.8142 20.7744L64.3103 19.9665L64.095 18.5215C64.095 18.5215 63.7424 18.5465 63.7081 18.9629C63.6929 19.1724 63.6575 19.3811 63.602 19.5875L63.393 19.2461C63.2162 19.053 63.0598 18.8519 62.925 18.6443C62.4289 17.2826 62.4414 18.763 62.4975 18.5173C62.4975 18.4528 61.2495 17.4263 61.2495 17.4263C61.2495 17.4263 61.4679 17.8698 61.1496 17.6845C60.8314 17.4991 61.5927 17.8927 61.4616 18.2904V18.5361C61.4616 18.5361 61.0373 18.1925 60.6848 18.3632C60.4519 18.5037 60.3015 18.6949 60.2604 18.9025C60.058 18.9596 59.8938 19.064 59.7986 19.1961C59.6926 19.3918 59.6177 20.2372 59.7238 20.3892C59.8299 20.5412 60.3478 21.4427 60.3478 21.4427L60.4913 22.0028C60.4913 22.0028 61.7737 25.6549 62.8719 27.7787L62.7003 27.8474C62.8101 28.5055 63.2133 29.1264 63.8579 29.6298L70.7969 35.0933L71.4053 38.4706L71.24 43.7863H71.1152L71.0652 45.2917H71.0964L70.8063 46.3599L70.9748 47.2365L70.8468 47.9756C70.8468 47.9756 68.7876 48.5878 66.3414 49.2978L66.2728 49.1978L64.2541 49.7434C64.2541 49.7434 64.276 49.7933 64.3134 49.885L63.8547 50.0161C61.861 50.5866 59.9734 51.1134 59.0311 51.3404C56.6443 51.9151 54.4633 53.2143 54.2792 53.8994C54.0952 54.5844 54.7254 58.2719 55 59.5566C55.2964 60.9225 56.2168 65.9738 56.2168 65.9738L61.1559 67.1543L61.1247 56.804V56.679C61.1247 56.679 65.031 56.2897 67.524 55.9399C67.6461 55.9951 67.7732 56.0451 67.9046 56.0898L70.6066 55.6255L70.4537 55.3985C72.7594 54.9446 76.569 54.2741 76.569 54.2741L78.2414 54.8197L78.8654 55.057L80.0167 56.2439C79.9231 56.3709 80.8997 58.1511 80.9777 58.1178L81.0557 58.1053C82.4005 60.506 84.6001 64.4392 84.8529 64.8931C85.2179 65.5511 88.909 72.4159 89.689 73.4549C90.001 73.8568 91.2677 76.0597 91.4487 76.3824H96.0914C96.0914 76.3824 94.5313 68.7076 93.536 67.5437C92.5407 66.3798 90.756 62.3383 90.756 62.3383L89.5829 56.7686L89.689 56.7519C89.5862 56.1242 89.3606 55.5082 89.0181 54.9196L88.9183 54.9342V54.9196L87.8887 51.7693L101.158 51.4757C101.307 51.4707 101.454 51.4459 101.588 51.4026C101.723 51.3594 101.843 51.2987 101.942 51.224C102.041 51.1493 102.116 51.0622 102.164 50.9677C102.211 50.8733 102.23 50.7735 102.219 50.6741L101.689 44.3339ZM87.3208 43.8196C87.1647 43.8228 87.0116 43.8487 86.872 43.8954C86.7324 43.9422 86.6098 44.0087 86.5127 44.0903L87.4862 41.217C87.6651 40.8144 87.8336 40.4105 87.9916 40.0051L88.0104 40.0468L87.9292 40.3279C87.9823 40.2821 88.0322 40.2342 88.0821 40.1884L89.7108 43.4636C89.827 43.5728 89.952 43.6778 90.0852 43.778L87.3208 43.8196ZM95.121 43.701C95.2232 43.4635 95.2921 43.2202 95.3269 42.9743L95.4268 42.6516C95.536 43.1013 95.5859 43.5136 95.6046 43.6926L95.121 43.701Z" fill="black"/>
<path opacity="0.3" d="M90.8196 75.4228C90.8196 75.4228 90.6824 75.0689 90.3984 74.5566L90.8196 75.4228Z" fill="black"/>
<path d="M84.3203 49.1874C84.3203 47.6987 84.4014 44.4193 84.4358 42.9763C84.4405 42.787 84.5549 42.6062 84.755 42.4719C84.9551 42.3376 85.2253 42.2602 85.5091 42.2559L98.7538 42.0623C99.0382 42.0571 99.3145 42.1263 99.5237 42.255C99.7329 42.3837 99.8585 42.5619 99.8739 42.7515L100.389 48.8522C100.397 48.9495 100.376 49.047 100.327 49.1389C100.278 49.2308 100.202 49.3152 100.104 49.3872C100.005 49.4592 99.8861 49.5173 99.7534 49.5581C99.6207 49.5988 99.477 49.6215 99.331 49.6247L85.4529 49.9203C85.3057 49.9237 85.159 49.9072 85.0216 49.8719C84.8841 49.8365 84.7588 49.783 84.6531 49.7146C84.5473 49.6462 84.4634 49.5642 84.4062 49.4736C84.349 49.383 84.3198 49.2857 84.3203 49.1874Z" fill="#455A64"/>
<path d="M91.2172 44.4277L86.7898 44.3861L86.7461 42.8453L91.1704 42.7891L91.2172 44.4277Z" fill="white"/>
<path d="M90.7042 43.3097C90.1555 43.3431 89.6043 43.3542 89.0536 43.343C88.5039 43.353 87.9538 43.3411 87.4062 43.3076C87.954 43.2755 88.5041 43.2651 89.0536 43.2763C89.6043 43.2651 90.1555 43.2762 90.7042 43.3097Z" fill="#263238"/>
<path d="M90.7432 43.7093C90.1956 43.7426 89.6454 43.7531 89.0958 43.7406C88.5452 43.7518 87.994 43.7407 87.4453 43.7073C87.994 43.6739 88.5452 43.6635 89.0958 43.676C89.6455 43.6648 90.1956 43.6759 90.7432 43.7093Z" fill="#263238"/>
<path d="M90.7706 44.1095C90.2227 44.1403 89.6728 44.1507 89.1232 44.1407C88.5725 44.152 88.0213 44.1408 87.4727 44.1074C88.0213 44.0739 88.5725 44.0628 89.1232 44.0741C89.6729 44.0641 90.223 44.0759 90.7706 44.1095Z" fill="#263238"/>
<path d="M94.9896 44.4028L89.4671 44.4402L89.4141 42.5184L94.9335 42.4497L94.9896 44.4028Z" fill="#EBEBEB"/>
<path d="M94.3466 43.0975C93.6625 43.1309 92.9762 43.1413 92.2905 43.1288C91.1548 43.1288 90.2344 43.1142 90.2344 43.0955C90.9185 43.0621 91.6048 43.0517 92.2905 43.0642C93.4262 43.0642 94.3466 43.0788 94.3466 43.0975Z" fill="#263238"/>
<path d="M94.3935 43.5953C94.3935 43.6141 93.4731 43.6286 92.3374 43.6286C91.2017 43.6286 90.2812 43.612 90.2812 43.5932C90.2812 43.5745 91.2173 43.562 92.3374 43.562C93.4575 43.562 94.3935 43.5766 94.3935 43.5953Z" fill="#263238"/>
<path d="M94.4365 44.0947C94.4365 44.1114 93.5005 44.1259 92.3803 44.1259C91.2602 44.1259 90.3242 44.1093 90.3242 44.0926C90.3242 44.076 91.2446 44.0593 92.3803 44.0593C93.0662 44.048 93.7524 44.0598 94.4365 44.0947Z" fill="#263238"/>
<path d="M99.0199 44.3066C99.0199 44.3066 99.0199 44.3275 99.0199 44.3712C99.0199 44.4149 99.0199 44.4836 99.0199 44.569C99.0199 44.746 99.0387 45.0021 99.048 45.3311C99.073 45.9994 99.1042 46.9614 99.1416 48.1503C99.1416 48.2253 99.1416 48.3002 99.1416 48.3773C99.1537 48.4582 99.131 48.5398 99.0761 48.6125C99.0152 48.687 98.9215 48.7473 98.8078 48.7854C98.6928 48.8184 98.5677 48.8327 98.4427 48.827L96.9264 48.8541L93.5848 48.9124L89.8937 48.9769L87.9406 49.0102L86.9421 49.0269H86.6894C86.6023 49.033 86.5144 49.033 86.4273 49.0269C86.3381 49.0149 86.2539 48.9901 86.1806 48.9541C86.1073 48.9181 86.0467 48.8719 86.003 48.8187C85.9657 48.7717 85.9444 48.7198 85.9406 48.6667C85.9406 48.6125 85.9406 48.5688 85.9406 48.5188C85.9406 48.421 85.9406 48.3252 85.9406 48.2294C85.9406 48.0358 85.9406 47.8442 85.9406 47.6547C85.9406 47.2737 85.9406 46.8989 85.9406 46.5283C85.9406 45.7891 85.9406 45.0708 85.9219 44.392V44.3608H85.9687C89.7814 44.4461 93.0481 44.4274 95.357 44.3899C96.5114 44.3733 97.4287 44.3504 98.059 44.3358L98.7828 44.3191H99.0262H98.9607H98.7735L98.059 44.3462C97.4349 44.367 96.5145 44.3941 95.3601 44.4191C93.0481 44.4649 89.7814 44.492 85.9656 44.4191L86.0155 44.3878C86.0155 45.0708 86.0155 45.785 86.0373 46.5241C86.0373 46.8948 86.0373 47.2695 86.0373 47.6506C86.0373 47.8401 86.0373 48.0316 86.0373 48.2232C86.0373 48.321 86.0373 48.4168 86.0373 48.5147C86.0328 48.6029 86.0595 48.6907 86.1153 48.7708C86.1504 48.8171 86.2005 48.8576 86.262 48.8893C86.3236 48.921 86.395 48.9431 86.471 48.954C86.5509 48.9594 86.6314 48.9594 86.7113 48.954H86.964L87.9624 48.9374L89.9156 48.9061L93.6097 48.8457L96.9513 48.7937L98.4646 48.7708C98.5798 48.7771 98.6956 48.7642 98.8015 48.7333C98.9013 48.7011 98.9833 48.6486 99.0355 48.5834C99.0844 48.5191 99.105 48.4469 99.0948 48.3752C99.0948 48.2981 99.0948 48.2232 99.0948 48.1503C99.0699 46.9656 99.0543 46.0078 99.0387 45.3415C99.0387 45.0104 99.0387 44.7522 99.0387 44.5732C99.0387 44.4878 99.0387 44.4212 99.0387 44.3649C99.0387 44.3087 99.0199 44.3066 99.0199 44.3066Z" fill="#263238"/>
<path d="M95.3816 48.2987C95.3816 48.2987 95.4627 48.2987 95.6125 48.2737C95.8287 48.2368 96.0246 48.1595 96.1772 48.0509C96.2937 47.9637 96.3803 47.8606 96.4309 47.7487C96.4816 47.6369 96.4951 47.519 96.4705 47.4034C96.4705 47.1243 96.4518 46.8099 96.4362 46.4601C96.4362 46.2852 96.4362 46.1041 96.4206 45.9125C96.4369 45.7189 96.3445 45.5281 96.1616 45.3774C96.0637 45.2984 95.942 45.2341 95.8044 45.1885C95.6668 45.1429 95.5164 45.1172 95.3629 45.113C95.0509 45.113 94.6983 45.113 94.3551 45.1255L89.856 45.1838C89.6653 45.1853 89.4786 45.2202 89.3144 45.2848C89.1502 45.3495 89.0142 45.4417 88.9199 45.5523C88.8256 45.659 88.7751 45.7804 88.7733 45.9042C88.7733 46.0333 88.7733 46.1582 88.7733 46.2832C88.7733 46.5351 88.7733 46.7829 88.7951 47.0244V47.3825C88.7928 47.4979 88.8001 47.6133 88.817 47.7282C88.8437 47.8351 88.9057 47.9367 88.9985 48.0257C89.0913 48.1146 89.2126 48.1887 89.3536 48.2425C89.4889 48.2938 89.6388 48.3257 89.7936 48.3362C89.9433 48.3362 90.1056 48.3362 90.2584 48.3362L91.9682 48.3195L94.4456 48.2987H95.3566C95.3566 48.2987 95.3348 48.2987 95.2974 48.2987H95.1195L94.4487 48.3133L91.9714 48.3549L90.2584 48.3799C90.1024 48.3799 89.9464 48.3903 89.7842 48.3799C89.5243 48.3635 89.2797 48.2904 89.0885 48.1718C88.8972 48.0532 88.77 47.8958 88.7265 47.724C88.7073 47.6065 88.699 47.4883 88.7015 47.37C88.7015 47.2534 88.7015 47.1327 88.7015 47.0119C88.7015 46.7704 88.6859 46.5247 88.6797 46.2727V45.8917C88.6811 45.7565 88.7348 45.6238 88.8357 45.5065C88.9384 45.3869 89.0858 45.287 89.2635 45.2166C89.4412 45.1461 89.6431 45.1076 89.8497 45.1047L94.3489 45.0505C94.6983 45.0505 95.029 45.0401 95.3629 45.0505C95.5279 45.0561 95.6895 45.0845 95.8372 45.134C95.9849 45.1835 96.1156 45.2529 96.2209 45.3379C96.4142 45.499 96.5109 45.7023 96.4924 45.9084C96.4924 46.0978 96.4924 46.2811 96.4924 46.456C96.4924 46.8037 96.4924 47.1202 96.5111 47.3971C96.5111 47.4679 96.5111 47.5345 96.5111 47.6053C96.5021 47.6679 96.4811 47.7295 96.4487 47.7886C96.3854 47.9137 96.274 48.0255 96.1256 48.1128C95.9772 48.2001 95.797 48.2599 95.6031 48.2862C95.5304 48.2966 95.4559 48.3008 95.3816 48.2987Z" fill="#263238"/>
<path d="M91.2969 44.4107C91.3593 44.4107 94.8538 42.2432 94.8538 42.2432L98.0768 44.3253L91.2969 44.4107Z" fill="white"/>
<path d="M96.6743 44.3616C96.2445 44.1754 95.8338 43.9702 95.445 43.7473C95.036 43.5422 94.6472 43.3197 94.2812 43.0811C95.119 43.4735 95.9183 43.9012 96.6743 44.3616Z" fill="#263238"/>
<path d="M95.5386 44.3985C94.9042 44.115 94.3071 43.796 93.7539 43.4448C94.3883 43.7283 94.9854 44.0473 95.5386 44.3985Z" fill="#263238"/>
<path d="M94.3373 44.3987C94.1244 44.3257 93.9271 44.234 93.7507 44.126C93.5538 44.0357 93.3772 43.927 93.2266 43.8032C93.439 43.8768 93.6362 43.9685 93.8131 44.076C94.0094 44.1669 94.1858 44.2755 94.3373 44.3987Z" fill="#263238"/>
<path d="M93.1905 44.428C93.1718 44.4426 93.047 44.3947 92.9129 44.3239C92.7787 44.2531 92.6789 44.1803 92.6976 44.1657C92.7163 44.1511 92.838 44.199 92.9753 44.2719C93.1125 44.3448 93.2062 44.4135 93.1905 44.428Z" fill="#263238"/>
<g opacity="0.3">
<path d="M86.3867 48.9958C90.3731 49.7181 94.589 49.6457 98.5145 48.7876L86.3867 48.9958Z" fill="black"/>
</g>
<path d="M93.7751 46.0641L92.215 46.0849C92.1568 46.0854 92.0991 46.0783 92.045 46.064C91.9909 46.0496 91.9416 46.0283 91.8999 46.0012C91.8582 45.9742 91.8249 45.9419 91.8018 45.9062C91.7788 45.8705 91.7665 45.8322 91.7657 45.7934C91.7645 45.7546 91.7747 45.7161 91.7959 45.6801C91.8171 45.644 91.8487 45.6111 91.889 45.5832C91.9293 45.5553 91.9775 45.5331 92.0308 45.5177C92.0841 45.5023 92.1414 45.4941 92.1994 45.4935L93.7595 45.4727C93.8179 45.4719 93.876 45.4788 93.9304 45.493C93.9849 45.5072 94.0345 45.5285 94.0766 45.5556C94.1187 45.5827 94.1523 45.6151 94.1755 45.6509C94.1987 45.6867 94.2111 45.7252 94.2119 45.7642C94.2127 45.8031 94.2021 45.8416 94.1805 45.8777C94.159 45.9138 94.1271 45.9467 94.0865 45.9745C94.046 46.0024 93.9976 46.0246 93.9441 46.04C93.8907 46.0553 93.8332 46.0635 93.7751 46.0641Z" fill="#E0E0E0"/>
<path d="M93.3489 71.4287L95.2241 75.972L91.5705 76.6966L89.6797 72.1471L93.3489 71.4287Z" fill="#455A64"/>
<path d="M93.3519 76.1575C93.3207 76.1575 92.9057 75.1705 92.4159 73.94C91.926 72.7094 91.5672 71.7058 91.5953 71.7017C91.6234 71.6975 92.0446 72.6886 92.5313 73.9212C93.018 75.1539 93.3831 76.1533 93.3519 76.1575Z" fill="#263238"/>
<path d="M95.095 75.6577L91.4414 76.374L91.5725 76.6967L95.2261 75.9721L95.095 75.6577Z" fill="#263238"/>
<path d="M90.9688 75.2416C90.9688 75.2416 90.9688 75.1979 91.0218 75.1271C91.1804 74.8703 91.426 74.6415 91.7394 74.4587C92.0665 74.2677 92.477 74.1521 92.9102 74.1289C93.3434 74.1056 93.7764 74.176 94.145 74.3296C94.2846 74.387 94.4117 74.4571 94.5225 74.5378C94.5974 74.5982 94.6317 74.6357 94.6255 74.6398C94.4643 74.543 94.2899 74.4566 94.1044 74.3817C93.6393 74.2055 93.0887 74.1591 92.5725 74.2526C92.0612 74.3588 91.6204 74.5794 91.3244 74.8772C91.0811 75.0875 90.9875 75.2478 90.9688 75.2416Z" fill="#263238"/>
<g opacity="0.3">
<path d="M94.1371 73.2593L94.3492 73.8902L90.6395 74.4482L90.4023 73.8818L94.1371 73.2593Z" fill="black"/>
</g>
<path d="M55.0166 62.286L56.3551 65.4655C56.3551 65.4655 51.2288 66.6773 51.1758 67.3165L61.1226 67.3686V66.3421L60.0181 62.0674L55.0166 62.286Z" fill="#455A64"/>
<path d="M59.3714 65.185C59.468 65.204 59.5506 65.2463 59.6031 65.3036C59.6555 65.3609 59.6742 65.4293 59.6554 65.4953C59.6302 65.5607 59.5681 65.6172 59.4821 65.6529C59.3961 65.6886 59.2927 65.7007 59.1936 65.6868C59.0893 65.6673 58.9997 65.6226 58.9421 65.5614C58.8844 65.5002 58.8629 65.4269 58.8816 65.3558C58.9189 65.2893 58.9935 65.2352 59.0896 65.2049C59.1858 65.1746 59.2958 65.1704 59.3964 65.1933" fill="white"/>
<path d="M61.1178 67.3683V66.9414L51.4456 67.0226C51.3577 67.0591 51.2821 67.1074 51.2235 67.1644C51.165 67.2213 51.1248 67.2858 51.1055 67.3537L61.1178 67.3683Z" fill="#263238"/>
<path d="M56.2619 65.4889C56.2619 65.5201 56.5084 65.5347 56.7518 65.6409C56.9951 65.7471 57.1231 65.8824 57.1667 65.8699C57.2104 65.8574 57.1387 65.6617 56.8547 65.543C56.5708 65.4244 56.2526 65.4577 56.2619 65.4889Z" fill="#263238"/>
<path d="M55.2109 65.7804C55.2109 65.8137 55.4106 65.8679 55.5791 66.0074C55.7476 66.1469 55.7944 66.2905 55.8443 66.2884C55.8942 66.2864 55.9223 66.1031 55.7101 65.9345C55.498 65.7658 55.2109 65.7492 55.2109 65.7804Z" fill="#263238"/>
<path d="M54.6058 66.6232C54.6526 66.6232 54.7181 66.467 54.6058 66.288C54.4935 66.1089 54.247 66.0381 54.2283 66.0652C54.2095 66.0922 54.3499 66.188 54.4498 66.3358C54.5496 66.4837 54.5683 66.6211 54.6058 66.6232Z" fill="#263238"/>
<path d="M56.3456 64.6977C56.3674 64.7289 56.5921 64.6831 56.8697 64.6977C57.1474 64.7123 57.3627 64.7685 57.3877 64.7393C57.4126 64.7102 57.2036 64.5957 56.8791 64.5852C56.5546 64.5748 56.3206 64.6727 56.3456 64.6977Z" fill="#263238"/>
<path d="M56.168 63.9714C56.3323 64.002 56.506 64.002 56.6703 63.9714C56.8511 63.9501 57.0272 63.9137 57.1945 63.8631C57.2943 63.8332 57.3912 63.7992 57.4846 63.7611C57.5398 63.7395 57.5902 63.7129 57.6344 63.682C57.6675 63.6589 57.6877 63.629 57.6917 63.5971C57.6957 63.5653 57.6832 63.5335 57.6562 63.5071C57.6319 63.4841 57.5997 63.4652 57.5622 63.4522C57.5248 63.4392 57.4832 63.4323 57.441 63.4321C57.3775 63.4323 57.3145 63.4386 57.2538 63.4509C57.1472 63.4691 57.0429 63.4928 56.9417 63.5217C56.7716 63.5747 56.6148 63.6449 56.4769 63.7299C56.246 63.8735 56.1648 63.9964 56.1836 64.0026C56.2023 64.0089 56.3177 63.911 56.5549 63.7944C56.6931 63.7255 56.8441 63.6688 57.0041 63.6258C57.0968 63.5997 57.1929 63.5795 57.2912 63.5654C57.3973 63.5466 57.4878 63.5466 57.5158 63.5779C57.5439 63.6091 57.5158 63.5945 57.5158 63.6154C57.4813 63.6371 57.4437 63.6567 57.4035 63.6737C57.313 63.7111 57.2257 63.7445 57.1383 63.7757C56.9823 63.8274 56.8193 63.8692 56.6516 63.9006C56.4878 63.9155 56.3261 63.9392 56.168 63.9714Z" fill="#263238"/>
<g opacity="0.3">
<path d="M60.5504 64.0288L60.7033 64.718L56.1448 64.972L55.8516 64.2724L60.5504 64.0288Z" fill="black"/>
</g>
<path d="M61.6743 21.4096L61.1938 20.7412L62.0019 20.0521L62.498 19.2733L62.2858 17.8824C62.2858 17.8824 61.9301 17.9054 61.8958 18.2989C61.8831 18.5044 61.8476 18.709 61.7897 18.911L61.5807 18.5821C61.5807 18.5821 61.5807 17.6139 61.4371 17.5181C61.2936 17.4223 60.8693 17.2828 60.8131 17.5181C60.757 17.7534 60.6758 18.1427 60.6758 18.1427C60.6758 18.1427 60.601 17.5785 60.2827 17.3994C59.9645 17.2203 59.7866 17.2932 59.6587 17.6701V17.9074C59.6587 17.9074 59.2344 17.5764 58.8787 17.7409C58.6484 17.8749 58.4978 18.0596 58.4543 18.2614C58.255 18.3155 58.092 18.4161 57.9957 18.5446C57.8896 18.734 57.8116 19.5523 57.9177 19.6939C58.0238 19.8355 58.5417 20.7079 58.5417 20.7079L58.6883 21.2493L61.6743 21.4096Z" fill="#FFBF9D"/>
<path d="M58.6602 21.2473C58.6602 21.2473 60.5322 26.3715 61.6804 27.854L65.671 26.4922L61.1937 20.7393L58.6602 21.2473Z" fill="#FFBF9D"/>
<path d="M91.3594 38.9414C91.3937 38.8477 92.4108 37.2549 92.4108 37.2549L94.7135 37.6963L93.5309 41.4442L91.3594 38.9414Z" fill="#FFBF9D"/>
<path d="M91.9863 37.9445L92.4262 37.3344L91.6868 36.7098L91.2344 35.9977L91.4278 34.7255C91.4278 34.7255 91.7398 34.7463 91.7835 35.1127C91.797 35.3007 91.8293 35.4878 91.8802 35.6728L92.0706 35.3709C92.0706 35.3709 92.0706 34.4881 92.2047 34.4006C92.3389 34.3132 92.7227 34.1924 92.7851 34.4006C92.8475 34.6089 92.9099 34.9628 92.9099 34.9628C92.9099 34.9628 92.9785 34.4465 93.2718 34.284C93.5651 34.1216 93.7242 34.1862 93.8521 34.5318V34.74C93.8521 34.74 94.239 34.4381 94.5635 34.5901C94.7735 34.7115 94.9108 34.8793 94.9504 35.0628C95.1332 35.1129 95.2827 35.2053 95.3716 35.323C95.488 35.6645 95.5112 36.0172 95.4402 36.3641C95.3435 36.4932 94.8786 37.2907 94.8786 37.2907L94.6041 38.0174L91.9863 37.9445Z" fill="#FFBF9D"/>
<path d="M82.0633 22.1756L81.9572 22.1486C81.8188 21.9326 81.6015 21.7432 81.3252 21.5977C81.0489 21.4522 80.7223 21.3553 80.3753 21.3157C79.6782 21.2438 78.9665 21.3558 78.391 21.628C77.9885 21.8092 77.6546 22.0445 77.2552 22.2319C77.0636 22.3317 76.8403 22.4011 76.6024 22.4346C76.3645 22.4682 76.1182 22.4651 75.8824 22.4255C75.8044 22.5379 76.1195 22.6337 76.0759 22.7545C76.0599 22.7822 76.0317 22.8061 75.9949 22.8228C75.9581 22.8396 75.9145 22.8484 75.8699 22.8482C75.7397 22.8435 75.6103 22.8317 75.483 22.8128C75.4192 22.8043 75.353 22.8094 75.2937 22.8273C75.2343 22.8453 75.1849 22.8751 75.1523 22.9127C75.1367 22.9544 75.1367 22.998 75.1523 23.0397C75.2061 23.4207 75.4047 23.7862 75.7295 24.1016C75.8943 24.2574 76.1133 24.3843 76.3676 24.4713C76.6218 24.5583 76.904 24.6029 77.1897 24.6013C77.6414 24.5576 78.0701 24.4403 78.4378 24.2599L80.6499 23.3562C80.9989 23.2266 81.3209 23.067 81.6078 22.8815C81.8906 22.6943 82.0538 22.4414 82.0633 22.1756Z" fill="#263238"/>
<path d="M81.6211 22.2152C81.9199 22.0859 82.2616 22.0072 82.6164 21.9862C82.7928 21.9745 82.971 21.9869 83.14 22.0227C83.3089 22.0585 83.4652 22.1169 83.5992 22.1944C83.8169 22.3593 83.9919 22.5471 84.1172 22.7503C84.1801 22.8524 84.2733 22.9448 84.3913 23.0221C84.5093 23.0994 84.6495 23.16 84.8036 23.2001C84.8609 23.2047 84.9145 23.2215 84.9565 23.248C85.022 23.3 84.9565 23.3854 84.8535 23.4062C84.748 23.4219 84.6375 23.4123 84.5415 23.3792C84.6796 23.5189 84.8874 23.6214 85.1281 23.6686C85.0817 23.7448 84.9919 23.8055 84.8784 23.8375C84.7649 23.8696 84.637 23.8702 84.5228 23.8393C84.583 24.0997 84.5967 24.3639 84.5633 24.6264C84.5249 24.8906 84.3416 25.1361 84.0485 25.3156C83.7178 25.503 83.2186 25.58 83.0407 25.8444" fill="#263238"/>
<path d="M77.071 31.1793L82.3096 31.5728L82.2846 28.5516C82.2846 28.5516 82.6528 28.5308 82.9086 27.2398C83.1645 25.9489 83.6762 23.7605 83.6762 23.7605C82.6353 23.3533 81.4506 23.1387 80.2441 23.1387C79.0376 23.1387 77.8529 23.3533 76.812 23.7605L76.5 23.8834L77.071 31.1793Z" fill="#FFBF9D"/>
<path d="M76.8097 25.5242C76.7785 25.5117 75.5274 25.1515 75.4026 26.0385C75.2777 26.9255 76.6506 26.8255 76.6506 26.8005C76.6506 26.7756 76.8097 25.5242 76.8097 25.5242Z" fill="#FFBF9D"/>
<path d="M83.0649 25.8674C83.1024 25.8674 84.313 25.7466 84.1133 26.6274C83.9136 27.5081 82.6219 27.1875 82.625 27.1604C82.6281 27.1334 83.0649 25.8674 83.0649 25.8674Z" fill="#FFBF9D"/>
<path d="M76.3989 25.3905C76.4581 26.1464 76.3458 26.5336 76.4332 27.0438C76.4733 27.4242 76.637 27.7943 76.9129 28.1283C77.1887 28.4623 77.5701 28.7523 78.0307 28.9781C79.0135 29.4591 80.4425 29.5715 81.4627 29.1155C82.163 28.8388 82.6735 28.3905 82.8855 27.8662C83.0852 27.3186 83.5282 26.2942 83.6374 25.7341C83.8371 24.7263 83.9494 23.8185 83.9494 23.8185L79.728 22.9336L77.0853 23.704L76.3989 25.3905Z" fill="#263238"/>
<path d="M80.1321 29.6152C79.8795 29.6556 79.6151 29.6491 79.3676 29.5965C79.112 29.5697 78.8718 29.4978 78.6719 29.3883C78.6875 29.3674 78.9839 29.4591 79.3957 29.5236C79.8076 29.5882 80.1321 29.584 80.1321 29.6152Z" fill="#263238"/>
<path d="M76.3711 26.6676C76.3867 25.8972 76.4678 25.0227 76.4397 24.2086C76.3876 23.8624 76.3876 23.5136 76.4397 23.1675C76.5365 22.8676 76.6425 22.9593 76.8953 22.7136C77.2073 22.3908 78.2151 22.2409 78.7892 22.2138C79.3632 22.1868 79.4974 21.8661 79.8812 22.1555C80.0657 22.008 80.3135 21.9017 80.5912 21.8509C80.869 21.8001 81.1634 21.8072 81.4348 21.8714C81.7063 21.9356 81.9418 22.0536 82.1097 22.2098C82.2777 22.3659 82.3699 22.5526 82.3741 22.7448C82.5479 22.6596 82.7588 22.6149 82.9744 22.6176C83.19 22.6203 83.3983 22.6703 83.5672 22.7598C83.7361 22.8492 83.8561 22.9733 83.9089 23.1128C83.9617 23.2524 83.9443 23.3996 83.8593 23.5319C84.0121 23.562 84.1513 23.6172 84.2641 23.6923C84.3769 23.7675 84.4599 23.8602 84.5054 23.9622C84.551 24.0641 84.5577 24.172 84.525 24.2761C84.4922 24.3802 84.4211 24.4772 84.3179 24.5584C84.0808 24.7457 83.6939 24.829 83.4412 25.0081C83.2948 25.1121 83.1964 25.242 83.1577 25.3823C83.119 25.5226 83.1416 25.6674 83.2228 25.7993" fill="#263238"/>
<path d="M81.9671 26.9751C81.961 27.242 81.8603 27.5042 81.6732 27.7402C81.4861 27.9761 81.2179 28.1792 80.8906 28.3327C81.1396 28.1366 81.365 27.9278 81.5646 27.708C81.7275 27.4712 81.8621 27.2261 81.9671 26.9751Z" fill="#455A64"/>
<path d="M82.667 26.3794C82.743 26.6141 82.7253 26.858 82.6158 27.0867C82.5063 27.3154 82.3088 27.521 82.043 27.6828C82.2206 27.4837 82.372 27.2747 82.4954 27.0582C82.582 26.8357 82.6394 26.6086 82.667 26.3794Z" fill="#455A64"/>
<path d="M77.8047 22.8668C78.1846 22.5385 78.7079 22.2969 79.3023 22.1755C79.6004 22.1185 79.9159 22.1154 80.2164 22.1667C80.5169 22.2179 80.7915 22.3216 81.0121 22.467" fill="#263238"/>
<path d="M77.5464 24.8264C77.5704 24.739 77.5704 24.6494 77.5464 24.562C77.5155 24.3543 77.5155 24.1451 77.5464 23.9374C77.5837 23.7344 77.6904 23.5399 77.8584 23.3689C77.9863 23.2378 78.1049 23.1753 78.0893 23.1607C78.0737 23.1461 77.9333 23.194 77.7773 23.3252C77.5734 23.4978 77.4449 23.7046 77.406 23.9228C77.3675 24.137 77.377 24.3538 77.4341 24.5662C77.484 24.7369 77.5246 24.8264 77.5464 24.8264Z" fill="#455A64"/>
<path d="M78.3817 25.2015C78.3817 25.0604 78.3502 24.92 78.2881 24.7851C78.2724 24.6426 78.2262 24.5024 78.1508 24.3687C78.0799 24.5106 78.0799 24.664 78.1508 24.8059C78.1651 24.9505 78.2457 25.0886 78.3817 25.2015Z" fill="#455A64"/>
<path d="M82.5738 25.322C82.7266 25.2458 82.8487 25.1457 82.9295 25.0304C83.1583 24.7613 83.2626 24.453 83.2292 24.1443C83.1959 23.8357 83.0265 23.5405 82.7423 23.296C82.6376 23.189 82.4937 23.1016 82.3242 23.042C82.3242 23.0545 82.4677 23.1503 82.6518 23.3377C82.8921 23.5812 83.0369 23.8612 83.073 24.1518C83.1014 24.4426 83.0188 24.7335 82.8328 24.9971C82.6861 25.2012 82.552 25.3095 82.5738 25.322Z" fill="#455A64"/>
<path d="M78.4692 21.6368C78.6236 21.6218 78.7746 21.5939 78.9185 21.5535C79.2628 21.4738 79.6292 21.4454 79.9918 21.4703C80.1686 21.4818 80.3396 21.5185 80.4935 21.5777C80.6474 21.637 80.7806 21.7175 80.8841 21.8138C80.9596 21.9014 81.0253 21.9925 81.0807 22.0866C81.0962 22.0329 81.0951 21.9777 81.0774 21.9243C81.0597 21.871 81.0257 21.8206 80.9777 21.7763C80.8888 21.6733 80.7661 21.5851 80.6189 21.5181C80.4369 21.438 80.2299 21.3867 80.0136 21.3682C79.6273 21.3398 79.2366 21.3801 78.881 21.4848C78.6096 21.5598 78.4598 21.6243 78.4692 21.6368Z" fill="#455A64"/>
<path d="M84.2222 22.9525C84.2245 22.8648 84.1852 22.7788 84.1099 22.7068C83.9548 22.5213 83.7125 22.3749 83.4204 22.2904C83.1243 22.2073 82.7959 22.1905 82.4843 22.2425C82.2503 22.2862 82.1318 22.3487 82.1411 22.3591C82.2643 22.3505 82.3863 22.3359 82.5062 22.3154C82.7934 22.2858 83.0874 22.3103 83.3548 22.3862C83.6197 22.4655 83.848 22.5906 84.0163 22.7485C84.1473 22.8651 84.1973 22.9525 84.2222 22.9525Z" fill="#455A64"/>
<path d="M82.1885 26.0763C82.1885 26.0659 81.9857 26.0076 81.6549 25.8681C81.2084 25.6867 80.8125 25.4549 80.4849 25.183L80.2665 25.0019L80.3632 25.2268C80.4233 25.3694 80.4589 25.5161 80.4693 25.664C80.4693 25.7369 80.4693 25.8306 80.435 25.8389C80.4007 25.8472 80.2883 25.8098 80.201 25.7556C79.8932 25.5834 79.626 25.3813 79.4085 25.156L79.215 24.9478L79.2774 25.183C79.3398 25.4204 79.396 25.6411 79.449 25.841L79.5551 25.8098C79.2739 25.5678 79.0352 25.3051 78.8438 25.0269C78.858 25.1109 78.8939 25.1926 78.9498 25.2684C79.0776 25.4807 79.2499 25.6798 79.4615 25.8597L79.605 25.9805L79.5676 25.8285C79.5239 25.6203 79.474 25.4121 79.421 25.1685L79.2868 25.2018C79.5078 25.437 79.7826 25.6478 80.1011 25.8264C80.1505 25.8559 80.2038 25.8824 80.2603 25.9055C80.2961 25.9226 80.3382 25.933 80.3821 25.9356C80.426 25.9381 80.4701 25.9328 80.5099 25.9201C80.5456 25.904 80.5748 25.8823 80.5949 25.8569C80.6151 25.8315 80.6255 25.8031 80.6253 25.7744C80.6285 25.7328 80.6285 25.6911 80.6253 25.6494C80.6108 25.494 80.5689 25.3403 80.5005 25.1914L80.3788 25.2351C80.7248 25.5122 81.1488 25.7414 81.6269 25.9097C81.7983 25.9863 81.9883 26.0427 82.1885 26.0763Z" fill="#455A64"/>
<path d="M80.3031 22.4611C80.3571 22.4121 80.4252 22.3709 80.5034 22.3398C80.5817 22.3087 80.6684 22.2883 80.7586 22.2799C80.9404 22.2642 81.1253 22.2771 81.2984 22.3174C81.7283 22.4072 82.0979 22.5942 82.3436 22.8463C82.3998 22.9025 82.4434 22.9879 82.3623 23.0316C82.317 23.051 82.2625 23.0585 82.2094 23.0524C81.5515 23.0342 80.899 22.9644 80.2656 22.8442" fill="#263238"/>
<path d="M69.0101 46.2868C69.0101 46.2868 59.7154 48.9436 57.1913 49.5308C54.8044 50.0847 52.6235 51.3381 52.4425 51.9961C52.2616 52.654 52.8856 56.2145 53.1633 57.4513C53.4566 58.7672 54.6297 64.9617 54.6297 64.9617L61.1569 64.1559C61.1569 64.1559 59.9838 58.203 59.7841 57.1744C59.5626 56.0438 59.2973 54.9173 59.2973 54.9173L59.3254 54.6612C59.3254 54.6612 65.7278 54.0366 67.3721 53.6826C69.0164 53.3287 74.7698 52.3417 74.7698 52.3417L76.4422 52.8664L77.0662 53.0975L78.2175 54.2406C78.2175 54.2406 82.6885 61.9446 83.0536 62.5693C83.4186 63.1939 87.1253 69.8235 87.8928 70.8229C88.6604 71.8223 89.6557 74.0627 89.6557 74.0627L95.1376 73.2299C95.1376 73.2299 92.7258 66.2484 91.7368 65.1261C90.7477 64.0039 88.9256 60.104 88.9256 60.104L87.7212 54.5884C87.7212 54.5884 85.6526 49.281 85.5372 48.9436C85.4217 48.6063 84.5575 45.3457 84.5575 45.3457L69.2348 45.0229L69.0101 46.2868Z" fill="#263238"/>
<path d="M87.0947 52.9518C87.0343 52.8652 86.9882 52.7745 86.9574 52.6812L86.6454 51.9378C86.5175 51.6151 86.3646 51.2403 86.1992 50.828C86.0339 50.4158 85.8311 49.9556 85.7031 49.4642C85.4067 48.4856 85.1478 47.5903 84.9699 46.9657C84.8857 46.6596 84.8201 46.4035 84.764 46.2036C84.7339 46.1104 84.7161 46.0157 84.7109 45.9204C84.7645 46.0089 84.8032 46.1011 84.8264 46.1953C84.895 46.3931 84.9793 46.6471 85.0822 46.949C85.2882 47.5882 85.5658 48.471 85.8591 49.4476C85.9902 49.939 86.193 50.395 86.3459 50.8135C86.4987 51.232 86.6391 51.6026 86.7577 51.9274C86.8763 52.2522 86.9543 52.4813 87.0229 52.6791C87.0583 52.7685 87.0823 52.8597 87.0947 52.9518Z" fill="#455A64"/>
<path opacity="0.2" d="M62.0078 48.2551C62.0078 48.2551 62.8378 51.6531 63.78 52.6588C64.3488 53.2633 65.1448 53.7579 66.0889 54.0934L62.7379 48.0552L62.0078 48.2551Z" fill="black"/>
<path opacity="0.2" d="M79.7054 56.8355L79.1562 55.7944L87.7333 54.5889L87.9549 55.6154L79.7054 56.8355Z" fill="black"/>
<path d="M79.7237 49.9041C79.6961 49.9641 79.6551 50.021 79.602 50.0728C79.4754 50.2219 79.3326 50.3646 79.1746 50.4996C78.1306 51.4025 76.6572 52.0414 74.9968 52.3111C74.7482 52.3511 74.496 52.3803 74.2417 52.3986C74.1486 52.4068 74.0541 52.4068 73.9609 52.3986C73.9609 52.3778 74.3541 52.3465 74.9687 52.2299C76.581 51.9266 78.0165 51.3027 79.0841 50.4413C79.4928 50.1228 79.6988 49.8937 79.7237 49.9041Z" fill="#455A64"/>
<g opacity="0.2">
<path d="M74.7578 52.3353C75.8641 52.468 77.0051 52.3344 77.9777 51.9585C78.4556 51.7664 78.8505 51.4948 79.124 51.1704C79.3974 50.8459 79.54 50.4797 79.5378 50.1074C78.3397 51.0735 76.9855 51.9439 74.7578 52.3353Z" fill="black"/>
</g>
<path d="M54.6328 64.9622C54.671 64.9518 54.7108 64.9441 54.7514 64.9393L55.1039 64.8893L56.43 64.7102L61.1288 64.1085L61.0695 64.1626C60.8698 63.1465 60.639 61.993 60.3956 60.7708C59.912 58.3055 59.4908 56.1089 59.2349 54.7097V54.7263C58.8387 54.3966 58.3364 54.1304 57.7654 53.9476C57.366 53.8227 57.1414 53.7852 57.1414 53.7769C57.1998 53.7808 57.2574 53.7892 57.313 53.8018C57.4767 53.8322 57.6372 53.8697 57.7934 53.9143C58.3855 54.0877 58.9082 54.3516 59.3192 54.6847V54.6951C59.6125 56.0901 60.0555 58.2868 60.5422 60.75C60.7794 61.9722 61.004 63.1278 61.2006 64.1439V64.1897H61.1319L56.4206 64.754L55.0852 64.9039L54.7327 64.9414C54.7008 64.951 54.6673 64.958 54.6328 64.9622Z" fill="#455A64"/>
<path opacity="0.2" d="M69.0117 46.2869L73.046 46.3869V45.6873L69.1459 45.6123L69.0117 46.2869Z" fill="black"/>
<path opacity="0.2" d="M74.3867 45.7251V46.4747L79.9997 46.6517V45.823L74.3867 45.7251Z" fill="black"/>
<path opacity="0.2" d="M81.8008 45.856V46.6513L84.9271 46.7263L84.7056 45.9122L81.8008 45.856Z" fill="black"/>
<path d="M68.956 33.8677L62.0138 28.5999C61.3734 28.1202 60.9703 27.5203 60.8594 26.8821L64.8562 25.3413L66.8094 26.9404L69.3865 28.5416L72.672 29.6514L75.3896 30.1782L76.6688 29.4307L82.2849 29.8013L83.4518 31.0173L88.1881 32.5768L84.21 43.8933L84.8496 44.5179C84.9859 44.6527 85.0729 44.8069 85.1038 44.9682C85.1347 45.1294 85.1085 45.2933 85.0275 45.4466L84.7779 45.9171L69.1338 45.6152L68.9591 44.7324L69.3553 43.3186L69.5581 37.1263L68.956 33.8677Z" fill="#5250F7"/>
<path opacity="0.3" d="M69.2266 43.6948C69.2266 43.6948 70.4372 43.8073 72.6306 44.0842C77.2202 44.6589 84.412 44.0842 84.412 44.0842L69.2266 43.6948Z" fill="black"/>
<path d="M93.4244 40.2574C93.0875 39.6328 91.9424 39.36 91.9424 39.36C91.9424 39.36 88.9815 33.8798 88.8473 33.4301C88.7255 33.1181 88.5053 32.827 88.2014 32.5764L87.0283 32.2266L85.1562 36.5741L87.9175 41.9211C87.9175 41.9211 89.4776 43.4036 91.5524 43.3119C93.6273 43.2203 93.7583 40.8862 93.4244 40.2574Z" fill="#5250F7"/>
<path d="M66.3856 26.7192C66.1988 26.832 65.9961 26.9324 65.7803 27.0191C65.3965 27.194 64.8661 27.4355 64.2889 27.7083C63.7117 27.981 63.1937 28.2371 62.8193 28.4204C62.6258 28.5289 62.4168 28.6244 62.1953 28.7056C62.3597 28.5782 62.5461 28.4643 62.7507 28.3662C63.1064 28.158 63.6149 27.9019 64.1953 27.6271C64.7756 27.3522 65.3185 27.119 65.7179 26.9587C65.9257 26.8618 66.1498 26.7815 66.3856 26.7192Z" fill="#263238"/>
<path d="M83.1418 30.9147C83.0382 30.9237 82.9334 30.9237 82.8298 30.9147C82.6332 30.9147 82.3493 30.9147 81.9998 30.896C81.2978 30.871 80.3275 30.8148 79.2667 30.7107C78.2058 30.6066 77.2511 30.4796 76.5678 30.3713C76.2246 30.3172 75.9438 30.2693 75.7628 30.2318C75.6615 30.2186 75.5637 30.1955 75.4727 30.1631C75.8495 30.1934 76.2234 30.2379 76.5928 30.2963C77.2792 30.3859 78.2308 30.5046 79.2885 30.6045C80.3462 30.7044 81.3103 30.7752 82.0092 30.8127C82.3895 30.8311 82.7678 30.8652 83.1418 30.9147Z" fill="#263238"/>
<path d="M87.5915 34.0166C87.5997 34.0952 87.5935 34.1743 87.5727 34.2519C87.5509 34.4018 87.5072 34.6183 87.451 34.8765C87.3325 35.4116 87.139 36.1466 86.8707 36.9587C86.6024 37.7707 86.306 38.4828 86.072 38.9992C85.9534 39.2574 85.8536 39.4656 85.7787 39.6072C85.7479 39.6802 85.7028 39.7502 85.6445 39.8154C85.6554 39.7368 85.6795 39.6593 85.7163 39.5843C85.7849 39.4177 85.8661 39.2116 85.9597 38.9596C86.1687 38.4391 86.4433 37.7103 86.7116 36.917C86.9799 36.1237 87.1921 35.3846 87.3356 34.8536C87.4042 34.6079 87.4635 34.3976 87.5103 34.229C87.524 34.1562 87.5513 34.0849 87.5915 34.0166Z" fill="#263238"/>
<path d="M90.4376 43.1158C90.4376 43.1158 90.5312 43.1158 90.6934 43.1158C90.9224 43.108 91.1442 43.0599 91.3362 42.9762C91.6173 42.8518 91.835 42.6731 91.9602 42.464C92.1162 42.2041 92.2099 41.9293 92.2379 41.6499C92.3113 41.1372 92.2703 40.6201 92.1162 40.1154C91.9976 39.7281 91.8728 39.4907 91.8978 39.4907C91.9492 39.538 91.9883 39.5908 92.0132 39.6469C92.0989 39.7944 92.1708 39.9453 92.2285 40.0987C92.42 40.6088 92.478 41.1371 92.4001 41.6603C92.367 41.9517 92.2616 42.2374 92.0881 42.5057C91.9443 42.7301 91.6974 42.9182 91.383 43.0429C91.1715 43.1272 90.9269 43.1672 90.6809 43.1574C90.5218 43.1491 90.4345 43.122 90.4376 43.1158Z" fill="#263238"/>
<path d="M72.1774 30.1357C72.0532 30.3072 71.9082 30.4715 71.7437 30.6271C71.4629 30.9249 71.0823 31.3351 70.6798 31.7973C70.2773 32.2595 69.9341 32.6885 69.6907 32.9987C69.5724 33.1712 69.4315 33.3363 69.2695 33.4922C69.346 33.3092 69.4505 33.132 69.5815 32.9633C69.7999 32.6447 70.1307 32.2096 70.5176 31.7432C70.9045 31.2768 71.3194 30.8707 71.6252 30.5834C71.7847 30.4214 71.9699 30.2713 72.1774 30.1357Z" fill="#263238"/>
<path d="M77.2183 42.358C77.0944 41.8986 77.0234 41.4336 77.0061 40.9671C76.9365 40.5022 76.9198 40.0344 76.9562 39.5679C77.0822 40.027 77.1532 40.4921 77.1684 40.9587C77.238 41.4236 77.2547 41.8914 77.2183 42.358Z" fill="#263238"/>
<path d="M79.2759 39.1514C79.1992 39.7163 79.07 40.2775 78.889 40.8317C78.7608 41.3943 78.5774 41.9508 78.3398 42.4974C78.4165 41.9325 78.5457 41.3713 78.7267 40.8171C78.8563 40.2546 79.0397 39.6982 79.2759 39.1514Z" fill="#263238"/>
<g opacity="0.3">
<path d="M78.5658 40.6616C78.4504 40.4534 77.9231 40.4659 77.6454 40.6012C77.5148 40.6761 77.4089 40.7683 77.3342 40.8718C77.2596 40.9754 77.2179 41.0881 77.2117 41.203C77.1836 41.432 77.2117 42.2316 77.2117 42.4523L78.3318 42.4814C78.3848 42.3169 78.8061 41.1072 78.5658 40.6616Z" fill="black"/>
</g>
<path d="M71.2262 45.6731C71.1045 45.5955 71.0071 45.5025 70.9396 45.3995C70.8721 45.2966 70.8359 45.1858 70.833 45.0734C70.7974 44.9638 70.7953 44.8504 70.827 44.7402C70.8586 44.63 70.9233 44.5252 71.0171 44.4321C70.9868 44.6397 70.9795 44.8485 70.9953 45.0568C71.051 45.2655 71.1282 45.4714 71.2262 45.6731Z" fill="#263238"/>
<path d="M72.1261 45.7244C72.0793 45.7244 72.0325 45.5974 72.02 45.437C72.0076 45.2767 72.02 45.1476 72.0762 45.1455C72.1324 45.1435 72.1667 45.2725 72.1823 45.4308C72.1979 45.589 72.1698 45.7223 72.1261 45.7244Z" fill="#263238"/>
<g opacity="0.3">
<path d="M86.1211 38.8973C86.8826 38.2607 87.4073 37.5127 87.6524 36.7147C87.8976 35.9168 87.8561 35.0914 87.5314 34.3062L86.1211 38.8973Z" fill="black"/>
</g>
<g opacity="0.3">
<path d="M82.9984 30.9338C81.6911 31.0691 80.8642 31.2128 79.5444 31.142C78.2247 31.0712 76.5367 30.7589 75.5352 30.1821L82.9984 30.9338Z" fill="black"/>
</g>
<path opacity="0.3" d="M62.6016 28.4868C63.3238 28.4316 64.0197 28.2732 64.6421 28.0225C65.2043 27.7312 65.6449 27.3483 65.9213 26.9106L62.6016 28.4868Z" fill="black"/>
<path d="M69.2726 42.2432L84.7856 42.6596C84.9125 42.8891 84.9663 43.1336 84.9438 43.3778C84.9212 43.6219 84.8227 43.8602 84.6545 44.0775L69.2227 43.6882L69.2726 42.2432Z" fill="#455A64"/>
<path d="M69.271 42.2432C69.2742 42.2764 69.2742 42.3098 69.271 42.3431V42.6242C69.271 42.8741 69.271 43.2343 69.271 43.6965L69.2335 43.6694C72.1383 43.7257 77.9697 43.861 84.6654 44.0297L84.5905 44.0588L84.6093 44.0297C84.7592 43.8185 84.8481 43.5903 84.8714 43.3571C84.9029 43.1321 84.8504 42.9053 84.7185 42.6971L84.7871 42.7262L73.7826 42.4035L70.4909 42.2994L69.5986 42.2682H69.3646H69.2803C69.3041 42.2658 69.3283 42.2658 69.3521 42.2682H69.583L70.4597 42.2848L73.7327 42.3598L84.8027 42.6367H84.8495L84.8714 42.6679C85.0148 42.8931 85.0727 43.1384 85.0398 43.3821C85.0181 43.632 84.9238 43.8767 84.7621 44.1025L84.7403 44.1317L84.7185 44.1629H84.6654C77.9635 43.9943 72.1383 43.836 69.2367 43.7465H69.1992V43.7215C69.2242 43.253 69.2429 42.8886 69.2585 42.6346C69.2585 42.518 69.2585 42.4264 69.2772 42.3598C69.2676 42.3212 69.2655 42.282 69.271 42.2432Z" fill="#263238"/>
<path d="M84.9253 43.4489C84.9253 43.478 81.412 43.3968 77.0845 43.2657C72.757 43.1345 69.2469 43.0054 69.25 42.9762C69.2531 42.9471 72.7632 43.0262 77.0908 43.1574C81.4183 43.2886 84.9253 43.4177 84.9253 43.4489Z" fill="#263238"/>
<path d="M62.4062 47.99C62.4062 47.99 64.8368 53.6951 66.0817 54.0928L68.7868 53.6452L64.4187 47.4653L62.4062 47.99Z" fill="#455A64"/>
<path d="M67.5583 53.8678C67.5177 53.8803 66.5817 52.5186 65.4741 50.8279C64.3665 49.1372 63.496 47.7546 63.5365 47.7442C63.5771 47.7338 64.51 49.0934 65.6207 50.7841C66.7315 52.4749 67.5989 53.8553 67.5583 53.8678Z" fill="#263238"/>
<path d="M78.1977 54.241C78.1041 54.3638 79.0838 56.0795 79.1587 56.04L87.8731 54.7199C87.7675 54.1132 87.5409 53.5187 87.1991 52.9521L78.1977 54.241Z" fill="#455A64"/>
<path d="M87.4614 53.9015C87.4614 53.9306 85.5207 54.2554 83.0933 54.624C80.6658 54.9925 78.7251 55.2694 78.7033 55.2486C78.6815 55.2278 80.644 54.8967 83.0714 54.5261C85.4988 54.1555 87.452 53.8723 87.4614 53.9015Z" fill="#263238"/>
<path d="M66.9609 51.0455C66.9609 51.0455 70.7768 50.8102 72.2339 49.4839C73.6909 48.1576 73.9499 43.8184 73.9499 43.8184L74.7486 43.8392C74.7486 43.8392 74.8734 48.3928 72.3119 50.0731C69.7503 51.7534 67.4414 51.7201 67.4414 51.7201L66.9609 51.0455Z" fill="#455A64"/>
<path d="M80.0117 43.9658C80.0117 44.0658 81.9649 53.6832 81.9649 53.6832L83.1412 53.5083L80.9571 43.9908L80.0117 43.9658Z" fill="#455A64"/>
<path d="M93.5015 40.7219C93.6627 41.2205 93.767 41.7265 93.8136 42.2356H94.9805C94.9805 42.2356 94.3221 40.5699 93.9758 39.9161C93.6295 39.2623 92.1037 38.6835 91.5078 38.721L91.9415 39.3602L91.9945 39.3789C92.3716 39.5208 92.7003 39.7134 92.9597 39.9446C93.2192 40.1758 93.4037 40.4405 93.5015 40.7219Z" fill="#455A64"/>
</svg>
