<svg width="535" height="398" viewBox="0 0 535 398" fill="none" xmlns="http://www.w3.org/2000/svg">
<path d="M534.142 349.756H0V350.023H534.142V349.756Z" fill="#EBEBEB"/>
<path d="M480.62 366.945H445.238V367.212H480.62V366.945Z" fill="#EBEBEB"/>
<path d="M353.838 369.851H344.555V370.118H353.838V369.851Z" fill="#EBEBEB"/>
<path d="M444.172 357.031H423.672V357.298H444.172V357.031Z" fill="#EBEBEB"/>
<path d="M102.182 358.826H56.043V359.093H102.182V358.826Z" fill="#EBEBEB"/>
<path d="M118.461 358.826H111.699V359.093H118.461V358.826Z" fill="#EBEBEB"/>
<path d="M240.526 363.334H140.449V363.601H240.526V363.334Z" fill="#EBEBEB"/>
<path d="M253.185 302.111H46.9095C45.2936 302.108 43.7448 301.464 42.6032 300.32C41.4615 299.177 40.8203 297.627 40.8203 296.011V6.04649C40.8344 4.43982 41.4818 2.90357 42.6219 1.77145C43.762 0.639324 45.3028 0.00275231 46.9095 0H253.185C254.802 0 256.354 0.642667 257.498 1.78662C258.642 2.93057 259.284 4.48211 259.284 6.0999V296.011C259.284 297.629 258.642 299.18 257.498 300.324C256.354 301.468 254.802 302.111 253.185 302.111ZM46.9095 0.213658C45.3644 0.216488 43.8836 0.832263 42.792 1.92582C41.7004 3.01939 41.0874 4.50138 41.0874 6.04649V296.011C41.0874 297.556 41.7004 299.038 42.792 300.132C43.8836 301.225 45.3644 301.841 46.9095 301.844H253.185C254.731 301.841 256.213 301.225 257.306 300.132C258.399 299.039 259.015 297.557 259.017 296.011V6.04649C259.015 4.50039 258.399 3.01843 257.306 1.92517C256.213 0.831916 254.731 0.216482 253.185 0.213658H46.9095Z" fill="#EBEBEB"/>
<path d="M484.265 302.111H277.979C276.362 302.108 274.812 301.464 273.669 300.321C272.525 299.178 271.882 297.628 271.879 296.011V6.04649C271.896 4.43884 272.546 2.90261 273.687 1.77078C274.829 0.63895 276.371 0.0027223 277.979 0H484.265C485.869 0.00555988 487.407 0.643373 488.545 1.7752C489.683 2.90702 490.329 4.44166 490.343 6.04649V296.011C490.343 297.625 489.703 299.173 488.564 300.317C487.425 301.46 485.879 302.105 484.265 302.111ZM277.979 0.213658C276.433 0.216482 274.951 0.831916 273.857 1.92517C272.764 3.01843 272.149 4.50039 272.146 6.04649V296.011C272.149 297.557 272.764 299.039 273.857 300.132C274.951 301.225 276.433 301.841 277.979 301.844H484.265C485.811 301.841 487.293 301.225 488.386 300.132C489.479 299.039 490.095 297.557 490.097 296.011V6.04649C490.095 4.50039 489.479 3.01843 488.386 1.92517C487.293 0.831916 485.811 0.216482 484.265 0.213658H277.979Z" fill="#EBEBEB"/>
<path d="M233.365 246.635H98.3125V256.164H233.365V246.635Z" fill="#EBEBEB"/>
<path d="M233.368 246.635H174.645V256.164H233.368V246.635Z" fill="#E0E0E0"/>
<path d="M118.268 256.164H98.3125V349.756H118.268V256.164Z" fill="#EBEBEB"/>
<path d="M118.268 265.821L98.3125 259.027V256.164H118.268V265.821Z" fill="#E0E0E0"/>
<path d="M233.366 256.164H213.41V349.756H233.366V256.164Z" fill="#E0E0E0"/>
<path d="M194.6 256.164H174.645V349.756H194.6V256.164Z" fill="#EBEBEB"/>
<path d="M194.589 265.821L174.645 259.027V256.164H194.589V265.821Z" fill="#E0E0E0"/>
<path d="M157.038 256.164H137.082V349.756H157.038V256.164Z" fill="#E0E0E0"/>
<path d="M246.057 34.3667H75.8477V179.301H246.057V34.3667Z" fill="#EBEBEB"/>
<path d="M246.059 179.29H247.961L247.961 34.3559H246.059L246.059 179.29Z" fill="#E0E0E0"/>
<path d="M239.66 172.88V40.7656L82.2698 40.7656V172.88H239.66Z" fill="#F5F5F5"/>
<path d="M159.059 152.829C168.673 120.78 171.344 73.5084 191.791 80.0249C212.238 86.5415 185.456 156.439 185.456 156.439L159.059 152.829Z" fill="white"/>
<path d="M175.574 154.42C165.788 107.971 168.256 46.3099 137.852 47.72C107.449 49.1302 137.852 156.439 137.852 156.439L175.574 154.42Z" fill="white"/>
<path d="M197.055 149.207H130.49C129.132 149.164 127.811 149.655 126.812 150.577C125.812 151.498 125.215 152.775 125.149 154.132C123.792 184.792 128.813 216.093 138.16 246.635H189.128C198.476 216.039 203.497 184.792 202.14 154.132C202.088 152.815 201.53 151.568 200.584 150.651C199.637 149.734 198.373 149.217 197.055 149.207Z" fill="#EBEBEB"/>
<path d="M348.476 50.5298H344.727V349.756H348.476V50.5298Z" fill="#E0E0E0"/>
<path d="M436.597 50.5298H432.848V349.756H436.597V50.5298Z" fill="#E0E0E0"/>
<path d="M321.886 50.5298H318.137V349.756H321.886V50.5298Z" fill="#EBEBEB"/>
<path d="M410.007 50.5298H406.258V349.756H410.007V50.5298Z" fill="#EBEBEB"/>
<path d="M436.599 48.479H318.137V52.5705H436.599V48.479Z" fill="#EBEBEB"/>
<path d="M436.599 121.752H318.137V125.844H436.599V121.752Z" fill="#EBEBEB"/>
<path d="M436.599 195.026H318.137V199.117H436.599V195.026Z" fill="#EBEBEB"/>
<path d="M436.599 268.3H318.137V272.391H436.599V268.3Z" fill="#EBEBEB"/>
<path d="M436.599 341.573H318.137V345.665H436.599V341.573Z" fill="#EBEBEB"/>
<path d="M436.597 48.479H410.008V52.5705H436.597V48.479Z" fill="#E0E0E0"/>
<path d="M436.597 121.752H410.008V125.844H436.597V121.752Z" fill="#E0E0E0"/>
<path d="M436.597 195.026H410.008V199.117H436.597V195.026Z" fill="#E0E0E0"/>
<path d="M436.597 268.3H410.008V272.391H436.597V268.3Z" fill="#E0E0E0"/>
<path d="M436.597 341.573H410.008V345.665H436.597V341.573Z" fill="#E0E0E0"/>
<path d="M365.921 73.4015V67.6328H351.681V73.4015C351.681 75.2102 350.963 76.9448 349.685 78.2247C348.408 79.5046 346.674 80.2251 344.865 80.2279C343.057 80.2279 341.322 80.9456 340.042 82.2235C338.762 83.5014 338.042 85.2349 338.039 87.0435V121.784H379.574V87.0435C379.571 85.2349 378.851 83.5014 377.571 82.2235C376.291 80.9456 374.556 80.2279 372.748 80.2279C370.937 80.2279 369.201 79.5087 367.921 78.2285C366.64 76.9483 365.921 75.212 365.921 73.4015Z" fill="#F0F0F0"/>
<path d="M395.394 171.203H332.984V195.037H395.394V171.203Z" fill="#F0F0F0"/>
<path d="M395.393 195.026H406.258V171.192H395.393V195.026Z" fill="#E6E6E6"/>
<path d="M395.393 184.429H406.258V181.801H395.393V184.429Z" fill="#EBEBEB"/>
<path d="M395.394 181.801H332.984V184.429H395.394V181.801Z" fill="#F5F5F5"/>
<path d="M378.676 299.44H329.93V341.573H378.676V299.44Z" fill="#F0F0F0"/>
<path d="M378.674 341.584H387.156V299.451H378.674V341.584Z" fill="#E6E6E6"/>
<path d="M378.674 322.835H387.156V318.188H378.674V322.835Z" fill="#EBEBEB"/>
<path d="M378.676 318.188H329.93V322.836H378.676V318.188Z" fill="#F5F5F5"/>
<path d="M378.674 314.93H387.156V313.274H378.674V314.93Z" fill="#EBEBEB"/>
<path d="M378.676 313.274H329.93V314.93H378.676V313.274Z" fill="#F5F5F5"/>
<path d="M341.808 225.461H332.984V268.3H341.808V225.461Z" fill="#F0F0F0"/>
<path d="M341.808 240.727H332.984V253.034H341.808V240.727Z" fill="#FAFAFA"/>
<path d="M341.809 268.31H371.828V225.472H341.809V268.31Z" fill="#E6E6E6"/>
<path d="M355.44 219.928H345.473V268.3H355.44V219.928Z" fill="#EBEBEB"/>
<path d="M355.44 235.3H345.473V242.746H355.44V235.3Z" fill="#FAFAFA"/>
<path d="M355.44 247.735H345.473V255.181H355.44V247.735Z" fill="#FAFAFA"/>
<path d="M355.451 268.3H389.348V219.928H355.451V268.3Z" fill="#E0E0E0"/>
<path d="M366.538 225.461H361.164V268.3H366.538V225.461Z" fill="#F0F0F0"/>
<path d="M365.611 230.888H362.086V262.873H365.611V230.888Z" fill="#FAFAFA"/>
<path d="M366.528 268.31H384.785V225.472H366.528V268.31Z" fill="#E6E6E6"/>
<path d="M380.888 223.208H374.82V268.3H380.888V223.208Z" fill="#EBEBEB"/>
<path d="M380.888 237.533H374.82V244.477H380.888V237.533Z" fill="#FAFAFA"/>
<path d="M380.888 249.135H374.82V256.079H380.888V249.135Z" fill="#FAFAFA"/>
<path d="M380.886 268.3H401.504V223.208H380.886V268.3Z" fill="#E0E0E0"/>
<path d="M378.125 167.311C383.315 162.121 383.315 153.707 378.125 148.517C372.935 143.327 364.521 143.327 359.331 148.517C354.141 153.707 354.141 162.121 359.331 167.311C364.521 172.501 372.935 172.501 378.125 167.311Z" fill="#F5F5F5"/>
<path d="M384.916 171.054C389.936 170.24 393.345 165.509 392.53 160.489C391.715 155.469 386.985 152.06 381.965 152.875C376.945 153.69 373.536 158.42 374.35 163.44C375.165 168.46 379.896 171.869 384.916 171.054Z" fill="#EBEBEB"/>
<path d="M267.071 398C381.466 398 474.201 392.586 474.201 385.907C474.201 379.228 381.466 373.814 267.071 373.814C152.677 373.814 59.9414 379.228 59.9414 385.907C59.9414 392.586 152.677 398 267.071 398Z" fill="#F5F5F5"/>
<path d="M134.723 303.062H271.933V373.899C271.933 374.807 271.754 375.706 271.407 376.544C271.06 377.383 270.551 378.145 269.909 378.787C269.267 379.429 268.505 379.938 267.666 380.285C266.828 380.632 265.929 380.811 265.021 380.811H141.634C140.727 380.811 139.828 380.632 138.989 380.285C138.151 379.938 137.389 379.429 136.747 378.787C136.105 378.145 135.596 377.383 135.249 376.544C134.901 375.706 134.723 374.807 134.723 373.899V303.062Z" fill="#76777A"/>
<path d="M134.722 303.062H231.818L219.875 287.775C218.561 286.097 215.313 284.741 212.61 284.741H125.289C122.597 284.741 121.464 286.097 122.778 287.775L134.722 303.062Z" fill="#76777A"/>
<path opacity="0.2" d="M134.722 303.062H231.818L219.875 287.775C218.561 286.097 215.313 284.741 212.61 284.741H125.289C122.597 284.741 121.464 286.097 122.778 287.775L134.722 303.062Z" fill="black"/>
<path d="M271.933 303.062H174.848L186.791 293.094C188.105 292.026 191.353 291.118 194.055 291.118H281.366C284.069 291.118 285.191 292.005 283.877 293.094L271.933 303.062Z" fill="#76777A"/>
<path opacity="0.2" d="M174.848 303.062H271.933V373.899C271.933 374.807 271.755 375.706 271.407 376.544C271.06 377.383 270.551 378.145 269.909 378.787C269.267 379.429 268.505 379.938 267.667 380.285C266.828 380.632 265.929 380.811 265.022 380.811H181.759C180.852 380.811 179.953 380.632 179.114 380.285C178.276 379.938 177.514 379.429 176.872 378.787C176.23 378.145 175.721 377.383 175.374 376.544C175.026 375.706 174.848 374.807 174.848 373.899V303.062Z" fill="white"/>
<path opacity="0.5" d="M146.773 303.062V351.647L150.128 348.998L152.489 351.647L154.54 348.699L156.644 351.647L159.571 349.436L162.798 351.647V303.062H146.773Z" fill="white"/>
<path d="M168.491 197.077L151.238 182.591" stroke="#76777A" stroke-miterlimit="10"/>
<path d="M177.432 204.587L172.176 200.164" stroke="#76777A" stroke-miterlimit="10"/>
<path d="M229.115 234.905L286.033 163.768L210.249 100.141L160.04 157.753L152.562 172.164C152.19 172.573 151.908 173.055 151.731 173.578C151.554 174.102 151.487 174.656 151.534 175.206C151.581 175.757 151.741 176.291 152.005 176.777C152.268 177.263 152.628 177.689 153.064 178.029L221.434 235.439C222.546 236.335 223.955 236.777 225.379 236.678C226.804 236.579 228.138 235.946 229.115 234.905Z" fill="#76777A"/>
<path opacity="0.5" d="M190.08 182.441L181.887 195.635L185.188 196.35L186.309 199.406L188.499 199.534L189.514 202.151L192.196 202.931L194.257 206.211L202.451 193.017L190.08 182.441Z" fill="white"/>
<path opacity="0.1" d="M283.555 161.684L232.512 218.624L160.008 157.753L210.249 100.141L283.555 161.684Z" fill="black"/>
<path d="M283.554 161.685L232.512 218.624L253.642 220.184L303.894 162.571L283.554 161.685Z" fill="#76777A"/>
<path opacity="0.3" d="M283.554 161.685L232.512 218.624L253.642 220.184L303.894 162.571L283.554 161.685Z" fill="black"/>
<path d="M189.92 99.2432L138.867 156.193L160.009 157.753L210.25 100.141L189.92 99.2432Z" fill="#76777A"/>
<path opacity="0.4" d="M189.92 99.2432L138.867 156.193L160.009 157.753L210.25 100.141L189.92 99.2432Z" fill="black"/>
<path opacity="0.1" d="M267.842 179.215L283.556 161.684L210.251 100.141L200.871 122.746L267.842 179.215Z" fill="black"/>
<path opacity="0.2" d="M160.008 157.753L210.249 100.141L200.87 122.746L165.488 162.357L160.008 157.753Z" fill="black"/>
<path d="M301.257 54.4821C301.46 55.1658 301.257 55.8388 300.809 55.967C300.36 56.0952 299.836 55.6465 299.634 54.9628C299.431 54.2791 299.633 53.6061 300.082 53.4672C300.531 53.3284 301.065 53.7984 301.257 54.4821Z" fill="#263238"/>
<path d="M301.333 55.8281C301.132 58.1787 300.607 60.4902 299.773 62.6972C300.345 62.8953 300.952 62.9664 301.554 62.9055C302.155 62.8446 302.736 62.6532 303.256 62.3447L301.333 55.8281Z" fill="#ED847E"/>
<path d="M302.68 49.9204C302.77 49.8682 302.839 49.7846 302.872 49.6854C302.892 49.6336 302.901 49.5783 302.899 49.5228C302.897 49.4673 302.883 49.4128 302.859 49.3627C302.835 49.3127 302.801 49.2681 302.759 49.2317C302.717 49.1953 302.668 49.1679 302.615 49.1512C301.99 48.9113 301.315 48.8258 300.65 48.9021C299.984 48.9783 299.346 49.214 298.791 49.5892C298.719 49.6625 298.675 49.7594 298.669 49.8621C298.662 49.9648 298.693 50.0664 298.755 50.1482C298.818 50.2301 298.908 50.2867 299.008 50.3076C299.109 50.3286 299.214 50.3125 299.304 50.2623C299.747 49.9712 300.254 49.7903 300.782 49.7345C301.31 49.6788 301.843 49.7498 302.338 49.9418C302.393 49.962 302.452 49.9705 302.511 49.9668C302.57 49.9632 302.627 49.9474 302.68 49.9204Z" fill="#263238"/>
<path d="M325.015 59.0543C325.486 64.7162 326.885 75.0786 330.229 77.4716C330.229 77.4716 329.438 84.2765 317.409 86.0178C304.227 87.9621 310.145 80.3987 310.145 80.3987C317.078 77.6211 316.106 72.3117 314.119 67.4831L319.204 61.6503C321.159 59.4923 324.759 56.1593 325.015 59.0543Z" fill="#FFC3BD"/>
<path d="M334.534 80.2385C335.602 79.2663 333.466 75.3778 332.152 74.8329C328.712 73.3908 314.642 74.8329 309.354 79.3731C308.916 80.1244 308.651 80.9642 308.579 81.8311C308.507 82.698 308.629 83.5701 308.938 84.3834L334.534 80.2385Z" fill="white"/>
<path d="M379.34 365.791C378.992 365.949 378.617 366.037 378.235 366.048C377.854 366.059 377.474 365.993 377.118 365.855C376.977 365.744 376.874 365.592 376.822 365.42C376.771 365.248 376.773 365.064 376.829 364.894C376.858 364.754 376.916 364.622 377.001 364.508C377.086 364.393 377.195 364.299 377.321 364.231C378.474 363.558 381.327 364.445 381.444 364.488C381.483 364.498 381.519 364.52 381.545 364.55C381.572 364.581 381.589 364.619 381.594 364.659C381.599 364.701 381.592 364.744 381.573 364.782C381.554 364.82 381.524 364.851 381.487 364.872C380.804 365.251 380.085 365.559 379.34 365.791ZM377.78 364.488L377.534 364.595C377.461 364.634 377.398 364.689 377.348 364.755C377.298 364.822 377.263 364.898 377.246 364.979C377.171 365.364 377.321 365.481 377.363 365.513C377.876 365.877 379.617 365.353 380.825 364.744C379.841 364.435 378.801 364.348 377.78 364.488Z" fill="#76777A"/>
<path d="M381.443 364.883C381.408 364.893 381.371 364.893 381.336 364.883C380.268 364.669 378.035 363.334 377.918 362.329C377.901 362.171 377.94 362.012 378.028 361.88C378.115 361.747 378.247 361.649 378.399 361.603C378.547 361.537 378.707 361.503 378.869 361.503C379.031 361.503 379.191 361.537 379.339 361.603C380.578 362.116 381.539 364.509 381.571 364.605C381.593 364.637 381.604 364.674 381.604 364.712C381.604 364.75 381.593 364.787 381.571 364.819C381.556 364.838 381.537 364.855 381.515 364.866C381.493 364.877 381.468 364.883 381.443 364.883ZM378.666 361.966C378.634 361.957 378.601 361.957 378.57 361.966C378.324 362.073 378.335 362.201 378.345 362.255C378.409 362.853 379.926 363.932 381.005 364.327C380.685 363.633 379.937 362.287 379.178 361.966C379.013 361.903 378.831 361.903 378.666 361.966Z" fill="#76777A"/>
<path d="M316.725 377.264C315.582 377.264 314.482 377.104 314.108 376.591C314.012 376.457 313.961 376.297 313.961 376.132C313.961 375.967 314.012 375.807 314.108 375.673C314.179 375.549 314.275 375.441 314.388 375.355C314.502 375.268 314.632 375.206 314.77 375.171C316.255 374.775 319.375 376.549 319.503 376.624C319.543 376.643 319.575 376.674 319.595 376.713C319.616 376.752 319.623 376.797 319.615 376.84C319.608 376.883 319.587 376.923 319.555 376.953C319.523 376.984 319.483 377.003 319.439 377.008C318.544 377.175 317.636 377.261 316.725 377.264ZM315.315 375.534C315.178 375.528 315.041 375.546 314.909 375.587C314.738 375.625 314.589 375.729 314.493 375.876C314.343 376.143 314.397 376.271 314.493 376.346C314.909 376.923 317.163 376.933 318.766 376.698C317.702 376.091 316.53 375.696 315.315 375.534Z" fill="#76777A"/>
<path d="M319.42 377.018H319.334C318.266 376.538 316.13 374.604 316.29 373.6C316.29 373.365 316.503 373.066 317.08 373.012C317.289 372.989 317.5 373.009 317.701 373.072C317.901 373.134 318.086 373.238 318.245 373.376C319.388 374.305 319.623 376.709 319.634 376.805C319.64 376.842 319.635 376.879 319.619 376.914C319.604 376.948 319.579 376.977 319.548 376.997C319.509 377.018 319.464 377.026 319.42 377.018ZM317.283 373.408H317.155C316.771 373.408 316.749 373.6 316.738 373.643C316.642 374.252 318.095 375.779 319.185 376.431C319.092 375.412 318.681 374.448 318.01 373.675C317.809 373.498 317.55 373.403 317.283 373.408Z" fill="#76777A"/>
<path d="M329.225 376.805H320.305L319.418 356.166H328.338L329.225 376.805Z" fill="#FFC3BD"/>
<path d="M391.881 362.714L383.666 365.545L375.141 346.092L383.356 343.261L391.881 362.714Z" fill="#FFC3BD"/>
<path d="M381.711 363.505L391.325 360.567C391.495 360.515 391.678 360.522 391.843 360.588C392.009 360.655 392.146 360.775 392.233 360.93L396.24 367.981C396.336 368.153 396.392 368.345 396.404 368.542C396.415 368.739 396.383 368.937 396.308 369.119C396.233 369.302 396.118 369.466 395.971 369.598C395.824 369.73 395.649 369.827 395.46 369.882C392.095 370.854 390.417 371.154 386.208 372.446C383.612 373.237 377.074 375.715 373.389 376.452C369.703 377.189 368.518 373.664 369.949 373.034C376.359 370.203 378.987 366.987 380.514 364.488C380.781 364.026 381.206 363.677 381.711 363.505Z" fill="#263238"/>
<path d="M320.367 375.769H330.099C330.275 375.771 330.446 375.832 330.583 375.943C330.72 376.053 330.817 376.206 330.857 376.377L332.62 384.304C332.664 384.495 332.664 384.694 332.619 384.885C332.575 385.076 332.488 385.255 332.364 385.407C332.241 385.559 332.084 385.681 331.906 385.764C331.729 385.847 331.534 385.889 331.338 385.885C327.824 385.832 322.792 385.618 318.337 385.618C313.177 385.618 311.009 385.907 304.952 385.907C301.298 385.907 300.283 382.21 301.811 381.868C308.787 380.341 312.195 380.181 318.22 376.463C318.859 376.04 319.601 375.8 320.367 375.769Z" fill="#263238"/>
<path d="M346.275 83.1548C348.871 85.5371 351.114 87.9193 353.443 90.4084C355.772 92.8975 357.93 95.4721 360.024 98.2176C362.21 101.007 364.195 103.948 365.963 107.02C366.929 108.713 367.765 110.478 368.463 112.298C368.645 112.8 368.826 113.28 368.976 113.825C369.151 114.376 369.297 114.936 369.414 115.502L369.596 116.389L369.724 117.372C369.843 118.272 369.843 119.185 369.724 120.085C369.478 121.785 368.85 123.407 367.886 124.829C367.183 125.867 366.358 126.817 365.429 127.66C363.936 129.014 362.303 130.207 360.558 131.217C357.484 132.975 354.268 134.473 350.943 135.693C344.637 138.034 338.138 139.821 331.522 141.034L329.652 134.625C335.453 132.114 341.329 129.401 346.745 126.506C349.381 125.123 351.919 123.559 354.34 121.827C355.349 121.11 356.277 120.286 357.107 119.37C357.36 119.099 357.572 118.793 357.738 118.462C357.823 118.28 357.738 118.301 357.631 118.686C357.556 119.402 357.567 118.846 357.396 118.462C357.342 118.28 357.246 118.034 357.15 117.799C357.054 117.564 356.936 117.297 356.819 117.041C356.24 115.876 355.594 114.745 354.885 113.654C353.235 111.205 351.452 108.847 349.544 106.593C347.578 104.264 345.506 101.946 343.38 99.6705C341.254 97.395 339.021 95.0982 336.97 92.983L346.275 83.1548Z" fill="#FFC3BD"/>
<path d="M332.099 133.61L323.691 136.152L329.097 145.041C329.097 145.041 334.064 142.989 335.165 138.77L332.099 133.61Z" fill="#FFC3BD"/>
<path d="M320.293 139.304L323.605 146.632L329.042 145.051L323.637 136.152L320.293 139.304Z" fill="#FFC3BD"/>
<path d="M326.577 85.5691C325.775 94.1154 343.851 107.341 343.851 107.341L361.253 95.4294C358.231 89.856 353.814 85.1627 348.434 81.8087C338.456 75.4204 327.581 74.9503 326.577 85.5691Z" fill="#76777A"/>
<g opacity="0.3">
<path d="M326.573 85.5691C325.772 94.1154 343.847 107.341 343.847 107.341L361.249 95.4294C358.227 89.856 353.81 85.1627 348.43 81.8087C338.452 75.4204 327.577 74.9503 326.573 85.5691Z" fill="white"/>
</g>
<path d="M296.984 84.8857C296.984 84.8857 289.174 96.8718 307.72 161.161L354.874 154.196C354.212 147.679 346.328 119.252 346.061 88.176C346.05 86.6752 345.735 85.1923 345.135 83.8166C344.535 82.4409 343.663 81.201 342.571 80.1717C341.478 79.1424 340.189 78.3451 338.78 77.8278C337.371 77.3105 335.872 77.084 334.374 77.162C333.006 77.2368 331.596 77.3329 330.197 77.4718C323.465 78.072 316.773 79.06 310.156 80.4309C305.657 81.5755 301.253 83.0648 296.984 84.8857Z" fill="#76777A"/>
<g opacity="0.3">
<path d="M296.984 84.8857C296.984 84.8857 289.174 96.8718 307.72 161.161L354.874 154.196C354.212 147.679 346.328 119.252 346.061 88.176C346.05 86.6752 345.735 85.1923 345.135 83.8166C344.535 82.4409 343.663 81.201 342.571 80.1717C341.478 79.1424 340.189 78.3451 338.78 77.8278C337.371 77.3105 335.872 77.084 334.374 77.162C333.006 77.2368 331.596 77.3329 330.197 77.4718C323.465 78.072 316.773 79.06 310.156 80.4309C305.657 81.5755 301.253 83.0648 296.984 84.8857Z" fill="white"/>
</g>
<path opacity="0.2" d="M295.832 105.546L295.992 105.365L307.081 106.348C308.769 113.505 302.594 123.269 299.336 127.799C297.768 120.45 296.598 113.022 295.832 105.546Z" fill="black"/>
<path opacity="0.2" d="M319.418 356.176L319.877 366.816H328.798L328.338 356.176H319.418Z" fill="black"/>
<path opacity="0.2" d="M383.356 343.261L375.141 346.092L379.542 356.123L387.757 353.292L383.356 343.261Z" fill="black"/>
<path d="M323.849 46.2775C325.815 54.8986 327.396 59.8447 324.394 65.5066C319.886 73.9354 308.284 73.1235 303.787 65.2609C299.738 58.1782 297.196 45.2733 304.503 39.4619C306.104 38.1761 308.007 37.3202 310.031 36.975C312.056 36.6298 314.135 36.8067 316.072 37.4891C318.009 38.1715 319.739 39.3367 321.1 40.8745C322.461 42.4124 323.407 44.272 323.849 46.2775Z" fill="#FFC3BD"/>
<path d="M306.534 54.7278L303.255 56.7362L303.565 45.5192C301.45 45.61 299.364 45.0059 297.625 43.7993C298.811 42.6669 317.271 36.2038 323.029 37.3255C323.627 37.0798 324.353 35.9688 324.353 35.9688C324.353 35.9688 324.578 37.3682 323.606 37.9024C324.311 37.7635 326.073 38.1053 326.565 39.1416C325.756 38.9207 324.897 38.9694 324.118 39.2804C324.118 39.2804 330.528 40.2526 328.253 49.1407C325.699 58.9369 326.543 64.5667 326.543 64.5667C326.543 64.5667 321.779 68.2523 317.634 67.5686C313.211 62.6972 306.823 56.843 306.534 54.7278Z" fill="#263238"/>
<path d="M300.251 42.9126C295.049 42.9126 293.179 40.37 291.844 38.2335C295.583 37.8382 303.371 35.4346 309.15 35.0286C314.929 34.6227 321.264 35.7016 319.352 38.2335C317.44 40.7653 300.251 42.9126 300.251 42.9126Z" fill="#263238"/>
<path d="M301.397 40.5945C297.124 39.9962 292.958 35.9688 296.162 32.1123C297.348 34.9433 305.35 34.6121 311.033 33.4263C318.511 31.8666 323.692 34.3878 321.043 39.4835C319.59 42.2717 301.397 40.5945 301.397 40.5945Z" fill="#263238"/>
<path d="M311.149 52.1745C311.761 54.2839 311.663 56.5356 310.871 58.5842C309.803 61.2656 307.432 60.7208 306.192 58.4026C305.124 56.266 304.312 52.3882 306.128 50.4546C307.944 48.521 310.38 49.6427 311.149 52.1745Z" fill="#FFC3BD"/>
<path d="M324.449 158.693C324.449 158.693 332.098 223.805 337.653 249.316C343.732 277.262 373.718 353.452 373.718 353.452L388.674 348.282C388.674 348.282 369.445 290.915 364.339 251.848C360.418 221.85 354.831 154.196 354.831 154.196L324.449 158.693Z" fill="#263238"/>
<path d="M369.896 348.667C369.821 348.667 372.962 355.076 372.962 355.076L390.428 349.404L388.377 344.19L369.896 348.667Z" fill="#76777A"/>
<path opacity="0.3" d="M328.668 192.099C331.061 210.195 334.127 231.625 336.819 245.31C340.782 224.339 341.712 197.857 328.668 192.099Z" fill="black"/>
<path d="M307.719 161.161C307.719 161.161 301.373 222.331 302.377 249.508C303.381 277.775 316.585 364.755 316.585 364.755H331.68C331.68 364.755 328.903 279.42 329.544 251.666C330.281 221.402 341.626 156.151 341.626 156.151L307.719 161.161Z" fill="#263238"/>
<path d="M313.648 358.74C313.584 358.74 314.502 365 314.502 365H332.866L333.368 359.413L313.648 358.74Z" fill="#76777A"/>
<path d="M304.793 99.9058C303.126 102.555 301.438 104.937 299.686 107.384C297.934 109.83 296.097 112.191 294.227 114.541C290.416 119.309 286.287 123.813 281.867 128.023C280.671 129.091 279.571 130.16 278.278 131.132L277.338 131.89L276.868 132.264C276.697 132.403 276.622 132.478 276.27 132.734C275.211 133.489 274.049 134.086 272.819 134.508C270.914 135.158 268.923 135.518 266.911 135.576C265.21 135.633 263.506 135.558 261.816 135.351C255.637 134.541 249.609 132.836 243.922 130.288L245.77 123.878C251.236 124.527 256.74 124.791 262.243 124.669C263.46 124.605 264.673 124.473 265.875 124.273C266.781 124.141 267.661 123.867 268.482 123.461C268.738 123.323 268.877 123.184 268.845 123.152C268.813 123.12 268.984 123.013 269.08 122.917L269.443 122.585L270.159 121.912C271.12 121.058 272.028 120.022 272.969 119.082C274.817 117.095 276.654 115.054 278.395 112.885C280.137 110.717 281.899 108.538 283.609 106.294C285.318 104.051 286.974 101.775 288.64 99.4999C290.307 97.2244 291.931 94.8315 293.469 92.6201L304.793 99.9058Z" fill="#FFC3BD"/>
<path d="M310.998 97.0748C314.587 108.826 293.745 121.848 293.745 121.848L280.199 104.596C283.252 98.9068 287.022 93.6328 291.416 88.9025C300.635 78.8713 308.263 88.1333 310.998 97.0748Z" fill="#76777A"/>
<g opacity="0.3">
<path d="M311.002 97.0748C314.591 108.826 293.749 121.848 293.749 121.848L280.203 104.596C283.256 98.9068 287.026 93.6328 291.42 88.9025C300.639 78.8713 308.267 88.1333 311.002 97.0748Z" fill="white"/>
</g>
<path d="M248.913 124.273L237.941 122.265L239.095 131.751C239.095 131.751 244.8 134.956 248.934 129.946L248.913 124.273Z" fill="#FFC3BD"/>
<path d="M233.711 124.401L236.083 131.249L239.074 131.751L237.92 122.265L233.711 124.401Z" fill="#FFC3BD"/>
</svg>
