<svg width="454" height="398" viewBox="0 0 454 398" fill="none" xmlns="http://www.w3.org/2000/svg">
<path d="M408.51 370.283H378.438V370.553H408.51V370.283Z" fill="#EBEBEB"/>
<path d="M300.75 373.215H292.859V373.485H300.75V373.215Z" fill="#EBEBEB"/>
<path d="M377.526 360.279H360.102V360.549H377.526V360.279Z" fill="#EBEBEB"/>
<path d="M86.8493 362.09H47.6328V362.36H86.8493V362.09Z" fill="#EBEBEB"/>
<path d="M100.685 362.09H94.9375V362.36H100.685V362.09Z" fill="#EBEBEB"/>
<path d="M204.436 366.64H119.375V366.909H204.436V366.64Z" fill="#EBEBEB"/>
<path d="M216.469 304.859H41.1339C39.7588 304.859 38.4401 304.211 37.4678 303.057C36.4955 301.902 35.9492 300.337 35.9492 298.704V6.10246C35.9612 4.47931 36.5127 2.92747 37.4837 1.78475C38.4548 0.642023 39.7667 0.000914334 41.1339 0.000976567H216.469C217.15 0.000976567 217.824 0.160189 218.453 0.469526C219.082 0.778862 219.653 1.23227 220.135 1.80385C220.616 2.37543 220.998 3.05399 221.259 3.8008C221.519 4.5476 221.653 5.34802 221.653 6.15636V298.704C221.653 299.512 221.519 300.313 221.259 301.06C220.998 301.806 220.616 302.485 220.135 303.057C219.653 303.628 219.082 304.082 218.453 304.391C217.824 304.7 217.15 304.859 216.469 304.859ZM41.1339 0.216577C39.8198 0.219427 38.5602 0.840459 37.6309 1.94366C36.7017 3.04686 36.1786 4.5423 36.1762 6.10246V298.704C36.1786 300.264 36.7017 301.76 37.6309 302.863C38.5602 303.966 39.8198 304.587 41.1339 304.59H216.469C217.783 304.587 219.042 303.966 219.972 302.863C220.901 301.76 221.424 300.264 221.426 298.704V6.10246C221.424 4.5423 220.901 3.04686 219.972 1.94366C219.042 0.840459 217.783 0.219427 216.469 0.216577H41.1339Z" fill="#EBEBEB"/>
<path d="M412.863 304.859H237.528C236.153 304.859 234.835 304.211 233.862 303.057C232.89 301.902 232.344 300.337 232.344 298.704V6.10246C232.356 4.47931 232.907 2.92747 233.878 1.78475C234.849 0.642023 236.161 0.000914334 237.528 0.000976567H412.863C414.238 0.000976567 415.557 0.649488 416.529 1.80385C417.502 2.9582 418.048 4.52385 418.048 6.15636V298.704C418.048 300.337 417.502 301.902 416.529 303.057C415.557 304.211 414.238 304.859 412.863 304.859ZM237.528 0.216577C236.214 0.219427 234.955 0.840459 234.025 1.94366C233.096 3.04686 232.573 4.5423 232.571 6.10246V298.704C232.573 300.264 233.096 301.76 234.025 302.863C234.955 303.966 236.214 304.587 237.528 304.59H412.863C414.177 304.587 415.437 303.966 416.366 302.863C417.295 301.76 417.819 300.264 417.821 298.704V6.10246C417.819 4.5423 417.295 3.04686 416.366 1.94366C415.437 0.840459 414.177 0.219427 412.863 0.216577H237.528Z" fill="#EBEBEB"/>
<path d="M454 352.938H0V353.208H454V352.938Z" fill="#EBEBEB"/>
<path d="M82.5154 217.897L68.6412 212.809C68.4405 212.722 68.272 212.555 68.1651 212.335C68.0582 212.116 68.0198 211.859 68.0566 211.609C68.0934 211.36 68.2032 211.134 68.3666 210.97C68.5299 210.807 68.7365 210.718 68.9499 210.717L84.9489 211.72C81.1716 203.926 78.9379 199.053 76.3955 192.952C76.3109 192.721 76.2971 192.462 76.3564 192.221C76.4157 191.979 76.5445 191.769 76.7203 191.629C76.8961 191.488 77.1078 191.424 77.3189 191.449C77.5299 191.475 77.7268 191.587 77.8755 191.766C81.2896 196.326 84.1498 200.024 88.7715 205.856C89.8611 198.31 91.1324 191.357 92.7123 184.382C92.7532 184.096 92.8881 183.841 93.0874 183.673C93.2866 183.506 93.5338 183.439 93.7746 183.487C94.0154 183.536 94.2301 183.696 94.3715 183.932C94.5128 184.169 94.5692 184.463 94.5283 184.748C94.1038 190.368 93.9492 196.011 94.0652 201.651L94.501 201.835C98.3388 196.632 102.367 191.633 106.587 186.84C106.756 186.682 106.968 186.601 107.183 186.611C107.399 186.622 107.604 186.723 107.763 186.897C107.921 187.07 108.022 187.306 108.048 187.56C108.074 187.814 108.022 188.071 107.903 188.284C103.823 194.427 100.054 200.852 96.6167 207.527C102.101 205.069 107.616 202.686 113.16 200.379C113.37 200.308 113.593 200.329 113.791 200.437C113.988 200.545 114.147 200.734 114.237 200.969C114.327 201.204 114.343 201.47 114.282 201.717C114.221 201.965 114.087 202.179 113.905 202.32C108.157 206.19 102.473 210.146 96.7983 214.242L111.426 219.773C111.628 219.86 111.798 220.029 111.905 220.251C112.012 220.472 112.049 220.732 112.01 220.983C111.97 221.234 111.857 221.46 111.691 221.622C111.524 221.783 111.314 221.869 111.099 221.864L96.0719 220.786C99.041 224.915 101.102 227.75 103.508 230.951C103.644 231.148 103.717 231.395 103.714 231.649C103.711 231.903 103.632 232.148 103.492 232.34C103.352 232.532 103.16 232.659 102.948 232.699C102.737 232.739 102.52 232.689 102.337 232.558C99.3134 230.175 96.653 228.062 92.7849 225.012C93.1844 228.677 93.5204 231.48 93.929 234.304C93.9517 234.558 93.898 234.813 93.7774 235.024C93.6567 235.235 93.477 235.388 93.2701 235.457C93.0631 235.525 92.8425 235.504 92.6472 235.398C92.452 235.292 92.2949 235.106 92.2038 234.875C91.1959 231.825 90.2788 228.795 89.1166 224.764C84.7491 249.558 85.875 273.63 90.0972 298.294L84.8671 297.216C81.7846 272.989 82.6166 248.287 87.3187 224.43C84.6946 227.664 82.7787 230.068 80.9627 232.504C80.8088 232.683 80.6062 232.791 80.3911 232.809C80.1761 232.827 79.9627 232.754 79.7891 232.602C79.6155 232.45 79.493 232.23 79.4435 231.981C79.394 231.732 79.4208 231.47 79.519 231.243C80.7539 228.806 82.0887 226.338 83.8865 223.136C79.2103 224.354 76.0141 225.195 72.482 226.144C72.2701 226.189 72.0515 226.143 71.8652 226.015C71.679 225.887 71.5372 225.684 71.4652 225.443C71.3932 225.202 71.3956 224.939 71.4721 224.7C71.5486 224.461 71.6941 224.262 71.8827 224.139C75.0517 222.123 78.0844 220.398 82.5154 217.897Z" fill="#EBEBEB"/>
<path d="M75.1367 226.467L85.7966 219.762C86.0636 219.602 86.2709 219.329 86.3784 218.998C86.486 218.666 86.486 218.299 86.3786 217.968C86.2712 217.636 86.064 217.364 85.7971 217.203C85.5302 217.043 85.2227 217.006 84.934 217.099L71.7771 220.991C73.92 213.66 75.2729 208.723 76.5986 203.29C76.6799 202.955 76.6557 202.597 76.5306 202.282C76.4055 201.967 76.188 201.716 75.9189 201.578C75.6497 201.439 75.3472 201.422 75.0679 201.528C74.7886 201.635 74.5516 201.859 74.4012 202.158C72.2402 206.47 70.179 210.351 67.1372 216.075C65.3212 210.232 63.4054 204.81 61.3351 199.485C61.2051 199.167 60.9809 198.917 60.7054 198.784C60.4299 198.65 60.1225 198.642 59.8423 198.761C59.5621 198.88 59.3287 199.117 59.187 199.428C59.0452 199.739 59.0051 200.1 59.0742 200.444C59.9822 204.67 60.7358 208.928 61.317 213.1L60.9174 213.38C57.467 210.189 53.9379 207.131 50.3302 204.206C50.0789 204 49.7711 203.914 49.4687 203.966C49.1663 204.019 48.8919 204.205 48.7008 204.488C48.5096 204.771 48.4159 205.13 48.4386 205.492C48.4612 205.853 48.5986 206.191 48.8229 206.438C52.6244 210.57 56.2564 214.904 59.7189 219.438C55.0518 218.483 50.3756 217.57 45.6903 216.7C45.3942 216.651 45.0934 216.735 44.846 216.934C44.5986 217.133 44.4223 217.434 44.3511 217.779C44.28 218.124 44.319 218.488 44.4607 218.8C44.6024 219.113 44.8367 219.352 45.1182 219.471C50.2938 221.627 55.4331 223.783 60.5542 226.079L49.2133 233.366C48.9351 233.524 48.7181 233.801 48.6066 234.142C48.4952 234.483 48.4977 234.862 48.6137 235.201C48.7298 235.54 48.9505 235.813 49.2308 235.965C49.511 236.117 49.8296 236.136 50.1213 236.018L62.3339 232.342C60.5179 236.018 59.2104 238.81 57.7939 241.591C57.6389 241.891 57.5823 242.248 57.6347 242.595C57.6872 242.941 57.8451 243.253 58.0784 243.47C58.3117 243.687 58.6041 243.794 58.8999 243.772C59.1957 243.75 59.4743 243.599 59.6826 243.349L66.2837 235.684C66.3927 237.84 66.4835 239.759 66.538 241.527C66.55 241.881 66.672 242.217 66.8805 242.471C67.089 242.724 67.3692 242.877 67.667 242.9C67.9649 242.923 68.2593 242.814 68.4934 242.594C68.7276 242.374 68.8849 242.059 68.9351 241.71C69.2347 239.554 69.5253 237.312 69.8431 234.627C78.0151 258.031 80.7391 281.909 80.4304 307.08L85.3971 304.816C84.6167 280.331 79.9142 256.247 71.541 233.851C73.4297 235.425 75.0096 236.762 76.4533 238.023C76.6941 238.275 77.0093 238.403 77.3294 238.378C77.6495 238.354 77.9484 238.18 78.1604 237.894C78.3723 237.608 78.4799 237.234 78.4594 236.854C78.439 236.474 78.2922 236.119 78.0514 235.867C77.0708 234.627 75.9902 233.312 74.7463 231.803C78.3783 231.922 81.1568 232.019 83.8263 232.127C84.1202 232.134 84.4065 232.015 84.6314 231.79C84.8563 231.565 85.0044 231.25 85.0479 230.905C85.0913 230.56 85.0272 230.208 84.8675 229.914C84.7078 229.621 84.4635 229.407 84.1804 229.313C81.529 228.461 78.7778 227.588 75.1367 226.467Z" fill="#F0F0F0"/>
<path d="M93.9601 240.071L86.006 235.059C85.8235 234.942 85.6833 234.749 85.6114 234.518C85.5396 234.287 85.5411 234.033 85.6156 233.803C85.6901 233.574 85.8326 233.384 86.0165 233.27C86.2003 233.155 86.4128 233.125 86.6143 233.183L96.4117 236.083C94.8136 230.628 93.8239 227.006 92.8432 222.953C92.7445 222.703 92.7335 222.416 92.8127 222.156C92.8919 221.897 93.0547 221.685 93.2654 221.568C93.4762 221.45 93.7175 221.437 93.9363 221.531C94.1551 221.625 94.3335 221.819 94.4322 222.069C96.0485 225.238 97.5648 228.149 99.8258 232.407C101.197 228.041 102.613 223.998 104.166 220.021C104.258 219.795 104.416 219.618 104.611 219.524C104.806 219.429 105.024 219.423 105.222 219.508C105.42 219.592 105.586 219.76 105.686 219.98C105.786 220.2 105.814 220.457 105.764 220.7C105.065 223.934 104.493 227.168 104.057 230.305L104.311 230.477C106.926 228.055 109.608 225.738 112.356 223.524C112.444 223.442 112.545 223.381 112.653 223.346C112.761 223.31 112.874 223.3 112.986 223.316C113.097 223.332 113.204 223.374 113.302 223.439C113.4 223.504 113.486 223.592 113.555 223.697C113.624 223.801 113.675 223.921 113.705 224.049C113.735 224.178 113.744 224.312 113.73 224.444C113.717 224.576 113.682 224.704 113.626 224.82C113.571 224.936 113.498 225.037 113.409 225.12C110.546 228.203 107.822 231.437 105.237 234.822C108.724 234.103 112.223 233.417 115.734 232.763C115.946 232.72 116.164 232.774 116.345 232.914C116.525 233.054 116.654 233.27 116.705 233.518C116.757 233.767 116.728 234.029 116.623 234.253C116.519 234.476 116.347 234.645 116.143 234.725C112.287 236.313 108.44 237.959 104.602 239.662L113.046 245.052C113.232 245.168 113.375 245.361 113.448 245.594C113.521 245.828 113.52 246.085 113.443 246.317C113.367 246.549 113.221 246.74 113.034 246.852C112.847 246.965 112.632 246.992 112.429 246.927L103.349 244.189C104.684 246.96 105.691 249.03 106.736 251.132C106.836 251.342 106.87 251.589 106.831 251.827C106.791 252.065 106.682 252.278 106.521 252.428C106.361 252.578 106.161 252.654 105.957 252.644C105.753 252.634 105.559 252.537 105.41 252.371L100.525 246.669C100.434 248.383 100.371 249.849 100.325 251.218C100.322 251.472 100.237 251.716 100.089 251.9C99.9414 252.084 99.7404 252.196 99.5264 252.212C99.3124 252.228 99.1011 252.148 98.9345 251.988C98.7679 251.828 98.6582 251.599 98.6272 251.347C98.4002 249.72 98.1732 247.973 97.9189 245.893C91.9443 262.957 90.0012 280.389 90.2009 298.715L86.5689 297.065C87.1386 279.213 90.5652 261.652 96.6659 245.321C95.204 246.55 93.9419 247.585 92.8705 248.555C92.6999 248.716 92.484 248.793 92.267 248.771C92.05 248.749 91.8483 248.629 91.7032 248.436C91.5582 248.244 91.4807 247.992 91.4867 247.734C91.4927 247.475 91.5817 247.229 91.7355 247.046C92.5073 246.076 93.3426 245.041 94.3323 243.812L87.4679 244.049C87.2572 244.059 87.0509 243.976 86.8887 243.816C86.7265 243.656 86.6199 243.431 86.5894 243.183C86.559 242.935 86.6068 242.683 86.7238 242.475C86.8407 242.266 87.0184 242.117 87.2227 242.055C89.1567 241.559 91.2088 240.912 93.9601 240.071Z" fill="#F5F5F5"/>
<path d="M71.5423 352.755H98.6189C99.5311 352.757 100.41 352.345 101.075 351.604C101.74 350.862 102.141 349.847 102.196 348.766L105.066 293.314C105.193 290.867 64.9684 290.867 65.1137 293.314L67.983 348.766C68.0383 349.843 68.4371 350.855 69.0982 351.596C69.7593 352.337 70.6332 352.751 71.5423 352.755Z" fill="#F0F0F0"/>
<path d="M69.9146 224.635C69.5626 224.29 69.2891 223.846 69.1193 223.343C68.9496 222.84 68.889 222.294 68.9431 221.756L69.5514 215.612L68.1622 218.469C67.9699 218.87 67.7076 219.218 67.3927 219.488C67.0778 219.759 66.7177 219.947 66.3367 220.039C65.9556 220.131 65.5624 220.125 65.1834 220.021C64.8045 219.918 64.4486 219.719 64.1397 219.439L61.4157 217.002L63.8946 221.756C64.2423 222.415 64.3786 223.2 64.2785 223.968C64.1785 224.736 63.8488 225.436 63.3498 225.939L60.1445 229.173L63.2862 228.321C63.9521 228.136 64.6524 228.255 65.2479 228.654C65.8434 229.054 66.2906 229.705 66.5005 230.477L67.5811 234.401L68.2711 230.23C68.346 229.788 68.4978 229.369 68.7168 229.001C68.9358 228.633 69.2172 228.323 69.5429 228.092C69.8686 227.861 70.2315 227.713 70.6082 227.657C70.985 227.602 71.3673 227.641 71.7306 227.772L73.8463 228.505L69.9146 224.635Z" fill="#E6E6E6"/>
<path d="M87.9565 214.049C88.2148 213.798 88.4152 213.474 88.5391 213.106C88.663 212.738 88.7062 212.339 88.6647 211.946L88.2198 207.451L89.2368 209.542C89.3769 209.835 89.5681 210.089 89.7976 210.286C90.027 210.484 90.2894 210.621 90.5672 210.688C90.8449 210.756 91.1316 210.752 91.408 210.677C91.6843 210.602 91.944 210.458 92.1696 210.254L94.1581 208.475L92.3421 211.946C92.091 212.428 91.9932 213 92.0665 213.56C92.1398 214.119 92.3793 214.629 92.7416 214.997L95.0843 217.39L92.787 216.765C92.3016 216.634 91.7923 216.722 91.3589 217.013C90.9256 217.304 90.5994 217.777 90.4444 218.339L89.6544 221.206L89.146 218.156C89.0915 217.832 88.9812 217.526 88.8219 217.256C88.6626 216.986 88.4579 216.758 88.2206 216.587C87.9834 216.416 87.7188 216.305 87.4436 216.261C87.1683 216.218 86.8885 216.242 86.6217 216.334L85.0781 216.873L87.9565 214.049Z" fill="#F5F5F5"/>
<path d="M98.6679 239.78C98.8513 239.596 98.9937 239.361 99.0824 239.096C99.1711 238.831 99.2034 238.544 99.1764 238.26L98.8586 235.026L99.585 236.525C99.6867 236.734 99.8246 236.914 99.9896 237.055C100.155 237.196 100.343 237.294 100.542 237.342C100.741 237.389 100.947 237.387 101.145 237.333C101.343 237.28 101.529 237.177 101.692 237.031L103.117 235.749L101.819 238.239C101.646 238.58 101.579 238.983 101.63 239.377C101.682 239.771 101.848 240.131 102.1 240.395L103.78 242.109L102.136 241.656C101.793 241.559 101.431 241.615 101.12 241.814C100.808 242.013 100.569 242.34 100.448 242.734L99.8846 244.793L99.5214 242.637C99.4829 242.404 99.4038 242.184 99.2893 241.989C99.1748 241.795 99.0273 241.631 98.8563 241.508C98.6854 241.385 98.4947 241.306 98.2965 241.276C98.0983 241.246 97.897 241.265 97.7054 241.333L96.5977 241.721L98.6679 239.78Z" fill="#E6E6E6"/>
<path d="M349.254 86.9526H325.492C324.83 86.9526 324.293 87.5897 324.293 88.3756V93.8626C324.293 94.6485 324.83 95.2856 325.492 95.2856H349.254C349.916 95.2856 350.452 94.6485 350.452 93.8626V88.3756C350.452 87.5897 349.916 86.9526 349.254 86.9526Z" fill="#F5F5F5"/>
<path d="M341.262 97.2798H317.499C316.837 97.2798 316.301 97.9169 316.301 98.7027V104.19C316.301 104.976 316.837 105.613 317.499 105.613H341.262C341.924 105.613 342.46 104.976 342.46 104.19V98.7027C342.46 97.9169 341.924 97.2798 341.262 97.2798Z" fill="#F5F5F5"/>
<path d="M368.641 97.2798H344.878C344.216 97.2798 343.68 97.9169 343.68 98.7027V104.19C343.68 104.976 344.216 105.613 344.878 105.613H368.641C369.303 105.613 369.839 104.976 369.839 104.19V98.7027C369.839 97.9169 369.303 97.2798 368.641 97.2798Z" fill="#F0F0F0"/>
<path d="M381.343 20.623H355.992C355.33 20.623 354.793 21.2601 354.793 22.046V28.0397C354.793 28.8256 355.33 29.4627 355.992 29.4627H381.343C382.005 29.4627 382.541 28.8256 382.541 28.0397V22.046C382.541 21.2601 382.005 20.623 381.343 20.623Z" fill="#F5F5F5"/>
<path d="M381.343 42.5498H355.992C355.33 42.5498 354.793 43.1869 354.793 43.9728V49.9664C354.793 50.7523 355.33 51.3894 355.992 51.3894H381.343C382.005 51.3894 382.541 50.7523 382.541 49.9664V43.9728C382.541 43.1869 382.005 42.5498 381.343 42.5498Z" fill="#F5F5F5"/>
<path d="M372.87 31.5757H347.519C346.857 31.5757 346.32 32.2128 346.32 32.9986V38.9923C346.32 39.7782 346.857 40.4153 347.519 40.4153H372.87C373.532 40.4153 374.069 39.7782 374.069 38.9923V32.9986C374.069 32.2128 373.532 31.5757 372.87 31.5757Z" fill="#F5F5F5"/>
<path d="M401.909 31.5757H376.558C375.896 31.5757 375.359 32.2128 375.359 32.9986V38.9923C375.359 39.7782 375.896 40.4153 376.558 40.4153H401.909C402.571 40.4153 403.108 39.7782 403.108 38.9923V32.9986C403.108 32.2128 402.571 31.5757 401.909 31.5757Z" fill="#F0F0F0"/>
<path d="M198.787 289.121H373.168V283.17H198.787V289.121Z" fill="#F5F5F5"/>
<path d="M371.871 289.121H410.934V283.17H371.871V289.121Z" fill="#EBEBEB"/>
<path d="M216.912 303.587V289.121H208.785L216.912 303.587Z" fill="#E0E0E0"/>
<path d="M212.853 303.587L204.727 289.121H208.785L216.912 303.587H212.853Z" fill="#FAFAFA"/>
<path d="M404.572 303.587V289.121H396.445L404.572 303.587Z" fill="#E0E0E0"/>
<path d="M400.504 303.587L392.387 289.121H396.445L404.572 303.587H400.504Z" fill="#FAFAFA"/>
<path d="M383.02 283.978H387.615C388.104 283.979 388.589 283.862 389.039 283.635C389.489 283.407 389.896 283.074 390.236 282.655C390.575 282.236 390.839 281.74 391.013 281.197C391.187 280.654 391.266 280.075 391.247 279.494L390.666 258.947H379.951L379.37 279.494C379.35 280.076 379.43 280.657 379.605 281.202C379.78 281.747 380.046 282.244 380.387 282.663C380.729 283.082 381.138 283.415 381.59 283.641C382.043 283.867 382.529 283.982 383.02 283.978Z" fill="#F0F0F0"/>
<path d="M363.537 270.966C367.516 266.242 367.516 258.584 363.537 253.861C359.559 249.137 353.108 249.137 349.13 253.861C345.151 258.584 345.151 266.242 349.13 270.966C353.108 275.689 359.559 275.689 363.537 270.966Z" fill="#F0F0F0"/>
<path d="M355.63 283.795H357.047V275.786H356.338C354.833 275.836 353.335 275.528 351.932 274.88C350.53 274.231 349.251 273.255 348.171 272.009C347.091 270.763 346.233 269.273 345.647 267.627C345.061 265.98 344.759 264.211 344.759 262.424C344.759 260.637 345.061 258.867 345.647 257.221C346.233 255.575 347.091 254.084 348.171 252.839C349.251 251.593 350.53 250.617 351.932 249.968C353.335 249.319 354.833 249.011 356.338 249.062V247.37C353.147 247.566 350.134 249.183 347.902 251.898C345.669 254.613 344.379 258.227 344.29 262.02C344.201 265.812 345.318 269.506 347.42 272.365C349.521 275.224 352.453 277.038 355.63 277.446V283.795Z" fill="#EBEBEB"/>
<path d="M350.354 283.979H362.467C362.467 283.121 362.18 282.298 361.669 281.692C361.158 281.085 360.465 280.745 359.743 280.745H353.06C352.337 280.745 351.645 281.085 351.134 281.692C350.623 282.298 350.336 283.121 350.336 283.979H350.354Z" fill="#EBEBEB"/>
<path d="M383.712 283.978L374.142 272.616L364.562 283.978H383.712Z" fill="#F5F5F5"/>
<path d="M374.141 272.616L383.711 283.978H374.141V272.616Z" fill="#E6E6E6"/>
<path d="M307.409 269.113C307.454 270.191 307.481 271.053 307.481 271.625C307.481 273.977 307.049 276.301 306.215 278.435C305.381 280.568 304.164 282.46 302.651 283.978H285.825C284.317 282.463 283.104 280.576 282.272 278.448C281.439 276.32 281.007 274.003 281.004 271.657C281.004 271.086 281.004 270.223 281.077 269.145L307.409 269.113Z" fill="#F5F5F5"/>
<path d="M305.086 277.963C305.086 279.109 305.296 280.241 305.702 281.28C306.108 282.318 306.701 283.24 307.438 283.979H315.61C316.549 283.029 317.249 281.791 317.635 280.4C317.796 280.435 317.96 280.453 318.125 280.454C319.768 280.454 321.602 278.901 321.602 276.832C321.602 274.762 320.549 273.209 318.978 273.209C318.615 273.214 318.253 273.283 317.907 273.414V273.274C317.902 272.773 317.73 272.294 317.429 271.943C317.128 271.591 316.722 271.396 316.3 271.398H306.72C306.509 271.393 306.299 271.437 306.102 271.528C305.905 271.62 305.725 271.757 305.573 271.931C305.421 272.106 305.3 272.314 305.216 272.545C305.133 272.775 305.088 273.023 305.086 273.274C305.086 275.441 305.086 277.209 305.086 277.963ZM317.889 279.225C317.954 278.809 317.987 278.387 317.989 277.963C317.989 277.381 317.989 276.206 317.989 274.729C318.319 274.547 318.678 274.448 319.042 274.438C320.531 274.438 320.649 276.282 320.649 276.853C320.649 278.19 319.305 279.268 318.188 279.268L317.889 279.225Z" fill="#EBEBEB"/>
<path d="M229.215 283.978L230.55 265.771H211.109L209.766 283.978H229.215Z" fill="#F0F0F0"/>
<path d="M229.215 283.978L230.55 265.771H231.603L230.259 283.978H229.215Z" fill="#E0E0E0"/>
<path d="M227.36 282.124L228.432 267.636H212.95L211.879 282.124H227.36Z" fill="#FAFAFA"/>
<path d="M226.181 280.928L227.071 268.822H214.141L213.242 280.928H226.181Z" fill="#EBEBEB"/>
<path d="M251.133 283.979H231.602L233.763 254.571H253.303L251.133 283.979Z" fill="#F0F0F0"/>
<path d="M251.133 283.979H252.068L254.238 254.571H253.303L251.133 283.979Z" fill="#E0E0E0"/>
<path d="M249.367 280.982H233.812L235.538 257.567H251.092L249.367 280.982Z" fill="#E0E0E0"/>
<path d="M248.228 279.052H235.234L236.678 259.497H249.672L248.228 279.052Z" fill="#FAFAFA"/>
<path d="M238.849 270.104L240.126 271.621C241.254 272.96 243.082 272.96 244.21 271.621L245.487 270.104C246.615 268.765 246.615 266.595 245.487 265.256L244.21 263.739C243.082 262.4 241.254 262.4 240.126 263.739L238.849 265.256C237.721 266.595 237.721 268.765 238.849 270.104Z" fill="#EBEBEB"/>
<path d="M238.22 275.731L238.849 276.478C239.977 277.817 241.805 277.817 242.932 276.478L243.562 275.731C244.689 274.393 244.689 272.222 243.562 270.883L242.932 270.136C241.805 268.798 239.977 268.798 238.849 270.136L238.22 270.883C237.092 272.222 237.092 274.393 238.22 275.731Z" fill="#E6E6E6"/>
<path d="M63.0061 74.1025H90.7546C91.4165 74.1025 91.9531 73.4655 91.9531 72.6796V65.9205C91.9531 65.1346 91.4165 64.4976 90.7546 64.4976H63.0061C62.3441 64.4976 61.8075 65.1346 61.8075 65.9205V72.6796C61.8075 73.4655 62.3441 74.1025 63.0061 74.1025Z" fill="#F5F5F5"/>
<path d="M77.0803 62.2017L104.829 62.2017C105.491 62.2017 106.027 61.5646 106.027 60.7787V54.0196C106.027 53.2338 105.491 52.5967 104.829 52.5967H77.0803C76.4184 52.5967 75.8817 53.2338 75.8817 54.0196V60.7787C75.8817 61.5646 76.4184 62.2017 77.0803 62.2017Z" fill="#F5F5F5"/>
<path d="M45.5373 62.2017L73.2858 62.2017C73.9478 62.2017 74.4844 61.5646 74.4844 60.7787V54.0196C74.4844 53.2338 73.9478 52.5967 73.2858 52.5967H45.5373C44.8754 52.5967 44.3388 53.2338 44.3388 54.0196V60.7787C44.3388 61.5646 44.8754 62.2017 45.5373 62.2017Z" fill="#F0F0F0"/>
<path d="M226.997 397.47C324.228 397.47 403.05 392.007 403.05 385.267C403.05 378.528 324.228 373.064 226.997 373.064C129.767 373.064 50.9453 378.528 50.9453 385.267C50.9453 392.007 129.767 397.47 226.997 397.47Z" fill="#F5F5F5"/>
<path d="M356.604 28.5571H303.486C294.144 28.5571 286.57 37.5487 286.57 48.6403V219.805C286.57 230.897 294.144 239.888 303.486 239.888H356.604C365.947 239.888 373.52 230.897 373.52 219.805V48.6403C373.52 37.5487 365.947 28.5571 356.604 28.5571Z" fill="#407BFF"/>
<path opacity="0.3" d="M356.795 28.5571H303.296C294.059 28.5571 286.57 37.4473 286.57 48.4139V220.031C286.57 230.998 294.059 239.888 303.296 239.888H356.795C366.032 239.888 373.52 230.998 373.52 220.031V48.4139C373.52 37.4473 366.032 28.5571 356.795 28.5571Z" fill="black"/>
<path d="M373.52 38.9275V80.8509H286.57V38.9275C286.57 36.1771 287.491 33.5394 289.129 31.5945C290.767 29.6497 292.989 28.5571 295.305 28.5571H364.785C367.102 28.5571 369.324 29.6497 370.962 31.5945C372.6 33.5394 373.52 36.1771 373.52 38.9275Z" fill="#407BFF"/>
<path d="M311.167 51.1197C311.167 53.1895 309.878 54.4615 307.799 54.4615H305.983V57.1349H304.512V47.7563H307.808C309.878 47.7887 311.167 49.0499 311.167 51.1197ZM309.687 51.1197C309.687 49.9447 309.024 49.2548 307.735 49.2548H305.992V52.9846H307.708C309.024 52.9846 309.687 52.3055 309.687 51.1197Z" fill="white"/>
<path d="M315.979 49.9337V51.5291C315.87 51.515 315.761 51.515 315.652 51.5291C315.412 51.5085 315.171 51.5508 314.946 51.6529C314.721 51.7551 314.518 51.9146 314.351 52.1203C314.184 52.326 314.057 52.5727 313.979 52.8431C313.901 53.1135 313.874 53.401 313.9 53.6851V57.1347H312.492V49.9768H313.836V51.0548C314.08 50.662 314.406 50.3518 314.782 50.155C315.158 49.9583 315.57 49.882 315.979 49.9337Z" fill="white"/>
<path d="M322.718 54.1272H317.987C318.077 54.6486 318.326 55.1121 318.686 55.4285C319.047 55.745 319.493 55.892 319.939 55.8412C320.243 55.8541 320.547 55.7918 320.83 55.6581C321.113 55.5245 321.369 55.3226 321.583 55.0651L322.336 56.1431C321.879 56.6805 321.302 57.0521 320.673 57.2144C320.044 57.3767 319.39 57.3229 318.786 57.0593C318.182 56.7958 317.653 56.3334 317.263 55.7263C316.872 55.1192 316.635 54.3925 316.58 53.6313C316.567 53.1436 316.639 52.658 316.791 52.2048C316.944 51.7517 317.173 51.3408 317.466 50.9978C317.758 50.6547 318.107 50.387 318.49 50.2114C318.874 50.0357 319.283 49.9559 319.694 49.9769C320.104 49.958 320.514 50.0413 320.895 50.2214C321.277 50.4016 321.622 50.6746 321.91 51.0229C322.197 51.3712 322.42 51.787 322.564 52.2437C322.708 52.7004 322.769 53.1878 322.745 53.6745C322.745 53.7607 322.727 53.9655 322.718 54.1272ZM317.978 53.0492H321.428C321.385 52.5547 321.184 52.0986 320.867 51.774C320.549 51.4495 320.14 51.2809 319.721 51.3029C319.303 51.2767 318.891 51.4384 318.568 51.756C318.245 52.0735 318.034 52.5236 317.978 53.0169V53.0492Z" fill="white"/>
<path d="M334.186 53.0708V57.1349H332.769V53.2433C332.769 51.9712 332.27 51.3568 331.416 51.3568C330.563 51.3568 329.845 52.079 329.845 53.5128V57.1349H328.438V53.2433C328.438 51.9712 327.938 51.3568 327.076 51.3568C326.213 51.3568 325.505 52.079 325.505 53.5128V57.1349H324.098V49.9769H325.442V50.8932C325.688 50.5634 325.994 50.3033 326.337 50.1317C326.679 49.9601 327.05 49.8815 327.421 49.9015C327.816 49.87 328.212 49.9631 328.568 50.1713C328.923 50.3796 329.226 50.6955 329.446 51.0873C329.723 50.6997 330.07 50.3916 330.462 50.1862C330.853 49.9808 331.279 49.8835 331.707 49.9015C333.169 49.9338 334.186 50.904 334.186 53.0708Z" fill="white"/>
<path d="M335.793 47.8208C335.809 47.5482 335.912 47.293 336.08 47.1069C336.249 46.9208 336.471 46.8176 336.701 46.8183C336.815 46.808 336.929 46.8253 337.037 46.869C337.145 46.9128 337.245 46.9821 337.33 47.0728C337.415 47.1635 337.483 47.2737 337.531 47.3967C337.579 47.5197 337.606 47.653 337.609 47.7885C337.609 48.0744 337.513 48.3486 337.343 48.5508C337.173 48.7529 336.942 48.8665 336.701 48.8665C336.46 48.8665 336.229 48.7529 336.059 48.5508C335.889 48.3486 335.793 48.0744 335.793 47.7885V47.8208ZM335.993 49.9768H337.4V57.1348H335.956L335.993 49.9768Z" fill="white"/>
<path d="M345.089 50.0094V57.135H343.745V56.2295C343.504 56.5561 343.204 56.8153 342.868 56.9886C342.532 57.1619 342.168 57.245 341.802 57.232C341.447 57.2723 341.088 57.2173 340.752 57.0709C340.417 56.9246 340.113 56.6907 339.864 56.3866C339.615 56.0824 339.426 55.7157 339.312 55.3135C339.198 54.9113 339.162 54.4838 339.205 54.0627V49.9771H340.613V53.901C340.613 55.2053 341.14 55.8198 342.029 55.8198C342.263 55.8322 342.496 55.7832 342.712 55.6762C342.928 55.5693 343.122 55.407 343.279 55.2011C343.436 54.9951 343.552 54.7505 343.62 54.4848C343.689 54.219 343.706 53.9387 343.673 53.6638V50.0417L345.089 50.0094Z" fill="white"/>
<path d="M357.02 53.0708V57.1349H355.613V53.2433C355.613 51.9712 355.113 51.3568 354.26 51.3568C353.406 51.3568 352.689 52.079 352.689 53.5128V57.1349H351.273V53.2433C351.273 51.9712 350.782 51.3568 349.92 51.3568C349.057 51.3568 348.349 52.079 348.349 53.5128V57.1349H346.941V49.9769H348.285V50.8932C348.532 50.5634 348.838 50.3033 349.181 50.1317C349.523 49.9601 349.893 49.8815 350.265 49.9015C350.66 49.87 351.056 49.9631 351.411 50.1713C351.767 50.3796 352.07 50.6955 352.29 51.0873C352.566 50.6997 352.914 50.3916 353.305 50.1862C353.697 49.9808 354.123 49.8835 354.55 49.9015C356.012 49.9338 357.02 50.904 357.02 53.0708Z" fill="white"/>
<path d="M348.194 206.643H311.892C306.957 206.643 302.957 211.392 302.957 217.25V218.059C302.957 223.917 306.957 228.666 311.892 228.666H348.194C353.128 228.666 357.128 223.917 357.128 218.059V217.25C357.128 211.392 353.128 206.643 348.194 206.643Z" fill="#407BFF"/>
<path d="M315.979 219.341C315.979 221.346 314.626 222.683 312.51 222.888L312.229 224.548H310.957L311.239 222.888C310.199 222.812 309.194 222.415 308.324 221.735L309.169 219.87C309.875 220.47 310.701 220.842 311.566 220.948L312.002 218.404C310.821 217.983 309.523 217.423 309.523 215.601C309.523 213.596 310.912 212.237 313.064 212.065L313.345 210.405H314.617L314.335 212.076C315.158 212.153 315.955 212.447 316.669 212.938L315.897 214.803C315.329 214.366 314.682 214.096 314.008 214.016L313.563 216.668C314.735 217.067 315.979 217.606 315.979 219.341ZM312.347 216.237L312.71 214.081C311.993 214.242 311.584 214.706 311.575 215.288C311.566 215.87 311.911 216.01 312.347 216.237ZM313.918 219.729C313.918 219.298 313.627 219.018 313.182 218.824L312.837 220.894C313.545 220.721 313.936 220.301 313.936 219.729H313.918Z" fill="white"/>
<path d="M351.547 161.583H306.664V163.739H351.547V161.583Z" fill="#407BFF"/>
<path d="M351.547 126.181H306.664V128.337H351.547V126.181Z" fill="#407BFF"/>
<path d="M351.547 92.062H306.664V94.218H351.547V92.062Z" fill="#407BFF"/>
<path d="M334.268 116.663C337.318 113.042 337.318 107.172 334.268 103.552C331.219 99.9315 326.274 99.9315 323.225 103.552C320.175 107.172 320.175 113.042 323.225 116.663C326.274 120.283 331.219 120.283 334.268 116.663Z" fill="#407BFF"/>
<path d="M334.333 108.102L329.847 113.439L327.75 115.929L325.652 113.439L327.75 110.948L332.235 105.612L334.333 108.102Z" fill="white"/>
<path d="M329.847 113.439L327.75 115.929L323.301 110.647L325.398 108.157L327.75 110.949L329.847 113.439Z" fill="white"/>
<path d="M328.746 153.584C333.059 153.584 336.555 149.433 336.555 144.313C336.555 139.193 333.059 135.042 328.746 135.042C324.434 135.042 320.938 139.193 320.938 144.313C320.938 149.433 324.434 153.584 328.746 153.584Z" fill="#407BFF"/>
<path d="M334.333 142.308L329.847 147.644L327.75 150.134L325.652 147.644L327.75 145.153L332.235 139.817L334.333 142.308Z" fill="white"/>
<path d="M329.847 147.644L327.75 150.134L323.301 144.852L325.398 142.362L327.75 145.154L329.847 147.644Z" fill="white"/>
<path d="M328.746 190.268C333.059 190.268 336.555 186.117 336.555 180.997C336.555 175.877 333.059 171.727 328.746 171.727C324.434 171.727 320.938 175.877 320.938 180.997C320.938 186.117 324.434 190.268 328.746 190.268Z" fill="#407BFF"/>
<path d="M334.333 178.992L329.847 184.328L327.75 186.818L325.652 184.328L327.75 181.838L332.235 176.502L334.333 178.992Z" fill="white"/>
<path d="M329.847 184.328L327.75 186.818L323.301 181.536L325.398 179.046L327.75 181.838L329.847 184.328Z" fill="white"/>
<path d="M318.512 65.9961L319.973 68.7666L322.643 69.5535L320.872 72.0652L321.063 75.3316L318.512 74.1027L315.951 75.3316L316.142 72.0652L314.371 69.5535L317.05 68.7666L318.512 65.9961Z" fill="white"/>
<path d="M328.745 65.9961L330.207 68.7666L332.885 69.5535L331.115 72.0652L331.305 75.3316L328.745 74.1027L326.193 75.3316L326.384 72.0652L324.613 69.5535L327.283 68.7666L328.745 65.9961Z" fill="white"/>
<path d="M338.988 65.9961L340.441 68.7666L343.12 69.5535L341.349 72.0652L341.54 75.3316L338.988 74.1027L336.428 75.3316L336.618 72.0652L334.848 69.5535L337.526 68.7666L338.988 65.9961Z" fill="white"/>
<path d="M254.444 16.5269H201.326C191.984 16.5269 184.41 25.5184 184.41 36.61V207.775C184.41 218.866 191.984 227.858 201.326 227.858H254.444C263.787 227.858 271.36 218.866 271.36 207.775V36.61C271.36 25.5184 263.787 16.5269 254.444 16.5269Z" fill="#407BFF"/>
<path opacity="0.5" d="M253.881 16.5269H201.889C197.253 16.5269 192.808 18.7132 189.53 22.6048C186.252 26.4965 184.41 31.7747 184.41 37.2784V207.106C184.41 209.833 184.863 212.532 185.742 215.05C186.62 217.569 187.909 219.857 189.533 221.784C191.157 223.711 193.085 225.239 195.207 226.281C197.328 227.324 199.602 227.859 201.898 227.858H253.881C256.177 227.859 258.451 227.324 260.573 226.281C262.695 225.239 264.623 223.711 266.247 221.784C267.871 219.857 269.159 217.569 270.038 215.05C270.917 212.532 271.369 209.833 271.369 207.106V37.2784C271.369 34.5523 270.917 31.853 270.038 29.3346C269.159 26.8162 267.871 24.5281 266.247 22.601C264.623 20.6739 262.695 19.1456 260.573 18.1034C258.451 17.0612 256.177 16.5254 253.881 16.5269Z" fill="white"/>
<path d="M271.369 26.9509V68.8636H184.41V26.9509C184.41 24.2005 185.33 21.5628 186.969 19.618C188.607 17.6732 190.828 16.5806 193.145 16.5806H262.625C264.943 16.5806 267.165 17.6728 268.805 19.6173C270.445 21.5618 271.367 24.1995 271.369 26.9509Z" fill="#407BFF"/>
<path d="M202.348 44.1991L202.856 42.8516C203.603 43.5372 204.518 43.9156 205.462 43.9296C206.688 43.9296 207.215 43.4121 207.215 42.7114C207.215 40.6956 202.511 42.0215 202.511 38.5288C202.511 37.0196 203.528 35.726 205.698 35.726C206.623 35.7132 207.534 36.0002 208.331 36.5561L207.868 37.9143C207.208 37.4486 206.457 37.1959 205.689 37.1813C204.463 37.1813 203.973 37.7419 203.973 38.4533C203.973 40.4476 208.658 39.1433 208.658 42.5929C208.658 44.0913 207.632 45.3849 205.462 45.3849C204.342 45.4076 203.247 44.9908 202.348 44.1991Z" fill="white"/>
<path d="M213.603 44.7485C213.205 45.0814 212.727 45.2516 212.241 45.2336C211.962 45.2852 211.677 45.2588 211.408 45.1565C211.139 45.0542 210.894 44.8789 210.692 44.6445C210.49 44.4101 210.337 44.1231 210.245 43.8061C210.153 43.4892 210.124 43.1512 210.162 42.8189V39.3801H209.172V38.0326H210.162V36.394H211.56V38.0326H213.176V39.3801H211.56V42.7758C211.56 43.4765 211.85 43.8538 212.395 43.8538C212.678 43.86 212.955 43.758 213.185 43.5627L213.603 44.7485Z" fill="white"/>
<path d="M219.812 40.9651V45.1586H218.478V44.2854C218.256 44.6247 217.966 44.8917 217.634 45.0614C217.302 45.2311 216.94 45.2979 216.58 45.2556C215.2 45.2556 214.328 44.3608 214.328 43.0996C214.328 41.8383 215.009 40.9436 216.834 40.9436H218.396V40.8358C218.396 39.8656 217.897 39.2835 216.898 39.2835C216.243 39.2788 215.605 39.5287 215.082 39.9949L214.51 38.8091C215.258 38.1961 216.153 37.886 217.061 37.9252C218.823 37.9036 219.812 38.8846 219.812 40.9651ZM218.396 42.9271V42.0431H216.943C215.981 42.0431 215.717 42.4635 215.717 42.9918C215.717 43.52 216.153 43.9835 216.871 43.9835C217.187 44.0121 217.504 43.9239 217.777 43.7309C218.05 43.538 218.266 43.2498 218.396 42.9055V42.9271Z" fill="white"/>
<path d="M227.559 41.0403V45.1367H226.143V41.2559C226.143 39.9838 225.616 39.3586 224.708 39.3586C224.472 39.3435 224.237 39.3903 224.018 39.4956C223.799 39.601 223.602 39.7624 223.442 39.9682C223.282 40.1741 223.161 40.4194 223.09 40.6866C223.018 40.9539 222.997 41.2366 223.028 41.5146V45.1259H221.621V37.9787H222.965V38.9058C223.226 38.5668 223.547 38.301 223.905 38.1276C224.263 37.9542 224.649 37.8775 225.035 37.9033C225.384 37.8714 225.734 37.9319 226.061 38.0804C226.387 38.2288 226.682 38.4616 226.923 38.7617C227.165 39.0619 227.347 39.422 227.457 39.8161C227.567 40.2101 227.602 40.6282 227.559 41.0403Z" fill="white"/>
<path d="M235.313 35.1978V45.137H233.96V44.1991C233.713 44.5364 233.405 44.8028 233.059 44.9783C232.713 45.1538 232.338 45.2339 231.962 45.2125C231.143 45.2125 230.358 44.8263 229.779 44.1389C229.2 43.4516 228.875 42.5193 228.875 41.5473C228.875 40.5752 229.2 39.6429 229.779 38.9556C230.358 38.2682 231.143 37.8821 231.962 37.8821C232.326 37.8622 232.688 37.9379 233.024 38.1038C233.36 38.2696 233.661 38.5215 233.905 38.8415V35.1763L235.313 35.1978ZM233.923 41.558C233.909 41.1357 233.791 40.7277 233.583 40.3846C233.375 40.0416 233.086 39.7787 232.754 39.6287C232.421 39.4786 232.058 39.4481 231.711 39.5407C231.363 39.6334 231.047 39.8453 230.8 40.1499C230.553 40.4546 230.387 40.8387 230.323 41.2544C230.258 41.6701 230.298 42.0991 230.438 42.488C230.577 42.877 230.81 43.2088 231.107 43.4421C231.403 43.6754 231.751 43.7999 232.107 43.8003C232.354 43.8101 232.6 43.7582 232.829 43.6478C233.058 43.5374 233.265 43.3711 233.436 43.1596C233.608 42.9482 233.74 42.6963 233.823 42.4204C233.907 42.1444 233.941 41.8506 233.923 41.558Z" fill="white"/>
<path d="M242.214 40.9651V45.1586H240.879V44.2854C240.659 44.6262 240.369 44.8944 240.036 45.0642C239.704 45.2341 239.341 45.3 238.981 45.2556C237.61 45.2556 236.738 44.3608 236.738 43.0996C236.738 41.8383 237.41 40.9436 239.244 40.9436H240.806V40.8358C240.806 39.8656 240.307 39.2835 239.299 39.2835C238.644 39.2764 238.005 39.5265 237.483 39.9949L236.92 38.8091C237.668 38.1961 238.563 37.886 239.471 37.9252C241.206 37.9036 242.214 38.8846 242.214 40.9651ZM240.806 42.9271V42.0431H239.344C238.382 42.0431 238.128 42.4635 238.128 42.9918C238.128 43.52 238.554 43.9835 239.281 43.9835C239.597 44.0121 239.914 43.9239 240.187 43.7309C240.46 43.538 240.676 43.2498 240.806 42.9055V42.9271Z" fill="white"/>
<path d="M247.506 37.9034V39.4989C247.398 39.4842 247.288 39.4842 247.179 39.4989C246.935 39.4769 246.69 39.5201 246.461 39.6253C246.232 39.7305 246.027 39.8951 245.859 40.107C245.691 40.3189 245.565 40.5727 245.49 40.8498C245.415 41.127 245.394 41.4204 245.427 41.7088V45.1799H244.02V37.9789H245.363V39.0569C245.606 38.6613 245.931 38.3472 246.307 38.1451C246.682 37.943 247.096 37.8597 247.506 37.9034Z" fill="white"/>
<path d="M254.555 35.1978V45.137H253.202V44.1991C252.955 44.5364 252.647 44.8028 252.301 44.9783C251.955 45.1538 251.58 45.2339 251.204 45.2125C250.386 45.2125 249.6 44.8263 249.021 44.1389C248.442 43.4516 248.117 42.5193 248.117 41.5473C248.117 40.5752 248.442 39.6429 249.021 38.9556C249.6 38.2682 250.386 37.8821 251.204 37.8821C251.568 37.8614 251.931 37.9368 252.267 38.1027C252.603 38.2686 252.904 38.5209 253.147 38.8415V35.1763L254.555 35.1978ZM253.166 41.558C253.151 41.1357 253.033 40.7277 252.825 40.3846C252.617 40.0416 252.329 39.7787 251.996 39.6287C251.663 39.4786 251.3 39.4481 250.953 39.5407C250.606 39.6334 250.289 39.8453 250.042 40.1499C249.795 40.4546 249.629 40.8387 249.565 41.2544C249.501 41.6701 249.541 42.0991 249.68 42.488C249.819 42.877 250.052 43.2088 250.349 43.4421C250.646 43.6754 250.994 43.7999 251.35 43.8003C251.597 43.8118 251.844 43.7611 252.073 43.6513C252.303 43.5415 252.51 43.3752 252.682 43.1634C252.853 42.9515 252.985 42.699 253.069 42.4222C253.152 42.1455 253.185 41.851 253.166 41.558Z" fill="white"/>
<path d="M246.772 194.612H210.47C205.535 194.612 201.535 199.361 201.535 205.22V206.028C201.535 211.887 205.535 216.636 210.47 216.636H246.772C251.706 216.636 255.706 211.887 255.706 206.028V205.22C255.706 199.361 251.706 194.612 246.772 194.612Z" fill="#407BFF"/>
<path d="M250.132 149.552H205.25V151.708H250.132V149.552Z" fill="#407BFF"/>
<path d="M250.132 114.15H205.25V116.306H250.132V114.15Z" fill="#407BFF"/>
<path d="M250.132 80.0317H205.25V82.1877H250.132V80.0317Z" fill="#407BFF"/>
<path d="M234.599 134.412C235.59 129.428 232.99 124.435 228.793 123.259C224.596 122.083 220.39 125.169 219.399 130.152C218.409 135.136 221.008 140.129 225.205 141.305C229.403 142.481 233.609 139.395 234.599 134.412Z" fill="#407BFF"/>
<path d="M232.6 130.288L228.105 135.613L226.008 138.104L223.91 135.613L226.008 133.134L230.502 127.798L232.6 130.288Z" fill="white"/>
<path d="M228.104 135.613L226.007 138.103L221.566 132.821L223.655 130.342L226.007 133.134L228.104 135.613Z" fill="white"/>
<path d="M230.675 177.533C234.66 175.573 236.552 170.15 234.901 165.42C233.251 160.689 228.683 158.443 224.699 160.402C220.714 162.362 218.822 167.785 220.473 172.515C222.123 177.246 226.691 179.492 230.675 177.533Z" fill="#407BFF"/>
<path d="M233.279 166.961L228.785 172.297L226.687 174.788L224.59 172.297L226.687 169.807L231.182 164.471L233.279 166.961Z" fill="white"/>
<path d="M228.788 172.298L226.69 174.788L222.25 169.506L224.338 167.016L226.69 169.808L228.788 172.298Z" fill="white"/>
<path d="M227.004 107.348C231.272 107.348 234.731 103.241 234.731 98.1743C234.731 93.1077 231.272 89.0005 227.004 89.0005C222.737 89.0005 219.277 93.1077 219.277 98.1743C219.277 103.241 222.737 107.348 227.004 107.348Z" fill="#263238"/>
<path opacity="0.5" d="M227.004 107.348C231.272 107.348 234.731 103.241 234.731 98.1743C234.731 93.1077 231.272 89.0005 227.004 89.0005C222.737 89.0005 219.277 93.1077 219.277 98.1743C219.277 103.241 222.737 107.348 227.004 107.348Z" fill="white"/>
<path d="M229.295 92.987L222.637 100.892L224.711 103.354L231.369 95.4491L229.295 92.987Z" fill="white"/>
<path d="M222.643 95.4523L229.301 103.357L231.375 100.895L224.717 92.9902L222.643 95.4523Z" fill="white"/>
<path d="M262.68 28.126V52.7259L267.056 47.5408V28.126H262.68Z" fill="#407BFF"/>
<path d="M271.426 28.126V52.7259L267.059 47.5408V28.126H271.426Z" fill="#407BFF"/>
<g opacity="0.3">
<path d="M271.433 28.1152V52.7367L267.056 47.53L262.68 52.7367V28.1152H271.433Z" fill="black"/>
</g>
<path d="M269.192 3.52602C269.49 4.20109 269.999 4.71087 270.61 4.94652C271.221 5.18218 271.885 5.12503 272.461 4.78728C272.866 4.55272 273.316 4.45352 273.765 4.50033C274.214 4.54714 274.643 4.7382 275.007 5.05297C275.371 5.36774 275.656 5.79433 275.832 6.28692C276.007 6.77951 276.066 7.31947 276.002 7.8488C275.917 8.60362 276.08 9.36839 276.457 9.98455C276.834 10.6007 277.396 11.021 278.027 11.1583C278.471 11.2482 278.885 11.4805 279.226 11.8301C279.567 12.1796 279.821 12.6331 279.96 13.1415C280.099 13.6499 280.119 14.1938 280.017 14.7145C279.914 15.2351 279.694 15.7127 279.38 16.0955C278.934 16.644 278.685 17.3763 278.685 18.1383C278.685 18.9003 278.934 19.6326 279.38 20.1811C279.693 20.5651 279.913 21.0434 280.015 21.5645C280.117 22.0857 280.097 22.6299 279.958 23.1387C279.819 23.6476 279.566 24.1018 279.225 24.4525C278.885 24.8032 278.471 25.0371 278.027 25.1291C277.4 25.2712 276.843 25.694 276.471 26.31C276.099 26.926 275.941 27.688 276.029 28.4386C276.091 28.9671 276.031 29.5056 275.855 29.9966C275.679 30.4875 275.394 30.9124 275.03 31.2258C274.666 31.5391 274.237 31.7292 273.79 31.7756C273.342 31.8221 272.892 31.7231 272.488 31.4893C271.912 31.1572 271.249 31.103 270.64 31.3382C270.03 31.5733 269.521 32.0795 269.219 32.7506C269.008 33.2219 268.693 33.6161 268.307 33.8909C267.922 34.1658 267.481 34.311 267.031 34.311C266.581 34.311 266.14 34.1658 265.755 33.8909C265.369 33.6161 265.054 33.2219 264.843 32.7506C264.537 32.0613 264.015 31.5426 263.39 31.3066C262.764 31.0705 262.086 31.1362 261.501 31.4893C261.097 31.7231 260.647 31.8221 260.2 31.7756C259.752 31.7292 259.323 31.5391 258.959 31.2258C258.596 30.9124 258.311 30.4875 258.134 29.9966C257.958 29.5056 257.898 28.9671 257.96 28.4386C258.05 27.6829 257.889 26.9154 257.511 26.298C257.133 25.6805 256.568 25.2614 255.935 25.1291C255.491 25.0371 255.077 24.8032 254.737 24.4525C254.396 24.1018 254.143 23.6476 254.004 23.1387C253.865 22.6299 253.845 22.0857 253.947 21.5645C254.049 21.0434 254.269 20.5651 254.582 20.1811C255.028 19.6326 255.277 18.9003 255.277 18.1383C255.277 17.3763 255.028 16.644 254.582 16.0955C254.271 15.7112 254.054 15.2338 253.953 14.7141C253.853 14.1945 253.873 13.6523 254.012 13.1453C254.151 12.6383 254.403 12.1857 254.742 11.8357C255.081 11.4857 255.493 11.2516 255.935 11.1583C256.567 11.0235 257.131 10.6038 257.508 9.98699C257.886 9.37019 258.047 8.60405 257.96 7.8488C257.896 7.31947 257.955 6.77951 258.13 6.28692C258.306 5.79433 258.591 5.36774 258.955 5.05297C259.319 4.7382 259.748 4.54714 260.197 4.50033C260.646 4.45352 261.096 4.55272 261.501 4.78728C262.079 5.12274 262.743 5.17871 263.355 4.94339C263.967 4.70806 264.477 4.19986 264.779 3.52602C264.987 3.0438 265.303 2.63908 265.692 2.35647C266.082 2.07386 266.529 1.92432 266.986 1.92432C267.442 1.92432 267.889 2.07386 268.279 2.35647C268.668 2.63908 268.984 3.0438 269.192 3.52602Z" fill="#407BFF"/>
<path d="M269.192 3.52602C269.49 4.20109 269.999 4.71087 270.61 4.94652C271.221 5.18218 271.885 5.12503 272.461 4.78728C272.866 4.55272 273.316 4.45352 273.765 4.50033C274.214 4.54714 274.643 4.7382 275.007 5.05297C275.371 5.36774 275.656 5.79433 275.832 6.28692C276.007 6.77951 276.066 7.31947 276.002 7.8488C275.917 8.60362 276.08 9.36839 276.457 9.98455C276.834 10.6007 277.396 11.021 278.027 11.1583C278.471 11.2482 278.885 11.4805 279.226 11.8301C279.567 12.1796 279.821 12.6331 279.96 13.1415C280.099 13.6499 280.119 14.1938 280.017 14.7145C279.914 15.2351 279.694 15.7127 279.38 16.0955C278.934 16.644 278.685 17.3763 278.685 18.1383C278.685 18.9003 278.934 19.6326 279.38 20.1811C279.693 20.5651 279.913 21.0434 280.015 21.5645C280.117 22.0857 280.097 22.6299 279.958 23.1387C279.819 23.6476 279.566 24.1018 279.225 24.4525C278.885 24.8032 278.471 25.0371 278.027 25.1291C277.4 25.2712 276.843 25.694 276.471 26.31C276.099 26.926 275.941 27.688 276.029 28.4386C276.091 28.9671 276.031 29.5056 275.855 29.9966C275.679 30.4875 275.394 30.9124 275.03 31.2258C274.666 31.5391 274.237 31.7292 273.79 31.7756C273.342 31.8221 272.892 31.7231 272.488 31.4893C271.912 31.1572 271.249 31.103 270.64 31.3382C270.03 31.5733 269.521 32.0795 269.219 32.7506C269.008 33.2219 268.693 33.6161 268.307 33.8909C267.922 34.1658 267.481 34.311 267.031 34.311C266.581 34.311 266.14 34.1658 265.755 33.8909C265.369 33.6161 265.054 33.2219 264.843 32.7506C264.537 32.0613 264.015 31.5426 263.39 31.3066C262.764 31.0705 262.086 31.1362 261.501 31.4893C261.097 31.7231 260.647 31.8221 260.2 31.7756C259.752 31.7292 259.323 31.5391 258.959 31.2258C258.596 30.9124 258.311 30.4875 258.134 29.9966C257.958 29.5056 257.898 28.9671 257.96 28.4386C258.05 27.6829 257.889 26.9154 257.511 26.298C257.133 25.6805 256.568 25.2614 255.935 25.1291C255.491 25.0371 255.077 24.8032 254.737 24.4525C254.396 24.1018 254.143 23.6476 254.004 23.1387C253.865 22.6299 253.845 22.0857 253.947 21.5645C254.049 21.0434 254.269 20.5651 254.582 20.1811C255.028 19.6326 255.277 18.9003 255.277 18.1383C255.277 17.3763 255.028 16.644 254.582 16.0955C254.271 15.7112 254.054 15.2338 253.953 14.7141C253.853 14.1945 253.873 13.6523 254.012 13.1453C254.151 12.6383 254.403 12.1857 254.742 11.8357C255.081 11.4857 255.493 11.2516 255.935 11.1583C256.567 11.0235 257.131 10.6038 257.508 9.98699C257.886 9.37019 258.047 8.60405 257.96 7.8488C257.896 7.31947 257.955 6.77951 258.13 6.28692C258.306 5.79433 258.591 5.36774 258.955 5.05297C259.319 4.7382 259.748 4.54714 260.197 4.50033C260.646 4.45352 261.096 4.55272 261.501 4.78728C262.079 5.12274 262.743 5.17871 263.355 4.94339C263.967 4.70806 264.477 4.19986 264.779 3.52602C264.987 3.0438 265.303 2.63908 265.692 2.35647C266.082 2.07386 266.529 1.92432 266.986 1.92432C267.442 1.92432 267.889 2.07386 268.279 2.35647C268.668 2.63908 268.984 3.0438 269.192 3.52602Z" fill="#407BFF"/>
<g opacity="0.5">
<path d="M269.192 3.52602C269.49 4.20109 269.999 4.71087 270.61 4.94652C271.221 5.18218 271.885 5.12503 272.461 4.78728C272.866 4.55272 273.316 4.45352 273.765 4.50033C274.214 4.54714 274.643 4.7382 275.007 5.05297C275.371 5.36774 275.656 5.79433 275.832 6.28692C276.007 6.77951 276.066 7.31947 276.002 7.8488C275.917 8.60362 276.08 9.36839 276.457 9.98455C276.834 10.6007 277.396 11.021 278.027 11.1583C278.471 11.2482 278.885 11.4805 279.226 11.8301C279.567 12.1796 279.821 12.6331 279.96 13.1415C280.099 13.6499 280.119 14.1938 280.017 14.7145C279.914 15.2351 279.694 15.7127 279.38 16.0955C278.934 16.644 278.685 17.3763 278.685 18.1383C278.685 18.9003 278.934 19.6326 279.38 20.1811C279.693 20.5651 279.913 21.0434 280.015 21.5645C280.117 22.0857 280.097 22.6299 279.958 23.1387C279.819 23.6476 279.566 24.1018 279.225 24.4525C278.885 24.8032 278.471 25.0371 278.027 25.1291C277.4 25.2712 276.843 25.694 276.471 26.31C276.099 26.926 275.941 27.688 276.029 28.4386C276.091 28.9671 276.031 29.5056 275.855 29.9966C275.679 30.4875 275.394 30.9124 275.03 31.2258C274.666 31.5391 274.237 31.7292 273.79 31.7756C273.342 31.8221 272.892 31.7231 272.488 31.4893C271.912 31.1572 271.249 31.103 270.64 31.3382C270.03 31.5733 269.521 32.0795 269.219 32.7506C269.008 33.2219 268.693 33.6161 268.307 33.8909C267.922 34.1658 267.481 34.311 267.031 34.311C266.581 34.311 266.14 34.1658 265.755 33.8909C265.369 33.6161 265.054 33.2219 264.843 32.7506C264.537 32.0613 264.015 31.5426 263.39 31.3066C262.764 31.0705 262.086 31.1362 261.501 31.4893C261.097 31.7231 260.647 31.8221 260.2 31.7756C259.752 31.7292 259.323 31.5391 258.959 31.2258C258.596 30.9124 258.311 30.4875 258.134 29.9966C257.958 29.5056 257.898 28.9671 257.96 28.4386C258.05 27.6829 257.889 26.9154 257.511 26.298C257.133 25.6805 256.568 25.2614 255.935 25.1291C255.491 25.0371 255.077 24.8032 254.737 24.4525C254.396 24.1018 254.143 23.6476 254.004 23.1387C253.865 22.6299 253.845 22.0857 253.947 21.5645C254.049 21.0434 254.269 20.5651 254.582 20.1811C255.028 19.6326 255.277 18.9003 255.277 18.1383C255.277 17.3763 255.028 16.644 254.582 16.0955C254.271 15.7112 254.054 15.2338 253.953 14.7141C253.853 14.1945 253.873 13.6523 254.012 13.1453C254.151 12.6383 254.403 12.1857 254.742 11.8357C255.081 11.4857 255.493 11.2516 255.935 11.1583C256.567 11.0235 257.131 10.6038 257.508 9.98699C257.886 9.37019 258.047 8.60405 257.96 7.8488C257.896 7.31947 257.955 6.77951 258.13 6.28692C258.306 5.79433 258.591 5.36774 258.955 5.05297C259.319 4.7382 259.748 4.54714 260.197 4.50033C260.646 4.45352 261.096 4.55272 261.501 4.78728C262.079 5.12274 262.743 5.17871 263.355 4.94339C263.967 4.70806 264.477 4.19986 264.779 3.52602C264.987 3.0438 265.303 2.63908 265.692 2.35647C266.082 2.07386 266.529 1.92432 266.986 1.92432C267.442 1.92432 267.889 2.07386 268.279 2.35647C268.668 2.63908 268.984 3.0438 269.192 3.52602Z" fill="white"/>
</g>
<path d="M263.068 15.0928H261.942C261.692 15.0937 261.451 15.2042 261.265 15.4031C261.079 15.602 260.961 15.8753 260.934 16.1708L260.662 22.3369C260.654 22.4838 260.672 22.631 260.715 22.7694C260.757 22.9077 260.823 23.0343 260.908 23.1414C260.993 23.2484 261.095 23.3337 261.209 23.3918C261.323 23.45 261.446 23.4799 261.57 23.4796H262.696C262.954 23.4748 263.201 23.3544 263.388 23.1426C263.575 22.9308 263.688 22.6431 263.704 22.3369L263.976 16.1708C263.976 15.8849 263.88 15.6107 263.71 15.4085C263.54 15.2063 263.309 15.0928 263.068 15.0928Z" fill="white"/>
<path d="M272.054 15.0931H269.412L270.147 13.0341C270.23 12.8185 270.262 12.5797 270.238 12.3441L270.083 10.7271C270.054 10.4136 269.929 10.1238 269.731 9.91298C269.534 9.70219 269.278 9.58524 269.012 9.58447H267.695C267.614 11.1999 267.116 12.7467 266.27 14.0151L265.462 15.2224C265.255 15.531 265.131 15.9068 265.108 16.3004L264.853 22.0569C264.845 22.2387 264.867 22.4207 264.92 22.5917C264.973 22.7627 265.054 22.9191 265.16 23.0513C265.265 23.1835 265.392 23.2888 265.533 23.3606C265.674 23.4325 265.826 23.4694 265.979 23.4691H270.583C270.787 23.4665 270.989 23.4134 271.175 23.3131C271.361 23.2129 271.527 23.0678 271.663 22.887L272.09 22.3264C272.239 22.1015 272.345 21.8401 272.399 21.5611L273.307 16.9149C273.347 16.7017 273.348 16.4809 273.31 16.2672C273.272 16.0535 273.197 15.8517 273.089 15.6752C272.966 15.4894 272.809 15.3401 272.629 15.239C272.45 15.138 272.253 15.088 272.054 15.0931Z" fill="white"/>
<path d="M227.006 52.7261L228.468 55.5073L231.147 56.2943L229.376 58.806L229.567 62.0616L227.006 60.8434L224.455 62.0616L224.646 58.806L222.875 56.2943L225.554 55.5073L227.006 52.7261Z" fill="white"/>
<path d="M214.846 207.343C214.846 209.348 213.493 210.685 211.377 210.901L211.096 212.55H209.825L210.106 210.901C209.066 210.817 208.062 210.416 207.191 209.737L208.036 207.872C208.742 208.472 209.569 208.843 210.433 208.95L210.869 206.405C209.688 205.985 208.39 205.425 208.39 203.603C208.39 201.598 209.779 200.25 211.931 200.067L212.213 198.407H213.484L213.202 200.078C214.025 200.155 214.822 200.449 215.536 200.94L214.764 202.805C214.193 202.369 213.542 202.103 212.866 202.029L212.431 204.67C213.593 205.069 214.846 205.608 214.846 207.343ZM211.214 204.239L211.577 202.083C210.86 202.244 210.451 202.719 210.442 203.29C210.433 203.861 210.769 204.012 211.223 204.239H211.214ZM212.785 207.731C212.785 207.3 212.494 207.031 212.049 206.837L211.704 208.896C212.403 208.734 212.794 208.303 212.794 207.731H212.785Z" fill="white"/>
<path d="M150.511 28.5571H97.3926C88.0501 28.5571 80.4766 37.5487 80.4766 48.6403V219.805C80.4766 230.897 88.0501 239.888 97.3926 239.888H150.511C159.853 239.888 167.427 230.897 167.427 219.805V48.6403C167.427 37.5487 159.853 28.5571 150.511 28.5571Z" fill="#263238"/>
<path opacity="0.7" d="M150.247 28.5571H97.6559C88.168 28.5571 80.4766 37.6886 80.4766 48.9529V219.492C80.4766 230.757 88.168 239.888 97.6559 239.888H150.247C159.735 239.888 167.427 230.757 167.427 219.492V48.9529C167.427 37.6886 159.735 28.5571 150.247 28.5571Z" fill="white"/>
<path d="M167.427 38.9275V80.8509H80.4766V38.9275C80.4766 36.1771 81.3969 33.5394 83.035 31.5945C84.6731 29.6497 86.8949 28.5571 89.2115 28.5571H158.692C161.008 28.5571 163.23 29.6497 164.868 31.5945C166.506 33.5394 167.427 36.1771 167.427 38.9275Z" fill="#407BFF"/>
<path d="M167.427 38.9275V80.8509H80.4766V38.9275C80.4766 36.1771 81.3969 33.5394 83.035 31.5945C84.6731 29.6497 86.8949 28.5571 89.2115 28.5571H158.692C161.008 28.5571 163.23 29.6497 164.868 31.5945C166.506 33.5394 167.427 36.1771 167.427 38.9275Z" fill="#407BFF"/>
<path d="M116.804 54.6231C116.804 56.2293 115.751 57.1672 113.717 57.1672H109.785V47.7886H113.499C115.397 47.7886 116.414 48.7372 116.414 50.2248C116.423 50.6467 116.333 51.0633 116.154 51.4274C115.974 51.7914 115.712 52.0881 115.397 52.2838C115.819 52.4288 116.187 52.7386 116.443 53.1631C116.698 53.5876 116.825 54.102 116.804 54.6231ZM111.256 49.1468V51.7448H113.326C114.343 51.7448 114.924 51.3244 114.924 50.462C114.924 49.5996 114.343 49.1576 113.326 49.1576L111.256 49.1468ZM115.324 54.4506C115.324 53.5128 114.734 53.0923 113.626 53.0923H111.256V55.7981H113.626C114.734 55.7981 115.315 55.3885 115.315 54.4506H115.324Z" fill="white"/>
<path d="M123.288 52.9737V57.1347H121.962V56.2616C121.739 56.5986 121.449 56.8639 121.117 57.0334C120.786 57.2028 120.424 57.271 120.064 57.2318C118.684 57.2318 117.812 56.337 117.812 55.0758C117.812 53.8145 118.493 52.9198 120.319 52.9198H121.88V52.812C121.88 51.831 121.381 51.2596 120.373 51.2596C119.719 51.255 119.081 51.5048 118.557 51.9711L118.003 50.753C118.751 50.1399 119.646 49.8299 120.555 49.869C122.289 49.9337 123.288 50.9039 123.288 52.9737ZM121.88 54.9787V54.1487H120.418C119.465 54.1487 119.202 54.5799 119.202 55.1081C119.202 55.6363 119.629 56.0999 120.355 56.0999C120.676 56.1266 120.996 56.0327 121.27 55.8315C121.544 55.6303 121.757 55.332 121.88 54.9787Z" fill="white"/>
<path d="M124.398 56.456L124.943 55.184C125.574 55.6455 126.3 55.8916 127.041 55.8955C127.949 55.8955 128.312 55.6044 128.312 55.1085C128.312 53.7395 124.58 55.0223 124.58 52.1656C124.58 50.8181 125.606 49.9341 127.24 49.9341C128.022 49.9166 128.796 50.1276 129.492 50.5486L128.957 51.8206C128.43 51.4573 127.831 51.2709 127.222 51.2816C126.369 51.2816 125.96 51.6158 125.96 52.0901C125.96 53.5346 129.683 52.2518 129.683 55.0546C129.683 56.3913 128.648 57.2645 126.959 57.2645C126.059 57.283 125.172 57.0031 124.398 56.456Z" fill="white"/>
<path d="M130.752 47.8212C130.752 47.5353 130.848 47.2611 131.018 47.0589C131.188 46.8567 131.419 46.7432 131.66 46.7432C131.901 46.7432 132.132 46.8567 132.302 47.0589C132.472 47.2611 132.568 47.5353 132.568 47.8212C132.568 48.1071 132.472 48.3813 132.302 48.5834C132.132 48.7856 131.901 48.8992 131.66 48.8992C131.539 48.9087 131.417 48.8873 131.303 48.8365C131.189 48.7857 131.086 48.7066 131 48.6046C130.914 48.5025 130.847 48.3798 130.805 48.2447C130.762 48.1096 130.744 47.9652 130.752 47.8212ZM130.943 49.9772H132.35V57.1351H130.943V49.9772Z" fill="white"/>
<path d="M133.676 53.5885C133.671 53.0875 133.754 52.5909 133.919 52.1298C134.084 51.6688 134.328 51.2534 134.635 50.9099C134.942 50.5665 135.306 50.3024 135.704 50.1345C136.101 49.9665 136.524 49.8983 136.945 49.9341C137.462 49.892 137.978 50.0258 138.433 50.3198C138.888 50.6139 139.263 51.056 139.514 51.5942L138.434 52.338C138.28 52.0304 138.06 51.7767 137.797 51.6025C137.534 51.4283 137.237 51.3399 136.936 51.3463C136.435 51.3463 135.954 51.5825 135.6 52.003C135.246 52.4235 135.047 52.9938 135.047 53.5885C135.047 54.1832 135.246 54.7535 135.6 55.174C135.954 55.5945 136.435 55.8307 136.936 55.8307C137.237 55.8371 137.534 55.7487 137.797 55.5745C138.06 55.4003 138.28 55.1465 138.434 54.839L139.514 55.5828C139.266 56.125 138.892 56.5715 138.437 56.8695C137.981 57.1675 137.464 57.3045 136.945 57.2645C136.523 57.2972 136.1 57.2261 135.702 57.0556C135.305 56.8851 134.941 56.619 134.634 56.2739C134.327 55.9288 134.084 55.5121 133.919 55.05C133.754 54.5879 133.671 54.0903 133.676 53.5885Z" fill="white"/>
<path d="M128.122 152.73C131.14 149.148 131.14 143.339 128.122 139.757C125.104 136.174 120.212 136.174 117.194 139.757C114.177 143.339 114.177 149.148 117.194 152.73C120.212 156.313 125.104 156.313 128.122 152.73Z" fill="#263238"/>
<path opacity="0.5" d="M128.122 152.73C131.14 149.148 131.14 143.339 128.122 139.757C125.104 136.174 120.212 136.174 117.194 139.757C114.177 143.339 114.177 149.148 117.194 152.73C120.212 156.313 125.104 156.313 128.122 152.73Z" fill="white"/>
<path d="M124.947 141.06L118.289 148.965L120.363 151.427L127.021 143.522L124.947 141.06Z" fill="white"/>
<path d="M118.287 143.532L124.945 151.437L127.019 148.974L120.361 141.07L118.287 143.532Z" fill="white"/>
<path d="M123.016 189.416C127.329 189.416 130.825 185.265 130.825 180.145C130.825 175.025 127.329 170.875 123.016 170.875C118.703 170.875 115.207 175.025 115.207 180.145C115.207 185.265 118.703 189.416 123.016 189.416Z" fill="#407BFF"/>
<path d="M128.608 178.141L124.113 183.477L122.015 185.967L119.918 183.477L122.015 180.986L126.51 175.65L128.608 178.141Z" fill="white"/>
<path d="M124.116 183.477L122.018 185.967L117.578 180.685L119.667 178.194L122.018 180.986L124.116 183.477Z" fill="white"/>
<path d="M142.1 206.643H105.798C100.863 206.643 96.8633 211.392 96.8633 217.25V218.059C96.8633 223.917 100.863 228.666 105.798 228.666H142.1C147.034 228.666 151.035 223.917 151.035 218.059V217.25C151.035 211.392 147.034 206.643 142.1 206.643Z" fill="#407BFF"/>
<path d="M108.605 219.74C108.605 221.745 107.252 223.082 105.127 223.287L104.855 224.947H103.584L103.865 223.287C102.823 223.209 101.816 222.812 100.941 222.133L101.795 220.269C102.502 220.869 103.328 221.24 104.192 221.347L104.619 218.802C103.447 218.382 102.149 217.821 102.149 216C102.149 213.995 103.529 212.636 105.69 212.464L105.972 210.804H107.234L106.961 212.475C107.784 212.551 108.581 212.846 109.295 213.337L108.514 215.202C107.947 214.763 107.299 214.493 106.625 214.415L106.181 217.067C107.352 217.466 108.605 218.005 108.605 219.74ZM104.973 216.636L105.336 214.48C104.61 214.641 104.21 215.105 104.192 215.687C104.174 216.269 104.519 216.409 104.982 216.679L104.973 216.636ZM106.544 220.128C106.544 219.697 106.253 219.417 105.808 219.223L105.463 221.293C106.153 221.12 106.553 220.7 106.553 220.128H106.544Z" fill="white"/>
<path d="M145.464 161.583H100.582V163.739H145.464V161.583Z" fill="#407BFF"/>
<path d="M145.464 126.181H100.582V128.337H145.464V126.181Z" fill="#407BFF"/>
<path d="M145.464 92.062H100.582V94.218H145.464V92.062Z" fill="#407BFF"/>
<path d="M128.13 116.687C131.148 113.104 131.148 107.295 128.13 103.713C125.112 100.13 120.22 100.13 117.202 103.713C114.185 107.295 114.185 113.104 117.202 116.687C120.22 120.269 125.112 120.269 128.13 116.687Z" fill="#263238"/>
<path opacity="0.5" d="M128.13 116.687C131.148 113.104 131.148 107.295 128.13 103.713C125.112 100.13 120.22 100.13 117.202 103.713C114.185 107.295 114.185 113.104 117.202 116.687C120.22 120.269 125.112 120.269 128.13 116.687Z" fill="white"/>
<path d="M124.951 105.016L118.293 112.921L120.367 115.383L127.025 107.478L124.951 105.016Z" fill="white"/>
<path d="M118.291 107.479L124.949 115.383L127.023 112.921L120.365 105.017L118.291 107.479Z" fill="white"/>
<path d="M236.16 381.743L243.125 383.252L248.391 367.998L240.782 364.387L236.16 381.743Z" fill="#FFC2BC"/>
<path opacity="0.1" d="M238.656 372.062L240.645 364.969L244.15 365.982L248.39 367.998L246.12 374.638L238.656 372.062Z" fill="black"/>
<path d="M234.798 378.875C234.798 378.875 234.525 378.584 234.171 378.25C233.817 377.916 233.599 377.732 233.263 377.452C232.614 376.868 231.847 376.497 231.039 376.374C230.787 376.38 230.544 376.486 230.349 376.676C230.235 376.774 230.151 376.913 230.11 377.073C230.069 377.232 230.073 377.403 230.122 377.56C230.683 378.261 231.43 378.714 232.237 378.843L232.882 379.004C233.483 379.133 234.089 379.223 234.698 379.274C234.734 379.274 234.769 379.262 234.8 379.239C234.831 379.216 234.855 379.183 234.87 379.144C234.89 379.097 234.893 379.043 234.88 378.992C234.866 378.942 234.837 378.9 234.798 378.875ZM233.345 378.659C232.037 378.401 230.621 377.916 230.467 377.366C230.467 377.29 230.412 377.15 230.612 376.935C230.668 376.874 230.734 376.827 230.806 376.798C230.878 376.768 230.954 376.756 231.03 376.762C231.155 376.764 231.28 376.782 231.402 376.816C232.243 377.202 233.028 377.744 233.726 378.422C233.863 378.541 233.99 378.67 234.117 378.8C233.872 378.767 233.608 378.713 233.354 378.659H233.345Z" fill="#407BFF"/>
<path d="M234.447 375.48C234.221 375.144 233.897 374.921 233.539 374.854C233.022 374.757 232.804 374.994 232.722 375.221C232.522 375.706 232.831 376.611 233.285 377.452C233.462 377.776 233.656 378.085 233.866 378.379C234.078 378.68 234.316 378.955 234.574 379.199C234.601 379.211 234.63 379.211 234.656 379.199C234.686 379.209 234.717 379.209 234.747 379.199C234.776 379.187 234.802 379.167 234.822 379.141C234.843 379.115 234.857 379.083 234.865 379.048C234.905 378.73 234.929 378.41 234.938 378.088C235.019 377.179 234.847 376.262 234.447 375.48ZM234.529 378.573C234.438 378.466 234.338 378.358 234.248 378.228C233.53 377.291 232.858 375.846 233.031 375.35C233.031 375.35 233.103 375.156 233.449 375.221H233.548C233.774 375.285 233.975 375.437 234.12 375.652C234.465 376.411 234.619 377.272 234.565 378.131C234.556 378.304 234.547 378.433 234.529 378.573Z" fill="#407BFF"/>
<path d="M235.715 378.271L244.132 380.665C244.281 380.7 244.415 380.795 244.511 380.935C244.607 381.075 244.659 381.25 244.658 381.43L244.404 389.386C244.383 389.737 244.247 390.063 244.024 390.295C243.801 390.528 243.511 390.646 243.215 390.625C243.133 390.637 243.051 390.637 242.97 390.625C239.946 389.709 237.295 388.76 233.508 387.693C229.05 386.432 230.049 387.337 224.791 385.936C221.623 385.084 221.968 380.977 223.357 381.16C229.713 382.055 230.793 380.212 233.726 378.476C234.35 378.14 235.052 378.068 235.715 378.271Z" fill="#263238"/>
<path d="M286.281 383.241H292.946L294.916 370.132L286.762 368.321L286.281 383.241Z" fill="#FFC2BC"/>
<path opacity="0.1" d="M286.765 368.321L294.918 370.132L293.593 378.961L286.492 378.616L286.765 368.321Z" fill="black"/>
<path d="M296.354 376.546L284.387 375.738L284.023 370.132L297.416 371.221L296.354 376.546Z" fill="#407BFF"/>
<path opacity="0.5" d="M296.354 376.546L284.387 375.738L284.023 370.132L297.416 371.221L296.354 376.546Z" fill="white"/>
<path d="M285.308 383.446C285.308 383.446 285 383.241 284.6 383.004C284.201 382.767 284.001 382.67 283.638 382.508C282.928 382.096 282.134 381.935 281.35 382.044C281.118 382.113 280.92 382.288 280.796 382.529C280.718 382.664 280.676 382.824 280.676 382.988C280.676 383.151 280.718 383.311 280.796 383.446C281.432 383.976 282.211 384.21 282.984 384.103H283.592C284.144 384.062 284.692 383.983 285.236 383.866C285.269 383.854 285.299 383.832 285.323 383.802C285.347 383.771 285.364 383.734 285.372 383.694C285.384 383.65 285.384 383.602 285.373 383.558C285.362 383.514 285.339 383.474 285.308 383.446ZM283.937 383.651C282.702 383.758 281.368 383.651 281.077 383.198C281.023 383.122 280.977 383.004 281.077 382.745C281.112 382.667 281.161 382.599 281.22 382.547C281.28 382.495 281.349 382.459 281.422 382.443C281.534 382.427 281.647 382.427 281.758 382.443C282.612 382.586 283.441 382.895 284.21 383.36C284.362 383.425 284.508 383.508 284.646 383.607L283.937 383.651Z" fill="#407BFF"/>
<path d="M285.42 383.64C285.394 383.317 285.351 382.997 285.293 382.68C285.159 381.756 284.796 380.9 284.249 380.222C284.116 380.088 283.961 379.988 283.793 379.929C283.626 379.87 283.45 379.852 283.277 379.878C282.778 379.931 282.633 380.222 282.614 380.47C282.533 381.009 283.023 381.818 283.64 382.508C283.855 382.766 284.085 383.004 284.331 383.219C284.585 383.458 284.862 383.661 285.157 383.823C285.18 383.834 285.206 383.834 285.229 383.823C285.259 383.834 285.291 383.834 285.32 383.823C285.35 383.807 285.375 383.781 285.392 383.748C285.41 383.716 285.42 383.678 285.42 383.64ZM282.941 380.535C282.941 380.481 282.941 380.33 283.295 380.287H283.386C283.613 380.282 283.833 380.378 284.004 380.557C284.472 381.209 284.785 381.998 284.912 382.842C284.939 382.977 284.957 383.114 284.966 383.252L284.639 382.993C283.813 382.249 282.905 381.031 282.941 380.535Z" fill="#407BFF"/>
<path d="M286.018 382.594L294.136 382.54C294.283 382.541 294.427 382.6 294.542 382.71C294.658 382.82 294.738 382.973 294.771 383.144L296.279 390.97C296.311 391.134 296.316 391.304 296.292 391.471C296.269 391.637 296.219 391.797 296.144 391.94C296.069 392.083 295.971 392.207 295.855 392.305C295.739 392.403 295.609 392.473 295.47 392.512H295.243C292.32 392.512 289.714 392.296 286.073 392.328C281.778 392.328 282.867 392.954 277.819 393.072C274.777 393.148 274.187 389.04 275.494 388.836C281.396 387.909 281.996 385.785 284.266 383.262C284.763 382.796 285.385 382.558 286.018 382.594Z" fill="#263238"/>
<path d="M271.251 189.578L239.816 364.214L251.402 367.869C260.065 345.36 267.329 322.323 272.74 304.267C275.31 295.718 276.373 287.676 278.307 280.141C280.649 271.183 283.8 262.947 285.398 255.422C293.797 216.032 293.125 196.305 293.125 196.305L294.941 191.109L271.251 189.578Z" fill="#263238"/>
<path opacity="0.3" d="M290.555 227.06C289.42 235.005 287.776 244.491 285.425 255.508C284.662 259.087 279.55 276.325 278.333 280.227C276.917 255.002 281.774 212.313 281.774 212.313L290.555 227.06Z" fill="black"/>
<path d="M280.91 190.473L283.28 286.415L285.359 370.499L296.255 371.394C299.297 350.815 301.531 332.155 303.129 315.338C304.182 304.353 302.402 296.322 302.965 286.911C303.065 285.348 303.165 283.742 303.283 282.103C305.211 255.157 305.342 228.072 303.674 201.102C303.356 195.96 303.138 192.478 303.138 192.478L280.883 189.104L280.91 190.473Z" fill="#263238"/>
<path d="M249.873 372.784L238.414 368.591L239.195 363.05L251.98 367.922L249.873 372.784Z" fill="#407BFF"/>
<path opacity="0.5" d="M249.873 372.784L238.414 368.591L239.195 363.05L251.98 367.922L249.873 372.784Z" fill="white"/>
<path d="M279.346 129.62C277.211 133.373 275.618 137.523 274.634 141.898C274.148 143.87 273.766 145.875 273.49 147.903L272.7 150.479L265.69 147.17L264.582 146.652C266.289 137.522 272.899 129.264 277.803 129.404C278.323 129.385 278.843 129.458 279.346 129.62Z" fill="#407BFF"/>
<path opacity="0.2" d="M279.346 129.62C277.211 133.373 275.618 137.523 274.634 141.898C274.148 143.87 273.766 145.875 273.49 147.903L272.7 150.479L265.69 147.17L264.582 146.652C266.289 137.522 272.899 129.264 277.803 129.404C278.323 129.385 278.843 129.458 279.346 129.62Z" fill="white"/>
<path d="M270.583 188.759C271.428 186.517 271.319 182.151 274.106 181.321C277.811 180.243 280.862 179.919 295.444 181.385C302.327 182.086 303.852 188.608 303.616 191.96C303.589 192.406 303.46 192.835 303.244 193.2L302.953 193.696C302.272 194.009 271.064 189.902 270.756 190.128C270.624 189.94 270.539 189.713 270.508 189.472C270.478 189.231 270.504 188.984 270.583 188.759Z" fill="#407BFF"/>
<path opacity="0.2" d="M270.583 188.759C271.428 186.517 271.319 182.151 274.106 181.321C277.811 180.243 280.862 179.919 295.444 181.385C302.327 182.086 303.852 188.608 303.616 191.96C303.589 192.406 303.46 192.835 303.244 193.2L302.953 193.696C302.272 194.009 271.064 189.902 270.756 190.128C270.624 189.94 270.539 189.713 270.508 189.472C270.478 189.231 270.504 188.984 270.583 188.759Z" fill="white"/>
<path d="M278.175 129.555C277.975 129.997 271.773 130.762 272.264 162.973C272.327 167.123 271.437 175.909 271.437 175.909L270.529 178.593C270.165 179.683 270.004 180.853 270.057 182.024C270.11 183.194 270.377 184.337 270.838 185.374L271.292 186.376L302.736 190.171H303.644C303.644 190.171 305.669 170.681 308.375 157.648C309.283 153.4 310.191 148.183 310.191 148.183C309.552 143.272 309.248 138.308 309.283 133.339C309.283 133.339 309.283 133.285 309.283 133.274C305.473 131.934 301.585 130.925 297.651 130.256C293.473 129.5 289.256 129.092 285.03 129.038C281.098 129.286 278.184 129.544 278.175 129.555Z" fill="#407BFF"/>
<path d="M297.616 113.407C296.491 118.161 295.083 126.925 297.707 130.418L295.719 132.886C294.926 133.851 293.926 134.542 292.827 134.884C291.729 135.226 290.573 135.207 289.483 134.828C288.392 134.449 287.41 133.725 286.64 132.733C285.87 131.742 285.343 130.52 285.113 129.199C289.717 128.337 288.745 122.85 289.581 117.557L297.616 113.407Z" fill="#FFC2BC"/>
<path opacity="0.2" d="M287.133 112.113C288.041 115.908 289.385 122.009 288.422 126.224C292.554 126.655 295.296 122.203 295.468 120.78C294.96 119.105 294.559 117.386 294.27 115.638L287.133 112.113Z" fill="black"/>
<path d="M298.835 105.979C298.336 114.064 298.281 117.492 294.804 121.589C289.574 127.766 281.32 125.276 279.767 117.191C278.369 109.903 279.413 97.9267 286.123 94.7898C287.596 94.0979 289.193 93.8634 290.764 94.1084C292.334 94.3534 293.826 95.0697 295.099 96.1898C296.371 97.3099 297.382 98.7966 298.036 100.51C298.69 102.223 298.965 104.105 298.835 105.979Z" fill="#FFC2BC"/>
<path d="M302.766 102.228C302.073 105.284 301.614 108.409 301.395 111.563H298.798C298.564 111.839 298.4 112.188 298.324 112.569C298.249 112.95 298.265 113.349 298.371 113.719C297.933 113.492 297.56 113.117 297.299 112.641C297.112 112.174 297.019 111.661 297.027 111.143C296.963 109.158 296.784 107.181 296.491 105.225C295.157 104.578 293.613 104.75 292.369 103.888C289.568 101.994 287.134 99.4234 285.223 96.342C284.19 96.9168 283.271 97.7454 282.528 98.773C281.784 99.8007 281.233 101.004 280.91 102.303C280.608 102.374 280.295 102.337 280.011 102.197C279.727 102.057 279.483 101.82 279.312 101.516C278.982 100.899 278.797 100.188 278.776 99.4574C278.595 97.5524 279.008 95.6345 279.939 94.0674C280.625 92.9918 281.626 92.261 282.744 92.0193C283.219 92.0289 283.693 91.96 284.152 91.8144C284.624 91.5557 285.06 90.8874 285.514 90.5424C286.569 89.8506 287.729 89.4126 288.927 89.2535C290.125 89.0944 291.338 89.2174 292.496 89.6153C295.371 90.7275 297.973 92.6554 300.078 95.2317C301.267 96.6223 303.211 100.363 302.766 102.228Z" fill="#263238"/>
<path d="M301.204 113.752C300.538 115.105 299.448 116.09 298.171 116.49C296.482 116.997 295.674 115.196 296.174 113.321C296.628 111.628 298.062 109.365 299.733 109.645C300.318 109.768 300.838 110.162 301.178 110.74C301.518 111.318 301.652 112.033 301.549 112.728C301.497 113.095 301.38 113.444 301.204 113.752Z" fill="#FFC2BC"/>
<path d="M288.291 108.006C288.291 108.718 287.956 109.267 287.574 109.278C287.193 109.289 286.875 108.696 286.875 107.995C286.875 107.295 287.211 106.734 287.592 106.723C287.974 106.713 288.291 107.305 288.291 108.006Z" fill="#263238"/>
<path d="M281.553 107.92C281.553 108.631 281.217 109.181 280.827 109.192C280.437 109.203 280.128 108.61 280.137 107.898C280.146 107.187 280.464 106.637 280.854 106.626C281.245 106.615 281.581 107.197 281.553 107.92Z" fill="#263238"/>
<path d="M284.205 109.386C283.656 110.994 282.926 112.506 282.035 113.881C282.337 114.138 282.683 114.315 283.048 114.398C283.413 114.482 283.79 114.471 284.151 114.366L284.205 109.386Z" fill="#EC837E"/>
<path d="M286.262 116.759C285.926 116.931 285.576 117.061 285.217 117.147C285.178 117.157 285.136 117.148 285.102 117.121C285.069 117.095 285.045 117.054 285.036 117.007C285.032 116.962 285.042 116.917 285.064 116.879C285.085 116.842 285.117 116.815 285.154 116.802C285.888 116.642 286.58 116.279 287.173 115.741C287.766 115.203 288.244 114.507 288.568 113.709C288.577 113.664 288.6 113.626 288.632 113.602C288.664 113.578 288.703 113.569 288.741 113.579C288.757 113.582 288.773 113.588 288.788 113.599C288.803 113.609 288.815 113.622 288.826 113.638C288.836 113.654 288.843 113.673 288.847 113.692C288.851 113.712 288.852 113.732 288.849 113.752C288.353 115.119 287.423 116.199 286.262 116.759Z" fill="#263238"/>
<path d="M290.653 104.007C290.614 104.023 290.572 104.025 290.532 104.013C290.491 104.002 290.455 103.977 290.426 103.942C290.155 103.612 289.822 103.365 289.454 103.22C289.085 103.076 288.693 103.038 288.31 103.112C288.243 103.125 288.174 103.108 288.117 103.065C288.06 103.021 288.019 102.953 288.002 102.875C287.988 102.841 287.981 102.804 287.981 102.767C287.98 102.73 287.986 102.693 287.998 102.658C288.01 102.624 288.027 102.593 288.05 102.567C288.073 102.541 288.099 102.521 288.129 102.508C288.591 102.415 289.065 102.455 289.51 102.626C289.956 102.797 290.361 103.093 290.689 103.489C290.739 103.543 290.771 103.615 290.781 103.693C290.791 103.772 290.778 103.852 290.744 103.92C290.735 103.942 290.722 103.961 290.707 103.976C290.691 103.991 290.673 104.001 290.653 104.007Z" fill="#263238"/>
<path d="M279.775 104.384C279.728 104.407 279.676 104.413 279.626 104.401C279.576 104.39 279.53 104.361 279.493 104.319C279.467 104.288 279.446 104.251 279.432 104.211C279.417 104.17 279.41 104.126 279.41 104.082C279.41 104.038 279.417 103.994 279.432 103.954C279.446 103.913 279.467 103.876 279.493 103.845C279.837 103.341 280.278 102.943 280.779 102.686C281.281 102.429 281.827 102.32 282.372 102.368C282.408 102.371 282.444 102.382 282.477 102.402C282.51 102.421 282.539 102.448 282.563 102.482C282.586 102.515 282.604 102.553 282.615 102.595C282.626 102.637 282.63 102.681 282.626 102.724C282.615 102.814 282.574 102.896 282.513 102.953C282.453 103.009 282.376 103.035 282.299 103.026C281.85 102.993 281.401 103.09 280.99 103.308C280.579 103.525 280.218 103.858 279.938 104.276C279.892 104.328 279.836 104.365 279.775 104.384Z" fill="#263238"/>
<path d="M296.598 127.841L299.113 130.655C299.113 130.655 290.033 138.201 289.879 137.716C289.254 136.675 288.571 135.685 287.836 134.751L296.598 127.841Z" fill="#407BFF"/>
<path d="M287.412 127.583L284.207 129.092C284.207 129.092 284.752 137.241 285.033 136.853C285.934 136.143 286.875 135.505 287.848 134.945L287.412 127.583Z" fill="#407BFF"/>
<path opacity="0.2" d="M296.598 127.841L299.113 130.655C299.113 130.655 290.033 138.201 289.879 137.716C289.254 136.675 288.571 135.685 287.836 134.751L296.598 127.841Z" fill="white"/>
<path opacity="0.2" d="M287.412 127.583L284.207 129.092C284.207 129.092 284.752 137.241 285.033 136.853C285.934 136.143 286.875 135.505 287.848 134.945L287.412 127.583Z" fill="white"/>
<path d="M285.711 161.227C286.292 162.251 291.023 161.227 291.023 161.227L295.082 161.561C295.3 161.564 295.513 161.473 295.68 161.305C295.847 161.136 295.957 160.902 295.99 160.645L297.115 154.554C297.131 154.413 297.1 154.27 297.029 154.155C296.958 154.041 296.852 153.964 296.734 153.94L293.529 153.26C292.239 152.98 290.909 153.313 289.824 154.188L286.428 156.926L285.711 161.227Z" fill="#FFC2BC"/>
<path d="M286.601 156.624L286.392 161.313C286.392 161.313 268.141 169.452 262.911 165.894C259.479 163.566 262.911 153.691 265.69 147.148L272.7 150.263L270.384 157.389L286.601 156.624Z" fill="#FFC2BC"/>
<g opacity="0.1">
<path d="M285.707 161.226C286.288 162.251 291.019 161.226 291.019 161.226L295.078 161.561C295.297 161.564 295.509 161.472 295.676 161.304C295.843 161.136 295.953 160.901 295.986 160.644L297.112 154.554C297.127 154.412 297.096 154.27 297.025 154.155C296.954 154.04 296.848 153.963 296.73 153.939L293.525 153.26C292.235 152.98 290.905 153.313 289.82 154.187L286.424 156.925L285.707 161.226Z" fill="black"/>
<path d="M286.597 156.624L286.388 161.313C286.388 161.313 268.137 169.452 262.907 165.894C259.475 163.566 262.907 153.691 265.686 147.148L272.696 150.263L270.38 157.389L286.597 156.624Z" fill="black"/>
</g>
<path d="M308.202 136.832L294.746 158.823L275.033 154.511L274.125 159.125C274.125 159.125 293.193 171.457 298.432 167.846C303.671 164.234 312.415 142.372 312.415 142.372L308.202 136.832Z" fill="#FFC2BC"/>
<path d="M274.142 159.114C273.552 160.127 268.83 159.038 268.83 159.038L264.771 159.308C264.55 159.31 264.335 159.216 264.168 159.043C264 158.871 263.892 158.631 263.863 158.37L262.801 152.279C262.785 152.138 262.816 151.995 262.887 151.881C262.958 151.766 263.064 151.689 263.182 151.665L266.406 151.029C267.699 150.772 269.027 151.128 270.101 152.021L275.014 154.662L274.142 159.114Z" fill="#FFC2BC"/>
<path d="M310.752 134.751C313.921 139.192 312.995 150.188 308.428 157.173L297.305 149.412C297.305 149.412 303.833 136.325 307.429 133.748C308.972 132.67 309.626 133.145 310.752 134.751Z" fill="#407BFF"/>
<path opacity="0.2" d="M310.752 134.751C313.921 139.192 312.995 150.188 308.428 157.173L297.305 149.412C297.305 149.412 303.833 136.325 307.429 133.748C308.972 132.67 309.626 133.145 310.752 134.751Z" fill="white"/>
<path d="M210.609 384.663L217.665 385.817L224.874 369.108L217.065 367.566L210.609 384.663Z" fill="#FFC2BC"/>
<path opacity="0.2" d="M217.065 367.566L224.874 369.108L220.942 378.195L213.551 376.88L217.065 367.566Z" fill="black"/>
<path d="M219.737 382.691L211.011 382.131C210.867 382.116 210.723 382.163 210.607 382.264C210.49 382.365 210.408 382.513 210.375 382.68L208.605 390.226C208.568 390.384 208.557 390.549 208.574 390.712C208.591 390.875 208.635 391.032 208.704 391.174C208.772 391.316 208.863 391.441 208.973 391.541C209.082 391.641 209.207 391.715 209.34 391.757H209.585C212.409 391.886 214.443 391.811 218.021 392.037C220.209 392.178 226.783 392.878 229.825 393.115C232.867 393.353 233.393 389.784 232.177 389.385C226.729 387.596 222.643 385.3 220.945 383.338C220.629 382.942 220.195 382.71 219.737 382.691Z" fill="#263238"/>
<path d="M220.164 383.769C220.13 383.759 220.1 383.736 220.078 383.702C220.057 383.669 220.045 383.628 220.046 383.586C220.039 383.547 220.043 383.507 220.058 383.472C220.073 383.436 220.098 383.408 220.128 383.392C220.391 383.219 222.798 381.678 223.569 382.206C223.656 382.265 223.727 382.352 223.774 382.457C223.82 382.562 223.841 382.681 223.833 382.799C223.853 383.006 223.826 383.215 223.754 383.405C223.682 383.594 223.568 383.758 223.424 383.877C223.005 384.178 222.51 384.296 222.026 384.211C221.393 384.151 220.768 384.002 220.164 383.769ZM223.17 382.562C222.295 382.695 221.448 383.021 220.673 383.521C221.491 383.915 222.406 383.915 223.224 383.521C223.314 383.437 223.385 383.328 223.43 383.204C223.476 383.08 223.496 382.945 223.488 382.81C223.488 382.763 223.48 382.717 223.464 382.674C223.449 382.632 223.426 382.593 223.397 382.562C223.322 382.54 223.244 382.54 223.17 382.562Z" fill="#407BFF"/>
<path d="M220.139 383.909C220.117 383.884 220.098 383.854 220.086 383.821C220.073 383.788 220.067 383.752 220.066 383.715C220.066 383.586 220.321 381.15 221.192 380.406C221.296 380.308 221.416 380.237 221.545 380.2C221.673 380.163 221.807 380.159 221.937 380.19C222.065 380.196 222.187 380.256 222.282 380.359C222.376 380.461 222.437 380.6 222.454 380.751C222.554 381.656 221.038 383.446 220.275 383.877H220.194L220.139 383.909ZM221.792 380.503C221.653 380.503 221.518 380.56 221.41 380.664C220.868 381.396 220.526 382.306 220.43 383.273C221.201 382.67 222.182 381.301 222.109 380.74C222.109 380.686 222.109 380.535 221.882 380.514H221.792V380.503Z" fill="#407BFF"/>
<path d="M172.974 336.132L178.14 336.359C186.745 335.883 195.287 334.377 203.637 331.863C211.11 329.707 223.495 322.916 223.495 322.916C219.509 343.161 212.327 374.013 212.327 374.013L223.422 375.533C223.422 375.533 252.315 310.185 239.567 302.703C228.171 295.481 184.088 300.224 184.088 300.224L179.548 294.564L148.739 297.529C148.739 297.529 142.846 336.078 172.974 336.132Z" fill="#263238"/>
<path d="M224.131 378.196L211.438 373.625L212.963 367.34L226.719 373.56L224.131 378.196Z" fill="#407BFF"/>
<path opacity="0.5" d="M224.131 378.196L211.438 373.625L212.963 367.34L226.719 373.56L224.131 378.196Z" fill="white"/>
<path opacity="0.4" d="M176.8 321.838C179.897 332.618 203.423 331.54 206.701 331.023C187.333 335.453 183.683 336.057 178.144 336.359L172.978 336.132C171.364 336.131 169.753 335.991 168.156 335.712C170.553 317.181 173.059 308.827 176.8 321.838Z" fill="black"/>
<path d="M113.373 366.047L112.465 374.52L128.927 377.711L129.835 369.227L113.373 366.047Z" fill="#FFC2BC"/>
<path d="M113.929 375.695L119.05 367.233C119.132 367.095 119.173 366.928 119.164 366.76C119.156 366.591 119.1 366.431 119.005 366.306L114.637 360.495C114.448 360.248 114.184 360.101 113.903 360.084C113.622 360.068 113.348 360.185 113.139 360.409C113.088 360.479 113.048 360.559 113.021 360.646C111.405 363.406 110.361 365.475 108.272 368.936C107.001 371.038 102.951 377.258 101.199 380.158C99.4465 383.058 101.635 385.548 102.57 384.47C106.792 379.964 110.579 377.107 112.912 376.493C113.323 376.385 113.685 376.101 113.929 375.695Z" fill="#263238"/>
<path d="M112.825 375.479C112.854 375.458 112.887 375.447 112.92 375.447C112.954 375.447 112.987 375.458 113.016 375.479C113.046 375.496 113.071 375.524 113.086 375.559C113.1 375.595 113.105 375.635 113.097 375.673C113.097 376.04 112.889 379.274 112.099 379.748C112.014 379.811 111.917 379.845 111.817 379.845C111.718 379.845 111.62 379.811 111.536 379.748C111.382 379.654 111.252 379.515 111.158 379.342C111.064 379.17 111.009 378.972 111 378.767C111.01 378.185 111.189 377.625 111.508 377.183C111.895 376.56 112.336 375.989 112.825 375.479ZM112.734 376.126C112.008 376.732 111.507 377.647 111.336 378.681C111.349 378.817 111.389 378.947 111.452 379.061C111.515 379.175 111.6 379.27 111.699 379.339C111.817 379.414 111.908 379.403 111.926 379.339C111.999 379.302 112.06 379.238 112.099 379.155C112.466 378.201 112.681 377.174 112.734 376.126Z" fill="#407BFF"/>
<path d="M112.836 375.415C112.892 375.388 112.954 375.388 113.009 375.415C113.091 375.501 114.661 377.107 114.725 378.379C114.737 378.532 114.721 378.686 114.679 378.831C114.637 378.976 114.569 379.109 114.48 379.22C114.406 379.346 114.298 379.438 114.174 379.479C114.049 379.52 113.917 379.509 113.799 379.446C113.091 379.058 112.646 376.579 112.755 375.587V375.501C112.762 375.48 112.773 375.462 112.787 375.447C112.801 375.432 112.818 375.421 112.836 375.415ZM114.434 378.476C114.201 377.541 113.736 376.711 113.1 376.094C113.104 377.203 113.424 378.278 114.008 379.145C114.033 379.161 114.061 379.171 114.09 379.174C114.119 379.176 114.148 379.172 114.175 379.161C114.202 379.15 114.227 379.132 114.248 379.109C114.27 379.086 114.287 379.057 114.298 379.026V378.929C114.375 378.796 114.413 378.637 114.407 378.476H114.434Z" fill="#407BFF"/>
<path opacity="0.2" d="M129.824 369.216L128.916 377.711L120.426 376.061L121.343 367.578L129.824 369.216Z" fill="black"/>
<path d="M177.452 313.817C179.958 318.528 188.62 375.36 172.449 388.059C160.536 397.384 123.035 379.737 123.035 379.737L124.234 365.626C124.234 365.626 154.697 372.396 158.465 368.752C162.234 365.109 149.658 325.632 149.04 316.394C148.423 307.155 177.452 313.817 177.452 313.817Z" fill="#263238"/>
<path d="M122.195 380.761L122.604 365.012L128.106 365.13L126.635 382.518L122.195 380.761Z" fill="#407BFF"/>
<path opacity="0.5" d="M122.195 380.761L122.604 365.012L128.106 365.13L126.635 382.518L122.195 380.761Z" fill="white"/>
<path d="M180.848 296.052C179.877 293.896 176.916 289.66 174.065 289.067C170.279 288.28 169.471 288.107 154.861 290.77C147.969 292.02 147.47 298.445 147.851 301.776C147.903 302.223 148.057 302.644 148.296 302.994L148.614 303.458C149.322 303.717 180.394 297.238 180.712 297.443C180.841 297.249 180.922 297.016 180.946 296.77C180.97 296.525 180.936 296.276 180.848 296.052Z" fill="#407BFF"/>
<path opacity="0.2" d="M180.848 296.052C179.877 293.896 176.916 289.66 174.065 289.067C170.279 288.28 169.471 288.107 154.861 290.77C147.969 292.02 147.47 298.445 147.851 301.776C147.903 302.223 148.057 302.644 148.296 302.994L148.614 303.458C149.322 303.717 180.394 297.238 180.712 297.443C180.841 297.249 180.922 297.016 180.946 296.77C180.97 296.525 180.936 296.276 180.848 296.052Z" fill="white"/>
<path d="M214.575 233.927C216.589 233.752 218.54 233.013 220.268 231.771C221.459 230.78 222.474 229.52 223.255 228.063C223.505 227.627 223.611 227.098 223.555 226.575C223.424 225.352 223.016 224.193 222.374 223.223C222.199 222.97 221.948 222.808 221.674 222.77C221.4 222.732 221.124 222.821 220.903 223.018C219.85 223.913 218.652 224.85 217.707 225.724C215.047 226.317 212.523 229.227 212.305 232.429C213.022 232.849 213.848 233.474 214.575 233.927Z" fill="#FFC2BC"/>
<path d="M215.738 229.69L216.464 233.862C216.464 233.862 198.985 248.555 195.653 248.771C193.364 248.922 190.713 249.062 187.971 249.17C184.829 249.299 181.551 249.375 178.573 249.353C173.189 249.299 168.785 248.879 167.886 247.758C165.162 244.34 168.077 238.95 172.335 239.004C177.883 239.069 187.58 240.632 196.788 240.212C199.938 240.072 215.738 229.69 215.738 229.69Z" fill="#FFC2BC"/>
<path opacity="0.2" d="M187.962 249.17C184.82 249.299 181.542 249.375 178.564 249.353L175.25 243.726C179.634 245.015 183.894 246.84 187.962 249.17Z" fill="black"/>
<path d="M177.066 237.797C177.066 237.797 169.357 236.062 168.049 240.481C166.742 244.901 170.174 252.771 180.888 251.391L181.978 237.937L177.066 237.797Z" fill="#407BFF"/>
<path opacity="0.2" d="M177.066 237.797C177.066 237.797 169.357 236.062 168.049 240.481C166.742 244.901 170.174 252.771 180.888 251.391L181.978 237.937L177.066 237.797Z" fill="white"/>
<path d="M171.171 237.905C171.38 238.336 177.246 247.488 178.063 254.625C178.653 259.778 178.063 265.405 177.981 271.14C177.918 275.279 179.153 284.076 179.153 284.076L180.124 286.728C180.517 287.803 180.709 288.967 180.687 290.14C180.665 291.312 180.43 292.465 179.997 293.519L179.57 294.597L148.235 299.577L148.045 299.459C148.045 299.459 145.257 296.688 146.183 293.163V290.436C147.436 285.574 147.091 279.311 143.986 266.386C142.996 262.171 141.897 256.996 141.897 256.996C142.724 247.682 140.172 242.982 140.145 242.982C140.118 242.982 140.145 242.928 140.145 242.918C143.917 241.44 147.774 240.287 151.686 239.468C155.841 238.546 160.047 237.976 164.27 237.765C168.248 237.754 171.162 237.894 171.171 237.905Z" fill="#407BFF"/>
<path d="M168.076 205.123C170.047 207.829 170.473 211.591 171.309 215.073C171.99 217.876 173.47 223.567 172.553 226.262C171.509 229.335 166.369 226.737 164.662 229.346C157.87 239.77 153.766 235.285 151.16 232.709C149.853 231.437 144.886 230.176 143.606 228.871C142.325 227.567 140.137 226.909 141.081 221.843C144.859 201.544 151.133 200.347 159.505 200.897C162.71 201.102 165.915 202.148 168.076 205.123Z" fill="#263238"/>
<path d="M151.305 222.5C152.567 227.211 154.21 235.91 151.677 239.511L153.729 241.904C154.547 242.852 155.568 243.516 156.682 243.824C157.796 244.131 158.959 244.071 160.046 243.648C161.132 243.226 162.101 242.459 162.845 241.429C163.59 240.399 164.083 239.147 164.271 237.808C159.649 237.128 160.475 231.609 159.495 226.338L151.305 222.5Z" fill="#FFC2BC"/>
<path opacity="0.2" d="M161.747 220.775C160.893 224.602 159.767 230.758 160.839 234.93C156.716 235.522 153.856 231.167 153.656 229.755C154.116 228.061 154.466 226.328 154.7 224.57L161.747 220.775Z" fill="black"/>
<path d="M149.898 215.116C150.607 223.18 150.761 226.608 154.348 230.575C159.741 236.547 167.968 233.744 169.257 225.605C170.456 218.275 169.094 206.341 162.32 203.452C160.828 202.809 159.223 202.63 157.656 202.93C156.09 203.231 154.614 204.003 153.369 205.172C152.125 206.34 151.152 207.868 150.545 209.608C149.937 211.349 149.715 213.245 149.898 215.116Z" fill="#FFC2BC"/>
<path d="M151.531 219.353C152.063 220.432 152.345 221.659 152.348 222.91C152.647 222.639 152.86 222.257 152.954 221.825C153.047 221.393 153.017 220.936 152.866 220.528C152.648 219.676 152.276 219.266 151.531 219.353Z" fill="#263238"/>
<path d="M147.728 222.975C148.434 224.3 149.548 225.244 150.833 225.605C152.541 226.047 153.303 224.214 152.749 222.371C152.259 220.7 150.761 218.49 149.117 218.824C148.535 218.972 148.026 219.387 147.701 219.979C147.376 220.571 147.262 221.291 147.383 221.983C147.439 222.338 147.557 222.676 147.728 222.975Z" fill="#FFC2BC"/>
<path d="M159.615 217.002C159.615 217.714 159.978 218.253 160.36 218.253C160.741 218.253 161.05 217.638 161.022 216.938C160.995 216.237 160.65 215.687 160.269 215.698C159.887 215.709 159.588 216.302 159.615 217.002Z" fill="#263238"/>
<path d="M166.342 216.679C166.342 217.38 166.705 217.929 167.096 217.919C167.486 217.908 167.786 217.315 167.749 216.603C167.713 215.892 167.395 215.353 167.005 215.353C166.614 215.353 166.287 215.946 166.342 216.679Z" fill="#263238"/>
<path d="M166.828 215.396L168.226 214.879C168.226 214.879 167.564 216.162 166.828 215.396Z" fill="#263238"/>
<path d="M164.605 217.973C165.196 219.559 165.966 221.042 166.894 222.382C166.598 222.652 166.257 222.843 165.893 222.942C165.53 223.041 165.152 223.044 164.787 222.953L164.605 217.973Z" fill="#EC837E"/>
<path d="M162.745 225.422C163.085 225.581 163.438 225.696 163.799 225.767C163.818 225.771 163.837 225.771 163.857 225.767C163.876 225.762 163.894 225.753 163.91 225.74C163.926 225.727 163.94 225.71 163.95 225.691C163.961 225.671 163.968 225.649 163.971 225.627C163.975 225.581 163.965 225.536 163.943 225.499C163.922 225.461 163.89 225.434 163.853 225.422C163.114 225.294 162.411 224.958 161.803 224.442C161.195 223.926 160.699 223.246 160.357 222.457C160.345 222.416 160.321 222.38 160.29 222.357C160.259 222.333 160.222 222.323 160.185 222.328C160.15 222.336 160.119 222.359 160.099 222.393C160.079 222.428 160.07 222.47 160.076 222.511C160.612 223.857 161.57 224.902 162.745 225.422Z" fill="#263238"/>
<path d="M157.994 211.763C158.034 211.777 158.076 211.777 158.116 211.763C158.157 211.75 158.193 211.724 158.221 211.688C158.483 211.35 158.809 211.092 159.173 210.934C159.536 210.777 159.926 210.725 160.31 210.782C160.378 210.793 160.447 210.773 160.503 210.728C160.56 210.682 160.601 210.613 160.618 210.534C160.63 210.499 160.635 210.461 160.634 210.424C160.633 210.386 160.625 210.349 160.612 210.314C160.598 210.28 160.579 210.249 160.555 210.224C160.531 210.199 160.503 210.18 160.473 210.168C160.009 210.091 159.536 210.149 159.094 210.336C158.653 210.524 158.257 210.836 157.94 211.246C157.89 211.3 157.858 211.372 157.85 211.452C157.842 211.531 157.857 211.611 157.894 211.677C157.904 211.7 157.918 211.719 157.935 211.734C157.953 211.749 157.973 211.759 157.994 211.763Z" fill="#263238"/>
<path d="M168.893 211.731C168.941 211.748 168.992 211.751 169.042 211.738C169.091 211.724 169.137 211.696 169.174 211.655C169.228 211.591 169.258 211.504 169.258 211.413C169.258 211.322 169.228 211.235 169.174 211.17C168.818 210.679 168.366 210.298 167.859 210.06C167.351 209.822 166.802 209.733 166.259 209.801C166.223 209.805 166.187 209.818 166.155 209.839C166.122 209.86 166.094 209.888 166.071 209.922C166.048 209.956 166.031 209.996 166.021 210.038C166.012 210.08 166.009 210.124 166.014 210.168C166.028 210.258 166.07 210.338 166.133 210.39C166.196 210.443 166.274 210.464 166.35 210.448C166.799 210.405 167.249 210.489 167.666 210.691C168.082 210.893 168.453 211.209 168.747 211.612C168.782 211.671 168.834 211.713 168.893 211.731Z" fill="#263238"/>
<path d="M160.102 215.741L161.5 215.213C161.5 215.213 160.828 216.539 160.102 215.741Z" fill="#263238"/>
<path d="M156.388 207.236C158.395 210.146 151.14 217.757 151.53 219.352C149.56 219.503 148.098 214.598 147.998 212.054C147.897 209.485 148.574 206.958 149.905 204.929C150.749 203.646 152.311 203.409 153.682 203.193C154.079 203.093 154.492 203.13 154.872 203.301C155.1 203.448 155.294 203.659 155.437 203.917C155.58 204.175 155.666 204.471 155.689 204.778C155.789 205.642 156.026 206.476 156.388 207.236Z" fill="#263238"/>
<path d="M153.68 203.193C154.987 204.425 155.951 206.097 156.445 207.989C156.939 209.882 156.94 211.907 156.449 213.801C157.329 212.949 158.058 211.897 158.592 210.707C158.873 210.087 159.003 209.387 158.967 208.685C158.932 207.982 158.733 207.305 158.392 206.729C159.351 207.568 160.159 208.624 160.772 209.836C161.384 211.048 161.788 212.392 161.961 213.79C162.371 213.432 162.709 212.971 162.953 212.44C163.196 211.909 163.338 211.321 163.368 210.718C163.411 210.125 163.343 209.528 163.171 208.969C162.998 208.411 162.725 207.904 162.369 207.484C163.067 208.209 163.599 209.132 163.917 210.166C164.234 211.201 164.326 212.314 164.185 213.402C164.648 212.978 165.018 212.426 165.263 211.796C165.508 211.165 165.621 210.474 165.593 209.78C165.542 209.039 165.353 208.32 165.039 207.676C164.725 207.033 164.294 206.481 163.777 206.061C164.729 206.685 165.528 207.594 166.092 208.699C166.656 209.804 166.966 211.065 166.991 212.356C169.061 209.974 168.362 206.557 165.82 204.681C162.094 202.313 157.734 201.778 153.68 203.193Z" fill="#263238"/>
<path d="M152.68 236.892L150.246 239.791C150.246 239.791 159.526 246.992 159.662 246.507C160.255 245.43 160.907 244.4 161.614 243.424L152.68 236.892Z" fill="#407BFF"/>
<path d="M161.852 236.277L165.094 237.678C165.094 237.678 164.776 245.839 164.476 245.461C163.562 244.775 162.609 244.163 161.625 243.629L161.852 236.277Z" fill="#407BFF"/>
<path opacity="0.2" d="M152.68 236.892L150.246 239.791C150.246 239.791 159.526 246.992 159.662 246.507C160.255 245.43 160.907 244.4 161.614 243.424L152.68 236.892Z" fill="white"/>
<path opacity="0.2" d="M161.852 236.277L165.094 237.678C165.094 237.678 164.776 245.839 164.476 245.461C163.562 244.775 162.609 244.163 161.625 243.629L161.852 236.277Z" fill="white"/>
<path d="M102.783 270.892L94.9648 271.776L97.6888 279.063C99.8094 277.96 101.837 276.621 103.745 275.063L102.783 270.892Z" fill="#FFC2BC"/>
<path d="M92.0802 277.349L92.2073 277.618C92.4466 278.111 92.7945 278.517 93.2137 278.792C93.6329 279.068 94.1075 279.202 94.5863 279.181L97.7007 279.063L94.9767 271.775L93.0699 273.069C92.7673 273.272 92.5014 273.544 92.2876 273.869C92.0739 274.194 91.9164 274.566 91.8244 274.964C91.7324 275.362 91.7077 275.778 91.7516 276.187C91.7955 276.596 91.9072 276.991 92.0802 277.349Z" fill="#FFC2BC"/>
<path d="M104.539 274.794C104.539 274.794 118.204 276.282 130.998 269.113C130.998 269.113 139.597 260.607 144.246 253.46C151.147 242.831 144.727 239.63 139.633 246.486C135.856 251.574 127.103 261.405 127.103 261.405C116.107 268.951 101.824 271.301 101.824 271.301C99.0547 276.044 104.539 274.794 104.539 274.794Z" fill="#FFC2BC"/>
<path d="M148.203 242.443C151.454 245.537 146.605 253.622 140.285 263.346L132.449 251.272C132.449 251.272 142.392 236.913 148.203 242.443Z" fill="#407BFF"/>
<path opacity="0.2" d="M148.203 242.443C151.454 245.537 146.605 253.622 140.285 263.346L132.449 251.272C132.449 251.272 142.392 236.913 148.203 242.443Z" fill="white"/>
</svg>
