<svg width="138" height="135" viewBox="0 0 138 135" fill="none" xmlns="http://www.w3.org/2000/svg">
<path d="M69.0016 134.076C107.11 134.076 138.003 115.745 138.003 93.1318C138.003 70.5189 107.11 52.1875 69.0016 52.1875C30.8931 52.1875 0 70.5189 0 93.1318C0 115.745 30.8931 134.076 69.0016 134.076Z" fill="#F5F5F5"/>
<path d="M59.7681 126.953L26.0195 106.926L81.6269 74.0342L115.378 94.0613L59.7681 126.953Z" fill="#E0E0E0"/>
<path d="M114.992 87.2082C111.383 89.3497 111.383 92.8218 114.992 94.9633C118.6 97.1048 124.449 97.0896 128.058 94.9633C131.666 92.8369 131.666 89.3497 128.058 87.2082C124.449 85.0667 118.6 85.0667 114.992 87.2082Z" fill="#E0E0E0"/>
<path d="M12.8952 106.23C8.46201 108.754 8.46201 112.846 12.8952 115.37C17.3284 117.894 24.5191 117.894 28.9553 115.37C33.3915 112.846 33.3885 108.754 28.9553 106.23C24.5221 103.706 17.3284 103.709 12.8952 106.23Z" fill="#E0E0E0"/>
<path d="M46.0842 109.007L23.6521 95.6958C22.5379 95.0336 22.5379 93.9643 23.6521 93.3052L38.524 84.4778C39.1558 84.15 39.8499 83.969 40.5572 83.9475C41.2646 83.926 41.9679 84.0645 42.6174 84.3532L66.808 96.8076C67.9577 97.3969 67.9902 98.4114 66.876 99.0706L50.1125 109.019C49.4872 109.342 48.7967 109.509 48.0969 109.507C47.3971 109.505 46.7075 109.334 46.0842 109.007Z" fill="#E0E0E0"/>
<path d="M10.6562 20.3412L11.1971 20.6723L22.2565 14.108L21.7157 13.7769L10.6562 20.3412Z" fill="#FAFAFA"/>
<path d="M21.7178 13.7767L11.1992 20.0191V8.69477L21.7207 2.4585L21.7178 13.7767Z" fill="white"/>
<path d="M23.2753 0.322754L10.1914 8.09303V22.4823L23.2842 14.7121L23.2753 0.322754ZM22.2586 14.1076L11.1992 20.6719V8.69449L22.2586 2.13319V14.1076Z" fill="#F0F0F0"/>
<path d="M22.2596 14.1077L21.7188 13.7766L21.7217 2.45833L22.2596 2.1333V14.1077Z" fill="#E0E0E0"/>
<path d="M23.2753 0.322966L22.7285 0.000976562L9.63281 7.77126L10.1825 8.09325L23.2753 0.322966Z" fill="#FAFAFA"/>
<path d="M9.63281 7.77148L10.1825 8.09347V22.4828L9.63281 22.1608V7.77148Z" fill="#E0E0E0"/>
<path d="M21.3063 13.4394L11.6094 19.1958V16.3161L14.0329 10.5628L15.5431 11.9996L15.0023 14.4115L18.3508 7.05127L21.3063 10.5628V13.4394Z" fill="#F0F0F0"/>
<path d="M15.4535 7.78335C15.2448 7.92294 15.0712 8.1113 14.9469 8.33303C14.8226 8.55477 14.7511 8.80359 14.7383 9.05915C14.7383 9.52999 15.0575 9.72136 15.4535 9.48442C15.6629 9.34535 15.8372 9.15718 15.962 8.93539C16.0869 8.71359 16.1587 8.46451 16.1717 8.20861C16.1717 7.73778 15.8525 7.54641 15.4535 7.78335Z" fill="#F0F0F0"/>
<path d="M10.6562 40.247L11.1971 40.575L22.2565 34.0137L21.7157 33.6826L10.6562 40.247Z" fill="#FAFAFA"/>
<path d="M21.7178 33.6825L11.1992 39.9248V28.6005L21.7178 22.3643V33.6825Z" fill="white"/>
<path d="M23.2753 20.229L10.1914 27.9962V42.3855L23.2753 34.6183V20.229ZM22.2586 34.0108L11.1992 40.5721V28.6007L22.2586 22.0394V34.0108Z" fill="#F0F0F0"/>
<path d="M22.2596 34.0139L21.7188 33.6828V22.3646L22.2596 22.0396V34.0139Z" fill="#E0E0E0"/>
<path d="M23.2753 20.2288L22.7285 19.9038L9.63281 27.6741L10.1825 27.9961L23.2753 20.2288Z" fill="#FAFAFA"/>
<path d="M9.63281 27.6743L10.1825 27.9963V42.3856L9.63281 42.0636V27.6743Z" fill="#E0E0E0"/>
<path d="M21.3063 33.3447L11.6094 39.098V36.2213L14.0329 30.465L15.5431 31.9049L15.0023 34.3167L18.3508 26.9565L21.3063 30.465V33.3447Z" fill="#F0F0F0"/>
<path d="M15.4535 27.6855C15.2451 27.8261 15.0718 28.0151 14.9475 28.2373C14.8233 28.4594 14.7516 28.7085 14.7383 28.9644C14.7383 29.4352 15.0575 29.6235 15.4535 29.3896C15.6631 29.2501 15.8375 29.0614 15.9624 28.8391C16.0872 28.6168 16.159 28.3672 16.1717 28.1108C16.1717 27.6309 15.8525 27.4516 15.4535 27.6855Z" fill="#F0F0F0"/>
<path d="M116.101 91.8567C113.205 88.7857 111.506 76.2858 114.328 73.8496H128.698C131.52 76.2797 129.821 88.7796 126.924 91.8537L126.845 91.9357L126.744 92.039C126.664 92.121 126.576 92.2 126.484 92.279L126.413 92.3367C126.342 92.3944 126.274 92.4521 126.194 92.5068C126.075 92.5969 125.95 92.68 125.822 92.7559C123.44 94.1866 119.577 94.1866 117.195 92.7559C117.065 92.68 116.94 92.5969 116.82 92.5068C116.746 92.4552 116.681 92.4005 116.616 92.3458L116.53 92.2759C116.444 92.1985 116.362 92.1164 116.285 92.0299L116.169 91.9144L116.101 91.8567Z" fill="#5250F7"/>
<g opacity="0.7">
<path d="M116.101 91.8567C113.205 88.7857 111.506 76.2858 114.328 73.8496H128.698C131.52 76.2797 129.821 88.7796 126.924 91.8537L126.845 91.9357L126.744 92.039C126.664 92.121 126.576 92.2 126.484 92.279L126.413 92.3367C126.342 92.3944 126.274 92.4521 126.194 92.5068C126.075 92.5969 125.95 92.68 125.822 92.7559C123.44 94.1866 119.577 94.1866 117.195 92.7559C117.065 92.68 116.94 92.5969 116.82 92.5068C116.746 92.4552 116.681 92.4005 116.616 92.3458L116.53 92.2759C116.444 92.1985 116.362 92.1164 116.285 92.0299L116.169 91.9144L116.101 91.8567Z" fill="white"/>
</g>
<path d="M127.453 72.8684C130.733 74.8368 130.733 78.0324 127.453 79.9947C124.172 81.957 118.858 81.9631 115.58 79.9947C112.303 78.0263 112.3 74.8307 115.58 72.8684C118.861 70.9061 124.175 70.903 127.453 72.8684Z" fill="#5250F7"/>
<g opacity="0.85">
<path d="M127.453 72.8684C130.733 74.8368 130.733 78.0324 127.453 79.9947C124.172 81.957 118.858 81.9631 115.58 79.9947C112.303 78.0263 112.3 74.8307 115.58 72.8684C118.861 70.9061 124.175 70.903 127.453 72.8684Z" fill="white"/>
</g>
<path d="M125.876 73.804C128.282 75.2499 128.282 77.5919 125.876 79.0379C123.47 80.4838 119.563 80.4807 117.154 79.0379C114.745 77.595 114.745 75.2499 117.154 73.804C119.563 72.3581 123.467 72.3702 125.876 73.804Z" fill="#5250F7"/>
<g opacity="0.75">
<path d="M125.876 73.8045C128.282 75.2504 128.282 77.5924 125.876 79.0384C123.47 80.4843 119.563 80.4812 117.154 79.0384C114.745 77.5955 114.745 75.2504 117.154 73.8045C119.563 72.3586 123.467 72.3707 125.876 73.8045Z" fill="white"/>
</g>
<path d="M117.153 76.298C119.562 74.8551 123.466 74.8551 125.875 76.298C126.458 76.6282 126.953 77.1007 127.317 77.674C126.953 78.2473 126.458 78.7199 125.875 79.0501C123.466 80.493 119.562 80.493 117.153 79.0501C116.57 78.7199 116.075 78.2473 115.711 77.674C116.075 77.1007 116.57 76.6282 117.153 76.298Z" fill="#FAFAFA"/>
<path d="M121.848 75.8483C122.168 75.9067 122.49 75.9482 122.814 75.9729C124.02 76.0276 125.501 75.4109 126.828 74.8064C127.714 74.4085 128.897 73.8678 129.449 72.9352C129.727 72.4766 129.834 71.8417 129.573 71.4164C129.313 70.9912 128.663 70.8362 128.539 70.2895C129.467 69.6546 130.658 69.6212 131.45 68.7706C132.018 68.1037 132.393 67.2875 132.535 66.4134C132.644 65.894 132.644 65.1832 132.378 64.7792C132.062 64.3023 131.421 64.3418 130.871 64.4025C130.729 64.4282 130.583 64.4199 130.445 64.3782C130.375 64.3522 130.314 64.3042 130.272 64.241C130.23 64.1779 130.208 64.1026 130.209 64.0258C130.227 63.9271 130.268 63.8342 130.327 63.7545C130.387 63.6748 130.464 63.6106 130.552 63.5672C130.892 63.3393 131.255 63.1601 131.583 62.911C131.935 62.6694 132.206 62.3227 132.36 61.9177C132.488 61.4179 132.474 60.8913 132.322 60.3989C132.148 59.5759 131.926 58.7644 131.657 57.9688C131.592 57.7774 131.11 55.8424 131.178 55.8242C129.254 55.8789 127.277 56.6049 125.489 57.5466C124.49 58.0721 123.068 59.0229 122.779 60.3533C122.709 60.7229 122.721 61.1036 122.811 61.4682C122.859 61.6275 122.916 61.7837 122.983 61.9359C123.018 62.0332 123.163 62.4068 122.918 62.2822C122.863 62.2495 122.818 62.2023 122.788 62.1455L121.839 60.7422C121.76 60.5929 121.638 60.4721 121.49 60.3959C121.171 60.2744 120.414 60.648 119.69 61.6109C119.23 62.2808 118.973 63.0756 118.951 63.8952C118.875 65.1801 119.247 66.3922 119.587 67.5708L118.73 66.6595C117.728 65.6054 117.548 68.0902 117.577 68.6066C117.672 69.9644 118.201 71.9693 118.866 73.0476C119.64 74.2991 120.553 75.3471 121.848 75.8483Z" fill="#5250F7"/>
<path opacity="0.3" d="M121.848 75.8483C122.168 75.9067 122.49 75.9482 122.814 75.9729C124.02 76.0276 125.501 75.4109 126.828 74.8064C127.714 74.4085 128.897 73.8678 129.449 72.9352C129.727 72.4766 129.834 71.8417 129.573 71.4164C129.313 70.9912 128.663 70.8362 128.539 70.2895C129.467 69.6546 130.658 69.6212 131.45 68.7706C132.018 68.1037 132.393 67.2875 132.535 66.4134C132.644 65.894 132.644 65.1832 132.378 64.7792C132.062 64.3023 131.421 64.3418 130.871 64.4025C130.729 64.4282 130.583 64.4199 130.445 64.3782C130.375 64.3522 130.314 64.3042 130.272 64.241C130.23 64.1779 130.208 64.1026 130.209 64.0258C130.227 63.9271 130.268 63.8342 130.327 63.7545C130.387 63.6748 130.464 63.6106 130.552 63.5672C130.892 63.3393 131.255 63.1601 131.583 62.911C131.935 62.6694 132.206 62.3227 132.36 61.9177C132.488 61.4179 132.474 60.8913 132.322 60.3989C132.148 59.5759 131.926 58.7644 131.657 57.9688C131.592 57.7774 131.11 55.8424 131.178 55.8242C129.254 55.8789 127.277 56.6049 125.489 57.5466C124.49 58.0721 123.068 59.0229 122.779 60.3533C122.709 60.7229 122.721 61.1036 122.811 61.4682C122.859 61.6275 122.916 61.7837 122.983 61.9359C123.018 62.0332 123.163 62.4068 122.918 62.2822C122.863 62.2495 122.818 62.2023 122.788 62.1455L121.839 60.7422C121.76 60.5929 121.638 60.4721 121.49 60.3959C121.171 60.2744 120.414 60.648 119.69 61.6109C119.23 62.2808 118.973 63.0756 118.951 63.8952C118.875 65.1801 119.247 66.3922 119.587 67.5708L118.73 66.6595C117.728 65.6054 117.548 68.0902 117.577 68.6066C117.672 69.9644 118.201 71.9693 118.866 73.0476C119.64 74.2991 120.553 75.3471 121.848 75.8483Z" fill="white"/>
<path d="M123.213 69.1841C122.883 67.1885 122.126 65.2931 120.997 63.6343L120.973 63.5948C120.952 63.5581 120.945 63.5148 120.952 63.4729C120.96 63.4311 120.982 63.3934 121.014 63.367C121.028 63.3536 121.045 63.3435 121.063 63.3374C121.081 63.3313 121.1 63.3293 121.119 63.3316C121.138 63.334 121.156 63.3405 121.172 63.3508C121.188 63.3611 121.202 63.3749 121.212 63.3913L121.236 63.4278C122.289 64.9909 123.027 66.7551 123.405 68.6161C125.072 63.7558 127.812 58.8257 129.402 57.2917C129.416 57.2761 129.432 57.2637 129.451 57.2551C129.469 57.2466 129.49 57.2422 129.51 57.2422C129.53 57.2422 129.55 57.2466 129.569 57.2551C129.588 57.2637 129.604 57.2761 129.618 57.2917C129.642 57.3299 129.652 57.3753 129.646 57.4202C129.641 57.4651 129.62 57.5067 129.588 57.5378C128.019 59.0566 125.315 63.9168 123.677 68.7132C126.45 66.4927 129.231 66.7297 129.26 66.7327C129.28 66.7356 129.298 66.7425 129.315 66.7531C129.331 66.7637 129.346 66.7777 129.357 66.7942C129.368 66.8108 129.376 66.8295 129.379 66.8492C129.383 66.869 129.383 66.8893 129.378 66.9089C129.373 66.9377 129.362 66.9649 129.345 66.9885C129.328 67.0122 129.306 67.0317 129.281 67.0456C129.258 67.0519 129.233 67.0519 129.21 67.0456C129.183 67.0456 126.281 66.7935 123.497 69.2357C122.758 71.5048 122.276 73.7284 122.291 75.5297C122.291 75.5627 122.284 75.5951 122.269 75.6243C122.254 75.6534 122.232 75.6783 122.205 75.6968C122.186 75.7093 122.163 75.7176 122.14 75.7211C122.12 75.7229 122.099 75.7201 122.08 75.7128C122.06 75.7056 122.042 75.694 122.028 75.6789C122.013 75.6639 122.002 75.6457 121.995 75.6257C121.988 75.6057 121.985 75.5843 121.987 75.5631C121.969 73.7557 122.46 71.4957 123.213 69.1841Z" fill="white"/>
<path d="M121.938 78.275C121.853 78.3175 121.176 78.4755 121.081 78.4937C120.006 78.682 118.667 78.3631 117.461 78.032C116.666 77.8163 115.596 77.5186 115.064 76.8169C114.923 76.6539 114.832 76.4513 114.803 76.2349C114.774 76.0185 114.808 75.7981 114.901 75.6019C115.135 75.2009 115.694 75.0217 115.788 74.56C114.94 74.159 113.873 74.2775 113.128 73.6791C112.604 73.2152 112.238 72.5916 112.082 71.899C111.942 71.4544 111.974 70.9716 112.171 70.5503C112.434 70.125 113.01 70.0825 113.501 70.0643C113.631 70.0663 113.761 70.0415 113.882 69.9914C113.94 69.966 113.99 69.9237 114.025 69.8698C114.06 69.8158 114.079 69.7525 114.08 69.6876C114.065 69.5266 113.905 69.4233 113.761 69.3565C113.447 69.2137 113.119 69.1135 112.815 68.9525C112.503 68.8041 112.248 68.5529 112.091 68.2386C111.968 67.8383 111.968 67.4088 112.091 67.0084C112.219 66.3116 112.39 65.6238 112.602 64.9489C112.655 64.7879 113.022 63.1445 112.96 63.1506C114.677 62.9623 116.465 63.3116 118.093 63.8584C119.001 64.1621 120.301 64.7697 120.603 65.8116C120.677 66.1105 120.677 66.4239 120.603 66.7229C120.566 66.8595 120.521 66.9935 120.467 67.1238C120.44 67.2059 120.322 67.5278 120.538 67.3972C120.584 67.3645 120.621 67.3207 120.647 67.2696L121.448 66.0029C121.516 65.8699 121.618 65.7585 121.743 65.681C122.024 65.5412 122.713 65.7539 123.39 66.4464C123.821 66.933 124.08 67.5547 124.126 68.2113C124.235 69.2411 123.954 70.2708 123.676 71.2702L124.412 70.4318C125.272 69.4537 125.521 71.4494 125.506 71.8747C125.435 73.1874 125.092 74.4694 124.501 75.6353C123.857 76.7501 123.085 77.713 121.938 78.275Z" fill="#5250F7"/>
<path opacity="0.5" d="M121.938 78.275C121.853 78.3175 121.176 78.4755 121.081 78.4937C120.006 78.682 118.667 78.3631 117.461 78.032C116.666 77.8163 115.596 77.5186 115.064 76.8169C114.923 76.6539 114.832 76.4513 114.803 76.2349C114.774 76.0185 114.808 75.7981 114.901 75.6019C115.135 75.2009 115.694 75.0217 115.788 74.56C114.94 74.159 113.873 74.2775 113.128 73.6791C112.604 73.2152 112.238 72.5916 112.082 71.899C111.942 71.4544 111.974 70.9716 112.171 70.5503C112.434 70.125 113.01 70.0825 113.501 70.0643C113.631 70.0663 113.761 70.0415 113.882 69.9914C113.94 69.966 113.99 69.9237 114.025 69.8698C114.06 69.8158 114.079 69.7525 114.08 69.6876C114.065 69.5266 113.905 69.4233 113.761 69.3565C113.447 69.2137 113.119 69.1135 112.815 68.9525C112.503 68.8041 112.248 68.5529 112.091 68.2386C111.968 67.8383 111.968 67.4088 112.091 67.0084C112.219 66.3116 112.39 65.6238 112.602 64.9489C112.655 64.7879 113.022 63.1445 112.96 63.1506C114.677 62.9623 116.465 63.3116 118.093 63.8584C119.001 64.1621 120.301 64.7697 120.603 65.8116C120.677 66.1105 120.677 66.4239 120.603 66.7229C120.566 66.8595 120.521 66.9935 120.467 67.1238C120.44 67.2059 120.322 67.5278 120.538 67.3972C120.584 67.3645 120.621 67.3207 120.647 67.2696L121.448 66.0029C121.516 65.8699 121.618 65.7585 121.743 65.681C122.024 65.5412 122.713 65.7539 123.39 66.4464C123.821 66.933 124.08 67.5547 124.126 68.2113C124.235 69.2411 123.954 70.2708 123.676 71.2702L124.412 70.4318C125.272 69.4537 125.521 71.4494 125.506 71.8747C125.435 73.1874 125.092 74.4694 124.501 75.6353C123.857 76.7501 123.085 77.713 121.938 78.275Z" fill="white"/>
<path d="M120.501 73.0287C120.75 71.3209 121.363 69.6905 122.295 68.2536L122.315 68.2201C122.333 68.1899 122.338 68.1538 122.33 68.1197C122.321 68.0855 122.3 68.0562 122.271 68.0379C122.257 68.0291 122.241 68.0233 122.224 68.0208C122.208 68.0184 122.191 68.0193 122.175 68.0235C122.158 68.0277 122.143 68.0352 122.13 68.0455C122.116 68.0558 122.105 68.0687 122.097 68.0835L122.076 68.1169C121.202 69.4715 120.599 70.9915 120.303 72.5883C118.653 68.8489 116.047 65.1734 114.581 64.1224C114.566 64.1086 114.549 64.0982 114.53 64.0918C114.512 64.0854 114.492 64.0831 114.472 64.0852C114.453 64.0873 114.434 64.0937 114.417 64.1039C114.399 64.1142 114.385 64.128 114.373 64.1445C114.362 64.1611 114.354 64.1799 114.35 64.1998C114.346 64.2198 114.347 64.2403 114.351 64.26C114.356 64.2798 114.364 64.2983 114.377 64.3144C114.389 64.3304 114.404 64.3437 114.421 64.3532C115.869 65.3921 118.444 69.0221 120.063 72.7128C118.529 71.8323 116.752 71.504 115.015 71.7803C114.987 71.7866 114.962 71.8028 114.943 71.826C114.925 71.8492 114.915 71.8781 114.915 71.9078C114.915 71.9376 114.925 71.9665 114.943 71.9897C114.962 72.0129 114.987 72.029 115.015 72.0354C115.036 72.04 115.057 72.04 115.077 72.0354C116.871 71.7489 118.705 72.1337 120.246 73.1199C120.982 74.8756 121.485 76.6223 121.529 78.0864C121.531 78.1129 121.539 78.1386 121.554 78.1605C121.568 78.1825 121.588 78.1999 121.612 78.2109C121.631 78.2155 121.652 78.2155 121.671 78.2109C121.689 78.2106 121.707 78.2065 121.724 78.1989C121.74 78.1913 121.755 78.1804 121.767 78.1668C121.78 78.1532 121.789 78.1372 121.796 78.1198C121.802 78.1023 121.805 78.0837 121.804 78.0651C121.76 76.5888 121.248 74.8149 120.501 73.0287Z" fill="white"/>
<path d="M66.4488 98.7755L63.582 74.1889L61.2383 74.0674L65.2666 98.7725C65.2766 98.8177 65.2957 98.8603 65.3226 98.8974C65.3496 98.9346 65.3839 98.9655 65.4232 98.9882C65.5497 99.0621 65.6912 99.1045 65.8365 99.1119C65.9818 99.1193 66.1267 99.0915 66.2596 99.0307C66.3101 99.0096 66.3539 98.9747 66.3862 98.9297C66.4186 98.8846 66.4382 98.8313 66.4429 98.7755H66.4488Z" fill="#263238"/>
<path d="M63.582 74.1889L61.2383 74.0674L61.9269 78.7302C62.4069 78.5515 62.8715 78.332 63.316 78.074C63.5685 77.9576 63.7829 77.7688 63.9337 77.5303L63.582 74.1889Z" fill="#263238"/>
<path d="M32.4594 70.583H30.1128L26.6992 93.7997C26.7013 93.8557 26.7184 93.91 26.7486 93.9567C26.7789 94.0033 26.8211 94.0405 26.8706 94.064C27.0003 94.1312 27.1436 94.1663 27.2888 94.1663C27.4341 94.1663 27.5774 94.1312 27.707 94.064C27.7475 94.0439 27.7833 94.015 27.8119 93.9794C27.8405 93.9437 27.8612 93.9021 27.8725 93.8574L32.4594 70.583Z" fill="#37474F"/>
<path d="M30.1118 70.583L29.1602 77.0623C29.7164 77.5088 30.3203 77.8889 30.96 78.1953L32.4585 70.583H30.1118Z" fill="#263238"/>
<path d="M50.776 107.017L48.5712 82.0048L46.2305 81.8833L49.5968 107.002C49.6067 107.047 49.6258 107.089 49.6528 107.126C49.6798 107.164 49.7141 107.195 49.7534 107.217C49.8793 107.291 50.0204 107.334 50.1652 107.341C50.31 107.348 50.4544 107.32 50.5868 107.26C50.6373 107.239 50.6811 107.204 50.7134 107.159C50.7458 107.114 50.7654 107.06 50.7701 107.005L50.776 107.017Z" fill="#37474F"/>
<path d="M48.8628 85.6166L48.5673 82.017L46.2266 81.8955L46.7024 85.7776C47.2285 85.9538 48.1801 85.8414 48.8628 85.6166Z" fill="#263238"/>
<path d="M45.2573 62.9341H42.9106L39.5 86.1508C39.5018 86.2064 39.5185 86.2606 39.5482 86.3072C39.5779 86.3538 39.6195 86.3911 39.6685 86.415C39.7981 86.4823 39.9414 86.5174 40.0867 86.5174C40.2319 86.5174 40.3752 86.4823 40.5049 86.415C40.545 86.3945 40.5805 86.3655 40.609 86.3299C40.6376 86.2943 40.6585 86.2529 40.6704 86.2085L45.2573 62.9341Z" fill="#263238"/>
<path d="M25.7052 43.9577C25.1753 45.3078 24.859 46.7363 24.7683 48.1892C24.5023 51.4334 25.5693 61.9375 26.2106 66.6367C27.1386 74.486 28.2794 74.5012 29.9315 75.8134C32.7777 78.0734 40.9643 82.4963 43.6657 83.5989C48.5658 85.5795 52.5735 82.5236 55.5585 81.0078C58.2966 79.5847 60.9397 77.9763 63.4703 76.1931C64.2151 75.6342 64.6023 75.0692 64.5934 74.4769C64.5934 74.2399 64.5934 73.277 64.5934 73.0279C64.5934 72.2685 63.9432 71.4575 62.5718 70.5431C60.042 68.8572 50.8948 63.3743 47.3511 61.3543C47.3494 61.3472 47.3457 61.3408 47.3404 61.336C47.3352 61.3311 47.3286 61.3279 47.3216 61.3269C44.5937 59.6259 42.9534 48.0585 41.0648 41.9043C41.0264 41.7737 40.985 41.6461 40.9437 41.5215C40.9023 41.397 40.8757 41.3302 40.8461 41.236C40.725 40.9019 40.6038 40.5951 40.4737 40.3247" fill="#5250F7"/>
<path d="M64.5973 73.0252C64.5973 72.2658 63.9471 71.4547 62.5758 70.5404C60.0459 68.8545 50.8987 63.3716 47.355 61.3515C47.3533 61.3445 47.3496 61.3381 47.3443 61.3332C47.3391 61.3283 47.3325 61.3252 47.3255 61.3242C44.5976 59.6231 42.9573 48.0558 41.0687 41.9015C40.956 41.517 40.8238 41.1388 40.6727 40.7685C40.6727 40.7411 40.6491 40.7138 40.6402 40.6865L40.5308 40.4374L40.4776 40.3128C40.1797 39.6113 39.7521 38.9758 39.2186 38.4416C39.0331 38.265 38.8253 38.1148 38.6009 37.9951C38.3054 37.8159 37.6492 37.4483 37.4867 37.3511C35.6366 36.212 33.2042 37.579 30.1778 39.2831C28.2952 40.3462 26.6874 41.6069 25.7091 43.958C25.1792 45.3081 24.863 46.7366 24.7722 48.1894C24.5062 51.4336 25.5732 61.9378 26.2145 66.637C27.1425 74.4863 28.2833 74.5015 29.9354 75.8137C32.7816 78.0737 40.9683 82.4965 43.6696 83.5992C48.5697 85.5797 52.5774 82.5239 55.5624 81.0081C58.3005 79.585 60.9436 77.9766 63.4742 76.1934C64.219 75.6345 64.6062 75.0695 64.5973 74.4772C64.5944 74.2372 64.5973 73.2743 64.5973 73.0252Z" fill="#5250F7"/>
<path opacity="0.25" d="M64.5973 73.0252C64.5973 72.2658 63.9471 71.4547 62.5758 70.5404C60.0459 68.8545 50.8987 63.3716 47.355 61.3515C47.3533 61.3445 47.3496 61.3381 47.3443 61.3332C47.3391 61.3283 47.3325 61.3252 47.3255 61.3242C44.5976 59.6231 42.9573 48.0558 41.0687 41.9015C40.956 41.517 40.8238 41.1388 40.6727 40.7685C40.6727 40.7411 40.6491 40.7138 40.6402 40.6865L40.5308 40.4374L40.4776 40.3128C40.1797 39.6113 39.7521 38.9758 39.2186 38.4416C39.0331 38.265 38.8253 38.1148 38.6009 37.9951C38.3054 37.8159 37.6492 37.4483 37.4867 37.3511C35.6366 36.212 33.2042 37.579 30.1778 39.2831C28.2952 40.3462 26.6874 41.6069 25.7091 43.958C25.1792 45.3081 24.863 46.7366 24.7722 48.1894C24.5062 51.4336 25.5732 61.9378 26.2145 66.637C27.1425 74.4863 28.2833 74.5015 29.9354 75.8137C32.7816 78.0737 40.9683 82.4965 43.6696 83.5992C48.5697 85.5797 52.5774 82.5239 55.5624 81.0081C58.3005 79.585 60.9436 77.9766 63.4742 76.1934C64.219 75.6345 64.6062 75.0695 64.5973 74.4772C64.5944 74.2372 64.5973 73.2743 64.5973 73.0252Z" fill="white"/>
<path d="M55.5599 79.5473C58.2976 78.1222 60.9406 76.5128 63.4717 74.7296C65.1682 73.4629 65.0116 72.1658 62.5851 70.5407C59.204 68.2867 45.4167 60.2461 45.4167 60.2461C45.4167 60.2461 27.9794 70.8171 28.739 72.7703C29.4985 74.7235 40.2653 80.7623 43.673 82.1353C48.5702 84.131 52.5749 81.063 55.5599 79.5473Z" fill="#5250F7"/>
<path opacity="0.6" d="M55.5599 79.5473C58.2976 78.1222 60.9406 76.5128 63.4717 74.7296C65.1682 73.4629 65.0116 72.1658 62.5851 70.5407C59.204 68.2867 45.4167 60.2461 45.4167 60.2461C45.4167 60.2461 27.9794 70.8171 28.739 72.7703C29.4985 74.7235 40.2653 80.7623 43.673 82.1353C48.5702 84.131 52.5749 81.063 55.5599 79.5473Z" fill="white"/>
<path d="M38.5988 37.9951C36.7635 37.0048 34.3784 38.3505 31.4288 40.0121C29.5403 41.0753 27.9295 42.3359 26.9542 44.6961L25.707 43.958C26.6853 41.6069 28.2931 40.3462 30.1757 39.2831C33.2021 37.579 35.6345 36.212 37.4846 37.3511C37.6472 37.4483 38.2915 37.8159 38.5988 37.9951Z" fill="#5250F7"/>
<path opacity="0.5" d="M38.5988 37.9951C36.7635 37.0048 34.3784 38.3505 31.4288 40.0121C29.5403 41.0753 27.9295 42.3359 26.9542 44.6961L25.707 43.958C26.6853 41.6069 28.2931 40.3462 30.1757 39.2831C33.2021 37.579 35.6345 36.212 37.4846 37.3511C37.6472 37.4483 38.2915 37.8159 38.5988 37.9951Z" fill="white"/>
<path d="M41.0666 41.908C41.0282 41.7773 40.3957 39.5204 39.2135 38.4481C38.663 37.9378 37.948 37.6554 37.2067 37.6553C35.6049 37.6553 33.6809 38.7458 31.4258 40.0125C31.2396 40.1188 31.0534 40.2282 30.8702 40.3405C30.7993 40.38 30.7283 40.4226 30.6604 40.4681C30.5924 40.5137 30.4919 40.5744 30.4091 40.6291C30.3264 40.6838 30.288 40.7081 30.2289 40.7506C29.8309 41.0201 29.4508 41.3164 29.091 41.6376C29.0348 41.6893 28.9787 41.7409 28.9225 41.7986C28.6945 42.0139 28.4793 42.2432 28.2782 42.4851C28.2398 42.5276 28.2044 42.5732 28.1689 42.6157C28.1334 42.6583 28.0802 42.7251 28.0418 42.7798L27.9177 42.9499C27.8763 43.0046 27.8379 43.0592 27.7965 43.12C27.6345 43.359 27.4846 43.6064 27.3473 43.8612C27.3295 43.8946 27.3088 43.928 27.2941 43.9614C27.2793 43.9948 27.2231 44.0981 27.1877 44.171C27.1522 44.2439 27.0901 44.3776 27.0428 44.4748C26.456 45.8815 26.11 47.3819 26.0203 48.9097C25.5828 54.2408 27.3591 71.8561 29.1412 73.3749C29.1412 73.3749 28.8693 71.6495 32.4543 69.3318C34.8926 67.7552 36.592 66.4308 39.2076 65.1186C45.5471 61.9169 47.3233 61.3185 47.3233 61.3185C44.5954 59.6235 42.9551 48.0562 41.0666 41.908Z" fill="#5250F7"/>
<path opacity="0.4" d="M41.0666 41.908C41.0282 41.7773 40.3957 39.5204 39.2135 38.4481C38.663 37.9378 37.948 37.6554 37.2067 37.6553C35.6049 37.6553 33.6809 38.7458 31.4258 40.0125C31.2396 40.1188 31.0534 40.2282 30.8702 40.3405C30.7993 40.38 30.7283 40.4226 30.6604 40.4681C30.5924 40.5137 30.4919 40.5744 30.4091 40.6291C30.3264 40.6838 30.288 40.7081 30.2289 40.7506C29.8309 41.0201 29.4508 41.3164 29.091 41.6376C29.0348 41.6893 28.9787 41.7409 28.9225 41.7986C28.6945 42.0139 28.4793 42.2432 28.2782 42.4851C28.2398 42.5276 28.2044 42.5732 28.1689 42.6157C28.1334 42.6583 28.0802 42.7251 28.0418 42.7798L27.9177 42.9499C27.8763 43.0046 27.8379 43.0592 27.7965 43.12C27.6345 43.359 27.4846 43.6064 27.3473 43.8612C27.3295 43.8946 27.3088 43.928 27.2941 43.9614C27.2793 43.9948 27.2231 44.0981 27.1877 44.171C27.1522 44.2439 27.0901 44.3776 27.0428 44.4748C26.456 45.8815 26.11 47.3819 26.0203 48.9097C25.5828 54.2408 27.3591 71.8561 29.1412 73.3749C29.1412 73.3749 28.8693 71.6495 32.4543 69.3318C34.8926 67.7552 36.592 66.4308 39.2076 65.1186C45.5471 61.9169 47.3233 61.3185 47.3233 61.3185C44.5954 59.6235 42.9551 48.0562 41.0666 41.908Z" fill="white"/>
<path opacity="0.1" d="M64.5883 74.4745C64.5883 75.082 64.21 75.6318 63.4653 76.1908C60.9353 77.9734 58.2932 79.5818 55.5564 81.0054C54.0018 81.7952 52.1724 82.9981 50.0858 83.6907C45.0851 80.6804 36.4433 75.4101 34.3213 73.6665C33.1285 72.6463 32.2811 71.2638 31.9007 69.7175C31.4849 67.9058 31.3473 66.0384 31.4929 64.183C29.693 63.4722 29.4034 61.3883 29.1551 58.7912C28.496 51.9322 28.4606 43.521 30.225 40.7597C30.2841 40.7172 30.3432 40.6747 30.4053 40.6352L30.6565 40.4772C30.7245 40.4317 30.7924 40.3891 30.8634 40.3497C31.0466 40.2363 31.2328 40.1269 31.4219 40.0216C33.677 38.7458 35.6069 37.6553 37.2029 37.6553C37.8865 37.6553 38.55 37.893 39.0855 38.3296L39.2067 38.4359C39.6211 38.8374 39.9668 39.3077 40.2293 39.8272C40.2707 39.9031 40.3091 39.9821 40.3475 40.058C40.3571 40.0744 40.3651 40.0917 40.3711 40.1097C40.4066 40.1765 40.4362 40.2433 40.4687 40.3102L40.5041 40.3861L40.5248 40.4317L40.578 40.5593C40.643 40.7111 40.7022 40.863 40.7524 40.9876L40.7908 41.0787C40.8292 41.188 40.8647 41.2853 40.8943 41.3825L40.9238 41.4645L40.9504 41.5465C40.9504 41.5678 40.9504 41.5921 40.9741 41.6133L40.9947 41.6801L41.0184 41.7591C41.0184 41.7804 41.0184 41.7986 41.0332 41.8138C41.0448 41.8425 41.0546 41.8719 41.0627 41.9019C42.9513 48.0592 44.5916 59.6265 47.3195 61.3246C47.3271 61.3264 47.3341 61.3305 47.3394 61.3365C47.3446 61.3425 47.348 61.35 47.349 61.358C50.8956 63.375 60.0399 68.8549 62.5697 70.5438C63.9411 71.4551 64.5883 72.2722 64.5913 73.0286C64.5913 73.2746 64.5854 74.2376 64.5883 74.4745Z" fill="black"/>
<path d="M58.8456 92.8524L59.1145 101.358C59.1145 101.358 58.2959 103.162 56.3719 103.311C54.4478 103.46 54.1405 101.473 54.1405 101.473L52.3672 92.2935L58.8456 92.8524Z" fill="#FFA8A7"/>
<path d="M53.7936 105.158C53.7465 105.429 53.7689 105.707 53.8586 105.966C54.0063 106.334 55.0083 107.011 55.5225 107.282C56.0368 107.552 56.4328 107.965 56.882 108.773C57.4968 109.882 58.4248 111.076 59.6011 111.65C61.1771 112.371 62.9294 112.583 64.6254 112.257C66.7385 111.899 66.9277 110.623 66.9277 110.623C66.9277 110.623 67.0548 109.423 66.5346 109.226C66.0145 109.028 53.7936 105.158 53.7936 105.158Z" fill="#263238"/>
<path d="M53.5254 103.672C53.5084 104.182 53.6002 104.689 53.7944 105.158C54.4032 106.051 55.8632 106.373 56.6967 107.588C57.5301 108.803 58.5084 110.683 61.2629 111.288C64.0174 111.892 66.1246 111.02 66.6448 110.219C67.165 109.417 66.7098 108.651 64.9543 107.643C63.0894 106.573 60.8964 103.76 60.8964 103.757C60.1753 102.795 59.8679 101.525 59.4719 100.398C59.4305 100.285 59.3684 100.158 59.2561 100.155C59.1438 100.152 59.0551 100.322 58.9842 100.44C58.8526 100.615 58.6635 100.735 58.4522 100.778C58.2129 100.862 57.9692 100.933 57.7222 100.99C57.2284 101.103 56.7238 101.159 56.2179 101.157C56.1348 101.144 56.05 101.149 55.9687 101.171C55.8874 101.193 55.8113 101.232 55.745 101.285C55.7014 101.346 55.6705 101.416 55.6542 101.49C55.6379 101.565 55.6366 101.641 55.6504 101.716C55.6622 101.908 55.6859 102.099 55.7214 102.287C55.7435 102.379 55.7435 102.475 55.7214 102.567C55.6957 102.631 55.6518 102.685 55.5953 102.723C55.5389 102.761 55.4726 102.781 55.4051 102.779C55.2703 102.774 55.1394 102.731 55.0268 102.655C54.8038 102.541 54.6085 102.376 54.4551 102.175C54.3017 101.973 54.1941 101.738 54.1402 101.488C54.1402 101.488 54.0367 100.96 54.0367 100.936C53.9626 100.978 53.8981 101.037 53.8472 101.107C53.7963 101.177 53.7602 101.257 53.7412 101.343C53.688 101.561 53.7057 101.795 53.6703 102.017C53.5839 102.565 53.5355 103.118 53.5254 103.672Z" fill="#5250F7"/>
<path opacity="0.3" d="M53.5254 103.672C53.5084 104.182 53.6002 104.689 53.7944 105.158C54.4032 106.051 55.8632 106.373 56.6967 107.588C57.5301 108.803 58.5084 110.683 61.2629 111.288C64.0174 111.892 66.1246 111.02 66.6448 110.219C67.165 109.417 66.7098 108.651 64.9543 107.643C63.0894 106.573 60.8964 103.76 60.8964 103.757C60.1753 102.795 59.8679 101.525 59.4719 100.398C59.4305 100.285 59.3684 100.158 59.2561 100.155C59.1438 100.152 59.0551 100.322 58.9842 100.44C58.8526 100.615 58.6635 100.735 58.4522 100.778C58.2129 100.862 57.9692 100.933 57.7222 100.99C57.2284 101.103 56.7238 101.159 56.2179 101.157C56.1348 101.144 56.05 101.149 55.9687 101.171C55.8874 101.193 55.8113 101.232 55.745 101.285C55.7014 101.346 55.6705 101.416 55.6542 101.49C55.6379 101.565 55.6366 101.641 55.6504 101.716C55.6622 101.908 55.6859 102.099 55.7214 102.287C55.7435 102.379 55.7435 102.475 55.7214 102.567C55.6957 102.631 55.6518 102.685 55.5953 102.723C55.5389 102.761 55.4726 102.781 55.4051 102.779C55.2703 102.774 55.1394 102.731 55.0268 102.655C54.8038 102.541 54.6085 102.376 54.4551 102.175C54.3017 101.973 54.1941 101.738 54.1402 101.488L54.0367 100.936C53.9626 100.978 53.8981 101.037 53.8472 101.107C53.7963 101.177 53.7602 101.257 53.7412 101.343C53.688 101.561 53.7057 101.795 53.6703 102.017C53.5839 102.565 53.5355 103.118 53.5254 103.672Z" fill="black"/>
<path d="M70.6969 85.313L71.9294 97.2539C71.9294 97.2539 70.2477 99.0067 68.8527 98.8062C68.4774 98.775 68.1175 98.6391 67.8118 98.4132C67.5061 98.1874 67.2662 97.88 67.1179 97.5243L63.6836 86.0694L70.6969 85.313Z" fill="#FFA8A7"/>
<path d="M67.124 100.896C67.1077 101.17 67.1595 101.444 67.2748 101.692C67.461 102.041 68.5279 102.603 69.0688 102.816C69.6096 103.028 70.047 103.393 70.576 104.146C71.3031 105.182 72.3493 106.273 73.5818 106.707C75.2268 107.25 76.9935 107.266 78.6475 106.753C80.7163 106.145 80.7636 104.872 80.7636 104.872C80.7636 104.872 80.7636 103.657 80.2257 103.527C79.6878 103.396 67.124 100.896 67.124 100.896Z" fill="#263238"/>
<path d="M66.7029 99.4504C66.7382 99.9581 66.8814 100.452 67.1226 100.896C67.823 101.716 69.3096 101.865 70.2643 102.986C71.2189 104.107 72.3922 105.863 75.194 106.157C77.9958 106.452 79.9967 105.349 80.4311 104.496C80.8656 103.642 80.3336 102.931 78.4805 102.123C76.5151 101.267 74.0473 98.7122 74.0473 98.7122C73.2286 97.8313 72.7912 96.6071 72.274 95.5257C72.2237 95.4225 72.1469 95.3009 72.0346 95.3101C71.9223 95.3192 71.8543 95.4984 71.7952 95.6138C71.6823 95.8016 71.5069 95.9408 71.3016 96.0057C71.0734 96.1216 70.8385 96.223 70.5982 96.3094C70.12 96.4795 69.624 96.5917 69.1205 96.6436C69.0363 96.6399 68.9523 96.6539 68.8735 96.6847C68.7947 96.7156 68.7229 96.7625 68.6624 96.8228C68.6262 96.8892 68.6031 96.9623 68.5945 97.0379C68.5858 97.1135 68.5919 97.1901 68.6121 97.2633C68.6446 97.4523 68.689 97.6391 68.7451 97.8222C68.7795 97.9098 68.7927 98.0046 68.7836 98.0986C68.7643 98.1658 68.7258 98.2255 68.6731 98.2699C68.6204 98.3143 68.5559 98.3414 68.488 98.3477C68.3528 98.3571 68.2177 98.3277 68.0979 98.2626C67.6162 98.0379 67.1935 97.7523 67.0369 97.2268C67.0369 97.2268 66.9571 96.9504 66.8743 96.6952C66.8156 96.7444 66.7684 96.8065 66.7361 96.877C66.7039 96.9474 66.6875 97.0244 66.6881 97.1023C66.6586 97.324 66.6881 97.5549 66.6881 97.7797C66.6517 98.3361 66.6566 98.8947 66.7029 99.4504Z" fill="#5250F7"/>
<path opacity="0.3" d="M66.7029 99.4504C66.7382 99.9581 66.8814 100.452 67.1226 100.896C67.823 101.716 69.3096 101.865 70.2643 102.986C71.2189 104.107 72.3922 105.863 75.194 106.157C77.9958 106.452 79.9967 105.349 80.4311 104.496C80.8656 103.642 80.3336 102.931 78.4805 102.123C76.5151 101.267 74.0473 98.7122 74.0473 98.7122C73.2286 97.8313 72.7912 96.6071 72.274 95.5257C72.2237 95.4225 72.1469 95.3009 72.0346 95.3101C71.9223 95.3192 71.8543 95.4984 71.7952 95.6138C71.6823 95.8016 71.5069 95.9408 71.3016 96.0057C71.0734 96.1216 70.8385 96.223 70.5982 96.3094C70.12 96.4795 69.624 96.5917 69.1205 96.6436C69.0363 96.6399 68.9523 96.6539 68.8735 96.6847C68.7947 96.7156 68.7229 96.7625 68.6624 96.8228C68.6262 96.8892 68.6031 96.9623 68.5945 97.0379C68.5858 97.1135 68.5919 97.1901 68.6121 97.2633C68.6446 97.4523 68.689 97.6391 68.7451 97.8222C68.7795 97.9098 68.7927 98.0046 68.7836 98.0986C68.7643 98.1658 68.7258 98.2255 68.6731 98.2699C68.6204 98.3143 68.5559 98.3414 68.488 98.3477C68.3528 98.3571 68.2177 98.3277 68.0979 98.2626C67.6162 98.0379 67.1935 97.7523 67.0369 97.2268C67.0369 97.2268 66.9571 96.9504 66.8743 96.6952C66.8156 96.7444 66.7684 96.8065 66.7361 96.877C66.7039 96.9474 66.6875 97.0244 66.6881 97.1023C66.6586 97.324 66.6881 97.5549 66.6881 97.7797C66.6517 98.3361 66.6566 98.8947 66.7029 99.4504Z" fill="black"/>
<path d="M32.7383 61.0453L39.5181 60.2798L52.6493 61.0088C52.6493 61.0088 60.5346 66.191 66.2593 70.3283C67.9233 71.5434 69.6847 72.8495 69.9773 75.3677C70.3911 78.943 71.5112 91.6252 71.5112 91.6252C70.3645 92.9283 67.4356 93.4478 65.6387 93.1045C65.089 91.6404 63.7472 87.1295 63.1088 85.1186C62.468 82.9855 62.014 80.7978 61.7522 78.5816L53.403 73.1958C55.2413 75.1187 55.8442 75.7444 56.8077 76.7438C57.653 77.6217 58.2116 78.7274 58.4598 81.5706C58.9534 87.2085 58.9888 94.9362 59.0509 96.6646C58.3593 97.6579 55.5605 98.9672 53.3439 97.822C52.5873 94.8026 52.2474 93.3263 51.5913 90.5134C50.3263 85.076 50.7785 83.2626 50.5273 82.087C47.471 80.5026 44.5049 78.741 41.6431 76.8106C39.6718 75.4801 36.9144 74.0312 35.5223 72.5336C32.9097 69.739 32.9127 65.6534 32.7383 61.0453Z" fill="#37474F"/>
<path d="M53.4006 73.1958L48.6719 67.6946C48.6719 67.6946 51.187 66.8228 52.514 63.4692C52.514 63.4692 52.2184 66.6496 50.3654 68.047L52.5731 71.1211L61.7351 78.5754L53.4006 73.1958Z" fill="#263238"/>
<path d="M58.9297 110.255C59.0124 108.894 60.1119 107.476 62.2073 107.017C64.3027 106.558 65.3874 107.503 65.881 107.877C66.3745 108.25 67.7547 109.544 66.4721 110.632C65.1894 111.719 63.6614 111.801 62.0655 111.58C60.4695 111.358 59.3701 110.787 58.9297 110.255Z" fill="#FAFAFA"/>
<path d="M72.758 105.395C72.7403 104.031 73.8309 102.239 75.879 101.622C77.9272 101.006 78.9941 101.975 79.5113 102.309C80.0285 102.643 81.5033 103.828 80.3122 105.012C79.1212 106.197 77.5932 106.379 75.9795 106.404C74.8978 106.407 73.2339 105.884 72.758 105.395Z" fill="#FAFAFA"/>
<path d="M52.7514 36.9353C51.4865 35.6443 49.7457 34.4748 48.6138 34.3381C47.6666 34.2051 46.7056 34.2163 45.7617 34.3715L50.1447 44.3958C50.1447 44.3958 56.298 49.502 59.3481 51.7074L60.3263 44.6418C60.3263 44.6418 54.8764 39.1163 52.7514 36.9353Z" fill="#FFA8A7"/>
<path d="M50.7587 35.0003C49.34 33.931 47.8978 33.8186 45.625 34.089L49.3932 44.177L53.9033 47.4668C53.9033 47.4668 53.8737 46.3033 54.7161 44.6904C55.358 43.4489 56.3965 42.4727 57.6568 41.9261C57.6568 41.9261 52.1773 36.0726 50.7587 35.0003Z" fill="#5250F7"/>
<path opacity="0.2" d="M50.7587 35.0003C49.34 33.931 47.8978 33.8186 45.625 34.089L49.3932 44.177L53.9033 47.4668C53.9033 47.4668 53.8737 46.3033 54.7161 44.6904C55.358 43.4489 56.3965 42.4727 57.6568 41.9261C57.6568 41.9261 52.1773 36.0726 50.7587 35.0003Z" fill="black"/>
<path d="M51.2238 42.4391C51.4307 37.0929 48.4043 34.4927 45.6084 34.0947C45.6084 34.0947 44.4676 34.2588 43.3593 34.4775C41.1752 34.9058 36.5085 36.3244 34.5549 37.4574C32.891 38.4203 32.7314 39.5534 32.4388 42.3632C32.229 44.368 32.093 45.8504 32.1433 51.9348C32.1699 56.3849 32.693 60.9444 32.8053 64.0155C36.5883 66.7493 48.6319 66.3879 52.9912 61.2239C51.4041 58.3685 50.4466 56.2908 50.5204 53.5508C50.6505 48.6481 51.1204 45.1396 51.2238 42.4391Z" fill="#5250F7"/>
<path d="M52.2011 20.2096C52.2011 20.1793 52.2011 20.1489 52.1863 20.1185C52.0326 19.4533 51.2997 20.1701 50.883 20.1428C50.9362 19.9059 51.1785 19.7449 51.2672 19.5353C51.3959 19.2463 51.4816 18.9391 51.5213 18.624C51.6005 18.1589 51.5844 17.682 51.4741 17.2236C51.1046 17.3634 50.7677 17.5821 50.3924 17.7188C49.7871 17.9258 49.1499 18.0165 48.5127 17.9861C47.1045 17.938 45.7003 17.8061 44.307 17.5912C43.3833 17.4469 42.4437 17.4469 41.52 17.5912C40.7 17.7241 39.9233 18.0586 39.2561 18.5663C38.3695 19.3287 38.0739 20.0061 38.0532 21.367C37.1961 21.8986 37.0011 22.9496 36.9774 24.1312C36.9479 25.5923 37.6749 26.935 38.2572 28.226C38.2572 28.226 39.7349 31.5036 40.0777 32.1476C40.4797 32.8918 40.8343 33.5175 40.8343 33.5175L40.592 30.7563C41.5673 30.6318 42.3653 30.9112 43.2785 30.5194C44.1421 30.1503 44.9744 29.7083 45.767 29.198C46.596 28.6672 47.3934 28.0859 48.1551 27.4574C48.3188 27.3002 48.4947 27.157 48.6811 27.0291C48.823 26.9502 48.9589 26.9502 49.0801 26.8347C49.3284 26.5947 49.4052 26.1452 49.5323 25.8353C49.595 25.6017 49.677 25.3741 49.7776 25.1549C49.8899 24.9818 50.1205 24.9089 50.2948 24.8025C50.826 24.4922 51.2285 23.9931 51.4268 23.3992C51.5716 22.98 51.6514 22.2722 51.3677 21.8803C51.6957 21.3852 52.2898 20.8627 52.2011 20.2096Z" fill="#455A64"/>
<path d="M42.6356 22.2599C42.6652 23.1225 42.2278 25.0484 40.9008 25.7683C41.0903 26.5638 41.1204 27.3906 40.9894 28.1984C40.9641 28.4122 40.8978 28.6187 40.7944 28.806C40.7431 28.8963 40.6731 28.9739 40.5893 29.0332C40.5055 29.0926 40.4101 29.1322 40.3097 29.1492C40.0348 29.1796 39.9166 29.0125 39.825 28.7969C39.6941 28.5185 39.545 28.2495 39.3787 27.9919C39.3068 27.88 39.2214 27.7779 39.1245 27.6881C38.696 27.3084 37.4458 26.871 36.9227 28.241C36.3818 29.6595 37.6438 31.1571 38.6487 31.391C39.9846 31.6948 40.3481 30.7166 40.3481 30.7166L39.6417 36.4882C40.1737 37.9462 43.1174 39.9602 45.2571 39.5957C47.3969 39.2311 46.2738 37.4086 45.5202 36.3788L45.9192 34.5562C45.9192 34.5562 47.8402 34.7081 48.9692 34.4408C49.8559 34.2282 50.5504 33.3472 50.8696 31.9438C51.4607 29.2677 51.2243 25.5132 50.8371 23.8607C50.4499 22.2082 50.0687 21.9439 49.7672 21.5703C49.6726 22.0594 49.1347 22.6578 47.7161 22.9615C45.6827 23.3777 43.9715 22.7702 42.6356 22.2599Z" fill="#FFA8A7"/>
<path d="M45.9081 34.5353C44.3388 34.2832 42.9527 33.9278 42.1044 33.378C41.4779 32.98 40.9814 31.8409 40.8365 31.4399C40.8365 31.4399 40.7863 32.9588 41.6079 33.8397C42.7724 35.1064 45.7279 35.3585 45.7279 35.3585L45.9081 34.5353Z" fill="#F28F8F"/>
<path d="M44.7687 25.0909L43.3825 25.7683C43.2976 25.5732 43.2896 25.3518 43.3602 25.1507C43.4307 24.9496 43.5743 24.7845 43.7608 24.6899C43.8522 24.6454 43.9515 24.6205 44.0525 24.6167C44.1536 24.6129 44.2543 24.6303 44.3486 24.6678C44.4429 24.7053 44.5288 24.7622 44.601 24.8349C44.6732 24.9077 44.7303 24.9948 44.7687 25.0909Z" fill="#455A64"/>
<path d="M44.9523 30.668L46.9206 31.4152C46.8787 31.5513 46.8105 31.6772 46.7201 31.7855C46.6297 31.8939 46.5189 31.9823 46.3944 32.0455C46.27 32.1088 46.1344 32.1456 45.9957 32.1537C45.8571 32.1617 45.7183 32.141 45.5877 32.0926C45.3231 31.9857 45.1091 31.7775 44.9906 31.5119C44.8722 31.2463 44.8584 30.9438 44.9523 30.668Z" fill="#B16668"/>
<path d="M46.1218 32.1292C46.1103 31.8775 46.0027 31.6407 45.8223 31.4701C45.6419 31.2994 45.4033 31.2088 45.1583 31.2179C45.0779 31.222 44.9983 31.2373 44.9219 31.2635C44.9568 31.4466 45.0364 31.6177 45.1532 31.7606C45.2701 31.9035 45.4203 32.0136 45.5898 32.0806C45.7596 32.1461 45.9435 32.1629 46.1218 32.1292Z" fill="#F28F8F"/>
<path d="M50.1824 25.623L48.8672 24.8727C48.9124 24.784 48.9745 24.7055 49.0498 24.642C49.1251 24.5784 49.2121 24.531 49.3055 24.5027C49.399 24.4744 49.4971 24.4656 49.5939 24.477C49.6907 24.4884 49.7843 24.5197 49.8691 24.569C50.0458 24.6669 50.1778 24.8325 50.2365 25.0298C50.2951 25.2272 50.2757 25.4403 50.1824 25.623Z" fill="#455A64"/>
<path d="M46.8979 30.2155L48.9608 29.5198L46.6289 25.6226L46.8979 30.2155Z" fill="#F28F8F"/>
<path d="M48.6953 26.8258C48.6953 26.9459 48.73 27.0634 48.7949 27.1633C48.8599 27.2632 48.9522 27.3411 49.0602 27.3871C49.1682 27.4331 49.2871 27.4451 49.4017 27.4216C49.5164 27.3982 49.6217 27.3403 49.7044 27.2554C49.787 27.1704 49.8433 27.0622 49.8661 26.9443C49.889 26.8265 49.8772 26.7043 49.8325 26.5933C49.7878 26.4823 49.712 26.3874 49.6148 26.3206C49.5176 26.2539 49.4033 26.2183 49.2864 26.2183C49.1296 26.2183 48.9793 26.2823 48.8684 26.3962C48.7576 26.5101 48.6953 26.6647 48.6953 26.8258Z" fill="#263238"/>
<path d="M44.0352 26.9532C44.0352 27.0727 44.0695 27.1896 44.1338 27.2891C44.1982 27.3887 44.2896 27.4665 44.3968 27.5129C44.5039 27.5593 44.622 27.5722 44.7362 27.55C44.8505 27.5277 44.9558 27.4714 45.039 27.3879C45.1223 27.3044 45.1797 27.1976 45.2041 27.0808C45.2286 26.964 45.219 26.8423 45.1765 26.7311C45.134 26.6198 45.0605 26.5239 44.9653 26.4554C44.8701 26.3868 44.7573 26.3487 44.641 26.3457C44.4829 26.3457 44.331 26.4092 44.2178 26.5227C44.1045 26.6362 44.039 26.7907 44.0352 26.9532Z" fill="#263238"/>
<path d="M60.4542 92.6304V123.918L59.4375 123.314V92.0259L60.4542 92.6304Z" fill="#263238"/>
<path d="M60.457 92.6304V123.918L61.4737 123.314V92.0259L60.457 92.6304Z" fill="#37474F"/>
<path d="M31.7042 75.541V106.829L30.6875 106.224V74.9365L31.7042 75.541Z" fill="#263238"/>
<path d="M31.707 75.541V106.829L32.7237 106.224V74.9365L31.707 75.541Z" fill="#37474F"/>
<path d="M109.712 63.4027V94.6904L108.695 94.0859V62.8013L109.712 63.4027Z" fill="#263238"/>
<path d="M109.715 63.4027V94.6904L110.732 94.0859V62.8013L109.715 63.4027Z" fill="#37474F"/>
<path d="M60.4551 90.7685V94.4926L30.6875 76.7984V73.0742L60.4551 90.7685Z" fill="#37474F"/>
<path d="M60.457 94.4927L110.733 64.6631V60.939L60.457 90.7686V94.4927Z" fill="#455A64"/>
<path d="M60.6192 90.0728L29.5039 71.607L80.7756 41.2822L111.894 59.748L60.6192 90.0728Z" fill="#5250F7"/>
<g opacity="0.8">
<path d="M60.6192 90.0728L29.5039 71.607L80.7756 41.2822L111.894 59.748L60.6192 90.0728Z" fill="white"/>
</g>
<path d="M29.5039 71.6011V74.2286L60.6192 92.6884V90.0669L29.5039 71.6011Z" fill="#5250F7"/>
<g opacity="0.5">
<path d="M29.5039 71.6011V74.2286L60.6192 92.6884V90.0669L29.5039 71.6011Z" fill="white"/>
</g>
<path d="M60.6172 92.6884L111.892 62.391V59.7422L60.6172 90.0669V92.6884Z" fill="#5250F7"/>
<g opacity="0.65">
<path d="M60.6172 92.6879L111.892 62.3905V59.7417L60.6172 90.0665V92.6879Z" fill="white"/>
</g>
<path d="M60.327 44.642C59.9922 46.0904 59.8687 47.582 59.9605 49.0678C59.9605 49.0678 58.9025 46.3035 59.6029 43.9038L60.327 44.642Z" fill="#F28F8F"/>
<path d="M70.9804 27.1177C70.9982 26.814 70.7765 26.7411 70.543 26.7532C70.1954 26.782 69.8646 26.9186 69.5943 27.1451C69.1821 27.5332 68.7988 27.9526 68.4476 28.3996C67.8565 29.0284 66.9107 30.0551 66.0832 30.286C65.9118 30.3315 65.5453 30.3771 65.7078 30.0885C65.9358 29.7235 66.1336 29.3394 66.2989 28.9403C66.3852 28.7409 66.4298 28.5252 66.4298 28.307C66.4298 28.0888 66.3852 27.873 66.2989 27.6736C66.2444 27.5535 66.1486 27.4583 66.03 27.4063C65.8586 27.3455 65.7847 27.4427 65.7019 27.5643C65.6098 27.6863 65.5112 27.8029 65.4064 27.9136C65.1936 28.1475 64.9808 28.3844 64.771 28.6214C63.5503 30.0096 62.3741 31.5527 61.9751 33.4208C61.916 33.6912 61.6973 35.7507 61.5081 36.9323C61.3869 37.9925 60.3259 44.6419 60.3259 44.6419L59.3477 51.7074C62.111 53.694 63.6863 52.7038 64.1414 51.8957C64.898 50.5592 65.5837 49.9729 65.6724 41.9961C65.6872 41.2579 65.6724 40.5198 65.6872 39.7816C65.6819 38.8329 65.7581 37.8855 65.9147 36.9506C66.1127 36.0089 66.825 35.7203 67.2831 35.3892C67.9308 34.9539 68.5166 34.4285 69.0239 33.8279C69.4881 33.3238 69.8856 32.7589 70.2061 32.1481C70.3927 31.8665 70.5195 31.5477 70.5785 31.2125C70.5291 30.9374 70.4965 30.6594 70.4809 30.3801C70.5164 30.0521 70.6997 29.7483 70.6997 29.4203C70.6701 29.1634 70.6095 28.9114 70.5194 28.67C70.4159 28.272 70.5785 27.9683 70.7676 27.6311C70.877 27.4796 70.9499 27.3037 70.9804 27.1177Z" fill="#FFA8A7"/>
<path d="M65.3925 31.3643C65.3452 32.4426 64.7364 33.846 64.2812 34.3442C64.7428 33.9989 65.1077 33.5348 65.3393 32.9985C65.6437 32.148 65.561 31.7379 65.3925 31.3643Z" fill="#F28F8F"/>
<path opacity="0.2" d="M83.4003 64.0402L70.6031 56.4461C70.491 56.3803 70.3642 56.3457 70.2351 56.3457C70.106 56.3457 69.9792 56.3803 69.8672 56.4461L47.6626 69.6264C47.6381 69.6411 47.6178 69.6622 47.6036 69.6875C47.5895 69.7128 47.582 69.7415 47.582 69.7707C47.582 69.7999 47.5895 69.8286 47.6036 69.8539C47.6178 69.8792 47.6381 69.9003 47.6626 69.915L60.581 77.585L83.4003 64.0402Z" fill="black"/>
<path d="M82.4451 62.4424V62.7461C82.4454 62.9597 82.3909 63.1696 82.2872 63.3547C82.1834 63.5397 82.034 63.6934 81.854 63.8002L61.1657 76.0723C60.9854 76.1772 60.7817 76.2323 60.5746 76.2323C60.3674 76.2323 60.1638 76.1772 59.9835 76.0723L48.7083 69.3895C48.5288 69.2829 48.3797 69.1297 48.2759 68.9453C48.1722 68.7608 48.1174 68.5515 48.1172 68.3384V67.9284C48.1166 67.9554 48.1231 67.9822 48.1361 68.0057C48.1491 68.0293 48.1681 68.0488 48.1911 68.062L60.5716 75.4131L82.4451 62.4424Z" fill="#37474F"/>
<path d="M82.4441 62.4393L70.1818 55.149C70.0746 55.085 69.9527 55.0513 69.8287 55.0513C69.7046 55.0513 69.5828 55.085 69.4755 55.149L48.196 67.7765C48.1721 67.7906 48.1522 67.8109 48.1383 67.8354C48.1245 67.86 48.1172 67.8878 48.1172 67.9162C48.1172 67.9446 48.1245 67.9724 48.1383 67.997C48.1522 68.0215 48.1721 68.0418 48.196 68.0559L60.5736 75.4009L82.4441 62.4393Z" fill="#455A64"/>
<path d="M60.4698 74.347L53.8555 70.4254L73.1961 58.9492L79.846 62.8495L60.4698 74.347Z" fill="#37474F"/>
<path d="M79.846 62.8497L79.5918 62.9985L73.1961 59.247L54.1096 70.5744L53.8555 70.4255L73.1961 58.9463L79.846 62.8497Z" fill="#263238"/>
<path d="M57.2148 63.4386L57.336 63.5115L60.5782 65.4343L66.3443 62.0139L66.4625 61.9441L63.0992 59.9453L57.2148 63.4386Z" fill="#263238"/>
<path d="M57.3398 63.5118L60.582 65.4346L66.3481 62.0142L63.103 60.0884L57.3398 63.5118Z" fill="#37474F"/>
<path d="M60.582 75.4161V76.2333C60.7894 76.2338 60.9932 76.1783 61.1731 76.0723L81.8615 63.8002C82.0414 63.6934 82.1908 63.5397 82.2946 63.3547C82.3984 63.1696 82.4529 62.9597 82.4526 62.7461V62.4424L60.582 75.4161Z" fill="#263238"/>
<path d="M60.9141 75.5952C61.1093 75.6728 61.319 75.7044 61.5277 75.6875C61.7364 75.6707 61.9388 75.6059 62.1199 75.498L82.7137 63.2806C82.892 63.174 83.0453 63.0284 83.1628 62.8541C83.2803 62.6798 83.359 62.4811 83.3934 62.2721L85.6485 48.4539C85.6604 48.3765 85.6663 48.2983 85.6662 48.22C85.6666 48.0297 85.6303 47.8412 85.5592 47.6655C85.4882 47.4897 85.3839 47.3303 85.2524 47.1963L63.8518 59.8967C63.7203 59.9755 63.6072 60.083 63.5204 60.2116C63.4336 60.3401 63.3752 60.4867 63.3494 60.6409L60.9141 75.5952Z" fill="#37474F"/>
<path d="M60.582 75.4161L60.7239 75.4981C60.7855 75.5354 60.8497 75.5679 60.916 75.5954L63.3513 60.6411C63.3772 60.4868 63.4355 60.3403 63.5223 60.2117C63.6091 60.0832 63.7222 59.9757 63.8537 59.8968L85.2632 47.1965C85.1742 47.1092 85.0749 47.0337 84.9677 46.9717L63.5227 59.6964C63.3911 59.775 63.2779 59.8825 63.191 60.0111C63.1042 60.1397 63.0459 60.2863 63.0203 60.4406L60.582 75.4161Z" fill="#455A64"/>
<path d="M63.5493 60.1794L63.2183 59.9819C63.118 60.1163 63.051 60.2737 63.0233 60.4406L60.582 75.4162L60.7239 75.4982C60.7855 75.5354 60.8497 75.5679 60.916 75.5954L63.3513 60.6411C63.3814 60.4734 63.4492 60.3153 63.5493 60.1794Z" fill="#263238"/>
<path d="M72.5128 62.8404C72.6635 61.9291 73.5915 60.6867 74.5816 60.1065C75.5717 59.5263 76.2633 59.7876 76.1125 60.714C75.9618 61.6405 75.0308 62.8677 74.0437 63.4479C73.0566 64.0281 72.362 63.779 72.5128 62.8404Z" fill="#5250F7"/>
<path d="M12.6172 109.842C12.6172 107.19 16.3352 105.04 20.925 105.04C25.5149 105.04 29.2329 107.19 29.2329 109.842V110.471C29.2329 113.123 25.5149 115.273 20.925 115.273C16.3352 115.273 12.6172 113.123 12.6172 110.471V109.842Z" fill="#5250F7"/>
<path opacity="0.6" d="M12.6172 109.842C12.6172 107.19 16.3352 105.04 20.925 105.04C25.5149 105.04 29.2329 107.19 29.2329 109.842V110.471C29.2329 113.123 25.5149 115.273 20.925 115.273C16.3352 115.273 12.6172 113.123 12.6172 110.471V109.842Z" fill="white"/>
<path opacity="0.1" d="M12.6172 109.842C12.6172 107.19 16.3352 105.04 20.925 105.04C25.5149 105.04 29.2329 107.19 29.2329 109.842V110.471C29.2329 113.123 25.5149 115.273 20.925 115.273C16.3352 115.273 12.6172 113.123 12.6172 110.471V109.842Z" fill="black"/>
<path d="M12.6172 109.842C12.6172 112.494 16.3352 114.642 20.925 114.642C25.5149 114.642 29.2329 112.494 29.2329 109.842C29.2329 107.19 25.5149 105.04 20.925 105.04C16.3352 105.04 12.6172 107.19 12.6172 109.842Z" fill="#5250F7"/>
<path opacity="0.75" d="M12.6172 109.842C12.6172 112.494 16.3352 114.642 20.925 114.642C25.5149 114.642 29.2329 112.494 29.2329 109.842C29.2329 107.19 25.5149 105.04 20.925 105.04C16.3352 105.04 12.6172 107.19 12.6172 109.842Z" fill="white"/>
<path opacity="0.05" d="M12.6172 109.842C12.6172 112.494 16.3352 114.642 20.925 114.642C25.5149 114.642 29.2329 112.494 29.2329 109.842C29.2329 107.19 25.5149 105.04 20.925 105.04C16.3352 105.04 12.6172 107.19 12.6172 109.842Z" fill="black"/>
<path d="M28.6372 96.0085C28.68 96.009 28.7215 95.9936 28.7541 95.9651C28.7867 95.9366 28.8081 95.897 28.8146 95.8535L29.8963 87.7066C29.8996 87.6829 29.8984 87.6587 29.8926 87.6354C29.8868 87.6122 29.8766 87.5903 29.8626 87.5712C29.8486 87.552 29.8311 87.5358 29.811 87.5236C29.7909 87.5114 29.7686 87.5034 29.7455 87.5C29.699 87.4939 29.652 87.5067 29.6145 87.5356C29.577 87.5645 29.5519 87.6073 29.5446 87.655L28.4629 95.7989C28.456 95.8467 28.4676 95.8954 28.4952 95.9346C28.5228 95.9737 28.5643 96.0003 28.6106 96.0085H28.6372Z" fill="#FAFAFA"/>
<path d="M26.8932 97.91C26.9368 97.9094 26.9787 97.8924 27.0108 97.8622C27.043 97.8319 27.0632 97.7905 27.0675 97.7459L28.1345 87.2509C28.1362 87.2048 28.1209 87.1597 28.0916 87.1248C28.0623 87.0898 28.0212 87.0676 27.9765 87.0626C27.9319 87.0576 27.8871 87.0702 27.8511 87.0978C27.8152 87.1254 27.7907 87.166 27.7828 87.2114L26.7158 97.7095C26.7109 97.7574 26.7246 97.8054 26.7539 97.843C26.7833 97.8805 26.8259 97.9046 26.8725 97.91H26.8932Z" fill="#FAFAFA"/>
<path d="M24.7207 98.9887C24.7658 98.9888 24.8092 98.9713 24.8421 98.9397C24.875 98.9081 24.895 98.8648 24.898 98.8186L25.6901 85.9542C25.6925 85.9055 25.6762 85.8578 25.6447 85.8214C25.6132 85.785 25.569 85.7629 25.5217 85.7598C25.4983 85.7572 25.4748 85.7597 25.4524 85.7671C25.4301 85.7744 25.4095 85.7865 25.392 85.8025C25.3745 85.8185 25.3604 85.8381 25.3506 85.8601C25.3409 85.882 25.3357 85.9058 25.3355 85.9299L24.5434 98.7852C24.5418 98.8091 24.5448 98.8331 24.5523 98.8559C24.5597 98.8786 24.5715 98.8996 24.5868 98.9177C24.6022 98.9358 24.6209 98.9505 24.6419 98.9611C24.6628 98.9718 24.6856 98.978 24.7089 98.9796L24.7207 98.9887Z" fill="#FAFAFA"/>
<path d="M22.2281 99.5232C22.2742 99.5232 22.3184 99.5048 22.3515 99.472C22.3846 99.4391 22.4039 99.3943 22.4055 99.347L22.6655 85.3738C22.6656 85.3257 22.6474 85.2795 22.6148 85.2449C22.5823 85.2103 22.538 85.1901 22.4912 85.1886C22.4674 85.1858 22.4432 85.1885 22.4205 85.1964C22.3979 85.2043 22.3772 85.2174 22.3599 85.2345C22.3427 85.2516 22.3294 85.2724 22.3209 85.2955C22.3124 85.3185 22.309 85.3432 22.3109 85.3678L22.0508 99.3409C22.0504 99.3649 22.0546 99.3886 22.0632 99.4109C22.0717 99.4332 22.0845 99.4535 22.1006 99.4707C22.1168 99.4879 22.1362 99.5017 22.1575 99.5112C22.1789 99.5207 22.2019 99.5258 22.2252 99.5262L22.2281 99.5232Z" fill="#FAFAFA"/>
<path d="M13.0041 96.0085C12.9616 96.0089 12.9205 95.9934 12.8884 95.9648C12.8563 95.9363 12.8354 95.8967 12.8297 95.8535L11.748 87.7066C11.7412 87.6591 11.7529 87.6108 11.7806 87.5721C11.8082 87.5334 11.8496 87.5075 11.8958 87.5C11.9423 87.4939 11.9893 87.5067 12.0268 87.5356C12.0643 87.5645 12.0894 87.6073 12.0967 87.655L13.1814 95.7989C13.1882 95.8472 13.1762 95.8963 13.1479 95.9355C13.1197 95.9748 13.0776 96.001 13.0307 96.0085H13.0041Z" fill="#FAFAFA"/>
<path d="M14.7531 97.9102C14.709 97.9105 14.6663 97.8938 14.6336 97.8635C14.6008 97.8331 14.5802 97.7913 14.5757 97.7462L13.5088 87.2512C13.5038 87.2033 13.5175 87.1553 13.5469 87.1177C13.5762 87.0801 13.6189 87.056 13.6655 87.0507C13.6886 87.0477 13.7121 87.0496 13.7345 87.0561C13.757 87.0627 13.7779 87.0738 13.7961 87.0888C13.8143 87.1038 13.8294 87.1224 13.8404 87.1435C13.8515 87.1646 13.8583 87.1878 13.8605 87.2117L14.9186 97.7098C14.9227 97.758 14.9084 97.806 14.8785 97.8434C14.8487 97.8809 14.8058 97.9049 14.759 97.9102H14.7531Z" fill="#FAFAFA"/>
<path d="M16.9229 98.9887C16.8777 98.9895 16.8339 98.9722 16.8008 98.9405C16.7677 98.9088 16.7479 98.865 16.7456 98.8186L15.9535 85.9542C15.9519 85.9302 15.955 85.9062 15.9624 85.8834C15.9699 85.8607 15.9816 85.8397 15.997 85.8216C16.0124 85.8035 16.0311 85.7888 16.052 85.7782C16.073 85.7675 16.0957 85.7613 16.1191 85.7597C16.1425 85.7572 16.1662 85.7597 16.1887 85.7671C16.2112 85.7744 16.232 85.7864 16.2497 85.8024C16.2675 85.8184 16.2818 85.8379 16.2919 85.8598C16.302 85.8818 16.3075 85.9056 16.3082 85.9299L17.0973 98.7851C17.0989 98.8091 17.0959 98.8331 17.0884 98.8559C17.081 98.8786 17.0692 98.8996 17.0539 98.9177C17.0385 98.9357 17.0198 98.9505 16.9988 98.9611C16.9779 98.9717 16.9551 98.978 16.9318 98.9796L16.9229 98.9887Z" fill="#FAFAFA"/>
<path d="M19.415 99.5231C19.369 99.5232 19.3248 99.5048 19.2917 99.4719C19.2586 99.439 19.2392 99.3942 19.2377 99.3469L18.9806 85.3738C18.9798 85.35 18.9836 85.3263 18.9918 85.3041C19.0001 85.2818 19.0125 85.2615 19.0285 85.2442C19.0444 85.227 19.0636 85.2132 19.0848 85.2036C19.106 85.194 19.1288 85.1889 19.152 85.1885C19.1759 85.1858 19.2002 85.1885 19.223 85.1964C19.2458 85.2044 19.2667 85.2173 19.2841 85.2344C19.3016 85.2514 19.3152 85.2722 19.324 85.2952C19.3328 85.3183 19.3367 85.343 19.3352 85.3677L19.5924 99.3409C19.5931 99.3647 19.5893 99.3884 19.5811 99.4106C19.5729 99.4329 19.5604 99.4532 19.5445 99.4705C19.5285 99.4877 19.5094 99.5015 19.4881 99.5111C19.4669 99.5207 19.4441 99.5258 19.4209 99.5262L19.415 99.5231Z" fill="#FAFAFA"/>
<path d="M28.6343 101.427C28.185 100.859 27.5792 100.322 27.4284 99.5715C27.3132 99.0004 27.3338 98.3564 27.0028 97.8917C26.7472 97.5977 26.4596 97.3347 26.1457 97.108C25.7499 96.7288 25.4825 96.2295 25.3825 95.6829C25.2826 95.1364 25.3553 94.5713 25.5901 94.0703C25.0818 93.8729 24.5055 94.1372 24.0946 94.5017C23.6838 94.8662 23.3558 95.334 22.9125 95.659C22.3214 96.1025 21.547 96.2362 20.8613 96.5278C20.1757 96.8194 19.4959 97.3874 19.4752 98.1499C19.4575 98.8485 19.9865 99.617 19.5816 100.179C18.958 101.042 17.3384 100.243 17.4034 101.792C17.43 102.381 17.631 102.676 17.0399 103.092C16.4488 103.508 15.5947 103.283 14.9711 103.718C14.6628 103.983 14.4292 104.328 14.2943 104.717C14.0963 105.161 13.8982 105.604 13.7416 106.066C13.3062 107.268 13.2616 108.584 13.6145 109.814C13.783 110.346 14.0667 111.124 14.6105 111.3C15.3464 111.54 16.0321 111.3 16.7 111.862C16.969 112.09 17.167 112.39 17.4271 112.624C17.9224 113.032 18.5421 113.248 19.1767 113.232C19.6821 113.232 20.1698 113.04 20.6545 113.031C20.9889 113.061 21.3179 113.136 21.6327 113.256C22.3598 113.432 23.273 113.429 23.8198 112.822C24.2129 112.387 24.3518 111.698 24.866 111.427C25.3803 111.157 26.0482 111.479 26.66 111.461C27.6796 111.437 28.4333 110.395 28.5958 109.359C28.7584 108.323 28.4983 107.278 28.3742 106.236C28.2057 104.86 29.1781 103.839 29.1308 102.573C29.0911 102.146 28.9168 101.743 28.6343 101.427Z" fill="#FAFAFA"/>
<path d="M28.6323 101.428C28.4461 101.194 28.2333 100.963 28.0412 100.72C27.8431 101.376 27.3998 101.935 27.1545 102.567C26.859 103.329 26.859 104.177 26.8412 104.997C26.8412 105.89 26.8412 106.786 26.8412 107.682C26.8585 107.845 26.8176 108.009 26.726 108.144C26.5191 108.375 26.1349 108.198 25.928 107.968C25.7211 107.737 25.5113 107.439 25.2069 107.433C24.8463 107.433 24.5537 107.849 24.199 107.776C23.8444 107.703 23.7705 107.26 23.9035 106.953C24.069 106.663 24.2855 106.408 24.5419 106.2C24.6687 106.094 24.7679 105.958 24.8303 105.803C24.8928 105.648 24.9166 105.479 24.8995 105.313C23.9094 105.182 23.0464 105.963 22.3371 106.686C22.0238 106.989 21.6839 107.448 21.8672 107.858C22.0061 108.162 22.3932 108.296 22.5587 108.596C22.6365 108.778 22.6494 108.982 22.5954 109.173C22.5413 109.363 22.4237 109.528 22.2632 109.638C21.9195 109.855 21.5282 109.98 21.1253 110C20.8622 110.056 20.5905 110.056 20.3274 110C20.1959 109.972 20.0755 109.904 19.9814 109.806C19.8872 109.707 19.8235 109.582 19.7983 109.447C19.7747 109.17 20.0525 108.888 20.3037 108.988C19.8397 108.639 19.3373 108.277 18.7639 108.262C18.1905 108.247 17.5817 108.76 17.697 109.338L15.4124 109.286C15.7257 108.821 15.3562 108.201 14.9691 107.8C14.7163 107.575 14.4999 107.309 14.3277 107.014C14.2428 106.863 14.2006 106.691 14.2058 106.517C14.2111 106.343 14.2635 106.174 14.3573 106.03C14.5524 105.774 14.9336 105.644 14.9809 105.322C14.9843 105.192 14.9409 105.065 14.8591 104.966C14.7774 104.867 14.6629 104.802 14.5376 104.784C14.4495 104.769 14.3596 104.769 14.2716 104.784C14.0824 105.209 13.8933 105.635 13.7455 106.075C13.3101 107.278 13.2655 108.593 13.6184 109.824C13.7869 110.355 14.0706 111.133 14.6144 111.309C15.3503 111.549 16.036 111.309 16.7039 111.871C16.9729 112.099 17.1709 112.399 17.431 112.633C17.9263 113.042 18.546 113.257 19.1806 113.241C19.686 113.241 20.1737 113.05 20.6584 113.04C20.9928 113.07 21.3219 113.145 21.6366 113.265C22.3637 113.441 23.2769 113.438 23.8237 112.831C24.2168 112.396 24.3557 111.707 24.8699 111.437C25.3842 111.166 26.0521 111.488 26.6639 111.47C27.6835 111.446 28.4372 110.404 28.5997 109.368C28.7623 108.332 28.5022 107.287 28.3781 106.245C28.2096 104.869 29.182 103.848 29.1347 102.582C29.0953 102.151 28.9187 101.745 28.6323 101.428Z" fill="#EBEBEB"/>
<path d="M17.2809 104.505C17.3506 104.606 17.398 104.721 17.4199 104.843C17.4419 104.965 17.4378 105.09 17.408 105.21C17.3669 105.327 17.3343 105.448 17.3105 105.571C17.3006 105.633 17.3115 105.697 17.3416 105.753C17.3717 105.808 17.419 105.851 17.476 105.875C17.5762 105.884 17.6761 105.855 17.7568 105.793C17.9857 105.643 18.2601 105.585 18.5281 105.629C18.6617 105.656 18.7807 105.733 18.8621 105.845C18.9434 105.958 18.9814 106.097 18.9685 106.236C19.062 106.067 19.1112 105.876 19.1112 105.682C19.1112 105.488 19.062 105.297 18.9685 105.128C18.9181 105.047 18.8527 104.977 18.776 104.923C18.6993 104.868 18.6129 104.83 18.5216 104.81C18.4304 104.789 18.3362 104.788 18.2445 104.806C18.1528 104.823 18.0654 104.859 17.9873 104.912C18.0274 104.756 18.0108 104.591 17.9405 104.447C17.8703 104.304 17.7513 104.191 17.606 104.131C17.47 104.076 17.3245 104.051 17.1785 104.057C17.0326 104.063 16.8893 104.099 16.7578 104.165C16.9617 104.221 17.1441 104.34 17.2809 104.505Z" fill="#EBEBEB"/>
<path d="M21.0521 102.023C20.9575 102.09 20.8482 102.132 20.7565 102.208C20.7074 102.239 20.6684 102.285 20.6442 102.339C20.6201 102.393 20.6118 102.453 20.6206 102.512C20.8245 102.478 21.0048 102.655 21.1171 102.831C21.2048 103.024 21.3416 103.19 21.5131 103.311C21.6639 103.387 21.853 103.375 21.986 103.478C22.1811 103.636 22.1486 103.943 22.0954 104.192L23.0618 103.526C23.1205 103.489 23.1733 103.443 23.2184 103.39C23.2706 103.301 23.2894 103.195 23.2715 103.093C23.2535 102.991 23.2 102.899 23.1209 102.834C22.9574 102.71 22.7594 102.644 22.5564 102.645C22.3578 102.645 22.1597 102.624 21.9653 102.582C21.9404 102.577 21.9169 102.567 21.8968 102.551C21.8767 102.535 21.8607 102.514 21.8501 102.491C21.8264 102.412 21.921 102.348 21.9978 102.317L22.9288 101.956C22.943 101.942 22.9543 101.925 22.9621 101.907C22.9698 101.888 22.9738 101.868 22.9738 101.848C22.9738 101.828 22.9698 101.808 22.9621 101.789C22.9543 101.771 22.943 101.754 22.9288 101.74C22.8665 101.691 22.7913 101.663 22.7131 101.658C22.1228 101.514 21.5233 101.412 20.9191 101.354C20.925 101.613 21.522 101.692 21.0521 102.023Z" fill="#EBEBEB"/>
<path d="M23.3619 98.0313C22.8624 97.9523 22.2743 98.2196 22.1797 98.7238C22.5905 98.7512 22.9067 99.0975 23.1757 99.4225L23.5895 99.9267C23.7387 100.076 23.8468 100.264 23.9027 100.47C23.9382 100.665 23.9027 100.887 24.0032 101.048C24.0874 101.143 24.1975 101.211 24.3195 101.242C24.4386 101.306 24.5709 101.339 24.7051 101.339C24.8394 101.339 24.9717 101.306 25.0908 101.242C25.1745 101.164 25.2336 101.062 25.2605 100.95C25.2873 100.837 25.2807 100.719 25.2416 100.61C25.1555 100.395 25.029 100.198 24.8692 100.033C25.3284 99.9335 25.8061 99.9779 26.2405 100.161C26.3396 100.223 26.4585 100.242 26.5715 100.215C26.6129 100.193 26.6489 100.162 26.677 100.123C26.7051 100.085 26.7246 100.041 26.7341 99.9936C26.7628 99.8399 26.7476 99.6811 26.6905 99.5361C26.6333 99.3911 26.5366 99.2662 26.4119 99.1764C26.1562 99.0034 25.855 98.9154 25.5489 98.9243C24.6741 98.9304 24.2042 98.1649 23.3619 98.0313Z" fill="#EBEBEB"/>
<path d="M28.8086 110.307L30.975 95.0821C30.9783 95.0583 30.9771 95.0342 30.9713 95.0109C30.9655 94.9877 30.9553 94.9658 30.9413 94.9466C30.9273 94.9275 30.9098 94.9113 30.8897 94.8991C30.8696 94.8869 30.8474 94.8789 30.8243 94.8755C30.7777 94.8694 30.7307 94.8822 30.6932 94.9111C30.6557 94.94 30.6306 94.9828 30.6233 95.0304L28.4628 110.255C28.456 110.303 28.4677 110.351 28.4954 110.39C28.5231 110.428 28.5645 110.454 28.6106 110.462H28.6372C28.6802 110.461 28.7218 110.445 28.7543 110.416C28.7868 110.387 28.8082 110.347 28.8145 110.304" fill="#FAFAFA"/>
<path d="M26.8935 112.363C26.9366 112.363 26.9782 112.346 27.0103 112.317C27.0424 112.287 27.0628 112.246 27.0679 112.202L28.6165 96.9777C28.6215 96.9298 28.6078 96.8818 28.5785 96.8443C28.5491 96.8067 28.5065 96.7826 28.4599 96.7772C28.4368 96.7743 28.4133 96.7761 28.3908 96.7827C28.3684 96.7892 28.3474 96.8003 28.3293 96.8154C28.3111 96.8304 28.296 96.849 28.2849 96.8701C28.2739 96.8912 28.267 96.9144 28.2648 96.9382L26.7162 112.163C26.7133 112.187 26.7151 112.211 26.7215 112.234C26.7278 112.257 26.7386 112.278 26.7533 112.297C26.7679 112.316 26.786 112.331 26.8065 112.343C26.827 112.354 26.8496 112.361 26.8728 112.363H26.8935Z" fill="#FAFAFA"/>
<path d="M24.7205 113.445C24.7659 113.444 24.8093 113.426 24.8421 113.394C24.875 113.362 24.8949 113.318 24.8979 113.271L25.8259 98.0468C25.8275 98.023 25.8245 97.9992 25.817 97.9766C25.8095 97.954 25.7977 97.9332 25.7823 97.9154C25.7669 97.8976 25.7481 97.8831 25.7272 97.8728C25.7063 97.8625 25.6836 97.8566 25.6604 97.8554C25.6369 97.8529 25.6132 97.8554 25.5907 97.8628C25.5682 97.8701 25.5475 97.8821 25.5297 97.8981C25.5119 97.9141 25.4976 97.9336 25.4875 97.9556C25.4775 97.9775 25.4719 98.0013 25.4712 98.0256L24.5432 113.25C24.5408 113.298 24.5567 113.346 24.5876 113.382C24.6185 113.418 24.6619 113.441 24.7087 113.445H24.7205Z" fill="#FAFAFA"/>
<path d="M22.2273 113.979C22.2738 113.979 22.3185 113.961 22.3516 113.927C22.3848 113.894 22.4038 113.848 22.4046 113.8L22.7002 98.5755C22.7006 98.5516 22.6964 98.5278 22.6878 98.5055C22.6793 98.4833 22.6665 98.4629 22.6503 98.4457C22.6341 98.4285 22.6148 98.4148 22.5934 98.4052C22.5721 98.3957 22.5491 98.3906 22.5258 98.3902C22.502 98.3875 22.4779 98.3901 22.4552 98.3981C22.4325 98.406 22.4118 98.419 22.3945 98.4361C22.3773 98.4533 22.364 98.4741 22.3555 98.4971C22.347 98.5202 22.3436 98.5449 22.3455 98.5694L22.0352 113.794C22.0348 113.818 22.039 113.842 22.0475 113.864C22.0561 113.886 22.0688 113.907 22.085 113.924C22.1012 113.941 22.1205 113.955 22.1419 113.964C22.1633 113.974 22.1863 113.979 22.2096 113.979H22.2273Z" fill="#FAFAFA"/>
<path d="M19.6205 113.979C19.6438 113.979 19.6668 113.974 19.6881 113.964C19.7095 113.955 19.7288 113.941 19.745 113.924C19.7612 113.907 19.774 113.886 19.7825 113.864C19.7911 113.842 19.7953 113.818 19.7949 113.794L19.4845 98.5694C19.4838 98.5215 19.4647 98.476 19.4316 98.4424C19.3984 98.4089 19.3537 98.3901 19.3072 98.3901C19.2839 98.3905 19.2609 98.3956 19.2396 98.4052C19.2182 98.4147 19.1989 98.4284 19.1827 98.4457C19.1665 98.4629 19.1538 98.4832 19.1452 98.5054C19.1366 98.5277 19.1324 98.5515 19.1328 98.5754L19.4284 113.8C19.4287 113.825 19.434 113.85 19.444 113.873C19.454 113.895 19.4685 113.916 19.4865 113.933C19.5045 113.949 19.5257 113.962 19.5488 113.97C19.5718 113.978 19.5962 113.981 19.6205 113.979Z" fill="#FAFAFA"/>
<path d="M17.1254 113.444C17.1722 113.441 17.2156 113.418 17.2465 113.382C17.2775 113.345 17.2934 113.298 17.2909 113.25L16.3629 98.0254C16.3631 98.0008 16.3582 97.9765 16.3485 97.9541C16.3387 97.9317 16.3243 97.9118 16.3064 97.8956C16.2884 97.8794 16.2672 97.8675 16.2444 97.8605C16.2215 97.8535 16.1974 97.8518 16.1737 97.8553C16.1506 97.8564 16.1278 97.8623 16.1069 97.8726C16.086 97.8829 16.0673 97.8974 16.0519 97.9152C16.0364 97.933 16.0246 97.9538 16.0172 97.9764C16.0097 97.999 16.0066 98.0228 16.0082 98.0466L16.9362 113.271C16.9393 113.32 16.9609 113.365 16.9963 113.398C17.0317 113.43 17.0781 113.447 17.1254 113.444Z" fill="#FAFAFA"/>
<path d="M14.9548 112.363H14.9755C14.9987 112.361 15.0213 112.354 15.0418 112.343C15.0624 112.331 15.0805 112.316 15.0951 112.297C15.1097 112.278 15.1205 112.257 15.1269 112.234C15.1332 112.211 15.135 112.187 15.1322 112.163L13.5835 96.9381C13.5817 96.9141 13.5751 96.8907 13.5642 96.8694C13.5533 96.8481 13.5382 96.8293 13.5199 96.8142C13.5016 96.7991 13.4805 96.788 13.4579 96.7817C13.4353 96.7753 13.4117 96.7738 13.3884 96.7771C13.3652 96.7794 13.3427 96.7864 13.3221 96.7978C13.3016 96.8092 13.2835 96.8247 13.2689 96.8434C13.2543 96.862 13.2435 96.8836 13.2371 96.9066C13.2307 96.9297 13.2289 96.9538 13.2318 96.9776L14.7805 112.202C14.7855 112.246 14.806 112.287 14.8381 112.317C14.8702 112.346 14.9117 112.363 14.9548 112.363Z" fill="#FAFAFA"/>
<path d="M13.2088 110.465H13.2324C13.2556 110.461 13.2778 110.453 13.2979 110.441C13.318 110.429 13.3355 110.413 13.3495 110.393C13.3635 110.374 13.3737 110.352 13.3795 110.329C13.3853 110.306 13.3865 110.282 13.3832 110.258L11.2168 95.0334C11.2095 94.9858 11.1844 94.9429 11.1469 94.914C11.1094 94.8851 11.0624 94.8723 11.0158 94.8785C10.9927 94.8818 10.9705 94.8898 10.9504 94.902C10.9303 94.9142 10.9127 94.9304 10.8987 94.9496C10.8847 94.9688 10.8746 94.9906 10.8688 95.0138C10.863 95.0371 10.8618 95.0613 10.8651 95.085L13.0315 110.31C13.0385 110.353 13.0601 110.392 13.0926 110.42C13.125 110.449 13.1662 110.464 13.2088 110.465Z" fill="#FAFAFA"/>
<path d="M9.36641 92.099C9.48596 92.6998 9.72328 93.2692 10.0639 93.7727C10.7496 94.7698 11.6497 95.5909 12.6943 96.1724C17.2369 98.8668 24.6108 98.8668 29.1593 96.1724C30.2025 95.5901 31.1014 94.769 31.7867 93.7727C32.1237 93.2672 32.3607 92.6985 32.4842 92.099C32.8891 90.0698 31.7778 87.9556 29.1563 86.4003C24.6078 83.6999 17.2339 83.6999 12.6913 86.4003C10.0698 87.9556 8.96151 90.0698 9.36641 92.099ZM14.0627 95.3705C12.5997 94.4987 11.6983 93.4234 11.3702 92.2994C11.6953 91.0844 12.5938 89.9331 14.0627 88.9945C17.8516 86.5826 23.996 86.5826 27.785 88.9945C29.2627 89.9331 30.1493 91.0935 30.4774 92.3025C30.1464 93.4264 29.245 94.5017 27.782 95.3705C23.996 97.6032 17.8516 97.6032 14.0627 95.3705Z" fill="#5250F7"/>
<path opacity="0.75" d="M9.36641 92.099C9.48596 92.6998 9.72328 93.2692 10.0639 93.7727C10.7496 94.7698 11.6497 95.5909 12.6943 96.1724C17.2369 98.8668 24.6108 98.8668 29.1593 96.1724C30.2025 95.5901 31.1014 94.769 31.7867 93.7727C32.1237 93.2672 32.3607 92.6985 32.4842 92.099C32.8891 90.0698 31.7778 87.9556 29.1563 86.4003C24.6078 83.6999 17.2339 83.6999 12.6913 86.4003C10.0698 87.9556 8.96151 90.0698 9.36641 92.099ZM14.0627 95.3705C12.5997 94.4987 11.6983 93.4234 11.3702 92.2994C11.6953 91.0844 12.5938 89.9331 14.0627 88.9945C17.8516 86.5826 23.996 86.5826 27.785 88.9945C29.2627 89.9331 30.1493 91.0935 30.4774 92.3025C30.1464 93.4264 29.245 94.5017 27.782 95.3705C23.996 97.6032 17.8516 97.6032 14.0627 95.3705Z" fill="white"/>
<path d="M10.0628 93.7698C10.748 94.7662 11.6469 95.5873 12.6902 96.1696C17.2387 98.867 24.6096 98.867 29.1581 96.1696C30.2014 95.5873 31.1004 94.7662 31.7856 93.7698C32.1246 93.2669 32.3608 92.6985 32.4801 92.0991L31.9658 94.2103C31.7294 95.6775 30.6654 97.1082 28.7651 98.2351C24.4323 100.802 17.4101 100.802 13.0774 98.2351C11.2036 97.1234 10.1396 95.7109 9.88841 94.2619L9.86181 94.0736L9.35938 92.0991C9.48212 92.699 9.72136 93.2672 10.0628 93.7698Z" fill="#5250F7"/>
<path opacity="0.6" d="M10.0628 93.7698C10.748 94.7662 11.6469 95.5873 12.6902 96.1696C17.2387 98.867 24.6096 98.867 29.1581 96.1696C30.2014 95.5873 31.1004 94.7662 31.7856 93.7698C32.1246 93.2669 32.3608 92.6985 32.4801 92.0991L31.9658 94.2103C31.7294 95.6775 30.6654 97.1082 28.7651 98.2351C24.4323 100.802 17.4101 100.802 13.0774 98.2351C11.2036 97.1234 10.1396 95.7109 9.88841 94.2619L9.86181 94.0736L9.35938 92.0991C9.48212 92.699 9.72136 93.2672 10.0628 93.7698Z" fill="white"/>
<path d="M11.2724 91.868C11.299 92.0077 11.3315 92.1444 11.3699 92.2841C11.695 91.0691 12.5935 89.9178 14.0623 88.9792C17.8513 86.5673 23.9957 86.5673 27.7846 88.9792C29.2624 89.9178 30.149 91.0782 30.4771 92.2872C30.521 92.1493 30.5545 92.0081 30.5776 91.8649C30.8731 90.2064 29.9273 88.4871 27.7817 87.2113C23.9957 84.9634 17.8513 84.9634 14.0623 87.2113C11.9196 88.4871 10.9886 90.2064 11.2724 91.868Z" fill="#5250F7"/>
<path opacity="0.6" d="M11.2724 91.868C11.299 92.0077 11.3315 92.1444 11.3699 92.2841C11.695 91.0691 12.5935 89.9178 14.0623 88.9792C17.8513 86.5673 23.9957 86.5673 27.7846 88.9792C29.2624 89.9178 30.149 91.0782 30.4771 92.2872C30.521 92.1493 30.5545 92.0081 30.5776 91.8649C30.8731 90.2064 29.9273 88.4871 27.7817 87.2113C23.9957 84.9634 17.8513 84.9634 14.0623 87.2113C11.9196 88.4871 10.9886 90.2064 11.2724 91.868Z" fill="white"/>
<path d="M73.436 7.65031C73.4398 7.60976 73.4333 7.56889 73.4173 7.53165C73.4012 7.4944 73.3761 7.46204 73.3443 7.43768L72.7355 7.0762C72.6984 7.05897 72.6575 7.05214 72.6171 7.05641C72.5766 7.06068 72.5379 7.07589 72.505 7.1005L63.1657 12.6351L62.9144 11.7724C62.8948 11.6946 62.8459 11.6279 62.7785 11.5871L62.1667 11.2287C62.1218 11.202 62.0708 11.188 62.0189 11.188C61.9671 11.188 61.9161 11.202 61.8712 11.2287L57.8576 13.6102C57.7628 13.6737 57.6839 13.7594 57.6274 13.8602C57.5709 13.961 57.5384 14.0741 57.5325 14.1903V27.9357C57.5284 27.9759 57.5344 28.0166 57.5499 28.0539C57.5654 28.0911 57.59 28.1236 57.6212 28.1483L58.2271 28.5098C58.2634 28.5241 58.3026 28.5291 58.3412 28.5243C58.3798 28.5195 58.4167 28.5052 58.4487 28.4824L73.099 19.7887C73.1943 19.7253 73.2736 19.6398 73.3306 19.539C73.3876 19.4382 73.4207 19.3249 73.4271 19.2085L73.436 7.65031Z" fill="#5250F7"/>
<g opacity="0.5">
<path d="M62.7734 11.5775C62.7285 11.5509 62.6775 11.5368 62.6257 11.5368C62.5738 11.5368 62.5228 11.5509 62.4779 11.5775L58.4673 13.9621C58.3727 14.0256 58.2937 14.1108 58.2368 14.2112L57.625 13.8497C57.6794 13.7466 57.7588 13.6598 57.8555 13.5976L61.8691 11.2282C61.914 11.2015 61.965 11.1875 62.0168 11.1875C62.0687 11.1875 62.1197 11.2015 62.1646 11.2282L62.7734 11.5775Z" fill="white"/>
<path d="M73.3308 7.42529C73.2954 7.41387 73.2579 7.41067 73.2211 7.41592C73.1843 7.42117 73.1491 7.43475 73.118 7.45567L63.6841 13.051C63.6452 13.0746 63.6014 13.0887 63.5564 13.0922C63.5113 13.0957 63.466 13.0885 63.424 13.0712C63.3821 13.0539 63.3445 13.0269 63.3143 12.9923C63.2841 12.9577 63.262 12.9165 63.2497 12.8718L63.1758 12.6227L72.5151 7.08811C72.5581 7.05882 72.6084 7.04299 72.6599 7.04255C72.6898 7.04169 72.7194 7.04903 72.7456 7.06381L73.3308 7.42529Z" fill="white"/>
</g>
<path opacity="0.2" d="M58.1882 28.476L58.2207 28.5125L57.6296 28.1601C57.6058 28.1442 57.5864 28.1222 57.5734 28.0963C57.5718 28.0832 57.5718 28.0699 57.5734 28.0568C57.561 28.0218 57.555 27.9847 57.5557 27.9475V14.1869C57.5544 14.1738 57.5544 14.1606 57.5557 14.1475C57.5557 14.1201 57.5557 14.0928 57.5557 14.0624V14.0229C57.5694 13.9802 57.5862 13.9386 57.6059 13.8984C57.6059 13.8832 57.6059 13.871 57.6266 13.8589L58.2384 14.2204C58.1801 14.3207 58.1476 14.4346 58.1438 14.5515V28.3059C58.1424 28.3261 58.1424 28.3464 58.1438 28.3666C58.1425 28.3767 58.1425 28.387 58.1438 28.397C58.1438 28.397 58.1438 28.397 58.1438 28.4153V28.4365C58.1561 28.4524 58.1711 28.4658 58.1882 28.476Z" fill="black"/>
<path d="M68.6347 16.3193C68.6347 18.3909 67.4111 20.7937 65.8979 21.6929C64.3847 22.592 63.1641 21.6351 63.1641 19.5665C63.1641 17.4979 64.3876 15.0921 65.8979 14.196C67.4081 13.2999 68.6347 14.2658 68.6347 16.3193Z" fill="#FAFAFA"/>
<path d="M67.3916 16.219L66.0941 15.2105H66.0645C66.0418 15.1975 66.018 15.1864 65.9936 15.1771H65.9375H65.899C65.8873 15.1757 65.8754 15.1757 65.8636 15.1771C65.8528 15.1755 65.8418 15.1755 65.8311 15.1771C65.8233 15.1754 65.8152 15.1754 65.8074 15.1771C65.7828 15.1858 65.759 15.197 65.7365 15.2105L65.6922 15.2409C65.672 15.261 65.6541 15.2834 65.639 15.3077C65.639 15.3077 65.6212 15.3229 65.6153 15.335L64.3179 17.8836C64.2783 17.9614 64.2705 18.0521 64.296 18.1358C64.3214 18.2195 64.3782 18.2894 64.4538 18.3301C64.5006 18.3543 64.5522 18.3668 64.6045 18.3666C64.665 18.369 64.7249 18.3538 64.7772 18.3226C64.8295 18.2914 64.8721 18.2455 64.9001 18.1904L65.5917 16.8326V20.4292C65.5993 20.5111 65.6364 20.5872 65.6957 20.6425C65.755 20.6979 65.8322 20.7286 65.9123 20.7286C65.9924 20.7286 66.0697 20.6979 66.129 20.6425C66.1882 20.5872 66.2253 20.5111 66.233 20.4292V16.137L67.0162 16.7445C67.0493 16.7757 67.0883 16.7995 67.1308 16.8144C67.1733 16.8292 67.2184 16.8347 67.2631 16.8306C67.3078 16.8265 67.3512 16.8128 67.3905 16.7904C67.4298 16.7681 67.4641 16.7375 67.4912 16.7007C67.5183 16.6639 67.5376 16.6217 67.5479 16.5768C67.5582 16.5319 67.5592 16.4853 67.551 16.4399C67.5427 16.3945 67.5253 16.3514 67.4999 16.3134C67.4745 16.2754 67.4416 16.2432 67.4034 16.219H67.3916Z" fill="#5250F7"/>
<path d="M81.3845 12.5862C80.7054 15.9967 81.1202 19.5416 82.5667 22.6894C82.5667 22.6894 90.1415 20.8668 94.0516 21.2313C92.6025 18.2464 92.2469 14.8251 93.0497 11.5929C89.9908 10.8365 84.0385 11.0309 81.3845 12.5862Z" fill="#F5F5F5"/>
<path d="M83.0196 21.775C81.9086 19.0397 81.5785 16.0358 82.068 13.1147C84.3732 11.9725 89.1079 11.6931 92.1166 12.2034C91.6083 14.9548 91.8664 17.7978 92.8614 20.405C89.4567 20.4081 84.7072 21.3983 83.0196 21.775Z" fill="#5250F7"/>
<path opacity="0.7" d="M83.0196 21.775C81.9086 19.0397 81.5785 16.0358 82.068 13.1147C84.3732 11.9725 89.1079 11.6931 92.1166 12.2034C91.6083 14.9548 91.8664 17.7978 92.8614 20.405C89.4567 20.4081 84.7072 21.3983 83.0196 21.775Z" fill="white"/>
<path opacity="0.7" d="M88.8393 13.6586C88.6496 13.6178 88.4518 13.6533 88.2869 13.7578C88.1219 13.8624 88.0022 14.028 87.9526 14.2206C87.9358 14.3154 87.9379 14.4128 87.9589 14.5067C87.9798 14.6007 88.0191 14.6893 88.0744 14.7671C88.1297 14.845 88.1998 14.9105 88.2805 14.9596C88.3612 15.0087 88.4507 15.0405 88.5437 15.0529C88.7335 15.0954 88.932 15.0605 89.0973 14.9557C89.2626 14.8509 89.382 14.6843 89.4304 14.491C89.4472 14.3961 89.445 14.2988 89.4241 14.2048C89.4032 14.1109 89.3639 14.0223 89.3086 13.9444C89.2533 13.8666 89.1832 13.8011 89.1025 13.752C89.0218 13.7028 88.9322 13.6711 88.8393 13.6586Z" fill="white"/>
<path opacity="0.7" d="M82.6016 19.4665L85.3413 15.5176L90.1587 19.023L88.5421 17.3037L89.6888 16.119L91.9379 18.3912C92.0679 18.9682 92.2298 19.5372 92.4226 20.0953C89.2218 20.1804 85.1049 21.0066 83.2045 21.4227C82.9565 20.787 82.755 20.1331 82.6016 19.4665Z" fill="white"/>
<path opacity="0.2" d="M81.2656 18.3486C81.4875 19.8553 81.9299 21.3187 82.5779 22.6894C82.5779 22.6894 83.9078 22.3856 85.7402 22.0272C84.9556 20.6214 84.438 19.0751 84.2152 17.4707C83.2086 17.6727 82.2215 17.9665 81.2656 18.3486Z" fill="black"/>
<path d="M73.2148 22.7716C73.9017 26.1839 75.6471 29.275 78.1889 31.5808C78.1889 31.5808 84.4545 26.8451 88.1844 25.5845C85.7062 23.4295 84.0654 20.4298 83.562 17.1338C80.4439 17.6836 75.0532 20.2717 73.2148 22.7716Z" fill="#F5F5F5"/>
<path d="M78.2428 30.557C76.1687 28.4942 74.708 25.8678 74.0312 22.9841C75.7129 21.0036 79.9422 18.8226 82.9243 18.0723C83.5138 20.8015 84.8392 23.3049 86.7487 25.2958C83.6336 26.69 79.6467 29.5272 78.2428 30.557Z" fill="#5250F7"/>
<path opacity="0.7" d="M78.2428 30.557C76.1687 28.4942 74.708 25.8678 74.0312 22.9841C75.7129 21.0036 79.9422 18.8226 82.9243 18.0723C83.5138 20.8015 84.8392 23.3049 86.7487 25.2958C83.6336 26.69 79.6467 29.5272 78.2428 30.557Z" fill="white"/>
<path opacity="0.7" d="M80.4778 20.7362C80.2899 20.778 80.1243 20.8915 80.0146 21.0539C79.9049 21.2163 79.8592 21.4154 79.8867 21.611C79.908 21.7048 79.9475 21.7931 80.003 21.8707C80.0584 21.9483 80.1286 22.0135 80.2093 22.0623C80.29 22.1112 80.3795 22.1427 80.4724 22.1549C80.5653 22.1671 80.6597 22.1598 80.7497 22.1335C80.9391 22.0944 81.1065 21.9815 81.2167 21.8184C81.3268 21.6553 81.3713 21.4547 81.3408 21.2586C81.3196 21.1649 81.2801 21.0765 81.2246 20.999C81.1692 20.9214 81.099 20.8562 81.0183 20.8073C80.9376 20.7585 80.8481 20.727 80.7552 20.7147C80.6623 20.7025 80.5679 20.7098 80.4778 20.7362Z" fill="white"/>
<path opacity="0.7" d="M76.9609 28.6095L77.9658 23.8799L83.7378 25.1466L81.5981 24.1988L82.1892 22.6436L85.1299 23.8191C85.4689 24.2975 85.8351 24.7549 86.2264 25.1891C83.3182 26.5651 79.8544 28.9922 78.2643 30.1465C77.7938 29.6677 77.3581 29.154 76.9609 28.6095Z" fill="white"/>
<path d="M93.9912 43.1473C91.018 43.1473 88.0803 41.586 87.034 40.5319C84.7866 37.6125 83.4293 34.0752 83.1328 30.3649C83.7446 30.4257 84.3564 30.4561 84.9563 30.4561C89.4989 30.4561 92.4485 28.6882 93.2317 28.1475C94.2425 34.6966 99.3111 38.7276 100.186 39.3867C99.2224 40.8904 97.526 42.1024 95.1616 42.9863C95.0464 43.0319 94.9281 43.0714 94.8099 43.1078C94.5379 43.1361 94.2646 43.1493 93.9912 43.1473Z" fill="#FAFAFA"/>
<path d="M93.1297 28.4301C94.1937 34.63 98.8338 38.5394 99.9834 39.4233C99.0259 40.8358 97.3944 41.981 95.1217 42.8285C95.0123 42.8711 94.903 42.9075 94.7907 42.944C94.5255 42.9711 94.2592 42.9843 93.9927 42.9835C91.0786 42.9835 88.2029 41.4646 87.1626 40.4288C84.9802 37.5878 83.6457 34.1577 83.3205 30.5534C83.8731 30.602 84.4258 30.6263 84.9667 30.6263C89.2728 30.6263 92.1041 29.1075 93.1386 28.4301M93.375 27.8682C93.375 27.8682 90.3131 30.2983 84.9667 30.2983C84.2992 30.297 83.6323 30.2595 82.9688 30.1859C83.242 34.003 84.6225 37.6482 86.932 40.6505C88.0433 41.7684 91.0431 43.3146 94.0015 43.3146C94.2899 43.3151 94.578 43.2989 94.8646 43.266C94.9887 43.2295 95.1158 43.1839 95.2399 43.1384C97.2053 42.4063 99.2889 41.2216 100.43 39.3413C100.43 39.3413 94.3739 35.1767 93.375 27.8682Z" fill="#E0E0E0"/>
<path d="M92.8274 29.8789L93.8943 33.1656C93.0159 33.9813 91.9213 34.51 90.7497 34.6845L89.7773 31.2489C90.8703 30.9982 91.906 30.533 92.8274 29.8789Z" fill="#5250F7"/>
<path opacity="0.7" d="M92.8274 29.8789L93.8943 33.1656C93.0159 33.9813 91.9213 34.51 90.7497 34.6845L89.7773 31.2489C90.8703 30.9982 91.906 30.533 92.8274 29.8789Z" fill="white"/>
<path d="M85 31.966C86.4414 31.9806 87.8801 31.836 89.2914 31.5347" stroke="#E0E0E0" stroke-width="0.812789" stroke-linecap="round" stroke-linejoin="round"/>
<path d="M85.3867 33.7063C86.8359 33.6921 88.2794 33.519 89.6929 33.1899" stroke="#E0E0E0" stroke-width="0.812789" stroke-linecap="round" stroke-linejoin="round"/>
<path d="M86.0078 35.4378C87.403 35.3896 88.7896 35.1932 90.1455 34.8516" stroke="#E0E0E0" stroke-width="0.812789" stroke-linecap="round" stroke-linejoin="round"/>
<path d="M86.8359 37.0961C90.0249 36.8774 92.6169 36.1453 94.4197 34.7358" stroke="#E0E0E0" stroke-width="0.812789" stroke-linecap="round" stroke-linejoin="round"/>
<path d="M87.8359 38.6607C91.019 38.3721 93.5932 37.5824 95.3695 36.1304" stroke="#E0E0E0" stroke-width="0.812789" stroke-linecap="round" stroke-linejoin="round"/>
<path d="M88.9688 40.1004C92.1488 39.7389 94.7083 38.8853 96.452 37.3999" stroke="#E0E0E0" stroke-width="0.812789" stroke-linecap="round" stroke-linejoin="round"/>
<path d="M90.2031 41.3791C93.3773 40.9508 95.919 40.0426 97.6332 38.5146" stroke="#E0E0E0" stroke-width="0.812789" stroke-linecap="round" stroke-linejoin="round"/>
<path d="M91.5078 42.4732C94.6761 41.972 97.203 41.009 98.8965 39.4355" stroke="#E0E0E0" stroke-width="0.812789" stroke-linecap="round" stroke-linejoin="round"/>
<path d="M94.8583 43.2658C93.2741 43.3417 92.1984 41.747 92.0594 40.6504C91.1048 41.2579 88.6991 41.671 86.9258 40.6504C88.5129 42.4517 93.0348 43.7002 94.8583 43.2658Z" fill="#EBEBEB"/>
<path opacity="0.7" d="M92.7567 30.2891C91.9249 30.8207 91.0245 31.2298 90.082 31.5041L90.2771 32.2605C90.2771 32.2605 90.2771 31.8869 90.4722 31.8231C90.9687 31.656 91.4297 31.4646 91.4297 31.4646C91.4297 31.4646 91.9233 32.9622 91.9883 33.2872C92.0095 33.359 92.0164 33.4344 92.0088 33.509C92.0011 33.5836 91.979 33.6559 91.9438 33.7216C91.9085 33.7873 91.8608 33.845 91.8035 33.8914C91.7462 33.9379 91.6804 33.9721 91.61 33.9919L91.678 34.1408C92.1367 33.9672 92.5749 33.741 92.9843 33.4664L92.9282 33.348C92.9282 33.348 92.4257 33.5485 92.278 33.1627C92.1302 32.7769 91.7075 31.3401 91.7075 31.3401C91.7075 31.3401 92.3755 30.9968 92.5351 30.9027C92.625 30.8564 92.7287 30.8474 92.8249 30.8773C92.9211 30.9073 93.0024 30.9739 93.0523 31.0637L92.7567 30.2891Z" fill="white"/>
<path d="M113.889 34.8642C112.8 31.5246 110.688 28.6374 107.869 26.6353C107.869 26.6353 102.123 32.1607 98.5234 33.8831C101.26 35.7468 103.253 38.5597 104.139 41.8083C107.216 40.8666 112.328 37.6072 113.889 34.8642Z" fill="#F5F5F5"/>
<path d="M107.936 27.6621C110.258 29.481 112.029 31.9424 113.04 34.758C111.58 36.9542 107.569 39.6638 104.676 40.7786C103.762 38.1152 102.138 35.7699 99.9883 34.0108C102.967 32.2095 106.641 28.8711 107.936 27.6621Z" fill="#5250F7"/>
<path opacity="0.7" d="M107.936 27.6621C110.258 29.481 112.029 31.9424 113.04 34.758C111.58 36.9542 107.569 39.6638 104.676 40.7786C103.762 38.1152 102.138 35.7699 99.9883 34.0108C102.967 32.2095 106.641 28.8711 107.936 27.6621Z" fill="white"/>
<path opacity="0.7" d="M106.81 36.5564C106.375 35.5254 105.68 34.6328 104.797 33.9713C106.069 33.6823 107.274 33.1395 108.343 32.3735C108.343 32.3735 108.672 34.1506 106.81 36.5564Z" fill="white"/>
<path d="M86.7545 57.9716C86.7248 57.9722 86.6955 57.9643 86.6699 57.9487C86.6443 57.9332 86.6235 57.9106 86.6097 57.8835C86.5982 57.8639 86.5907 57.842 86.5876 57.8193C86.5844 57.7967 86.5858 57.7736 86.5916 57.7514C86.5974 57.7293 86.6075 57.7086 86.6213 57.6906C86.6351 57.6726 86.6522 57.6576 86.6718 57.6465L87.0442 57.4248C87.0834 57.4018 87.1298 57.3958 87.1733 57.4081C87.2168 57.4203 87.2538 57.4498 87.2762 57.4901C87.2985 57.5304 87.3044 57.5781 87.2924 57.6229C87.2805 57.6676 87.2518 57.7056 87.2126 57.7286L86.8402 57.9503C86.8139 57.9647 86.7844 57.972 86.7545 57.9716Z" fill="#455A64"/>
<path d="M88.352 57.0237C88.3223 57.0243 88.293 57.0164 88.2674 57.0009C88.2418 56.9853 88.221 56.9627 88.2072 56.9356C88.1957 56.9162 88.1883 56.8946 88.1852 56.8722C88.1821 56.8497 88.1835 56.8268 88.1893 56.805C88.1951 56.7831 88.2052 56.7626 88.219 56.7449C88.2327 56.7271 88.2498 56.7124 88.2693 56.7017L89.0022 56.2643C89.0414 56.2413 89.0879 56.2353 89.1314 56.2476C89.1749 56.2598 89.2119 56.2893 89.2342 56.3296C89.2566 56.3699 89.2624 56.4176 89.2505 56.4624C89.2386 56.5071 89.2099 56.5451 89.1707 56.5681L88.4377 57.0024C88.4113 57.0168 88.3819 57.0241 88.352 57.0237ZM90.3056 55.8633C90.2764 55.863 90.2478 55.855 90.2224 55.8401C90.1971 55.8252 90.1759 55.804 90.1608 55.7783C90.1497 55.7585 90.1424 55.7367 90.1396 55.7141C90.1367 55.6915 90.1381 55.6686 90.1439 55.6466C90.1497 55.6245 90.1596 55.6039 90.1732 55.5859C90.1867 55.5678 90.2036 55.5527 90.2228 55.5413L90.9558 55.107C90.9752 55.0956 90.9966 55.0883 91.0188 55.0854C91.0409 55.0825 91.0634 55.0842 91.085 55.0902C91.1065 55.0963 91.1267 55.1067 91.1443 55.1207C91.162 55.1348 91.1767 55.1523 91.1878 55.1723C91.1989 55.1922 91.206 55.2142 91.2088 55.237C91.2116 55.2598 91.21 55.2829 91.2041 55.305C91.1982 55.3272 91.1881 55.3479 91.1744 55.366C91.1607 55.3842 91.1437 55.3993 91.1243 55.4107L90.3913 55.8451C90.3651 55.8598 90.3353 55.8661 90.3056 55.8633ZM92.2621 54.7029C92.2252 54.7029 92.1894 54.6904 92.1601 54.6673C92.1308 54.6443 92.1097 54.6121 92.1 54.5755C92.0902 54.5389 92.0925 54.5001 92.1063 54.465C92.1201 54.4298 92.1447 54.4003 92.1764 54.381L92.9094 53.9466C92.9288 53.9352 92.9502 53.9279 92.9723 53.925C92.9945 53.9221 93.017 53.9238 93.0385 53.9298C93.0601 53.9359 93.0802 53.9463 93.0979 53.9604C93.1155 53.9744 93.1303 53.9919 93.1414 54.0119C93.1524 54.0318 93.1596 54.0538 93.1623 54.0766C93.1651 54.0994 93.1635 54.1225 93.1576 54.1446C93.1517 54.1668 93.1417 54.1875 93.128 54.2057C93.1143 54.2238 93.0972 54.239 93.0778 54.2503L92.3508 54.6817C92.3236 54.6969 92.293 54.7042 92.2621 54.7029ZM94.2157 53.5456C94.1781 53.546 94.1415 53.5336 94.1116 53.5101C94.0817 53.4867 94.0603 53.4537 94.0508 53.4163C94.0413 53.3789 94.0442 53.3394 94.0591 53.3039C94.074 53.2685 94.1 53.2391 94.1329 53.2206L94.8659 52.7862C94.885 52.7744 94.9062 52.7666 94.9283 52.7634C94.9504 52.7602 94.9728 52.7617 94.9944 52.7676C95.0159 52.7736 95.036 52.7839 95.0536 52.7981C95.0711 52.8123 95.0857 52.8299 95.0964 52.85C95.1181 52.89 95.1237 52.9372 95.1121 52.9814C95.1005 53.0256 95.0726 53.0635 95.0343 53.0869L94.3014 53.5213C94.2753 53.5368 94.2458 53.5451 94.2157 53.5456ZM96.1693 52.3852C96.1398 52.3843 96.1111 52.3757 96.0858 52.3603C96.0605 52.3449 96.0394 52.3232 96.0244 52.2971C96.0133 52.2774 96.0061 52.2556 96.0032 52.233C96.0003 52.2104 96.0018 52.1874 96.0076 52.1654C96.0133 52.1434 96.0233 52.1228 96.0368 52.1047C96.0504 52.0867 96.0673 52.0715 96.0865 52.0602L96.8195 51.6258C96.8586 51.6029 96.9051 51.5968 96.9486 51.6091C96.9921 51.6213 97.0291 51.6508 97.0515 51.6911C97.0738 51.7314 97.0797 51.7792 97.0677 51.8239C97.0558 51.8686 97.0271 51.9066 96.9879 51.9296L96.255 52.364C96.2286 52.3784 96.1991 52.3857 96.1693 52.3852ZM98.1258 51.2249C98.0957 51.225 98.0662 51.217 98.0402 51.2015C98.0142 51.186 97.9928 51.1637 97.978 51.1368C97.9564 51.0967 97.9507 51.0496 97.9623 51.0054C97.9739 50.9611 98.0018 50.9233 98.0401 50.8998L98.773 50.4654C98.7922 50.454 98.8134 50.4466 98.8354 50.4436C98.8574 50.4407 98.8798 50.4422 98.9012 50.4481C98.9226 50.454 98.9427 50.4643 98.9602 50.4782C98.9778 50.4921 98.9925 50.5095 99.0036 50.5292C99.0151 50.5489 99.0226 50.5707 99.0257 50.5934C99.0288 50.6161 99.0274 50.6392 99.0216 50.6613C99.0158 50.6834 99.0057 50.7041 98.992 50.7221C98.9782 50.7402 98.961 50.7551 98.9415 50.7662L98.2085 51.2005C98.1833 51.2155 98.1549 51.2239 98.1258 51.2249ZM100.079 50.0645C100.05 50.0651 100.021 50.0575 99.9955 50.0425C99.97 50.0275 99.9489 50.0057 99.9345 49.9794C99.923 49.9598 99.9155 49.938 99.9124 49.9153C99.9093 49.8926 99.9107 49.8695 99.9164 49.8474C99.9222 49.8252 99.9323 49.8045 99.9461 49.7865C99.9599 49.7685 99.9771 49.7535 99.9966 49.7425L100.73 49.3051C100.769 49.2821 100.815 49.2761 100.859 49.2883C100.902 49.3006 100.939 49.3301 100.962 49.3704C100.984 49.4107 100.99 49.4584 100.978 49.5031C100.966 49.5478 100.937 49.5859 100.898 49.6088L100.162 50.0432C100.137 50.0592 100.108 50.0667 100.079 50.0645ZM102.033 48.9041C101.996 48.9034 101.961 48.8904 101.932 48.8671C101.903 48.8439 101.883 48.8116 101.873 48.7752C101.864 48.7388 101.866 48.7003 101.88 48.6654C101.894 48.6306 101.919 48.6013 101.95 48.5821L102.683 48.1477C102.722 48.1248 102.769 48.1187 102.812 48.131C102.856 48.1432 102.893 48.1728 102.915 48.213C102.937 48.2533 102.943 48.3011 102.931 48.3458C102.919 48.3905 102.891 48.4285 102.852 48.4515L102.119 48.895C102.091 48.9023 102.061 48.9023 102.033 48.895V48.9041ZM103.989 47.7437C103.953 47.7436 103.917 47.7311 103.887 47.7081C103.858 47.6851 103.837 47.6528 103.827 47.6163C103.818 47.5797 103.82 47.5409 103.834 47.5057C103.847 47.4706 103.872 47.4411 103.904 47.4217L104.637 46.9873C104.676 46.9644 104.722 46.9584 104.766 46.9706C104.809 46.9829 104.846 47.0124 104.869 47.0527C104.891 47.0929 104.897 47.1407 104.885 47.1854C104.873 47.2301 104.844 47.2681 104.805 47.2911L104.072 47.7255C104.047 47.7386 104.018 47.7448 103.989 47.7437ZM105.946 46.5864C105.916 46.5863 105.887 46.5782 105.862 46.5627C105.836 46.5472 105.815 46.5249 105.801 46.4983C105.778 46.4588 105.772 46.4117 105.783 46.3673C105.794 46.3228 105.822 46.2847 105.86 46.2614L106.596 45.827C106.615 45.8156 106.636 45.8083 106.658 45.8053C106.68 45.8024 106.702 45.8039 106.723 45.8099C106.744 45.8158 106.764 45.826 106.781 45.8399C106.799 45.8538 106.813 45.8711 106.824 45.8908C106.846 45.9302 106.853 45.9774 106.842 46.0218C106.831 46.0662 106.803 46.1043 106.765 46.1277L106.029 46.5621C106.004 46.5778 105.975 46.5862 105.946 46.5864ZM107.9 45.426C107.87 45.426 107.841 45.4178 107.815 45.4023C107.79 45.3868 107.769 45.3646 107.755 45.3379C107.743 45.3183 107.736 45.2965 107.733 45.2738C107.729 45.2511 107.731 45.228 107.737 45.2058C107.742 45.1837 107.753 45.163 107.766 45.145C107.78 45.127 107.797 45.112 107.817 45.101L108.55 44.6666C108.569 44.6552 108.59 44.6478 108.612 44.6448C108.634 44.6418 108.656 44.6433 108.678 44.6493C108.699 44.6552 108.719 44.6654 108.737 44.6793C108.755 44.6933 108.769 44.7106 108.78 44.7304C108.802 44.7704 108.808 44.8175 108.796 44.8618C108.784 44.906 108.757 44.9439 108.718 44.9673L107.985 45.4017C107.958 45.4177 107.928 45.426 107.897 45.426H107.9ZM109.856 44.2656C109.826 44.2658 109.797 44.2577 109.771 44.2423C109.745 44.2268 109.723 44.2044 109.708 44.1775C109.697 44.158 109.69 44.1365 109.687 44.1141C109.684 44.0917 109.686 44.069 109.692 44.0472C109.697 44.0255 109.707 44.0051 109.721 43.9873C109.734 43.9695 109.751 43.9547 109.77 43.9436L110.503 43.5062C110.542 43.484 110.588 43.4782 110.631 43.4901C110.674 43.502 110.711 43.5307 110.734 43.57C110.745 43.5897 110.752 43.6115 110.755 43.6341C110.758 43.6567 110.756 43.6797 110.751 43.7017C110.745 43.7237 110.735 43.7444 110.721 43.7624C110.708 43.7805 110.691 43.7956 110.672 43.8069L109.939 44.2413C109.913 44.2583 109.883 44.2668 109.853 44.2656H109.856ZM111.81 43.1052C111.78 43.1058 111.751 43.0982 111.726 43.0833C111.7 43.0683 111.679 43.0465 111.665 43.0202C111.642 42.9807 111.636 42.9336 111.647 42.8892C111.658 42.8447 111.686 42.8067 111.724 42.7833L112.457 42.3489C112.496 42.3259 112.543 42.3199 112.586 42.3321C112.63 42.3444 112.667 42.3739 112.689 42.4142C112.711 42.4545 112.717 42.5022 112.705 42.5469C112.693 42.5917 112.665 42.6297 112.625 42.6526L111.892 43.0901C111.866 43.103 111.836 43.1083 111.807 43.1052H111.81ZM113.763 41.9449C113.727 41.9441 113.691 41.9312 113.662 41.9079C113.634 41.8846 113.613 41.8524 113.604 41.816C113.594 41.7796 113.597 41.741 113.611 41.7062C113.624 41.6713 113.649 41.6421 113.68 41.6229L114.413 41.1885C114.433 41.1767 114.454 41.1689 114.476 41.1657C114.498 41.1625 114.52 41.164 114.542 41.1699C114.563 41.1759 114.584 41.1862 114.601 41.2004C114.619 41.2145 114.633 41.2322 114.644 41.2523C114.666 41.2923 114.671 41.3395 114.66 41.3837C114.648 41.4279 114.62 41.4658 114.582 41.4892L113.849 41.9236C113.822 41.9386 113.791 41.946 113.76 41.9449H113.763Z" fill="#455A64"/>
<path d="M115.713 40.7875C115.683 40.7871 115.654 40.7788 115.628 40.7633C115.602 40.7479 115.581 40.7259 115.566 40.6994C115.555 40.6797 115.547 40.6579 115.544 40.6353C115.542 40.6127 115.543 40.5897 115.549 40.5677C115.555 40.5457 115.564 40.5251 115.578 40.507C115.592 40.489 115.608 40.4738 115.628 40.4625L115.923 40.2893V39.9461C115.924 39.9004 115.942 39.8568 115.973 39.8245C116.005 39.7922 116.047 39.7737 116.092 39.7729C116.136 39.7729 116.179 39.7912 116.211 39.8237C116.242 39.8561 116.26 39.9002 116.26 39.9461V40.3896C116.26 40.4201 116.253 40.4501 116.238 40.4768C116.224 40.5034 116.203 40.5257 116.177 40.5415L115.802 40.7632C115.775 40.7792 115.745 40.7876 115.713 40.7875Z" fill="#455A64"/>
<path d="M116.09 38.5667C116.046 38.5667 116.003 38.5485 115.971 38.516C115.94 38.4835 115.922 38.4395 115.922 38.3936V37.4823C115.922 37.4363 115.94 37.3923 115.971 37.3598C116.003 37.3274 116.046 37.3091 116.09 37.3091C116.113 37.3087 116.135 37.3129 116.155 37.3215C116.176 37.33 116.195 37.3428 116.21 37.3589C116.226 37.3751 116.238 37.3943 116.247 37.4155C116.255 37.4367 116.259 37.4594 116.259 37.4823V38.3936C116.259 38.4164 116.255 38.4391 116.247 38.4603C116.238 38.4815 116.226 38.5007 116.21 38.5169C116.195 38.5331 116.176 38.5458 116.155 38.5544C116.135 38.5629 116.113 38.5671 116.09 38.5667ZM116.09 36.1032C116.046 36.1024 116.003 36.0839 115.972 36.0516C115.941 36.0193 115.923 35.9757 115.922 35.93V35.0187C115.922 34.9728 115.94 34.9288 115.971 34.8963C116.003 34.8638 116.046 34.8456 116.09 34.8456C116.113 34.8452 116.135 34.8494 116.155 34.8579C116.176 34.8665 116.195 34.8792 116.21 34.8954C116.226 34.9115 116.238 34.9308 116.247 34.952C116.255 34.9732 116.259 34.9959 116.259 35.0187V35.93C116.26 35.9538 116.257 35.9776 116.25 36C116.242 36.0225 116.23 36.043 116.214 36.0604C116.198 36.0778 116.179 36.0916 116.158 36.1011C116.136 36.1105 116.113 36.1154 116.09 36.1153V36.1032ZM116.09 33.6397C116.046 33.6389 116.003 33.6204 115.972 33.5881C115.941 33.5558 115.923 33.5122 115.922 33.4665V32.5552C115.922 32.509 115.94 32.4647 115.971 32.4317C116.003 32.3987 116.045 32.3798 116.09 32.379C116.113 32.379 116.135 32.3836 116.155 32.3925C116.176 32.4014 116.195 32.4144 116.211 32.4308C116.226 32.4472 116.239 32.4667 116.247 32.488C116.255 32.5094 116.259 32.5322 116.259 32.5552V33.4665C116.26 33.4902 116.257 33.5141 116.25 33.5365C116.242 33.5589 116.23 33.5795 116.214 33.5969C116.198 33.6143 116.179 33.6281 116.158 33.6376C116.136 33.647 116.113 33.6519 116.09 33.6518V33.6397ZM116.09 31.1761C116.046 31.1753 116.003 31.1569 115.972 31.1245C115.941 31.0922 115.923 31.0487 115.922 31.003V30.0917C115.923 30.046 115.941 30.0024 115.972 29.9701C116.003 29.9378 116.046 29.9193 116.09 29.9185C116.135 29.9185 116.178 29.9368 116.209 29.9693C116.241 30.0017 116.259 30.0458 116.259 30.0917V31.003C116.26 31.0267 116.257 31.0505 116.25 31.073C116.242 31.0954 116.23 31.116 116.214 31.1333C116.198 31.1507 116.179 31.1646 116.158 31.174C116.136 31.1835 116.113 31.1883 116.09 31.1883V31.1761ZM116.09 28.7096C116.046 28.7096 116.003 28.6913 115.971 28.6589C115.94 28.6264 115.922 28.5823 115.922 28.5364V27.6251C115.923 27.5794 115.941 27.5359 115.972 27.5036C116.003 27.4713 116.046 27.4528 116.09 27.452C116.135 27.452 116.178 27.4702 116.209 27.5027C116.241 27.5352 116.259 27.5792 116.259 27.6251V28.5364C116.261 28.5603 116.258 28.5843 116.25 28.6069C116.243 28.6296 116.231 28.6503 116.215 28.6678C116.199 28.6853 116.18 28.6991 116.158 28.7084C116.137 28.7177 116.114 28.7222 116.09 28.7217V28.7096ZM116.09 26.246C116.046 26.246 116.003 26.2278 115.971 26.1953C115.94 26.1629 115.922 26.1188 115.922 26.0729V25.1616C115.922 25.1157 115.94 25.0716 115.971 25.0392C116.003 25.0067 116.046 24.9885 116.09 24.9885C116.113 24.988 116.135 24.9922 116.155 25.0008C116.176 25.0094 116.195 25.0221 116.21 25.0382C116.226 25.0544 116.238 25.0737 116.247 25.0949C116.255 25.116 116.259 25.1387 116.259 25.1616V26.0729C116.261 26.0967 116.258 26.1208 116.25 26.1434C116.243 26.166 116.231 26.1868 116.215 26.2043C116.199 26.2217 116.18 26.2356 116.158 26.2449C116.137 26.2542 116.114 26.2587 116.09 26.2582V26.246ZM116.09 23.7825C116.046 23.7817 116.003 23.7632 115.972 23.7309C115.941 23.6986 115.923 23.655 115.922 23.6094V22.6981C115.922 22.6522 115.94 22.6081 115.971 22.5756C116.003 22.5432 116.046 22.5249 116.09 22.5249C116.113 22.5245 116.135 22.5287 116.155 22.5373C116.176 22.5458 116.195 22.5586 116.21 22.5747C116.226 22.5909 116.238 22.6101 116.247 22.6313C116.255 22.6525 116.259 22.6752 116.259 22.6981V23.6094C116.26 23.6331 116.257 23.6569 116.25 23.6794C116.242 23.7018 116.23 23.7223 116.214 23.7397C116.198 23.7571 116.179 23.771 116.158 23.7804C116.136 23.7899 116.113 23.7947 116.09 23.7947V23.7825Z" fill="#455A64"/>
<path d="M116.09 21.3314C116.046 21.3306 116.003 21.3121 115.972 21.2798C115.941 21.2475 115.923 21.2039 115.922 21.1583V20.7117C115.923 20.666 115.941 20.6225 115.972 20.5902C116.003 20.5578 116.046 20.5394 116.09 20.5386C116.135 20.5386 116.178 20.5568 116.209 20.5893C116.241 20.6218 116.259 20.6658 116.259 20.7117V21.1583C116.259 21.2042 116.241 21.2482 116.209 21.2807C116.178 21.3132 116.135 21.3314 116.09 21.3314Z" fill="#455A64"/>
</svg>
